<?xml version="1.0" encoding="UTF-8"?><svg xmlns="http://www.w3.org/2000/svg" xmlns:xlink="http://www.w3.org/1999/xlink" height="411.7" preserveAspectRatio="xMidYMid meet" version="1.0" viewBox="7.5 13.5 401.1 411.7" width="401.1" zoomAndPan="magnify"><defs><clipPath id="a"><path d="M 0 0 L 425.199219 0 L 425.199219 425.199219 L 0 425.199219 Z M 0 0"/></clipPath><clipPath id="b"><path d="M 16 365 L 297 365 L 297 425.199219 L 16 425.199219 Z M 16 365"/></clipPath><clipPath id="c"><path d="M 16 425 L 305 425 L 305 425.199219 L 16 425.199219 Z M 16 425"/></clipPath><clipPath id="d"><path d="M 16 365 L 305 365 L 305 425.199219 L 16 425.199219 Z M 16 365"/></clipPath></defs><g><g clip-path="url(#a)"/><g id="change1_1"><path d="M 392.121094 358.042969 L 382.855469 358.042969 L 382.855469 356.019531 L 380.328125 356.019531 L 380.328125 354.335938 L 371.902344 354.335938 L 371.902344 350.796875 L 367.523438 350.796875 L 367.523438 351.304688 L 366.511719 351.304688 L 366.511719 356.1875 L 357.414062 356.1875 L 357.414062 354.503906 L 354.550781 354.503906 L 354.550781 347.429688 L 346.96875 347.429688 L 346.96875 349.113281 L 343.601562 349.113281 L 343.601562 350.460938 L 342.253906 350.460938 L 342.253906 353.324219 L 334.332031 353.324219 L 334.332031 349.113281 L 331.976562 349.113281 L 331.976562 348.605469 L 329.445312 348.605469 L 329.445312 345.742188 L 331.976562 345.742188 L 331.976562 344.226562 L 328.605469 344.226562 L 328.605469 336.660156 L 327.371094 336.660156 L 327.371094 341.003906 L 324.890625 341.003906 L 324.890625 345.195312 L 322.015625 345.195312 L 322.015625 346.746094 L 312.566406 346.746094 L 312.566406 348.746094 L 311.425781 348.746094 L 311.425781 350.671875 L 310.101562 350.671875 L 310.101562 352.921875 L 308.925781 352.921875 L 308.925781 355.335938 L 308.925781 352.921875 L 310.101562 352.921875 L 310.101562 350.671875 L 311.425781 350.671875 L 311.425781 348.746094 L 312.566406 348.746094 L 312.566406 346.746094 L 322.015625 346.746094 L 322.015625 345.195312 L 324.890625 345.195312 L 324.890625 341.003906 L 327.371094 341.003906 L 327.371094 336.660156 L 335.546875 336.660156 L 335.546875 335.402344 L 336.6875 335.402344 L 336.6875 333.40625 L 346.71875 333.40625 L 346.71875 333.476562 L 348.242188 333.476562 L 348.242188 328.605469 L 357.398438 328.605469 L 357.398438 327.199219 L 358.679688 327.199219 L 358.679688 324.960938 L 369.914062 324.960938 L 369.207031 324.960938 L 369.207031 332.097656 L 371.902344 332.097656 L 371.902344 339.171875 L 370.21875 339.171875 L 370.21875 344.394531 L 379.820312 344.394531 L 379.820312 346.753906 L 382.6875 346.753906 L 382.6875 348.777344 L 379.820312 348.777344 L 379.820312 349.28125 L 388.414062 349.28125 L 388.414062 352.480469 L 394.480469 352.480469 L 394.480469 356.019531 L 392.121094 356.019531 L 392.121094 358.042969" fill="#95d5e2"/></g><g id="change2_2"><path d="M 400.789062 359.71875 L 343.96875 359.71875 L 343.96875 357.300781 L 345.144531 357.300781 L 345.144531 355.335938 L 308.925781 355.335938 L 308.925781 352.921875 L 310.101562 352.921875 L 310.101562 350.671875 L 311.425781 350.671875 L 311.425781 348.746094 L 312.566406 348.746094 L 312.566406 346.746094 L 322.015625 346.746094 L 322.015625 345.195312 L 324.890625 345.195312 L 324.890625 341.003906 L 327.371094 341.003906 L 327.371094 336.660156 L 328.605469 336.660156 L 328.605469 344.226562 L 331.976562 344.226562 L 331.976562 345.742188 L 329.445312 345.742188 L 329.445312 348.605469 L 331.976562 348.605469 L 331.976562 349.113281 L 334.332031 349.113281 L 334.332031 353.324219 L 342.253906 353.324219 L 342.253906 350.460938 L 343.601562 350.460938 L 343.601562 349.113281 L 346.96875 349.113281 L 346.96875 347.429688 L 354.550781 347.429688 L 354.550781 354.503906 L 357.414062 354.503906 L 357.414062 356.1875 L 366.511719 356.1875 L 366.511719 351.304688 L 367.523438 351.304688 L 367.523438 350.796875 L 371.902344 350.796875 L 371.902344 354.335938 L 380.328125 354.335938 L 380.328125 356.019531 L 382.855469 356.019531 L 382.855469 358.042969 L 392.121094 358.042969 L 392.121094 356.019531 L 394.480469 356.019531 L 394.480469 352.480469 L 388.414062 352.480469 L 388.414062 349.28125 L 379.820312 349.28125 L 379.820312 348.777344 L 382.6875 348.777344 L 382.6875 346.753906 L 379.820312 346.753906 L 379.820312 344.394531 L 370.21875 344.394531 L 370.21875 339.171875 L 371.902344 339.171875 L 371.902344 332.097656 L 369.207031 332.097656 L 369.207031 324.960938 L 369.914062 324.960938 L 369.914062 327.199219 L 371.195312 327.199219 L 371.195312 328.605469 L 372.671875 328.605469 L 372.671875 329.359375 L 372.675781 329.359375 L 372.675781 331.878906 L 373.992188 331.878906 L 373.992188 333.476562 L 375.453125 333.476562 L 375.453125 334.257812 L 379.613281 334.257812 L 379.613281 336.496094 L 380.894531 336.496094 L 380.894531 337.785156 L 381.761719 337.785156 L 381.761719 338.652344 L 382.371094 338.652344 L 382.371094 339.785156 L 382.902344 339.785156 L 382.902344 339.90625 L 387.15625 339.90625 L 387.15625 342.144531 L 388.4375 342.144531 L 388.4375 344.304688 L 389.917969 344.304688 L 389.917969 346.085938 L 390.414062 346.085938 L 390.414062 346.824219 L 391.234375 346.824219 L 391.234375 348.082031 L 391.558594 348.082031 L 391.558594 350.011719 L 392.878906 350.011719 L 392.878906 351.128906 L 397.148438 351.128906 L 397.148438 353.125 L 398.292969 353.125 L 398.292969 355.054688 L 399.613281 355.054688 L 399.613281 357.300781 L 400.789062 357.300781 L 400.789062 359.71875" fill="#7dcde2"/></g><g id="change1_2"><path d="M 289.453125 46.621094 L 280.1875 46.621094 L 280.1875 44.601562 L 277.660156 44.601562 L 277.660156 42.914062 L 269.238281 42.914062 L 269.238281 39.375 L 264.855469 39.375 L 264.855469 39.882812 L 263.847656 39.882812 L 263.847656 44.769531 L 254.746094 44.769531 L 254.746094 43.082031 L 251.886719 43.082031 L 251.886719 36.007812 L 244.304688 36.007812 L 244.304688 37.691406 L 240.933594 37.691406 L 240.933594 39.039062 L 239.585938 39.039062 L 239.585938 41.902344 L 231.667969 41.902344 L 231.667969 37.691406 L 229.308594 37.691406 L 229.308594 37.1875 L 226.78125 37.1875 L 226.78125 34.320312 L 229.308594 34.320312 L 229.308594 32.804688 L 225.9375 32.804688 L 225.9375 25.238281 L 224.703125 25.238281 L 224.703125 29.585938 L 222.222656 29.585938 L 222.222656 33.773438 L 219.351562 33.773438 L 219.351562 35.324219 L 209.898438 35.324219 L 209.898438 37.324219 L 208.757812 37.324219 L 208.757812 39.25 L 207.4375 39.25 L 207.4375 41.5 L 206.261719 41.5 L 206.261719 43.914062 L 206.261719 41.5 L 207.4375 41.5 L 207.4375 39.25 L 208.757812 39.25 L 208.757812 37.324219 L 209.898438 37.324219 L 209.898438 35.324219 L 219.351562 35.324219 L 219.351562 33.773438 L 222.222656 33.773438 L 222.222656 29.585938 L 224.703125 29.585938 L 224.703125 25.238281 L 232.878906 25.238281 L 232.878906 23.984375 L 234.019531 23.984375 L 234.019531 21.984375 L 244.050781 21.984375 L 244.050781 22.054688 L 245.574219 22.054688 L 245.574219 17.183594 L 254.734375 17.183594 L 254.734375 15.777344 L 256.015625 15.777344 L 256.015625 13.539062 L 267.25 13.539062 L 266.539062 13.539062 L 266.539062 20.675781 L 269.238281 20.675781 L 269.238281 27.753906 L 267.554688 27.753906 L 267.554688 32.976562 L 277.15625 32.976562 L 277.15625 35.332031 L 280.019531 35.332031 L 280.019531 37.355469 L 277.15625 37.355469 L 277.15625 37.859375 L 285.746094 37.859375 L 285.746094 41.0625 L 291.8125 41.0625 L 291.8125 44.601562 L 289.453125 44.601562 L 289.453125 46.621094" fill="#95d5e2"/></g><g id="change2_3"><path d="M 298.125 48.296875 L 241.300781 48.296875 L 241.300781 45.878906 L 242.480469 45.878906 L 242.480469 43.914062 L 206.261719 43.914062 L 206.261719 41.5 L 207.4375 41.5 L 207.4375 39.25 L 208.757812 39.25 L 208.757812 37.324219 L 209.898438 37.324219 L 209.898438 35.324219 L 219.351562 35.324219 L 219.351562 33.773438 L 222.222656 33.773438 L 222.222656 29.585938 L 224.703125 29.585938 L 224.703125 25.238281 L 225.9375 25.238281 L 225.9375 32.804688 L 229.308594 32.804688 L 229.308594 34.320312 L 226.78125 34.320312 L 226.78125 37.1875 L 229.308594 37.1875 L 229.308594 37.691406 L 231.667969 37.691406 L 231.667969 41.902344 L 239.585938 41.902344 L 239.585938 39.039062 L 240.933594 39.039062 L 240.933594 37.691406 L 244.304688 37.691406 L 244.304688 36.007812 L 251.886719 36.007812 L 251.886719 43.082031 L 254.746094 43.082031 L 254.746094 44.769531 L 263.847656 44.769531 L 263.847656 39.882812 L 264.855469 39.882812 L 264.855469 39.375 L 269.238281 39.375 L 269.238281 42.914062 L 277.660156 42.914062 L 277.660156 44.601562 L 280.1875 44.601562 L 280.1875 46.621094 L 289.453125 46.621094 L 289.453125 44.601562 L 291.8125 44.601562 L 291.8125 41.0625 L 285.746094 41.0625 L 285.746094 37.859375 L 277.15625 37.859375 L 277.15625 37.355469 L 280.019531 37.355469 L 280.019531 35.332031 L 277.15625 35.332031 L 277.15625 32.976562 L 267.554688 32.976562 L 267.554688 27.753906 L 269.238281 27.753906 L 269.238281 20.675781 L 266.539062 20.675781 L 266.539062 13.539062 L 267.25 13.539062 L 267.25 15.777344 L 268.527344 15.777344 L 268.527344 17.183594 L 270.007812 17.183594 L 270.007812 17.9375 L 270.011719 17.9375 L 270.011719 20.457031 L 271.328125 20.457031 L 271.328125 22.054688 L 272.789062 22.054688 L 272.789062 22.835938 L 276.945312 22.835938 L 276.945312 25.074219 L 278.226562 25.074219 L 278.226562 26.363281 L 279.09375 26.363281 L 279.09375 27.230469 L 279.703125 27.230469 L 279.703125 28.363281 L 280.234375 28.363281 L 280.234375 28.484375 L 284.492188 28.484375 L 284.492188 30.722656 L 285.769531 30.722656 L 285.769531 32.882812 L 287.25 32.882812 L 287.25 34.660156 L 287.75 34.660156 L 287.75 35.402344 L 288.570312 35.402344 L 288.570312 36.660156 L 288.890625 36.660156 L 288.890625 38.589844 L 290.210938 38.589844 L 290.210938 39.707031 L 294.484375 39.707031 L 294.484375 41.703125 L 295.628906 41.703125 L 295.628906 43.632812 L 296.945312 43.632812 L 296.945312 45.878906 L 298.125 45.878906 L 298.125 48.296875" fill="#7dcde2"/></g><g id="change1_3"><path d="M 65.121094 305.480469 L 56.023438 305.480469 L 56.023438 303.792969 L 53.160156 303.792969 L 53.160156 296.71875 L 45.578125 296.71875 L 45.578125 298.402344 L 42.210938 298.402344 L 42.210938 299.75 L 40.859375 299.75 L 40.859375 302.613281 L 32.945312 302.613281 L 32.945312 298.402344 L 30.585938 298.402344 L 30.585938 297.894531 L 28.054688 297.894531 L 28.054688 295.03125 L 30.585938 295.03125 L 30.585938 293.515625 L 27.214844 293.515625 L 27.214844 285.949219 L 25.980469 285.949219 L 25.980469 290.292969 L 23.496094 290.292969 L 23.496094 294.484375 L 20.625 294.484375 L 20.625 296.035156 L 11.175781 296.035156 L 11.175781 298.035156 L 10.03125 298.035156 L 10.03125 299.960938 L 8.710938 299.960938 L 8.710938 302.210938 L 7.535156 302.210938 L 7.535156 304.625 L 7.535156 302.210938 L 8.710938 302.210938 L 8.710938 299.960938 L 10.03125 299.960938 L 10.03125 298.035156 L 11.175781 298.035156 L 11.175781 296.035156 L 20.625 296.035156 L 20.625 294.484375 L 23.496094 294.484375 L 23.496094 290.292969 L 25.980469 290.292969 L 25.980469 285.949219 L 34.15625 285.949219 L 34.15625 284.691406 L 35.296875 284.691406 L 35.296875 282.695312 L 45.328125 282.695312 L 45.328125 282.765625 L 46.851562 282.765625 L 46.851562 277.894531 L 56.011719 277.894531 L 56.011719 276.488281 L 57.289062 276.488281 L 57.289062 274.25 L 68.527344 274.25 L 67.816406 274.25 L 67.816406 281.386719 L 70.511719 281.386719 L 70.511719 288.460938 L 68.828125 288.460938 L 68.828125 293.683594 L 78.429688 293.683594 L 78.429688 296.042969 L 81.292969 296.042969 L 81.292969 298.066406 L 78.429688 298.066406 L 78.429688 298.570312 L 87.023438 298.570312 L 87.023438 300.074219 L 81.230469 300.074219 L 81.230469 302.070312 L 80.089844 302.070312 L 80.089844 303.328125 L 71.914062 303.328125 L 71.914062 303.625 L 70.511719 303.625 L 70.511719 300.085938 L 66.132812 300.085938 L 66.132812 300.59375 L 65.121094 300.59375 L 65.121094 305.480469" fill="#95d5e2"/></g><g id="change2_4"><path d="M 69.429688 309.007812 L 42.578125 309.007812 L 42.578125 306.589844 L 43.753906 306.589844 L 43.753906 304.625 L 7.535156 304.625 L 7.535156 302.210938 L 8.710938 302.210938 L 8.710938 299.960938 L 10.03125 299.960938 L 10.03125 298.035156 L 11.175781 298.035156 L 11.175781 296.035156 L 20.625 296.035156 L 20.625 294.484375 L 23.496094 294.484375 L 23.496094 290.292969 L 25.980469 290.292969 L 25.980469 285.949219 L 27.214844 285.949219 L 27.214844 293.515625 L 30.585938 293.515625 L 30.585938 295.03125 L 28.054688 295.03125 L 28.054688 297.894531 L 30.585938 297.894531 L 30.585938 298.402344 L 32.945312 298.402344 L 32.945312 302.613281 L 40.859375 302.613281 L 40.859375 299.75 L 42.210938 299.75 L 42.210938 298.402344 L 45.578125 298.402344 L 45.578125 296.71875 L 53.160156 296.71875 L 53.160156 303.792969 L 56.023438 303.792969 L 56.023438 305.480469 L 65.121094 305.480469 L 65.121094 300.59375 L 66.132812 300.59375 L 66.132812 300.085938 L 70.511719 300.085938 L 70.511719 303.625 L 71.914062 303.625 L 71.914062 307.671875 L 69.429688 307.671875 L 69.429688 309.007812 M 91.488281 300.140625 L 91.261719 300.140625 L 91.261719 300.074219 L 87.023438 300.074219 L 87.023438 298.570312 L 78.429688 298.570312 L 78.429688 298.066406 L 81.292969 298.066406 L 81.292969 296.042969 L 78.429688 296.042969 L 78.429688 293.683594 L 68.828125 293.683594 L 68.828125 288.460938 L 70.511719 288.460938 L 70.511719 281.386719 L 67.816406 281.386719 L 67.816406 274.25 L 68.527344 274.25 L 68.527344 276.488281 L 69.804688 276.488281 L 69.804688 277.894531 L 71.28125 277.894531 L 71.28125 278.648438 L 71.285156 278.648438 L 71.285156 281.167969 L 72.601562 281.167969 L 72.601562 282.765625 L 74.0625 282.765625 L 74.0625 283.546875 L 78.222656 283.546875 L 78.222656 285.785156 L 79.5 285.785156 L 79.5 287.074219 L 80.367188 287.074219 L 80.367188 287.941406 L 80.980469 287.941406 L 80.980469 289.074219 L 81.511719 289.074219 L 81.511719 289.195312 L 85.769531 289.195312 L 85.769531 291.433594 L 87.046875 291.433594 L 87.046875 293.59375 L 88.527344 293.59375 L 88.527344 295.371094 L 89.023438 295.371094 L 89.023438 296.113281 L 89.84375 296.113281 L 89.84375 297.371094 L 90.164062 297.371094 L 90.164062 299.300781 L 91.488281 299.300781 L 91.488281 300.140625" fill="#7dcde2"/></g><g id="change1_4"><path d="M 136.660156 324.710938 L 127.394531 324.710938 L 127.394531 322.6875 L 124.867188 322.6875 L 124.867188 321.003906 L 116.445312 321.003906 L 116.445312 317.464844 L 112.0625 317.464844 L 112.0625 317.972656 L 111.054688 317.972656 L 111.054688 322.855469 L 101.957031 322.855469 L 101.957031 321.171875 L 99.09375 321.171875 L 99.09375 314.097656 L 91.511719 314.097656 L 91.511719 315.78125 L 88.140625 315.78125 L 88.140625 317.128906 L 86.792969 317.128906 L 86.792969 319.992188 L 78.875 319.992188 L 78.875 315.78125 L 76.515625 315.78125 L 76.515625 315.273438 L 73.988281 315.273438 L 73.988281 312.410156 L 76.515625 312.410156 L 76.515625 310.894531 L 73.148438 310.894531 L 73.148438 309.007812 L 99.402344 309.007812 L 99.402344 306.589844 L 98.222656 306.589844 L 98.222656 304.34375 L 96.902344 304.34375 L 96.902344 302.414062 L 95.761719 302.414062 L 95.761719 300.414062 L 91.488281 300.414062 L 91.488281 300.140625 L 92.785156 300.140625 L 92.785156 295.273438 L 101.941406 295.273438 L 101.941406 293.867188 L 103.222656 293.867188 L 103.222656 291.628906 L 114.457031 291.628906 L 113.75 291.628906 L 113.75 298.765625 L 116.445312 298.765625 L 116.445312 305.839844 L 114.761719 305.839844 L 114.761719 311.0625 L 124.363281 311.0625 L 124.363281 313.421875 L 127.226562 313.421875 L 127.226562 315.441406 L 124.363281 315.441406 L 124.363281 315.949219 L 132.957031 315.949219 L 132.957031 319.148438 L 139.023438 319.148438 L 139.023438 322.6875 L 136.660156 322.6875 L 136.660156 324.710938" fill="#95d5e2"/></g><g id="change3_1"><path d="M 90.730469 307.332031 L 81.464844 307.332031 L 81.464844 305.308594 L 78.9375 305.308594 L 78.9375 303.625 L 73.148438 303.625 L 73.148438 303.328125 L 71.914062 303.328125 L 71.914062 303.625 L 71.914062 303.328125 L 80.089844 303.328125 L 80.089844 302.070312 L 81.230469 302.070312 L 81.230469 300.074219 L 87.023438 300.074219 L 87.023438 301.769531 L 93.089844 301.769531 L 93.089844 305.308594 L 90.730469 305.308594 L 90.730469 307.332031" fill="#c3e7ef"/></g><g id="change4_1"><path d="M 99.402344 309.007812 L 73.148438 309.007812 L 73.148438 303.625 L 78.9375 303.625 L 78.9375 305.308594 L 81.464844 305.308594 L 81.464844 307.332031 L 90.730469 307.332031 L 90.730469 305.308594 L 93.089844 305.308594 L 93.089844 301.769531 L 87.023438 301.769531 L 87.023438 300.074219 L 91.261719 300.074219 L 91.261719 300.140625 L 91.488281 300.140625 L 91.488281 300.414062 L 95.761719 300.414062 L 95.761719 302.414062 L 96.902344 302.414062 L 96.902344 304.34375 L 98.222656 304.34375 L 98.222656 306.589844 L 99.402344 306.589844 L 99.402344 309.007812" fill="#b2e2ee"/></g><g id="change2_5"><path d="M 145.332031 326.386719 L 88.511719 326.386719 L 88.511719 323.96875 L 89.6875 323.96875 L 89.6875 322.003906 L 53.46875 322.003906 L 53.46875 319.589844 L 54.644531 319.589844 L 54.644531 317.339844 L 55.964844 317.339844 L 55.964844 315.410156 L 57.105469 315.410156 L 57.105469 313.414062 L 66.558594 313.414062 L 66.558594 311.863281 L 69.429688 311.863281 L 69.429688 309.007812 L 73.148438 309.007812 L 73.148438 310.894531 L 76.515625 310.894531 L 76.515625 312.410156 L 73.988281 312.410156 L 73.988281 315.273438 L 76.515625 315.273438 L 76.515625 315.78125 L 78.875 315.78125 L 78.875 319.992188 L 86.792969 319.992188 L 86.792969 317.128906 L 88.140625 317.128906 L 88.140625 315.78125 L 91.511719 315.78125 L 91.511719 314.097656 L 99.09375 314.097656 L 99.09375 321.171875 L 101.957031 321.171875 L 101.957031 322.855469 L 111.054688 322.855469 L 111.054688 317.972656 L 112.0625 317.972656 L 112.0625 317.464844 L 116.445312 317.464844 L 116.445312 321.003906 L 124.867188 321.003906 L 124.867188 322.6875 L 127.394531 322.6875 L 127.394531 324.710938 L 136.660156 324.710938 L 136.660156 322.6875 L 139.023438 322.6875 L 139.023438 319.148438 L 132.957031 319.148438 L 132.957031 315.949219 L 124.363281 315.949219 L 124.363281 315.441406 L 127.226562 315.441406 L 127.226562 313.421875 L 124.363281 313.421875 L 124.363281 311.0625 L 114.761719 311.0625 L 114.761719 305.839844 L 116.445312 305.839844 L 116.445312 298.765625 L 113.75 298.765625 L 113.75 291.628906 L 114.457031 291.628906 L 114.457031 293.867188 L 115.738281 293.867188 L 115.738281 295.273438 L 117.214844 295.273438 L 117.214844 296.027344 L 117.21875 296.027344 L 117.21875 298.546875 L 118.535156 298.546875 L 118.535156 300.140625 L 119.996094 300.140625 L 119.996094 300.921875 L 124.152344 300.921875 L 124.152344 303.160156 L 125.433594 303.160156 L 125.433594 304.453125 L 126.300781 304.453125 L 126.300781 305.320312 L 126.914062 305.320312 L 126.914062 306.453125 L 127.441406 306.453125 L 127.441406 306.574219 L 131.699219 306.574219 L 131.699219 308.8125 L 132.980469 308.8125 L 132.980469 310.972656 L 134.460938 310.972656 L 134.460938 312.75 L 134.957031 312.75 L 134.957031 313.488281 L 135.777344 313.488281 L 135.777344 314.75 L 136.097656 314.75 L 136.097656 316.679688 L 137.421875 316.679688 L 137.421875 317.796875 L 141.691406 317.796875 L 141.691406 319.792969 L 142.835938 319.792969 L 142.835938 321.722656 L 144.15625 321.722656 L 144.15625 323.96875 L 145.332031 323.96875 L 145.332031 326.386719" fill="#7dcde2"/></g><g id="change5_1"><path d="M 71.914062 303.625 L 73.148438 303.625 L 73.148438 303.328125 L 71.914062 303.328125 Z M 71.914062 303.625" fill="#b0e1ee"/></g><g id="change6_1"><path d="M 73.148438 309.007812 L 69.429688 309.007812 L 69.429688 307.671875 L 71.914062 307.671875 L 71.914062 303.625 L 73.148438 303.625 L 73.148438 309.007812" fill="#9cdbed"/></g><g id="change1_5"><path d="M 99.402344 155.964844 L 99.402344 150.402344 L 102.113281 150.402344 L 102.113281 145.226562 L 105.152344 145.226562 L 105.152344 140.785156 L 107.785156 140.785156 L 107.785156 136.183594 L 129.546875 136.183594 L 129.546875 132.613281 L 136.15625 132.613281 L 136.15625 122.964844 L 141.878906 122.964844 L 141.878906 112.957031 L 160.699219 112.957031 L 160.699219 110.066406 L 163.332031 110.066406 L 163.332031 105.464844 L 186.429688 105.464844 L 180.582031 105.464844 L 180.582031 119.214844 L 186.988281 119.214844 L 186.988281 132.699219 L 191.710938 132.699219 L 191.710938 133.035156 L 200.476562 133.035156 L 200.476562 140.117188 L 191.710938 140.117188 L 191.710938 143.488281 L 187.324219 143.488281 L 187.324219 149.558594 L 180.582031 149.558594 L 180.582031 152.929688 L 171.816406 152.929688 L 171.816406 147.195312 L 165.746094 147.195312 L 165.746094 142.8125 L 161.027344 142.8125 L 161.027344 146.1875 L 154.621094 146.1875 L 154.621094 148.546875 L 153.609375 148.546875 L 153.609375 153.605469 L 151.589844 153.605469 L 151.589844 152.59375 L 146.53125 152.59375 L 146.53125 148.546875 L 144.171875 148.546875 L 144.171875 146.1875 L 143.15625 146.1875 L 143.15625 138.09375 L 145.855469 138.09375 L 145.855469 135.214844 L 142.3125 135.214844 L 142.3125 134.765625 L 139.84375 134.765625 L 139.84375 132.292969 L 136.15625 132.292969 L 136.15625 132.613281 L 132.371094 132.613281 L 132.371094 134.722656 L 134.054688 134.722656 L 134.054688 147.195312 L 116.1875 147.195312 L 116.1875 140.117188 L 107.785156 140.117188 L 107.785156 140.785156 L 105.152344 140.785156 L 105.152344 145.226562 L 102.113281 145.226562 L 102.113281 150.402344 L 99.402344 150.402344 L 99.402344 155.964844" fill="#95d5e2"/></g><g id="change2_6"><path d="M 230.25 155.964844 L 99.402344 155.964844 L 99.402344 150.402344 L 102.113281 150.402344 L 102.113281 145.226562 L 105.152344 145.226562 L 105.152344 140.785156 L 107.785156 140.785156 L 107.785156 140.117188 L 116.1875 140.117188 L 116.1875 147.195312 L 134.054688 147.195312 L 134.054688 134.722656 L 132.371094 134.722656 L 132.371094 132.613281 L 136.15625 132.613281 L 136.15625 132.292969 L 139.84375 132.292969 L 139.84375 134.765625 L 142.3125 134.765625 L 142.3125 135.214844 L 145.855469 135.214844 L 145.855469 138.09375 L 143.15625 138.09375 L 143.15625 146.1875 L 144.171875 146.1875 L 144.171875 148.546875 L 146.53125 148.546875 L 146.53125 152.59375 L 151.589844 152.59375 L 151.589844 153.605469 L 153.609375 153.605469 L 153.609375 148.546875 L 154.621094 148.546875 L 154.621094 146.1875 L 161.027344 146.1875 L 161.027344 142.8125 L 165.746094 142.8125 L 165.746094 147.195312 L 171.816406 147.195312 L 171.816406 152.929688 L 180.582031 152.929688 L 180.582031 149.558594 L 187.324219 149.558594 L 187.324219 143.488281 L 191.710938 143.488281 L 191.710938 140.117188 L 200.476562 140.117188 L 200.476562 133.035156 L 191.710938 133.035156 L 191.710938 132.699219 L 186.988281 132.699219 L 186.988281 119.214844 L 180.582031 119.214844 L 180.582031 105.464844 L 186.429688 105.464844 L 186.429688 110.066406 L 189.058594 110.066406 L 189.058594 112.957031 L 192.09375 112.957031 L 192.09375 114.503906 L 192.097656 114.503906 L 192.097656 119.683594 L 194.8125 119.683594 L 194.8125 122.964844 L 197.8125 122.964844 L 197.8125 124.570312 L 206.359375 124.570312 L 206.359375 129.171875 L 208.988281 129.171875 L 208.988281 133.609375 L 212.027344 133.609375 L 212.027344 136.183594 L 221.867188 136.183594 L 221.867188 140.785156 L 224.496094 140.785156 L 224.496094 145.226562 L 227.539062 145.226562 L 227.539062 150.402344 L 230.25 150.402344 L 230.25 155.964844" fill="#7dcde2"/></g><g id="change7_1"><path d="M 346.105469 81.628906 L 346.105469 73.722656 L 341.464844 73.722656 L 341.464844 66.945312 L 337.449219 66.945312 L 337.449219 59.917969 L 316.054688 59.917969 L 316.054688 58.347656 L 313.703125 58.347656 L 313.703125 53.859375 L 311.066406 53.859375 L 311.066406 50.011719 L 308.785156 50.011719 L 308.785156 46.019531 L 300.265625 46.019531 L 300.265625 43.246094 L 297.914062 43.246094 L 297.914062 38.757812 L 295.277344 38.757812 L 295.277344 34.90625 L 292.996094 34.90625 L 292.996094 30.917969 L 272.96875 30.917969 L 272.96875 34.90625 L 270.6875 34.90625 L 270.6875 38.757812 L 268.050781 38.757812 L 268.050781 43.101562 L 257.796875 43.101562 L 257.796875 50.128906 L 253.777344 50.128906 L 253.777344 56.90625 L 249.136719 56.90625 L 249.136719 59.917969 L 227.359375 59.917969 L 227.359375 66.945312 L 223.347656 66.945312 L 223.347656 73.722656 L 218.699219 73.722656 L 218.699219 75.019531 L 218.113281 75.019531 L 218.113281 74.234375 L 216.9375 74.234375 L 216.9375 71.988281 L 215.617188 71.988281 L 215.617188 70.066406 L 214.480469 70.066406 L 214.480469 68.070312 L 210.21875 68.070312 L 210.21875 66.683594 L 209.042969 66.683594 L 209.042969 64.4375 L 207.726562 64.4375 L 207.726562 62.515625 L 206.585938 62.515625 L 206.585938 60.519531 L 196.570312 60.519531 L 196.570312 62.515625 L 195.429688 62.515625 L 195.429688 64.4375 L 194.109375 64.4375 L 194.109375 66.613281 L 188.980469 66.613281 L 188.980469 70.125 L 186.976562 70.125 L 186.976562 73.515625 L 184.652344 73.515625 L 184.652344 75.019531 L 173.765625 75.019531 L 173.765625 78.535156 L 171.972656 78.535156 L 171.972656 76.421875 L 168.09375 76.421875 L 168.09375 70.757812 L 164.734375 70.757812 L 164.734375 64.886719 L 146.859375 64.886719 L 146.859375 63.574219 L 144.894531 63.574219 L 144.894531 59.820312 L 142.691406 59.820312 L 142.691406 56.605469 L 140.785156 56.605469 L 140.785156 53.269531 L 133.667969 53.269531 L 133.667969 50.953125 L 131.703125 50.953125 L 131.703125 47.203125 L 129.5 47.203125 L 129.5 43.984375 L 127.59375 43.984375 L 127.59375 40.652344 L 110.859375 40.652344 L 110.859375 43.984375 L 108.953125 43.984375 L 108.953125 47.203125 L 106.75 47.203125 L 106.75 50.832031 L 98.179688 50.832031 L 98.179688 56.703125 L 94.824219 56.703125 L 94.824219 62.367188 L 90.945312 62.367188 L 90.945312 64.886719 L 72.75 64.886719 L 72.75 70.757812 L 69.394531 70.757812 L 69.394531 76.421875 L 65.515625 76.421875 L 65.515625 83.027344 L 62.050781 83.027344 L 62.050781 90.121094 L 350.246094 90.121094 L 350.246094 81.628906 L 346.105469 81.628906" fill="#e9e9e9"/></g><g id="change7_2"><path d="M 256.136719 50.128906 L 253.777344 50.128906 L 253.777344 50.539062 L 256.136719 50.539062 L 256.136719 50.128906" fill="#e9e9e9"/></g><g id="change8_1"><path d="M 346.105469 81.628906 L 346.105469 73.722656 L 341.464844 73.722656 L 341.464844 66.945312 L 337.449219 66.945312 L 337.449219 59.917969 L 316.054688 59.917969 L 316.054688 58.347656 L 313.703125 58.347656 L 313.703125 53.859375 L 311.066406 53.859375 L 311.066406 50.011719 L 308.785156 50.011719 L 308.785156 46.019531 L 300.265625 46.019531 L 300.265625 43.246094 L 297.914062 43.246094 L 297.914062 38.757812 L 295.277344 38.757812 L 295.277344 34.90625 L 292.996094 34.90625 L 292.996094 30.917969 L 272.96875 30.917969 L 272.96875 34.90625 L 270.6875 34.90625 L 270.6875 38.757812 L 268.050781 38.757812 L 268.050781 43.101562 L 257.796875 43.101562 L 257.796875 45.046875 L 267.464844 45.046875 L 267.464844 46.417969 L 271.238281 46.417969 L 271.238281 42.300781 L 283.9375 42.300781 L 283.9375 45.390625 L 292.519531 45.390625 L 292.519531 49.507812 L 298.355469 49.507812 L 298.355469 60.492188 L 292.519531 60.492188 L 292.519531 62.207031 L 288.742188 62.207031 L 288.742188 67.011719 L 307.277344 67.011719 L 307.277344 62.894531 L 323.066406 62.894531 L 323.066406 68.386719 L 328.558594 68.386719 L 328.558594 69.070312 L 331.644531 69.070312 L 331.644531 72.503906 L 336.105469 72.503906 L 336.105469 77.308594 L 337.480469 77.308594 L 337.480469 82.457031 L 342.628906 82.457031 L 342.628906 87.605469 L 332.332031 87.605469 L 332.332031 87.261719 L 325.8125 87.261719 L 325.8125 83.484375 L 319.976562 83.484375 L 319.976562 81.429688 L 315.855469 81.429688 L 315.855469 84.515625 L 308.992188 84.515625 L 308.992188 85.890625 L 282.566406 85.890625 L 282.566406 83.484375 L 278.105469 83.484375 L 278.105469 79.710938 L 271.925781 79.710938 L 271.925781 70.789062 L 264.03125 70.789062 L 264.03125 66.324219 L 255.449219 66.324219 L 255.449219 73.878906 L 249.617188 73.878906 L 249.617188 82.113281 L 246.871094 82.113281 L 246.871094 87.261719 L 245.152344 87.261719 L 245.152344 88.980469 L 240.007812 88.980469 L 240.007812 83.828125 L 232.800781 83.828125 L 232.800781 82.457031 L 228.335938 82.457031 L 228.335938 79.023438 L 224.5625 79.023438 L 224.5625 73.878906 L 218.726562 73.878906 L 218.726562 73.722656 L 218.699219 73.722656 L 218.699219 75.019531 L 218.113281 75.019531 L 218.113281 74.234375 L 216.9375 74.234375 L 216.9375 71.988281 L 215.617188 71.988281 L 215.617188 70.066406 L 214.480469 70.066406 L 214.480469 68.070312 L 210.21875 68.070312 L 210.21875 66.683594 L 209.042969 66.683594 L 209.042969 64.4375 L 207.726562 64.4375 L 207.726562 62.515625 L 206.585938 62.515625 L 206.585938 60.519531 L 196.570312 60.519531 L 196.570312 62.515625 L 195.429688 62.515625 L 195.429688 62.550781 L 199.164062 62.550781 L 199.164062 64.609375 L 203.28125 64.609375 L 203.28125 69.070312 L 206.714844 69.070312 L 206.714844 73.191406 L 207.058594 73.191406 L 207.058594 81.085938 L 203.96875 81.085938 L 203.96875 84.171875 L 199.851562 84.171875 L 199.851562 84.859375 L 192.644531 84.859375 L 192.644531 81.429688 L 191.613281 81.429688 L 191.613281 77.308594 L 187.839844 77.308594 L 187.839844 79.023438 L 183.71875 79.023438 L 183.71875 80.054688 L 176.855469 80.054688 L 176.855469 82.113281 L 167.929688 82.113281 L 167.929688 78.683594 L 161.410156 78.683594 L 161.410156 73.53125 L 157.632812 73.53125 L 157.632812 68.042969 L 147.339844 68.042969 L 147.339844 64.886719 L 146.859375 64.886719 L 146.859375 63.574219 L 144.894531 63.574219 L 144.894531 59.820312 L 142.691406 59.820312 L 142.691406 56.605469 L 140.785156 56.605469 L 140.785156 53.269531 L 133.667969 53.269531 L 133.667969 50.953125 L 131.703125 50.953125 L 131.703125 47.203125 L 129.5 47.203125 L 129.5 43.984375 L 127.59375 43.984375 L 127.59375 40.652344 L 117.132812 40.652344 L 117.132812 49.851562 L 121.597656 49.851562 L 121.597656 57.746094 L 127.089844 57.746094 L 127.089844 61.179688 L 133.265625 61.179688 L 133.265625 71.472656 L 127.089844 71.472656 L 127.089844 76.621094 L 115.761719 76.621094 L 115.761719 78.683594 L 107.179688 78.683594 L 107.179688 79.367188 L 96.882812 79.367188 L 96.882812 82.457031 L 87.960938 82.457031 L 87.960938 79.367188 L 82.8125 79.367188 L 82.8125 78.683594 L 77.664062 78.683594 L 77.664062 76.621094 L 72.515625 76.621094 L 72.515625 74.90625 L 69.394531 74.90625 L 69.394531 76.421875 L 65.515625 76.421875 L 65.515625 83.027344 L 62.050781 83.027344 L 62.050781 90.121094 L 350.246094 90.121094 L 350.246094 81.628906 L 346.105469 81.628906" fill="#badae6"/></g><g clip-path="url(#b)" id="change1_7"><path d="M 16.050781 425.195312 L 16.050781 418.101562 L 19.515625 418.101562 L 19.515625 411.496094 L 23.394531 411.496094 L 23.394531 405.835938 L 26.75 405.835938 L 26.75 399.960938 L 44.945312 399.960938 L 44.945312 397.445312 L 48.824219 397.445312 L 48.824219 391.78125 L 52.179688 391.78125 L 52.179688 385.910156 L 60.75 385.910156 L 60.75 382.277344 L 62.953125 382.277344 L 62.953125 379.0625 L 64.859375 379.0625 L 64.859375 375.726562 L 81.59375 375.726562 L 71.132812 375.726562 L 71.132812 384.929688 L 75.59375 384.929688 L 75.59375 392.820312 L 81.089844 392.820312 L 81.089844 396.253906 L 87.265625 396.253906 L 87.265625 406.550781 L 81.089844 406.550781 L 81.089844 411.699219 L 69.761719 411.699219 L 69.761719 413.757812 L 61.179688 413.757812 L 61.179688 414.445312 L 50.882812 414.445312 L 50.882812 417.535156 L 41.960938 417.535156 L 41.960938 414.445312 L 36.8125 414.445312 L 36.8125 413.757812 L 31.664062 413.757812 L 31.664062 411.699219 L 26.515625 411.699219 L 26.515625 409.984375 L 23.394531 409.984375 L 23.394531 411.496094 L 19.515625 411.496094 L 19.515625 418.101562 L 16.050781 418.101562 L 16.050781 425.195312 M 199.152344 424.054688 L 194.007812 424.054688 L 194.007812 418.90625 L 186.800781 418.90625 L 186.800781 417.535156 L 182.335938 417.535156 L 182.335938 414.101562 L 178.5625 414.101562 L 178.5625 408.953125 L 172.726562 408.953125 L 172.726562 408.800781 L 172.699219 408.800781 L 172.699219 410.097656 L 172.113281 410.097656 L 172.699219 410.097656 L 172.699219 408.800781 L 177.347656 408.800781 L 177.347656 402.023438 L 181.359375 402.023438 L 181.359375 394.996094 L 203.136719 394.996094 L 203.136719 391.984375 L 207.777344 391.984375 L 207.777344 385.207031 L 211.796875 385.207031 L 211.796875 378.179688 L 222.050781 378.179688 L 222.050781 373.835938 L 224.6875 373.835938 L 224.6875 369.984375 L 226.96875 369.984375 L 226.96875 365.992188 L 246.996094 365.992188 L 226.96875 365.992188 L 226.96875 369.984375 L 224.6875 369.984375 L 224.6875 373.835938 L 222.050781 373.835938 L 222.050781 378.179688 L 211.796875 378.179688 L 211.796875 380.121094 L 221.464844 380.121094 L 221.464844 381.496094 L 225.238281 381.496094 L 225.238281 377.378906 L 237.9375 377.378906 L 237.9375 380.464844 L 246.519531 380.464844 L 246.519531 384.585938 L 252.355469 384.585938 L 252.355469 395.566406 L 246.519531 395.566406 L 246.519531 397.285156 L 242.742188 397.285156 L 242.742188 402.089844 L 261.277344 402.089844 L 261.277344 397.972656 L 277.066406 397.972656 L 277.066406 403.460938 L 282.558594 403.460938 L 282.558594 404.148438 L 285.644531 404.148438 L 285.644531 407.582031 L 290.105469 407.582031 L 290.105469 412.386719 L 291.480469 412.386719 L 291.480469 417.535156 L 296.628906 417.535156 L 296.628906 422.683594 L 286.332031 422.683594 L 286.332031 422.339844 L 279.8125 422.339844 L 279.8125 418.5625 L 273.976562 418.5625 L 273.976562 416.503906 L 269.855469 416.503906 L 269.855469 419.59375 L 262.992188 419.59375 L 262.992188 420.964844 L 236.566406 420.964844 L 236.566406 418.5625 L 232.101562 418.5625 L 232.101562 414.789062 L 225.925781 414.789062 L 225.925781 405.863281 L 218.03125 405.863281 L 218.03125 401.402344 L 209.449219 401.402344 L 209.449219 408.953125 L 203.617188 408.953125 L 203.617188 417.191406 L 200.871094 417.191406 L 200.871094 422.339844 L 199.152344 422.339844 L 199.152344 424.054688 M 207.777344 385.207031 L 207.777344 385.613281 L 210.136719 385.613281 L 210.136719 385.207031 L 207.777344 385.207031 M 153.851562 419.9375 L 146.644531 419.9375 L 146.644531 416.503906 L 145.613281 416.503906 L 145.613281 412.386719 L 141.839844 412.386719 L 141.839844 414.101562 L 137.71875 414.101562 L 137.71875 415.132812 L 130.855469 415.132812 L 130.855469 417.191406 L 121.929688 417.191406 L 121.929688 413.757812 L 115.410156 413.757812 L 115.410156 408.609375 L 111.632812 408.609375 L 111.632812 403.117188 L 101.339844 403.117188 L 101.339844 399.960938 L 100.859375 399.960938 L 118.734375 399.960938 L 118.734375 405.835938 L 122.09375 405.835938 L 122.09375 411.496094 L 125.972656 411.496094 L 125.972656 413.609375 L 127.765625 413.609375 L 127.765625 410.097656 L 138.652344 410.097656 L 138.652344 408.589844 L 140.976562 408.589844 L 140.976562 405.203125 L 142.980469 405.203125 L 142.980469 401.6875 L 148.109375 401.6875 L 148.109375 399.515625 L 149.429688 399.515625 L 149.429688 397.59375 L 150.570312 397.59375 L 150.570312 395.597656 L 160.585938 395.597656 L 150.570312 395.597656 L 150.570312 397.59375 L 149.429688 397.59375 L 149.429688 397.628906 L 153.164062 397.628906 L 153.164062 399.6875 L 157.28125 399.6875 L 157.28125 404.148438 L 160.714844 404.148438 L 160.714844 408.265625 L 161.058594 408.265625 L 161.058594 416.160156 L 157.96875 416.160156 L 157.96875 419.25 L 153.851562 419.25 L 153.851562 419.9375" fill="#95d5e2"/></g><g id="change1_6"><path d="M 207.777344 385.613281 L 210.136719 385.613281 L 210.136719 385.207031 L 207.777344 385.207031 Z M 207.777344 385.613281" fill="#95d5e2"/></g><g clip-path="url(#c)" id="change9_1"><path d="M 16.050781 425.199219 L 304.246094 425.199219 L 304.246094 425.195312 L 16.050781 425.195312 Z M 16.050781 425.199219" fill="#bbdae6"/></g><g clip-path="url(#d)" id="change2_1"><path d="M 304.246094 425.195312 L 16.050781 425.195312 L 16.050781 418.101562 L 19.515625 418.101562 L 19.515625 411.496094 L 23.394531 411.496094 L 23.394531 409.984375 L 26.515625 409.984375 L 26.515625 411.699219 L 31.664062 411.699219 L 31.664062 413.757812 L 36.8125 413.757812 L 36.8125 414.445312 L 41.960938 414.445312 L 41.960938 417.535156 L 50.882812 417.535156 L 50.882812 414.445312 L 61.179688 414.445312 L 61.179688 413.757812 L 69.761719 413.757812 L 69.761719 411.699219 L 81.089844 411.699219 L 81.089844 406.550781 L 87.265625 406.550781 L 87.265625 396.253906 L 81.089844 396.253906 L 81.089844 392.820312 L 75.59375 392.820312 L 75.59375 384.929688 L 71.132812 384.929688 L 71.132812 375.726562 L 81.59375 375.726562 L 81.59375 379.0625 L 83.5 379.0625 L 83.5 382.277344 L 85.703125 382.277344 L 85.703125 386.03125 L 87.667969 386.03125 L 87.667969 388.347656 L 94.785156 388.347656 L 94.785156 391.683594 L 96.691406 391.683594 L 96.691406 394.898438 L 98.894531 394.898438 L 98.894531 398.648438 L 100.859375 398.648438 L 100.859375 399.960938 L 101.339844 399.960938 L 101.339844 403.117188 L 111.632812 403.117188 L 111.632812 408.609375 L 115.410156 408.609375 L 115.410156 413.757812 L 121.929688 413.757812 L 121.929688 417.191406 L 130.855469 417.191406 L 130.855469 415.132812 L 137.71875 415.132812 L 137.71875 414.101562 L 141.839844 414.101562 L 141.839844 412.386719 L 145.613281 412.386719 L 145.613281 416.503906 L 146.644531 416.503906 L 146.644531 419.9375 L 153.851562 419.9375 L 153.851562 419.25 L 157.96875 419.25 L 157.96875 416.160156 L 161.058594 416.160156 L 161.058594 408.265625 L 160.714844 408.265625 L 160.714844 404.148438 L 157.28125 404.148438 L 157.28125 399.6875 L 153.164062 399.6875 L 153.164062 397.628906 L 149.429688 397.628906 L 149.429688 397.59375 L 150.570312 397.59375 L 150.570312 395.597656 L 160.585938 395.597656 L 160.585938 397.59375 L 161.726562 397.59375 L 161.726562 399.515625 L 163.042969 399.515625 L 163.042969 401.761719 L 164.21875 401.761719 L 164.21875 403.148438 L 168.476562 403.148438 L 168.476562 405.140625 L 169.617188 405.140625 L 169.617188 407.066406 L 170.9375 407.066406 L 170.9375 409.3125 L 172.113281 409.3125 L 172.113281 410.097656 L 172.699219 410.097656 L 172.699219 408.800781 L 172.726562 408.800781 L 172.726562 408.953125 L 178.5625 408.953125 L 178.5625 414.101562 L 182.335938 414.101562 L 182.335938 417.535156 L 186.800781 417.535156 L 186.800781 418.90625 L 194.007812 418.90625 L 194.007812 424.054688 L 199.152344 424.054688 L 199.152344 422.339844 L 200.871094 422.339844 L 200.871094 417.191406 L 203.617188 417.191406 L 203.617188 408.953125 L 209.449219 408.953125 L 209.449219 401.402344 L 218.03125 401.402344 L 218.03125 405.863281 L 225.925781 405.863281 L 225.925781 414.789062 L 232.101562 414.789062 L 232.101562 418.5625 L 236.566406 418.5625 L 236.566406 420.964844 L 262.992188 420.964844 L 262.992188 419.59375 L 269.855469 419.59375 L 269.855469 416.503906 L 273.976562 416.503906 L 273.976562 418.5625 L 279.8125 418.5625 L 279.8125 422.339844 L 286.332031 422.339844 L 286.332031 422.683594 L 296.628906 422.683594 L 296.628906 417.535156 L 291.480469 417.535156 L 291.480469 412.386719 L 290.105469 412.386719 L 290.105469 407.582031 L 285.644531 407.582031 L 285.644531 404.148438 L 282.558594 404.148438 L 282.558594 403.460938 L 277.066406 403.460938 L 277.066406 397.972656 L 261.277344 397.972656 L 261.277344 402.089844 L 242.742188 402.089844 L 242.742188 397.285156 L 246.519531 397.285156 L 246.519531 395.566406 L 252.355469 395.566406 L 252.355469 384.585938 L 246.519531 384.585938 L 246.519531 380.464844 L 237.9375 380.464844 L 237.9375 377.378906 L 225.238281 377.378906 L 225.238281 381.496094 L 221.464844 381.496094 L 221.464844 380.121094 L 211.796875 380.121094 L 211.796875 378.179688 L 222.050781 378.179688 L 222.050781 373.835938 L 224.6875 373.835938 L 224.6875 369.984375 L 226.96875 369.984375 L 226.96875 365.992188 L 246.996094 365.992188 L 246.996094 369.984375 L 249.277344 369.984375 L 249.277344 373.835938 L 251.914062 373.835938 L 251.914062 378.324219 L 254.265625 378.324219 L 254.265625 381.097656 L 262.785156 381.097656 L 262.785156 385.085938 L 265.066406 385.085938 L 265.066406 388.9375 L 267.703125 388.9375 L 267.703125 393.425781 L 270.054688 393.425781 L 270.054688 394.996094 L 291.449219 394.996094 L 291.449219 402.023438 L 295.464844 402.023438 L 295.464844 408.800781 L 300.105469 408.800781 L 300.105469 416.707031 L 304.246094 416.707031 L 304.246094 425.195312" fill="#7dcde2"/></g><g id="change7_3"><path d="M 406.285156 199.359375 L 406.285156 194.777344 L 403.59375 194.777344 L 403.59375 190.851562 L 401.269531 190.851562 L 401.269531 186.78125 L 392.5625 186.78125 L 392.5625 184.503906 L 389.871094 184.503906 L 389.871094 180.578125 L 389.222656 180.578125 L 389.222656 178.011719 L 387.546875 178.011719 L 387.546875 176.507812 L 386.53125 176.507812 L 386.53125 172.878906 L 383.519531 172.878906 L 383.519531 168.480469 L 380.910156 168.480469 L 380.910156 163.917969 L 372.238281 163.917969 L 372.238281 163.675781 L 371.160156 163.675781 L 371.160156 161.367188 L 369.914062 161.367188 L 369.914062 159.601562 L 368.144531 159.601562 L 368.144531 156.972656 L 365.539062 156.972656 L 365.539062 152.410156 L 357.066406 152.410156 L 357.066406 150.816406 L 354.09375 150.816406 L 354.09375 147.5625 L 351.40625 147.5625 L 351.40625 142.433594 L 351.398438 142.433594 L 351.398438 140.898438 L 348.394531 140.898438 L 348.394531 138.035156 L 345.785156 138.035156 L 345.785156 133.472656 L 322.894531 133.472656 L 322.894531 138.035156 L 320.289062 138.035156 L 320.289062 140.898438 L 301.632812 140.898438 L 301.632812 150.816406 L 298.523438 150.816406 L 298.523438 150.679688 L 278.09375 150.679688 L 278.09375 154.75 L 275.765625 154.75 L 275.765625 157.308594 L 259.109375 157.308594 L 259.109375 166.160156 L 254.054688 166.160156 L 254.054688 174.695312 L 248.203125 174.695312 L 248.203125 177.855469 L 228.949219 177.855469 L 228.949219 181.925781 L 226.621094 181.925781 L 226.621094 185.855469 L 223.933594 185.855469 L 223.933594 190.433594 L 221.53125 190.433594 L 221.53125 195.355469 L 295.320312 195.355469 L 295.320312 199.359375 L 292.925781 199.359375 L 292.925781 204.277344 L 408.683594 204.277344 L 408.683594 199.359375 L 406.285156 199.359375" fill="#e9e9e9"/></g><g id="change8_2"><path d="M 406.285156 199.359375 L 406.285156 194.777344 L 403.59375 194.777344 L 403.59375 190.851562 L 401.269531 190.851562 L 401.269531 186.78125 L 392.5625 186.78125 L 392.5625 184.503906 L 389.871094 184.503906 L 389.871094 180.578125 L 389.222656 180.578125 L 389.222656 178.011719 L 387.546875 178.011719 L 387.546875 176.507812 L 386.53125 176.507812 L 386.53125 172.878906 L 383.519531 172.878906 L 383.519531 168.480469 L 380.910156 168.480469 L 380.910156 163.917969 L 372.238281 163.917969 L 372.238281 163.675781 L 371.160156 163.675781 L 371.160156 161.367188 L 369.914062 161.367188 L 369.914062 159.601562 L 368.144531 159.601562 L 368.144531 156.972656 L 365.539062 156.972656 L 365.539062 152.410156 L 357.066406 152.410156 L 357.066406 150.816406 L 354.09375 150.816406 L 354.09375 147.5625 L 351.40625 147.5625 L 351.40625 142.433594 L 351.398438 142.433594 L 351.398438 140.898438 L 348.394531 140.898438 L 348.394531 138.035156 L 345.785156 138.035156 L 345.785156 133.472656 L 344.34375 133.472656 L 344.34375 148.011719 L 349.835938 148.011719 L 349.835938 162.425781 L 346.402344 162.425781 L 346.402344 173.066406 L 365.964844 173.066406 L 365.964844 177.871094 L 371.800781 177.871094 L 371.800781 181.988281 L 365.964844 181.988281 L 365.964844 183.019531 L 383.46875 183.019531 L 383.46875 189.539062 L 395.824219 189.539062 L 395.824219 196.75 L 391.019531 196.75 L 391.019531 200.867188 L 372.144531 200.867188 L 372.144531 196.75 L 366.996094 196.75 L 366.996094 193.316406 L 349.835938 193.316406 L 349.835938 186.109375 L 340.910156 186.109375 L 340.910156 187.140625 L 338.851562 187.140625 L 338.851562 197.09375 L 320.316406 197.09375 L 320.316406 193.660156 L 314.480469 193.660156 L 314.480469 179.246094 L 299.035156 179.246094 L 299.035156 182.675781 L 292.175781 182.675781 L 292.175781 185.421875 L 289.429688 185.421875 L 289.429688 191.257812 L 273.296875 191.257812 L 273.296875 182.675781 L 268.488281 182.675781 L 268.488281 181.648438 L 263.34375 181.648438 L 263.34375 175.8125 L 268.488281 175.8125 L 268.488281 172.722656 L 261.628906 172.722656 L 261.628906 157.308594 L 259.109375 157.308594 L 259.109375 166.160156 L 254.054688 166.160156 L 254.054688 174.695312 L 248.203125 174.695312 L 248.203125 177.855469 L 228.949219 177.855469 L 228.949219 181.925781 L 226.621094 181.925781 L 226.621094 185.855469 L 223.933594 185.855469 L 223.933594 190.433594 L 221.53125 190.433594 L 221.53125 195.355469 L 295.320312 195.355469 L 295.320312 199.359375 L 292.925781 199.359375 L 292.925781 204.277344 L 408.683594 204.277344 L 408.683594 199.359375 L 406.285156 199.359375" fill="#badae6"/></g><g id="change7_4"><path d="M 139.460938 237.757812 L 139.460938 235.507812 L 138.140625 235.507812 L 138.140625 233.578125 L 136.996094 233.578125 L 136.996094 231.582031 L 132.726562 231.582031 L 132.726562 230.464844 L 131.402344 230.464844 L 131.402344 228.535156 L 131.085938 228.535156 L 131.085938 227.277344 L 130.261719 227.277344 L 130.261719 226.539062 L 129.765625 226.539062 L 129.765625 224.757812 L 128.285156 224.757812 L 128.285156 222.601562 L 127.007812 222.601562 L 127.007812 220.359375 L 122.75 220.359375 L 122.75 220.238281 L 122.21875 220.238281 L 122.21875 219.109375 L 121.605469 219.109375 L 121.605469 218.242188 L 120.738281 218.242188 L 120.738281 216.949219 L 119.460938 216.949219 L 119.460938 214.710938 L 115.300781 214.710938 L 115.300781 213.929688 L 113.84375 213.929688 L 113.84375 212.332031 L 112.523438 212.332031 L 112.523438 209.8125 L 112.519531 209.8125 L 112.519531 209.058594 L 111.042969 209.058594 L 111.042969 207.652344 L 109.765625 207.652344 L 109.765625 205.414062 L 98.527344 205.414062 L 98.527344 207.652344 L 97.246094 207.652344 L 97.246094 209.058594 L 88.089844 209.058594 L 88.089844 213.929688 L 86.566406 213.929688 L 86.566406 213.859375 L 76.535156 213.859375 L 76.535156 215.859375 L 75.394531 215.859375 L 75.394531 217.113281 L 67.21875 217.113281 L 67.21875 221.460938 L 64.734375 221.460938 L 64.734375 225.648438 L 61.863281 225.648438 L 61.863281 227.199219 L 52.414062 227.199219 L 52.414062 229.199219 L 51.273438 229.199219 L 51.273438 231.128906 L 49.949219 231.128906 L 49.949219 233.375 L 48.773438 233.375 L 48.773438 235.789062 L 84.992188 235.789062 L 84.992188 237.757812 L 83.816406 237.757812 L 83.816406 240.171875 L 140.640625 240.171875 L 140.640625 237.757812 L 139.460938 237.757812" fill="#e9e9e9"/></g><g id="change8_3"><path d="M 139.460938 237.757812 L 139.460938 235.507812 L 138.140625 235.507812 L 138.140625 233.578125 L 136.996094 233.578125 L 136.996094 231.582031 L 132.726562 231.582031 L 132.726562 230.464844 L 131.402344 230.464844 L 131.402344 228.535156 L 131.085938 228.535156 L 131.085938 227.277344 L 130.261719 227.277344 L 130.261719 226.539062 L 129.765625 226.539062 L 129.765625 224.757812 L 128.285156 224.757812 L 128.285156 222.601562 L 127.007812 222.601562 L 127.007812 220.359375 L 122.75 220.359375 L 122.75 220.238281 L 122.21875 220.238281 L 122.21875 219.109375 L 121.605469 219.109375 L 121.605469 218.242188 L 120.738281 218.242188 L 120.738281 216.949219 L 119.460938 216.949219 L 119.460938 214.710938 L 115.300781 214.710938 L 115.300781 213.929688 L 113.84375 213.929688 L 113.84375 212.332031 L 112.523438 212.332031 L 112.523438 209.8125 L 112.519531 209.8125 L 112.519531 209.058594 L 111.042969 209.058594 L 111.042969 207.652344 L 109.765625 207.652344 L 109.765625 205.414062 L 109.054688 205.414062 L 109.054688 212.550781 L 111.75 212.550781 L 111.75 219.628906 L 110.066406 219.628906 L 110.066406 224.851562 L 119.667969 224.851562 L 119.667969 227.210938 L 122.53125 227.210938 L 122.53125 229.230469 L 119.667969 229.230469 L 119.667969 229.734375 L 128.261719 229.734375 L 128.261719 232.9375 L 134.324219 232.9375 L 134.324219 236.476562 L 131.96875 236.476562 L 131.96875 238.496094 L 122.699219 238.496094 L 122.699219 236.476562 L 120.175781 236.476562 L 120.175781 234.789062 L 111.75 234.789062 L 111.75 231.253906 L 107.371094 231.253906 L 107.371094 231.757812 L 106.359375 231.757812 L 106.359375 236.644531 L 97.261719 236.644531 L 97.261719 234.960938 L 94.398438 234.960938 L 94.398438 227.882812 L 86.816406 227.882812 L 86.816406 229.566406 L 83.449219 229.566406 L 83.449219 230.914062 L 82.097656 230.914062 L 82.097656 233.777344 L 74.179688 233.777344 L 74.179688 229.566406 L 71.824219 229.566406 L 71.824219 229.0625 L 69.292969 229.0625 L 69.292969 226.199219 L 71.824219 226.199219 L 71.824219 224.683594 L 68.453125 224.683594 L 68.453125 217.113281 L 67.21875 217.113281 L 67.21875 221.460938 L 64.734375 221.460938 L 64.734375 225.648438 L 61.863281 225.648438 L 61.863281 227.199219 L 52.414062 227.199219 L 52.414062 229.199219 L 51.273438 229.199219 L 51.273438 231.128906 L 49.949219 231.128906 L 49.949219 233.375 L 48.773438 233.375 L 48.773438 235.789062 L 84.992188 235.789062 L 84.992188 237.757812 L 83.816406 237.757812 L 83.816406 240.171875 L 140.640625 240.171875 L 140.640625 237.757812 L 139.460938 237.757812" fill="#badae6"/></g><g id="change7_5"><path d="M 350.71875 335.402344 L 350.71875 327.496094 L 346.074219 327.496094 L 346.074219 320.71875 L 342.058594 320.71875 L 342.058594 313.691406 L 327.035156 313.691406 L 327.035156 309.761719 L 322.390625 309.761719 L 322.390625 302.984375 L 318.375 302.984375 L 318.375 295.957031 L 305.324219 295.957031 L 305.324219 293.503906 L 300.742188 293.503906 L 300.742188 288.496094 L 296.601562 288.496094 L 296.601562 280.589844 L 296.59375 280.589844 L 296.59375 278.226562 L 291.957031 278.226562 L 291.957031 273.8125 L 287.941406 273.8125 L 287.941406 266.78125 L 252.675781 266.78125 L 252.675781 273.8125 L 248.660156 273.8125 L 248.660156 278.226562 L 219.917969 278.226562 L 219.917969 293.503906 L 211.1875 293.503906 L 211.1875 308.238281 L 201.089844 308.238281 L 201.089844 313.691406 L 167.859375 313.691406 L 167.859375 320.71875 L 163.84375 320.71875 L 163.84375 327.496094 L 159.199219 327.496094 L 159.199219 335.402344 L 155.058594 335.402344 L 155.058594 343.894531 L 354.855469 343.894531 L 354.855469 335.402344 L 350.71875 335.402344" fill="#e9e9e9"/></g><g id="change8_4"><path d="M 350.71875 335.402344 L 350.71875 327.496094 L 346.074219 327.496094 L 346.074219 320.71875 L 342.058594 320.71875 L 342.058594 313.691406 L 327.035156 313.691406 L 327.035156 309.761719 L 322.390625 309.761719 L 322.390625 302.984375 L 318.375 302.984375 L 318.375 295.957031 L 305.324219 295.957031 L 305.324219 293.503906 L 300.742188 293.503906 L 300.742188 288.496094 L 296.601562 288.496094 L 296.601562 280.589844 L 296.59375 280.589844 L 296.59375 278.226562 L 291.957031 278.226562 L 291.957031 273.8125 L 287.941406 273.8125 L 287.941406 266.78125 L 279.019531 266.78125 L 279.019531 287.777344 L 288.800781 287.777344 L 288.800781 308.371094 L 296.007812 308.371094 L 296.007812 308.886719 L 309.390625 308.886719 L 309.390625 319.695312 L 296.007812 319.695312 L 296.007812 324.84375 L 289.3125 324.84375 L 289.3125 334.109375 L 279.019531 334.109375 L 279.019531 339.261719 L 265.632812 339.261719 L 265.632812 330.507812 L 256.367188 330.507812 L 256.367188 323.816406 L 249.15625 323.816406 L 249.15625 328.964844 L 239.378906 328.964844 L 239.378906 332.566406 L 237.832031 332.566406 L 237.832031 340.289062 L 234.742188 340.289062 L 234.742188 338.746094 L 227.023438 338.746094 L 227.023438 332.566406 L 223.417969 332.566406 L 223.417969 328.964844 L 221.875 328.964844 L 221.875 316.609375 L 225.992188 316.609375 L 225.992188 312.214844 L 220.585938 312.214844 L 220.585938 311.527344 L 216.8125 311.527344 L 216.8125 307.75 L 211.1875 307.75 L 211.1875 308.238281 L 205.398438 308.238281 L 205.398438 311.460938 L 207.976562 311.460938 L 207.976562 330.507812 L 180.6875 330.507812 L 180.6875 319.695312 L 167.859375 319.695312 L 167.859375 320.71875 L 163.84375 320.71875 L 163.84375 327.496094 L 159.199219 327.496094 L 159.199219 335.402344 L 155.058594 335.402344 L 155.058594 343.894531 L 354.855469 343.894531 L 354.855469 335.402344 L 350.71875 335.402344" fill="#badae6"/></g></g></svg>