<?xml version="1.0" encoding="UTF-8"?><svg xmlns="http://www.w3.org/2000/svg" xmlns:xlink="http://www.w3.org/1999/xlink" height="272.6" preserveAspectRatio="xMidYMid meet" version="1.0" viewBox="54.7 76.3 315.7 272.6" width="315.7" zoomAndPan="magnify"><g><g id="change1_1"><path d="M 212.609375 334.574219 L 212.609375 348.921875 L 198.203125 348.921875 L 198.203125 334.574219 L 212.609375 334.574219" fill="#e5b94a"/></g><g id="change1_2"><path d="M 212.609375 320.226562 L 212.609375 334.574219 L 198.203125 334.574219 L 198.203125 320.226562 L 212.609375 320.226562" fill="#e5b94a"/></g><g id="change2_1"><path d="M 212.609375 305.894531 L 212.609375 320.226562 L 198.203125 320.226562 L 198.203125 305.894531 L 212.609375 305.894531" fill="#f0d681"/></g><g id="change2_2"><path d="M 212.609375 291.539062 L 212.609375 305.894531 L 198.203125 305.894531 L 198.203125 291.539062 L 212.609375 291.539062" fill="#f0d681"/></g><g id="change2_3"><path d="M 212.609375 277.191406 L 212.609375 291.539062 L 198.203125 291.539062 L 198.203125 277.191406 L 212.609375 277.191406" fill="#f0d681"/></g><g id="change3_1"><path d="M 212.609375 262.84375 L 212.609375 277.191406 L 198.203125 277.191406 L 198.203125 262.84375 L 212.609375 262.84375" fill="#a41625"/></g><g id="change3_2"><path d="M 212.609375 248.507812 L 212.609375 262.84375 L 198.203125 262.84375 L 198.203125 248.507812 L 212.609375 248.507812" fill="#a41625"/></g><g id="change4_1"><path d="M 212.609375 234.15625 L 212.609375 248.507812 L 198.203125 248.507812 L 198.203125 234.15625 L 212.609375 234.15625" fill="#fff"/></g><g id="change4_2"><path d="M 212.609375 219.726562 L 212.609375 234.15625 L 198.203125 234.15625 L 198.203125 219.726562 L 212.609375 219.726562" fill="#fff"/></g><g id="change5_1"><path d="M 212.609375 205.394531 L 212.609375 219.726562 L 198.203125 219.726562 L 198.203125 205.394531 L 212.609375 205.394531" fill="#ed1c24"/></g><g id="change5_2"><path d="M 212.609375 191.042969 L 212.609375 205.394531 L 198.203125 205.394531 L 198.203125 191.042969 L 212.609375 191.042969" fill="#ed1c24"/></g><g id="change5_3"><path d="M 212.609375 176.691406 L 212.609375 191.042969 L 198.203125 191.042969 L 198.203125 176.691406 L 212.609375 176.691406" fill="#ed1c24"/></g><g id="change5_4"><path d="M 212.609375 162.347656 L 212.609375 176.691406 L 198.203125 176.691406 L 198.203125 162.347656 L 212.609375 162.347656" fill="#ed1c24"/></g><g id="change4_3"><path d="M 212.609375 148.011719 L 212.609375 162.347656 L 198.203125 162.347656 L 198.203125 148.011719 L 212.609375 148.011719" fill="#fff"/></g><g id="change4_4"><path d="M 212.609375 133.660156 L 212.609375 148.011719 L 198.203125 148.011719 L 198.203125 133.660156 L 212.609375 133.660156" fill="#fff"/></g><g id="change4_5"><path d="M 212.609375 119.308594 L 212.609375 133.660156 L 198.203125 133.660156 L 198.203125 119.308594 L 212.609375 119.308594" fill="#fff"/></g><g id="change5_5"><path d="M 212.609375 104.960938 L 212.609375 119.308594 L 198.203125 119.308594 L 198.203125 104.960938 L 212.609375 104.960938" fill="#ed1c24"/></g><g id="change5_6"><path d="M 212.609375 90.609375 L 212.609375 104.960938 L 198.203125 104.960938 L 198.203125 90.609375 L 212.609375 90.609375" fill="#ed1c24"/></g><g id="change6_1"><path d="M 212.609375 76.277344 L 212.609375 90.609375 L 198.203125 90.609375 L 198.203125 76.277344 L 212.609375 76.277344" fill="#f14624"/></g><g id="change1_3"><path d="M 198.203125 334.574219 L 198.203125 348.921875 L 183.851562 348.921875 L 183.851562 334.574219 L 198.203125 334.574219" fill="#e5b94a"/></g><g id="change2_4"><path d="M 198.203125 320.226562 L 198.203125 334.574219 L 183.851562 334.574219 L 183.851562 320.226562 L 198.203125 320.226562" fill="#f0d681"/></g><g id="change2_5"><path d="M 198.203125 305.894531 L 198.203125 320.226562 L 183.851562 320.226562 L 183.851562 305.894531 L 198.203125 305.894531" fill="#f0d681"/></g><g id="change2_6"><path d="M 198.203125 291.539062 L 198.203125 305.894531 L 183.851562 305.894531 L 183.851562 291.539062 L 198.203125 291.539062" fill="#f0d681"/></g><g id="change2_7"><path d="M 198.203125 277.191406 L 198.203125 291.539062 L 183.851562 291.539062 L 183.851562 277.191406 L 198.203125 277.191406" fill="#f0d681"/></g><g id="change3_3"><path d="M 198.203125 262.84375 L 198.203125 277.191406 L 183.851562 277.191406 L 183.851562 262.84375 L 198.203125 262.84375" fill="#a41625"/></g><g id="change3_4"><path d="M 198.203125 248.507812 L 198.203125 262.84375 L 183.851562 262.84375 L 183.851562 248.507812 L 198.203125 248.507812" fill="#a41625"/></g><g id="change5_7"><path d="M 198.203125 234.15625 L 198.203125 248.507812 L 183.851562 248.507812 L 183.851562 234.15625 L 198.203125 234.15625" fill="#ed1c24"/></g><g id="change5_8"><path d="M 198.203125 219.726562 L 198.203125 234.15625 L 183.851562 234.15625 L 183.851562 219.726562 L 198.203125 219.726562" fill="#ed1c24"/></g><g id="change5_9"><path d="M 198.203125 205.394531 L 198.203125 219.726562 L 183.851562 219.726562 L 183.851562 205.394531 L 198.203125 205.394531" fill="#ed1c24"/></g><g id="change5_10"><path d="M 198.203125 191.042969 L 198.203125 205.394531 L 183.851562 205.394531 L 183.851562 191.042969 L 198.203125 191.042969" fill="#ed1c24"/></g><g id="change5_11"><path d="M 198.203125 176.691406 L 198.203125 191.042969 L 183.851562 191.042969 L 183.851562 176.691406 L 198.203125 176.691406" fill="#ed1c24"/></g><g id="change5_12"><path d="M 198.203125 162.347656 L 198.203125 176.691406 L 183.851562 176.691406 L 183.851562 162.347656 L 198.203125 162.347656" fill="#ed1c24"/></g><g id="change4_6"><path d="M 198.203125 148.011719 L 198.203125 162.347656 L 183.851562 162.347656 L 183.851562 148.011719 L 198.203125 148.011719" fill="#fff"/></g><g id="change4_7"><path d="M 198.203125 133.660156 L 198.203125 148.011719 L 183.851562 148.011719 L 183.851562 133.660156 L 198.203125 133.660156" fill="#fff"/></g><g id="change4_8"><path d="M 198.203125 119.308594 L 198.203125 133.660156 L 183.851562 133.660156 L 183.851562 119.308594 L 198.203125 119.308594" fill="#fff"/></g><g id="change5_13"><path d="M 198.203125 104.960938 L 198.203125 119.308594 L 183.851562 119.308594 L 183.851562 104.960938 L 198.203125 104.960938" fill="#ed1c24"/></g><g id="change6_2"><path d="M 198.203125 90.609375 L 198.203125 104.960938 L 183.851562 104.960938 L 183.851562 90.609375 L 198.203125 90.609375" fill="#f14624"/></g><g id="change6_3"><path d="M 198.203125 76.277344 L 198.203125 90.609375 L 183.851562 90.609375 L 183.851562 76.277344 L 198.203125 76.277344" fill="#f14624"/></g><g id="change1_4"><path d="M 183.851562 334.574219 L 183.851562 348.921875 L 169.503906 348.921875 L 169.503906 334.574219 L 183.851562 334.574219" fill="#e5b94a"/></g><g id="change2_8"><path d="M 183.851562 320.226562 L 183.851562 334.574219 L 169.503906 334.574219 L 169.503906 320.226562 L 183.851562 320.226562" fill="#f0d681"/></g><g id="change2_9"><path d="M 183.851562 305.894531 L 183.851562 320.226562 L 169.503906 320.226562 L 169.503906 305.894531 L 183.851562 305.894531" fill="#f0d681"/></g><g id="change2_10"><path d="M 183.851562 291.539062 L 183.851562 305.894531 L 169.503906 305.894531 L 169.503906 291.539062 L 183.851562 291.539062" fill="#f0d681"/></g><g id="change2_11"><path d="M 183.851562 277.191406 L 183.851562 291.539062 L 169.503906 291.539062 L 169.503906 277.191406 L 183.851562 277.191406" fill="#f0d681"/></g><g id="change3_5"><path d="M 183.851562 262.84375 L 183.851562 277.191406 L 169.503906 277.191406 L 169.503906 262.84375 L 183.851562 262.84375" fill="#a41625"/></g><g id="change3_6"><path d="M 183.851562 248.507812 L 183.851562 262.84375 L 169.503906 262.84375 L 169.503906 248.507812 L 183.851562 248.507812" fill="#a41625"/></g><g id="change5_14"><path d="M 183.851562 234.15625 L 183.851562 248.507812 L 169.503906 248.507812 L 169.503906 234.15625 L 183.851562 234.15625" fill="#ed1c24"/></g><g id="change5_15"><path d="M 183.851562 219.726562 L 183.851562 234.15625 L 169.503906 234.15625 L 169.503906 219.726562 L 183.851562 219.726562" fill="#ed1c24"/></g><g id="change5_16"><path d="M 183.851562 205.394531 L 183.851562 219.726562 L 169.503906 219.726562 L 169.503906 205.394531 L 183.851562 205.394531" fill="#ed1c24"/></g><g id="change5_17"><path d="M 183.851562 191.042969 L 183.851562 205.394531 L 169.503906 205.394531 L 169.503906 191.042969 L 183.851562 191.042969" fill="#ed1c24"/></g><g id="change5_18"><path d="M 183.851562 176.691406 L 183.851562 191.042969 L 169.503906 191.042969 L 169.503906 176.691406 L 183.851562 176.691406" fill="#ed1c24"/></g><g id="change5_19"><path d="M 183.851562 162.347656 L 183.851562 176.691406 L 169.503906 176.691406 L 169.503906 162.347656 L 183.851562 162.347656" fill="#ed1c24"/></g><g id="change5_20"><path d="M 183.851562 148.011719 L 183.851562 162.347656 L 169.503906 162.347656 L 169.503906 148.011719 L 183.851562 148.011719" fill="#ed1c24"/></g><g id="change4_9"><path d="M 183.851562 133.660156 L 183.851562 148.011719 L 169.503906 148.011719 L 169.503906 133.660156 L 183.851562 133.660156" fill="#fff"/></g><g id="change5_21"><path d="M 183.851562 119.308594 L 183.851562 133.660156 L 169.503906 133.660156 L 169.503906 119.308594 L 183.851562 119.308594" fill="#ed1c24"/></g><g id="change5_22"><path d="M 183.851562 104.960938 L 183.851562 119.308594 L 169.503906 119.308594 L 169.503906 104.960938 L 183.851562 104.960938" fill="#ed1c24"/></g><g id="change6_4"><path d="M 183.851562 90.609375 L 183.851562 104.960938 L 169.503906 104.960938 L 169.503906 90.609375 L 183.851562 90.609375" fill="#f14624"/></g><g id="change6_5"><path d="M 183.851562 76.277344 L 183.851562 90.609375 L 169.503906 90.609375 L 169.503906 76.277344 L 183.851562 76.277344" fill="#f14624"/></g><g id="change1_5"><path d="M 169.503906 334.574219 L 169.503906 348.921875 L 155.167969 348.921875 L 155.167969 334.574219 L 169.503906 334.574219" fill="#e5b94a"/></g><g id="change2_12"><path d="M 169.503906 320.226562 L 169.503906 334.574219 L 155.167969 334.574219 L 155.167969 320.226562 L 169.503906 320.226562" fill="#f0d681"/></g><g id="change2_13"><path d="M 169.503906 305.894531 L 169.503906 320.226562 L 155.167969 320.226562 L 155.167969 305.894531 L 169.503906 305.894531" fill="#f0d681"/></g><g id="change2_14"><path d="M 169.503906 291.539062 L 169.503906 305.894531 L 155.167969 305.894531 L 155.167969 291.539062 L 169.503906 291.539062" fill="#f0d681"/></g><g id="change2_15"><path d="M 169.503906 277.191406 L 169.503906 291.539062 L 155.167969 291.539062 L 155.167969 277.191406 L 169.503906 277.191406" fill="#f0d681"/></g><g id="change3_7"><path d="M 169.503906 262.84375 L 169.503906 277.191406 L 155.167969 277.191406 L 155.167969 262.84375 L 169.503906 262.84375" fill="#a41625"/></g><g id="change3_8"><path d="M 169.503906 248.507812 L 169.503906 262.84375 L 155.167969 262.84375 L 155.167969 248.507812 L 169.503906 248.507812" fill="#a41625"/></g><g id="change5_23"><path d="M 169.503906 234.15625 L 169.503906 248.507812 L 155.167969 248.507812 L 155.167969 234.15625 L 169.503906 234.15625" fill="#ed1c24"/></g><g id="change5_24"><path d="M 169.503906 219.726562 L 169.503906 234.15625 L 155.167969 234.15625 L 155.167969 219.726562 L 169.503906 219.726562" fill="#ed1c24"/></g><g id="change5_25"><path d="M 169.503906 205.394531 L 169.503906 219.726562 L 155.167969 219.726562 L 155.167969 205.394531 L 169.503906 205.394531" fill="#ed1c24"/></g><g id="change5_26"><path d="M 169.503906 191.042969 L 169.503906 205.394531 L 155.167969 205.394531 L 155.167969 191.042969 L 169.503906 191.042969" fill="#ed1c24"/></g><g id="change4_10"><path d="M 169.503906 176.691406 L 169.503906 191.042969 L 155.167969 191.042969 L 155.167969 176.691406 L 169.503906 176.691406" fill="#fff"/></g><g id="change4_11"><path d="M 169.503906 162.347656 L 169.503906 176.691406 L 155.167969 176.691406 L 155.167969 162.347656 L 169.503906 162.347656" fill="#fff"/></g><g id="change5_27"><path d="M 169.503906 148.011719 L 169.503906 162.347656 L 155.167969 162.347656 L 155.167969 148.011719 L 169.503906 148.011719" fill="#ed1c24"/></g><g id="change5_28"><path d="M 169.503906 133.660156 L 169.503906 148.011719 L 155.167969 148.011719 L 155.167969 133.660156 L 169.503906 133.660156" fill="#ed1c24"/></g><g id="change5_29"><path d="M 169.503906 119.308594 L 169.503906 133.660156 L 155.167969 133.660156 L 155.167969 119.308594 L 169.503906 119.308594" fill="#ed1c24"/></g><g id="change6_6"><path d="M 169.503906 104.960938 L 169.503906 119.308594 L 155.167969 119.308594 L 155.167969 104.960938 L 169.503906 104.960938" fill="#f14624"/></g><g id="change6_7"><path d="M 169.503906 90.609375 L 169.503906 104.960938 L 155.167969 104.960938 L 155.167969 90.609375 L 169.503906 90.609375" fill="#f14624"/></g><g id="change6_8"><path d="M 169.503906 76.277344 L 169.503906 90.609375 L 155.167969 90.609375 L 155.167969 76.277344 L 169.503906 76.277344" fill="#f14624"/></g><g id="change1_6"><path d="M 155.167969 334.574219 L 155.167969 348.921875 L 140.816406 348.921875 L 140.816406 334.574219 L 155.167969 334.574219" fill="#e5b94a"/></g><g id="change2_16"><path d="M 155.167969 320.226562 L 155.167969 334.574219 L 140.816406 334.574219 L 140.816406 320.226562 L 155.167969 320.226562" fill="#f0d681"/></g><g id="change2_17"><path d="M 155.167969 305.894531 L 155.167969 320.226562 L 140.816406 320.226562 L 140.816406 305.894531 L 155.167969 305.894531" fill="#f0d681"/></g><g id="change2_18"><path d="M 155.167969 291.539062 L 155.167969 305.894531 L 140.816406 305.894531 L 140.816406 291.539062 L 155.167969 291.539062" fill="#f0d681"/></g><g id="change2_19"><path d="M 155.167969 277.191406 L 155.167969 291.539062 L 140.816406 291.539062 L 140.816406 277.191406 L 155.167969 277.191406" fill="#f0d681"/></g><g id="change3_9"><path d="M 155.167969 262.84375 L 155.167969 277.191406 L 140.816406 277.191406 L 140.816406 262.84375 L 155.167969 262.84375" fill="#a41625"/></g><g id="change3_10"><path d="M 155.167969 248.507812 L 155.167969 262.84375 L 140.816406 262.84375 L 140.816406 248.507812 L 155.167969 248.507812" fill="#a41625"/></g><g id="change5_30"><path d="M 155.167969 234.15625 L 155.167969 248.507812 L 140.816406 248.507812 L 140.816406 234.15625 L 155.167969 234.15625" fill="#ed1c24"/></g><g id="change5_31"><path d="M 155.167969 219.726562 L 155.167969 234.15625 L 140.816406 234.15625 L 140.816406 219.726562 L 155.167969 219.726562" fill="#ed1c24"/></g><g id="change5_32"><path d="M 155.167969 205.394531 L 155.167969 219.726562 L 140.816406 219.726562 L 140.816406 205.394531 L 155.167969 205.394531" fill="#ed1c24"/></g><g id="change4_12"><path d="M 155.167969 191.042969 L 155.167969 205.394531 L 140.816406 205.394531 L 140.816406 191.042969 L 155.167969 191.042969" fill="#fff"/></g><g id="change4_13"><path d="M 155.167969 176.691406 L 155.167969 191.042969 L 140.816406 191.042969 L 140.816406 176.691406 L 155.167969 176.691406" fill="#fff"/></g><g id="change4_14"><path d="M 155.167969 162.347656 L 155.167969 176.691406 L 140.816406 176.691406 L 140.816406 162.347656 L 155.167969 162.347656" fill="#fff"/></g><g id="change4_15"><path d="M 155.167969 148.011719 L 155.167969 162.347656 L 140.816406 162.347656 L 140.816406 148.011719 L 155.167969 148.011719" fill="#fff"/></g><g id="change5_33"><path d="M 155.167969 133.660156 L 155.167969 148.011719 L 140.816406 148.011719 L 140.816406 133.660156 L 155.167969 133.660156" fill="#ed1c24"/></g><g id="change6_9"><path d="M 155.167969 119.308594 L 155.167969 133.660156 L 140.816406 133.660156 L 140.816406 119.308594 L 155.167969 119.308594" fill="#f14624"/></g><g id="change6_10"><path d="M 155.167969 104.960938 L 155.167969 119.308594 L 140.816406 119.308594 L 140.816406 104.960938 L 155.167969 104.960938" fill="#f14624"/></g><g id="change6_11"><path d="M 155.167969 90.609375 L 155.167969 104.960938 L 140.816406 104.960938 L 140.816406 90.609375 L 155.167969 90.609375" fill="#f14624"/></g><g id="change3_11"><path d="M 140.816406 262.84375 L 140.816406 277.191406 L 126.472656 277.191406 L 126.472656 262.84375 L 140.816406 262.84375" fill="#a41625"/></g><g id="change3_12"><path d="M 140.816406 248.507812 L 140.816406 262.84375 L 126.472656 262.84375 L 126.472656 248.507812 L 140.816406 248.507812" fill="#a41625"/></g><g id="change5_34"><path d="M 140.816406 234.15625 L 140.816406 248.507812 L 126.472656 248.507812 L 126.472656 234.15625 L 140.816406 234.15625" fill="#ed1c24"/></g><g id="change5_35"><path d="M 140.816406 219.726562 L 140.816406 234.15625 L 126.472656 234.15625 L 126.472656 219.726562 L 140.816406 219.726562" fill="#ed1c24"/></g><g id="change5_36"><path d="M 140.816406 205.394531 L 140.816406 219.726562 L 126.472656 219.726562 L 126.472656 205.394531 L 140.816406 205.394531" fill="#ed1c24"/></g><g id="change5_37"><path d="M 140.816406 191.042969 L 140.816406 205.394531 L 126.472656 205.394531 L 126.472656 191.042969 L 140.816406 191.042969" fill="#ed1c24"/></g><g id="change4_16"><path d="M 140.816406 176.691406 L 140.816406 191.042969 L 126.472656 191.042969 L 126.472656 176.691406 L 140.816406 176.691406" fill="#fff"/></g><g id="change4_17"><path d="M 140.816406 162.347656 L 140.816406 176.691406 L 126.472656 176.691406 L 126.472656 162.347656 L 140.816406 162.347656" fill="#fff"/></g><g id="change5_38"><path d="M 140.816406 148.011719 L 140.816406 162.347656 L 126.472656 162.347656 L 126.472656 148.011719 L 140.816406 148.011719" fill="#ed1c24"/></g><g id="change6_12"><path d="M 140.816406 133.660156 L 140.816406 148.011719 L 126.472656 148.011719 L 126.472656 133.660156 L 140.816406 133.660156" fill="#f14624"/></g><g id="change6_13"><path d="M 140.816406 119.308594 L 140.816406 133.660156 L 126.472656 133.660156 L 126.472656 119.308594 L 140.816406 119.308594" fill="#f14624"/></g><g id="change6_14"><path d="M 140.816406 104.960938 L 140.816406 119.308594 L 126.472656 119.308594 L 126.472656 104.960938 L 140.816406 104.960938" fill="#f14624"/></g><g id="change3_13"><path d="M 126.472656 262.84375 L 126.472656 277.191406 L 112.117188 277.191406 L 112.117188 262.84375 L 126.472656 262.84375" fill="#a41625"/></g><g id="change3_14"><path d="M 126.472656 248.507812 L 126.472656 262.84375 L 112.117188 262.84375 L 112.117188 248.507812 L 126.472656 248.507812" fill="#a41625"/></g><g id="change5_39"><path d="M 126.472656 234.15625 L 126.472656 248.507812 L 112.117188 248.507812 L 112.117188 234.15625 L 126.472656 234.15625" fill="#ed1c24"/></g><g id="change4_18"><path d="M 126.472656 219.726562 L 126.472656 234.15625 L 112.117188 234.15625 L 112.117188 219.726562 L 126.472656 219.726562" fill="#fff"/></g><g id="change5_40"><path d="M 126.472656 205.394531 L 126.472656 219.726562 L 112.117188 219.726562 L 112.117188 205.394531 L 126.472656 205.394531" fill="#ed1c24"/></g><g id="change5_41"><path d="M 126.472656 191.042969 L 126.472656 205.394531 L 112.117188 205.394531 L 112.117188 191.042969 L 126.472656 191.042969" fill="#ed1c24"/></g><g id="change5_42"><path d="M 126.472656 176.691406 L 126.472656 191.042969 L 112.117188 191.042969 L 112.117188 176.691406 L 126.472656 176.691406" fill="#ed1c24"/></g><g id="change5_43"><path d="M 126.472656 162.347656 L 126.472656 176.691406 L 112.117188 176.691406 L 112.117188 162.347656 L 126.472656 162.347656" fill="#ed1c24"/></g><g id="change5_44"><path d="M 126.472656 148.011719 L 126.472656 162.347656 L 112.117188 162.347656 L 112.117188 148.011719 L 126.472656 148.011719" fill="#ed1c24"/></g><g id="change6_15"><path d="M 126.472656 133.660156 L 126.472656 148.011719 L 112.117188 148.011719 L 112.117188 133.660156 L 126.472656 133.660156" fill="#f14624"/></g><g id="change6_16"><path d="M 126.472656 119.308594 L 126.472656 133.660156 L 112.117188 133.660156 L 112.117188 119.308594 L 126.472656 119.308594" fill="#f14624"/></g><g id="change3_15"><path d="M 112.117188 262.84375 L 112.117188 277.191406 L 97.769531 277.191406 L 97.769531 262.84375 L 112.117188 262.84375" fill="#a41625"/></g><g id="change3_16"><path d="M 112.117188 248.507812 L 112.117188 262.84375 L 97.769531 262.84375 L 97.769531 248.507812 L 112.117188 248.507812" fill="#a41625"/></g><g id="change4_19"><path d="M 112.117188 234.15625 L 112.117188 248.507812 L 97.769531 248.507812 L 97.769531 234.15625 L 112.117188 234.15625" fill="#fff"/></g><g id="change4_20"><path d="M 112.117188 219.726562 L 112.117188 234.15625 L 97.769531 234.15625 L 97.769531 219.726562 L 112.117188 219.726562" fill="#fff"/></g><g id="change4_21"><path d="M 112.117188 205.394531 L 112.117188 219.726562 L 97.769531 219.726562 L 97.769531 205.394531 L 112.117188 205.394531" fill="#fff"/></g><g id="change5_45"><path d="M 112.117188 191.042969 L 112.117188 205.394531 L 97.769531 205.394531 L 97.769531 191.042969 L 112.117188 191.042969" fill="#ed1c24"/></g><g id="change5_46"><path d="M 112.117188 176.691406 L 112.117188 191.042969 L 97.769531 191.042969 L 97.769531 176.691406 L 112.117188 176.691406" fill="#ed1c24"/></g><g id="change5_47"><path d="M 112.117188 162.347656 L 112.117188 176.691406 L 97.769531 176.691406 L 97.769531 162.347656 L 112.117188 162.347656" fill="#ed1c24"/></g><g id="change6_17"><path d="M 112.117188 148.011719 L 112.117188 162.347656 L 97.769531 162.347656 L 97.769531 148.011719 L 112.117188 148.011719" fill="#f14624"/></g><g id="change6_18"><path d="M 112.117188 133.660156 L 112.117188 148.011719 L 97.769531 148.011719 L 97.769531 133.660156 L 112.117188 133.660156" fill="#f14624"/></g><g id="change3_17"><path d="M 97.769531 262.84375 L 97.769531 277.191406 L 83.429688 277.191406 L 83.429688 262.84375 L 97.769531 262.84375" fill="#a41625"/></g><g id="change3_18"><path d="M 97.769531 248.507812 L 97.769531 262.84375 L 83.429688 262.84375 L 83.429688 248.507812 L 97.769531 248.507812" fill="#a41625"/></g><g id="change4_22"><path d="M 97.769531 234.15625 L 97.769531 248.507812 L 83.429688 248.507812 L 83.429688 234.15625 L 97.769531 234.15625" fill="#fff"/></g><g id="change4_23"><path d="M 97.769531 219.726562 L 97.769531 234.15625 L 83.429688 234.15625 L 83.429688 219.726562 L 97.769531 219.726562" fill="#fff"/></g><g id="change4_24"><path d="M 97.769531 205.394531 L 97.769531 219.726562 L 83.429688 219.726562 L 83.429688 205.394531 L 97.769531 205.394531" fill="#fff"/></g><g id="change5_48"><path d="M 97.769531 191.042969 L 97.769531 205.394531 L 83.429688 205.394531 L 83.429688 191.042969 L 97.769531 191.042969" fill="#ed1c24"/></g><g id="change5_49"><path d="M 97.769531 176.691406 L 97.769531 191.042969 L 83.429688 191.042969 L 83.429688 176.691406 L 97.769531 176.691406" fill="#ed1c24"/></g><g id="change6_19"><path d="M 97.769531 162.347656 L 97.769531 176.691406 L 83.429688 176.691406 L 83.429688 162.347656 L 97.769531 162.347656" fill="#f14624"/></g><g id="change6_20"><path d="M 97.769531 148.011719 L 97.769531 162.347656 L 83.429688 162.347656 L 83.429688 148.011719 L 97.769531 148.011719" fill="#f14624"/></g><g id="change3_19"><path d="M 83.429688 262.84375 L 83.429688 277.191406 L 69.085938 277.191406 L 69.085938 262.84375 L 83.429688 262.84375" fill="#a41625"/></g><g id="change3_20"><path d="M 83.429688 248.507812 L 83.429688 262.84375 L 69.085938 262.84375 L 69.085938 248.507812 L 83.429688 248.507812" fill="#a41625"/></g><g id="change5_50"><path d="M 83.429688 234.15625 L 83.429688 248.507812 L 69.085938 248.507812 L 69.085938 234.15625 L 83.429688 234.15625" fill="#ed1c24"/></g><g id="change4_25"><path d="M 83.429688 219.726562 L 83.429688 234.15625 L 69.085938 234.15625 L 69.085938 219.726562 L 83.429688 219.726562" fill="#fff"/></g><g id="change5_51"><path d="M 83.429688 205.394531 L 83.429688 219.726562 L 69.085938 219.726562 L 69.085938 205.394531 L 83.429688 205.394531" fill="#ed1c24"/></g><g id="change5_52"><path d="M 83.429688 191.042969 L 83.429688 205.394531 L 69.085938 205.394531 L 69.085938 191.042969 L 83.429688 191.042969" fill="#ed1c24"/></g><g id="change6_21"><path d="M 83.429688 176.691406 L 83.429688 191.042969 L 69.085938 191.042969 L 69.085938 176.691406 L 83.429688 176.691406" fill="#f14624"/></g><g id="change6_22"><path d="M 83.429688 162.347656 L 83.429688 176.691406 L 69.085938 176.691406 L 69.085938 162.347656 L 83.429688 162.347656" fill="#f14624"/></g><g id="change3_21"><path d="M 69.085938 262.84375 L 69.085938 277.191406 L 54.734375 277.191406 L 54.734375 262.84375 L 69.085938 262.84375" fill="#a41625"/></g><g id="change3_22"><path d="M 69.085938 248.507812 L 69.085938 262.84375 L 54.734375 262.84375 L 54.734375 248.507812 L 69.085938 248.507812" fill="#a41625"/></g><g id="change5_53"><path d="M 69.085938 234.15625 L 69.085938 248.507812 L 54.734375 248.507812 L 54.734375 234.15625 L 69.085938 234.15625" fill="#ed1c24"/></g><g id="change5_54"><path d="M 69.085938 219.726562 L 69.085938 234.15625 L 54.734375 234.15625 L 54.734375 219.726562 L 69.085938 219.726562" fill="#ed1c24"/></g><g id="change5_55"><path d="M 69.085938 205.394531 L 69.085938 219.726562 L 54.734375 219.726562 L 54.734375 205.394531 L 69.085938 205.394531" fill="#ed1c24"/></g><g id="change5_56"><path d="M 69.085938 191.042969 L 69.085938 205.394531 L 54.734375 205.394531 L 54.734375 191.042969 L 69.085938 191.042969" fill="#ed1c24"/></g><g id="change6_23"><path d="M 69.085938 176.691406 L 69.085938 191.042969 L 54.734375 191.042969 L 54.734375 176.691406 L 69.085938 176.691406" fill="#f14624"/></g><g id="change1_7"><path d="M 212.582031 334.574219 L 212.582031 348.921875 L 226.996094 348.921875 L 226.996094 334.574219 L 212.582031 334.574219" fill="#e5b94a"/></g><g id="change1_8"><path d="M 212.582031 320.226562 L 212.582031 334.574219 L 226.996094 334.574219 L 226.996094 320.226562 L 212.582031 320.226562" fill="#e5b94a"/></g><g id="change2_20"><path d="M 212.582031 305.894531 L 212.582031 320.226562 L 226.996094 320.226562 L 226.996094 305.894531 L 212.582031 305.894531" fill="#f0d681"/></g><g id="change2_21"><path d="M 212.582031 291.539062 L 212.582031 305.894531 L 226.996094 305.894531 L 226.996094 291.539062 L 212.582031 291.539062" fill="#f0d681"/></g><g id="change2_22"><path d="M 212.582031 277.191406 L 212.582031 291.539062 L 226.996094 291.539062 L 226.996094 277.191406 L 212.582031 277.191406" fill="#f0d681"/></g><g id="change3_23"><path d="M 212.582031 262.84375 L 212.582031 277.191406 L 226.996094 277.191406 L 226.996094 262.84375 L 212.582031 262.84375" fill="#a41625"/></g><g id="change3_24"><path d="M 212.582031 248.507812 L 212.582031 262.84375 L 226.996094 262.84375 L 226.996094 248.507812 L 212.582031 248.507812" fill="#a41625"/></g><g id="change4_26"><path d="M 212.582031 234.15625 L 212.582031 248.507812 L 226.996094 248.507812 L 226.996094 234.15625 L 212.582031 234.15625" fill="#fff"/></g><g id="change4_27"><path d="M 212.582031 219.726562 L 212.582031 234.15625 L 226.996094 234.15625 L 226.996094 219.726562 L 212.582031 219.726562" fill="#fff"/></g><g id="change5_57"><path d="M 212.582031 205.394531 L 212.582031 219.726562 L 226.996094 219.726562 L 226.996094 205.394531 L 212.582031 205.394531" fill="#ed1c24"/></g><g id="change5_58"><path d="M 212.582031 191.042969 L 212.582031 205.394531 L 226.996094 205.394531 L 226.996094 191.042969 L 212.582031 191.042969" fill="#ed1c24"/></g><g id="change5_59"><path d="M 212.582031 176.691406 L 212.582031 191.042969 L 226.996094 191.042969 L 226.996094 176.691406 L 212.582031 176.691406" fill="#ed1c24"/></g><g id="change5_60"><path d="M 212.582031 162.347656 L 212.582031 176.691406 L 226.996094 176.691406 L 226.996094 162.347656 L 212.582031 162.347656" fill="#ed1c24"/></g><g id="change4_28"><path d="M 212.582031 148.011719 L 212.582031 162.347656 L 226.996094 162.347656 L 226.996094 148.011719 L 212.582031 148.011719" fill="#fff"/></g><g id="change4_29"><path d="M 212.582031 133.660156 L 212.582031 148.011719 L 226.996094 148.011719 L 226.996094 133.660156 L 212.582031 133.660156" fill="#fff"/></g><g id="change4_30"><path d="M 212.582031 119.308594 L 212.582031 133.660156 L 226.996094 133.660156 L 226.996094 119.308594 L 212.582031 119.308594" fill="#fff"/></g><g id="change5_61"><path d="M 212.582031 104.960938 L 212.582031 119.308594 L 226.996094 119.308594 L 226.996094 104.960938 L 212.582031 104.960938" fill="#ed1c24"/></g><g id="change5_62"><path d="M 212.582031 90.609375 L 212.582031 104.960938 L 226.996094 104.960938 L 226.996094 90.609375 L 212.582031 90.609375" fill="#ed1c24"/></g><g id="change6_24"><path d="M 212.582031 76.277344 L 212.582031 90.609375 L 226.996094 90.609375 L 226.996094 76.277344 L 212.582031 76.277344" fill="#f14624"/></g><g id="change1_9"><path d="M 226.996094 334.574219 L 226.996094 348.921875 L 241.347656 348.921875 L 241.347656 334.574219 L 226.996094 334.574219" fill="#e5b94a"/></g><g id="change1_10"><path d="M 226.996094 320.226562 L 226.996094 334.574219 L 241.347656 334.574219 L 241.347656 320.226562 L 226.996094 320.226562" fill="#e5b94a"/></g><g id="change1_11"><path d="M 226.996094 305.894531 L 226.996094 320.226562 L 241.347656 320.226562 L 241.347656 305.894531 L 226.996094 305.894531" fill="#e5b94a"/></g><g id="change2_23"><path d="M 226.996094 291.539062 L 226.996094 305.894531 L 241.347656 305.894531 L 241.347656 291.539062 L 226.996094 291.539062" fill="#f0d681"/></g><g id="change2_24"><path d="M 226.996094 277.191406 L 226.996094 291.539062 L 241.347656 291.539062 L 241.347656 277.191406 L 226.996094 277.191406" fill="#f0d681"/></g><g id="change3_25"><path d="M 226.996094 262.84375 L 226.996094 277.191406 L 241.347656 277.191406 L 241.347656 262.84375 L 226.996094 262.84375" fill="#a41625"/></g><g id="change3_26"><path d="M 226.996094 248.507812 L 226.996094 262.84375 L 241.347656 262.84375 L 241.347656 248.507812 L 226.996094 248.507812" fill="#a41625"/></g><g id="change5_63"><path d="M 226.996094 234.15625 L 226.996094 248.507812 L 241.347656 248.507812 L 241.347656 234.15625 L 226.996094 234.15625" fill="#ed1c24"/></g><g id="change5_64"><path d="M 226.996094 219.726562 L 226.996094 234.15625 L 241.347656 234.15625 L 241.347656 219.726562 L 226.996094 219.726562" fill="#ed1c24"/></g><g id="change5_65"><path d="M 226.996094 205.394531 L 226.996094 219.726562 L 241.347656 219.726562 L 241.347656 205.394531 L 226.996094 205.394531" fill="#ed1c24"/></g><g id="change5_66"><path d="M 226.996094 191.042969 L 226.996094 205.394531 L 241.347656 205.394531 L 241.347656 191.042969 L 226.996094 191.042969" fill="#ed1c24"/></g><g id="change5_67"><path d="M 226.996094 176.691406 L 226.996094 191.042969 L 241.347656 191.042969 L 241.347656 176.691406 L 226.996094 176.691406" fill="#ed1c24"/></g><g id="change5_68"><path d="M 226.996094 162.347656 L 226.996094 176.691406 L 241.347656 176.691406 L 241.347656 162.347656 L 226.996094 162.347656" fill="#ed1c24"/></g><g id="change4_31"><path d="M 226.996094 148.011719 L 226.996094 162.347656 L 241.347656 162.347656 L 241.347656 148.011719 L 226.996094 148.011719" fill="#fff"/></g><g id="change4_32"><path d="M 226.996094 133.660156 L 226.996094 148.011719 L 241.347656 148.011719 L 241.347656 133.660156 L 226.996094 133.660156" fill="#fff"/></g><g id="change4_33"><path d="M 226.996094 119.308594 L 226.996094 133.660156 L 241.347656 133.660156 L 241.347656 119.308594 L 226.996094 119.308594" fill="#fff"/></g><g id="change5_69"><path d="M 226.996094 104.960938 L 226.996094 119.308594 L 241.347656 119.308594 L 241.347656 104.960938 L 226.996094 104.960938" fill="#ed1c24"/></g><g id="change5_70"><path d="M 226.996094 90.609375 L 226.996094 104.960938 L 241.347656 104.960938 L 241.347656 90.609375 L 226.996094 90.609375" fill="#ed1c24"/></g><g id="change5_71"><path d="M 226.996094 76.277344 L 226.996094 90.609375 L 241.347656 90.609375 L 241.347656 76.277344 L 226.996094 76.277344" fill="#ed1c24"/></g><g id="change1_12"><path d="M 241.347656 334.574219 L 241.347656 348.921875 L 255.695312 348.921875 L 255.695312 334.574219 L 241.347656 334.574219" fill="#e5b94a"/></g><g id="change1_13"><path d="M 241.347656 320.226562 L 241.347656 334.574219 L 255.695312 334.574219 L 255.695312 320.226562 L 241.347656 320.226562" fill="#e5b94a"/></g><g id="change1_14"><path d="M 241.347656 305.894531 L 241.347656 320.226562 L 255.695312 320.226562 L 255.695312 305.894531 L 241.347656 305.894531" fill="#e5b94a"/></g><g id="change2_25"><path d="M 241.347656 291.539062 L 241.347656 305.894531 L 255.695312 305.894531 L 255.695312 291.539062 L 241.347656 291.539062" fill="#f0d681"/></g><g id="change2_26"><path d="M 241.347656 277.191406 L 241.347656 291.539062 L 255.695312 291.539062 L 255.695312 277.191406 L 241.347656 277.191406" fill="#f0d681"/></g><g id="change3_27"><path d="M 241.347656 262.84375 L 241.347656 277.191406 L 255.695312 277.191406 L 255.695312 262.84375 L 241.347656 262.84375" fill="#a41625"/></g><g id="change3_28"><path d="M 241.347656 248.507812 L 241.347656 262.84375 L 255.695312 262.84375 L 255.695312 248.507812 L 241.347656 248.507812" fill="#a41625"/></g><g id="change5_72"><path d="M 241.347656 234.15625 L 241.347656 248.507812 L 255.695312 248.507812 L 255.695312 234.15625 L 241.347656 234.15625" fill="#ed1c24"/></g><g id="change5_73"><path d="M 241.347656 219.726562 L 241.347656 234.15625 L 255.695312 234.15625 L 255.695312 219.726562 L 241.347656 219.726562" fill="#ed1c24"/></g><g id="change5_74"><path d="M 241.347656 205.394531 L 241.347656 219.726562 L 255.695312 219.726562 L 255.695312 205.394531 L 241.347656 205.394531" fill="#ed1c24"/></g><g id="change5_75"><path d="M 241.347656 191.042969 L 241.347656 205.394531 L 255.695312 205.394531 L 255.695312 191.042969 L 241.347656 191.042969" fill="#ed1c24"/></g><g id="change5_76"><path d="M 241.347656 176.691406 L 241.347656 191.042969 L 255.695312 191.042969 L 255.695312 176.691406 L 241.347656 176.691406" fill="#ed1c24"/></g><g id="change5_77"><path d="M 241.347656 162.347656 L 241.347656 176.691406 L 255.695312 176.691406 L 255.695312 162.347656 L 241.347656 162.347656" fill="#ed1c24"/></g><g id="change5_78"><path d="M 241.347656 148.011719 L 241.347656 162.347656 L 255.695312 162.347656 L 255.695312 148.011719 L 241.347656 148.011719" fill="#ed1c24"/></g><g id="change4_34"><path d="M 241.347656 133.660156 L 241.347656 148.011719 L 255.695312 148.011719 L 255.695312 133.660156 L 241.347656 133.660156" fill="#fff"/></g><g id="change5_79"><path d="M 241.347656 119.308594 L 241.347656 133.660156 L 255.695312 133.660156 L 255.695312 119.308594 L 241.347656 119.308594" fill="#ed1c24"/></g><g id="change5_80"><path d="M 241.347656 104.960938 L 241.347656 119.308594 L 255.695312 119.308594 L 255.695312 104.960938 L 241.347656 104.960938" fill="#ed1c24"/></g><g id="change5_81"><path d="M 241.347656 90.609375 L 241.347656 104.960938 L 255.695312 104.960938 L 255.695312 90.609375 L 241.347656 90.609375" fill="#ed1c24"/></g><g id="change5_82"><path d="M 241.347656 76.277344 L 241.347656 90.609375 L 255.695312 90.609375 L 255.695312 76.277344 L 241.347656 76.277344" fill="#ed1c24"/></g><g id="change1_15"><path d="M 255.695312 334.574219 L 255.695312 348.921875 L 270.027344 348.921875 L 270.027344 334.574219 L 255.695312 334.574219" fill="#e5b94a"/></g><g id="change1_16"><path d="M 255.695312 320.226562 L 255.695312 334.574219 L 270.027344 334.574219 L 270.027344 320.226562 L 255.695312 320.226562" fill="#e5b94a"/></g><g id="change1_17"><path d="M 255.695312 305.894531 L 255.695312 320.226562 L 270.027344 320.226562 L 270.027344 305.894531 L 255.695312 305.894531" fill="#e5b94a"/></g><g id="change2_27"><path d="M 255.695312 291.539062 L 255.695312 305.894531 L 270.027344 305.894531 L 270.027344 291.539062 L 255.695312 291.539062" fill="#f0d681"/></g><g id="change2_28"><path d="M 255.695312 277.191406 L 255.695312 291.539062 L 270.027344 291.539062 L 270.027344 277.191406 L 255.695312 277.191406" fill="#f0d681"/></g><g id="change3_29"><path d="M 255.695312 262.84375 L 255.695312 277.191406 L 270.027344 277.191406 L 270.027344 262.84375 L 255.695312 262.84375" fill="#a41625"/></g><g id="change3_30"><path d="M 255.695312 248.507812 L 255.695312 262.84375 L 270.027344 262.84375 L 270.027344 248.507812 L 255.695312 248.507812" fill="#a41625"/></g><g id="change5_83"><path d="M 255.695312 234.15625 L 255.695312 248.507812 L 270.027344 248.507812 L 270.027344 234.15625 L 255.695312 234.15625" fill="#ed1c24"/></g><g id="change5_84"><path d="M 255.695312 219.726562 L 255.695312 234.15625 L 270.027344 234.15625 L 270.027344 219.726562 L 255.695312 219.726562" fill="#ed1c24"/></g><g id="change5_85"><path d="M 255.695312 205.394531 L 255.695312 219.726562 L 270.027344 219.726562 L 270.027344 205.394531 L 255.695312 205.394531" fill="#ed1c24"/></g><g id="change5_86"><path d="M 255.695312 191.042969 L 255.695312 205.394531 L 270.027344 205.394531 L 270.027344 191.042969 L 255.695312 191.042969" fill="#ed1c24"/></g><g id="change4_35"><path d="M 255.695312 176.691406 L 255.695312 191.042969 L 270.027344 191.042969 L 270.027344 176.691406 L 255.695312 176.691406" fill="#fff"/></g><g id="change4_36"><path d="M 255.695312 162.347656 L 255.695312 176.691406 L 270.027344 176.691406 L 270.027344 162.347656 L 255.695312 162.347656" fill="#fff"/></g><g id="change5_87"><path d="M 255.695312 148.011719 L 255.695312 162.347656 L 270.027344 162.347656 L 270.027344 148.011719 L 255.695312 148.011719" fill="#ed1c24"/></g><g id="change5_88"><path d="M 255.695312 133.660156 L 255.695312 148.011719 L 270.027344 148.011719 L 270.027344 133.660156 L 255.695312 133.660156" fill="#ed1c24"/></g><g id="change5_89"><path d="M 255.695312 119.308594 L 255.695312 133.660156 L 270.027344 133.660156 L 270.027344 119.308594 L 255.695312 119.308594" fill="#ed1c24"/></g><g id="change5_90"><path d="M 255.695312 104.960938 L 255.695312 119.308594 L 270.027344 119.308594 L 270.027344 104.960938 L 255.695312 104.960938" fill="#ed1c24"/></g><g id="change5_91"><path d="M 255.695312 90.609375 L 255.695312 104.960938 L 270.027344 104.960938 L 270.027344 90.609375 L 255.695312 90.609375" fill="#ed1c24"/></g><g id="change5_92"><path d="M 255.695312 76.277344 L 255.695312 90.609375 L 270.027344 90.609375 L 270.027344 76.277344 L 255.695312 76.277344" fill="#ed1c24"/></g><g id="change1_18"><path d="M 270.027344 334.574219 L 270.027344 348.921875 L 284.378906 348.921875 L 284.378906 334.574219 L 270.027344 334.574219" fill="#e5b94a"/></g><g id="change1_19"><path d="M 270.027344 320.226562 L 270.027344 334.574219 L 284.378906 334.574219 L 284.378906 320.226562 L 270.027344 320.226562" fill="#e5b94a"/></g><g id="change1_20"><path d="M 270.027344 305.894531 L 270.027344 320.226562 L 284.378906 320.226562 L 284.378906 305.894531 L 270.027344 305.894531" fill="#e5b94a"/></g><g id="change1_21"><path d="M 270.027344 291.539062 L 270.027344 305.894531 L 284.378906 305.894531 L 284.378906 291.539062 L 270.027344 291.539062" fill="#e5b94a"/></g><g id="change1_22"><path d="M 270.027344 277.191406 L 270.027344 291.539062 L 284.378906 291.539062 L 284.378906 277.191406 L 270.027344 277.191406" fill="#e5b94a"/></g><g id="change3_31"><path d="M 270.027344 262.84375 L 270.027344 277.191406 L 284.378906 277.191406 L 284.378906 262.84375 L 270.027344 262.84375" fill="#a41625"/></g><g id="change3_32"><path d="M 270.027344 248.507812 L 270.027344 262.84375 L 284.378906 262.84375 L 284.378906 248.507812 L 270.027344 248.507812" fill="#a41625"/></g><g id="change5_93"><path d="M 270.027344 234.15625 L 270.027344 248.507812 L 284.378906 248.507812 L 284.378906 234.15625 L 270.027344 234.15625" fill="#ed1c24"/></g><g id="change5_94"><path d="M 270.027344 219.726562 L 270.027344 234.15625 L 284.378906 234.15625 L 284.378906 219.726562 L 270.027344 219.726562" fill="#ed1c24"/></g><g id="change5_95"><path d="M 270.027344 205.394531 L 270.027344 219.726562 L 284.378906 219.726562 L 284.378906 205.394531 L 270.027344 205.394531" fill="#ed1c24"/></g><g id="change4_37"><path d="M 270.027344 191.042969 L 270.027344 205.394531 L 284.378906 205.394531 L 284.378906 191.042969 L 270.027344 191.042969" fill="#fff"/></g><g id="change4_38"><path d="M 270.027344 176.691406 L 270.027344 191.042969 L 284.378906 191.042969 L 284.378906 176.691406 L 270.027344 176.691406" fill="#fff"/></g><g id="change4_39"><path d="M 270.027344 162.347656 L 270.027344 176.691406 L 284.378906 176.691406 L 284.378906 162.347656 L 270.027344 162.347656" fill="#fff"/></g><g id="change4_40"><path d="M 270.027344 148.011719 L 270.027344 162.347656 L 284.378906 162.347656 L 284.378906 148.011719 L 270.027344 148.011719" fill="#fff"/></g><g id="change5_96"><path d="M 270.027344 133.660156 L 270.027344 148.011719 L 284.378906 148.011719 L 284.378906 133.660156 L 270.027344 133.660156" fill="#ed1c24"/></g><g id="change5_97"><path d="M 270.027344 119.308594 L 270.027344 133.660156 L 284.378906 133.660156 L 284.378906 119.308594 L 270.027344 119.308594" fill="#ed1c24"/></g><g id="change5_98"><path d="M 270.027344 104.960938 L 270.027344 119.308594 L 284.378906 119.308594 L 284.378906 104.960938 L 270.027344 104.960938" fill="#ed1c24"/></g><g id="change5_99"><path d="M 270.027344 90.609375 L 270.027344 104.960938 L 284.378906 104.960938 L 284.378906 90.609375 L 270.027344 90.609375" fill="#ed1c24"/></g><g id="change3_33"><path d="M 284.378906 262.84375 L 284.378906 277.191406 L 298.730469 277.191406 L 298.730469 262.84375 L 284.378906 262.84375" fill="#a41625"/></g><g id="change3_34"><path d="M 284.378906 248.507812 L 284.378906 262.84375 L 298.730469 262.84375 L 298.730469 248.507812 L 284.378906 248.507812" fill="#a41625"/></g><g id="change5_100"><path d="M 284.378906 234.15625 L 284.378906 248.507812 L 298.730469 248.507812 L 298.730469 234.15625 L 284.378906 234.15625" fill="#ed1c24"/></g><g id="change5_101"><path d="M 284.378906 219.726562 L 284.378906 234.15625 L 298.730469 234.15625 L 298.730469 219.726562 L 284.378906 219.726562" fill="#ed1c24"/></g><g id="change5_102"><path d="M 284.378906 205.394531 L 284.378906 219.726562 L 298.730469 219.726562 L 298.730469 205.394531 L 284.378906 205.394531" fill="#ed1c24"/></g><g id="change5_103"><path d="M 284.378906 191.042969 L 284.378906 205.394531 L 298.730469 205.394531 L 298.730469 191.042969 L 284.378906 191.042969" fill="#ed1c24"/></g><g id="change4_41"><path d="M 284.378906 176.691406 L 284.378906 191.042969 L 298.730469 191.042969 L 298.730469 176.691406 L 284.378906 176.691406" fill="#fff"/></g><g id="change4_42"><path d="M 284.378906 162.347656 L 284.378906 176.691406 L 298.730469 176.691406 L 298.730469 162.347656 L 284.378906 162.347656" fill="#fff"/></g><g id="change5_104"><path d="M 284.378906 148.011719 L 284.378906 162.347656 L 298.730469 162.347656 L 298.730469 148.011719 L 284.378906 148.011719" fill="#ed1c24"/></g><g id="change5_105"><path d="M 284.378906 133.660156 L 284.378906 148.011719 L 298.730469 148.011719 L 298.730469 133.660156 L 284.378906 133.660156" fill="#ed1c24"/></g><g id="change5_106"><path d="M 284.378906 119.308594 L 284.378906 133.660156 L 298.730469 133.660156 L 298.730469 119.308594 L 284.378906 119.308594" fill="#ed1c24"/></g><g id="change5_107"><path d="M 284.378906 104.960938 L 284.378906 119.308594 L 298.730469 119.308594 L 298.730469 104.960938 L 284.378906 104.960938" fill="#ed1c24"/></g><g id="change3_35"><path d="M 298.730469 262.84375 L 298.730469 277.191406 L 313.078125 277.191406 L 313.078125 262.84375 L 298.730469 262.84375" fill="#a41625"/></g><g id="change3_36"><path d="M 298.730469 248.507812 L 298.730469 262.84375 L 313.078125 262.84375 L 313.078125 248.507812 L 298.730469 248.507812" fill="#a41625"/></g><g id="change5_108"><path d="M 298.730469 234.15625 L 298.730469 248.507812 L 313.078125 248.507812 L 313.078125 234.15625 L 298.730469 234.15625" fill="#ed1c24"/></g><g id="change4_43"><path d="M 298.730469 219.726562 L 298.730469 234.15625 L 313.078125 234.15625 L 313.078125 219.726562 L 298.730469 219.726562" fill="#fff"/></g><g id="change5_109"><path d="M 298.730469 205.394531 L 298.730469 219.726562 L 313.078125 219.726562 L 313.078125 205.394531 L 298.730469 205.394531" fill="#ed1c24"/></g><g id="change5_110"><path d="M 298.730469 191.042969 L 298.730469 205.394531 L 313.078125 205.394531 L 313.078125 191.042969 L 298.730469 191.042969" fill="#ed1c24"/></g><g id="change5_111"><path d="M 298.730469 176.691406 L 298.730469 191.042969 L 313.078125 191.042969 L 313.078125 176.691406 L 298.730469 176.691406" fill="#ed1c24"/></g><g id="change5_112"><path d="M 298.730469 162.347656 L 298.730469 176.691406 L 313.078125 176.691406 L 313.078125 162.347656 L 298.730469 162.347656" fill="#ed1c24"/></g><g id="change5_113"><path d="M 298.730469 148.011719 L 298.730469 162.347656 L 313.078125 162.347656 L 313.078125 148.011719 L 298.730469 148.011719" fill="#ed1c24"/></g><g id="change5_114"><path d="M 298.730469 133.660156 L 298.730469 148.011719 L 313.078125 148.011719 L 313.078125 133.660156 L 298.730469 133.660156" fill="#ed1c24"/></g><g id="change5_115"><path d="M 298.730469 119.308594 L 298.730469 133.660156 L 313.078125 133.660156 L 313.078125 119.308594 L 298.730469 119.308594" fill="#ed1c24"/></g><g id="change3_37"><path d="M 313.078125 262.84375 L 313.078125 277.191406 L 327.429688 277.191406 L 327.429688 262.84375 L 313.078125 262.84375" fill="#a41625"/></g><g id="change3_38"><path d="M 313.078125 248.507812 L 313.078125 262.84375 L 327.429688 262.84375 L 327.429688 248.507812 L 313.078125 248.507812" fill="#a41625"/></g><g id="change7_1"><path d="M 313.078125 234.15625 L 313.078125 248.507812 L 327.429688 248.507812 L 327.429688 234.15625 L 313.078125 234.15625" fill="#d5d4d5"/></g><g id="change4_44"><path d="M 313.078125 219.726562 L 313.078125 234.15625 L 327.429688 234.15625 L 327.429688 219.726562 L 313.078125 219.726562" fill="#fff"/></g><g id="change4_45"><path d="M 313.078125 205.394531 L 313.078125 219.726562 L 327.429688 219.726562 L 327.429688 205.394531 L 313.078125 205.394531" fill="#fff"/></g><g id="change5_116"><path d="M 313.078125 191.042969 L 313.078125 205.394531 L 327.429688 205.394531 L 327.429688 191.042969 L 313.078125 191.042969" fill="#ed1c24"/></g><g id="change5_117"><path d="M 313.078125 176.691406 L 313.078125 191.042969 L 327.429688 191.042969 L 327.429688 176.691406 L 313.078125 176.691406" fill="#ed1c24"/></g><g id="change5_118"><path d="M 313.078125 162.347656 L 313.078125 176.691406 L 327.429688 176.691406 L 327.429688 162.347656 L 313.078125 162.347656" fill="#ed1c24"/></g><g id="change5_119"><path d="M 313.078125 148.011719 L 313.078125 162.347656 L 327.429688 162.347656 L 327.429688 148.011719 L 313.078125 148.011719" fill="#ed1c24"/></g><g id="change5_120"><path d="M 313.078125 133.660156 L 313.078125 148.011719 L 327.429688 148.011719 L 327.429688 133.660156 L 313.078125 133.660156" fill="#ed1c24"/></g><g id="change3_39"><path d="M 327.429688 262.84375 L 327.429688 277.191406 L 341.761719 277.191406 L 341.761719 262.84375 L 327.429688 262.84375" fill="#a41625"/></g><g id="change3_40"><path d="M 327.429688 248.507812 L 327.429688 262.84375 L 341.761719 262.84375 L 341.761719 248.507812 L 327.429688 248.507812" fill="#a41625"/></g><g id="change7_2"><path d="M 327.429688 234.15625 L 327.429688 248.507812 L 341.761719 248.507812 L 341.761719 234.15625 L 327.429688 234.15625" fill="#d5d4d5"/></g><g id="change7_3"><path d="M 327.429688 219.726562 L 327.429688 234.15625 L 341.761719 234.15625 L 341.761719 219.726562 L 327.429688 219.726562" fill="#d5d4d5"/></g><g id="change4_46"><path d="M 327.429688 205.394531 L 327.429688 219.726562 L 341.761719 219.726562 L 341.761719 205.394531 L 327.429688 205.394531" fill="#fff"/></g><g id="change5_121"><path d="M 327.429688 191.042969 L 327.429688 205.394531 L 341.761719 205.394531 L 341.761719 191.042969 L 327.429688 191.042969" fill="#ed1c24"/></g><g id="change5_122"><path d="M 327.429688 176.691406 L 327.429688 191.042969 L 341.761719 191.042969 L 341.761719 176.691406 L 327.429688 176.691406" fill="#ed1c24"/></g><g id="change5_123"><path d="M 327.429688 162.347656 L 327.429688 176.691406 L 341.761719 176.691406 L 341.761719 162.347656 L 327.429688 162.347656" fill="#ed1c24"/></g><g id="change5_124"><path d="M 327.429688 148.011719 L 327.429688 162.347656 L 341.761719 162.347656 L 341.761719 148.011719 L 327.429688 148.011719" fill="#ed1c24"/></g><g id="change3_41"><path d="M 341.761719 262.84375 L 341.761719 277.191406 L 356.113281 277.191406 L 356.113281 262.84375 L 341.761719 262.84375" fill="#a41625"/></g><g id="change3_42"><path d="M 341.761719 248.507812 L 341.761719 262.84375 L 356.113281 262.84375 L 356.113281 248.507812 L 341.761719 248.507812" fill="#a41625"/></g><g id="change3_43"><path d="M 341.761719 234.15625 L 341.761719 248.507812 L 356.113281 248.507812 L 356.113281 234.15625 L 341.761719 234.15625" fill="#a41625"/></g><g id="change7_4"><path d="M 341.761719 219.726562 L 341.761719 234.15625 L 356.113281 234.15625 L 356.113281 219.726562 L 341.761719 219.726562" fill="#d5d4d5"/></g><g id="change5_125"><path d="M 341.761719 205.394531 L 341.761719 219.726562 L 356.113281 219.726562 L 356.113281 205.394531 L 341.761719 205.394531" fill="#ed1c24"/></g><g id="change5_126"><path d="M 341.761719 191.042969 L 341.761719 205.394531 L 356.113281 205.394531 L 356.113281 191.042969 L 341.761719 191.042969" fill="#ed1c24"/></g><g id="change5_127"><path d="M 341.761719 176.691406 L 341.761719 191.042969 L 356.113281 191.042969 L 356.113281 176.691406 L 341.761719 176.691406" fill="#ed1c24"/></g><g id="change5_128"><path d="M 341.761719 162.347656 L 341.761719 176.691406 L 356.113281 176.691406 L 356.113281 162.347656 L 341.761719 162.347656" fill="#ed1c24"/></g><g id="change3_44"><path d="M 356.113281 262.84375 L 356.113281 277.191406 L 370.464844 277.191406 L 370.464844 262.84375 L 356.113281 262.84375" fill="#a41625"/></g><g id="change3_45"><path d="M 356.113281 248.507812 L 356.113281 262.84375 L 370.464844 262.84375 L 370.464844 248.507812 L 356.113281 248.507812" fill="#a41625"/></g><g id="change3_46"><path d="M 356.113281 234.15625 L 356.113281 248.507812 L 370.464844 248.507812 L 370.464844 234.15625 L 356.113281 234.15625" fill="#a41625"/></g><g id="change3_47"><path d="M 356.113281 219.726562 L 356.113281 234.15625 L 370.464844 234.15625 L 370.464844 219.726562 L 356.113281 219.726562" fill="#a41625"/></g><g id="change3_48"><path d="M 356.113281 205.394531 L 356.113281 219.726562 L 370.464844 219.726562 L 370.464844 205.394531 L 356.113281 205.394531" fill="#a41625"/></g><g id="change3_49"><path d="M 356.113281 191.042969 L 356.113281 205.394531 L 370.464844 205.394531 L 370.464844 191.042969 L 356.113281 191.042969" fill="#a41625"/></g><g id="change3_50"><path d="M 356.113281 176.691406 L 356.113281 191.042969 L 370.464844 191.042969 L 370.464844 176.691406 L 356.113281 176.691406" fill="#a41625"/></g></g></svg>