<?xml version="1.0" encoding="UTF-8" standalone="no"?><svg xmlns="http://www.w3.org/2000/svg" xmlns:xlink="http://www.w3.org/1999/xlink" fill="#000000" height="113.4" preserveAspectRatio="xMidYMid meet" version="1" viewBox="34.9 155.9 355.3 113.4" width="355.3" zoomAndPan="magnify"><g><g id="change1_1"><path d="M 130.050781 155.917969 C 150.554688 155.917969 150.554688 175.644531 171.054688 175.644531 C 191.5625 175.644531 191.5625 155.917969 212.066406 155.917969 C 232.566406 155.917969 232.566406 175.644531 253.066406 175.644531 C 273.574219 175.644531 273.574219 155.917969 294.082031 155.917969 C 313.957031 155.917969 319.039062 175.65625 337.71875 176.804688 L 333.308594 240.351562 L 91.890625 240.351562 L 91.890625 175.472656 C 109.5625 173.714844 110.554688 155.917969 130.050781 155.917969" fill="#4c96cb"/></g><g id="change2_1"><path d="M 34.925781 190.734375 C 54.945312 188.609375 56.078125 167.0625 78.167969 167.0625 C 101.40625 167.0625 101.40625 190.945312 124.636719 190.945312 C 147.875 190.945312 147.875 167.0625 171.109375 167.0625 C 194.339844 167.0625 194.339844 190.945312 217.570312 190.945312 C 240.808594 190.945312 240.808594 167.0625 264.046875 167.0625 C 287.285156 167.0625 287.285156 190.945312 310.527344 190.945312 C 333.769531 190.945312 334.78125 165.070312 357.941406 167.101562 C 376.15625 168.699219 378.226562 179.359375 390.273438 186.390625 L 390.273438 269.28125 L 34.925781 269.28125 L 34.925781 190.734375" fill="#357bad"/></g><g id="change3_1"><path d="M 65.316406 228.164062 L 65.316406 220.242188 L 72.234375 220.242188 L 72.234375 228.164062 Z M 86.078125 228.164062 L 86.078125 220.242188 L 92.996094 220.242188 L 92.996094 228.164062 Z M 106.832031 228.164062 L 106.832031 220.242188 L 113.753906 220.242188 L 113.753906 228.164062 Z M 127.59375 228.164062 L 127.59375 220.074219 L 120.675781 220.074219 L 120.675781 212.316406 L 134.515625 212.316406 L 134.515625 228.164062 Z M 164.414062 228.164062 L 164.414062 212.316406 L 180.480469 212.316406 L 180.480469 220.074219 L 172.449219 220.074219 L 172.449219 228.164062 Z M 188.507812 228.164062 L 188.507812 220.242188 L 196.539062 220.242188 L 196.539062 228.164062 Z M 212.597656 228.164062 L 212.597656 220.242188 L 220.632812 220.242188 L 220.632812 228.164062 Z M 236.695312 228.164062 L 236.695312 220.242188 L 244.722656 220.242188 L 244.722656 228.164062 Z M 268.8125 228.164062 L 268.8125 220.242188 L 276.847656 220.242188 L 276.847656 228.164062 Z M 290.683594 228.164062 L 290.683594 212.316406 L 304.523438 212.316406 L 304.523438 220.074219 L 297.605469 220.074219 L 297.605469 228.164062 Z M 311.441406 228.164062 L 311.441406 220.242188 L 318.363281 220.242188 L 318.363281 228.164062 Z M 332.203125 228.164062 L 332.203125 220.242188 L 339.125 220.242188 L 339.125 228.164062 Z M 352.960938 228.164062 L 352.960938 220.242188 L 359.882812 220.242188 L 359.882812 228.164062 Z M 373.71875 220.074219 L 366.800781 220.074219 L 366.800781 212.316406 L 373.71875 212.316406 Z M 366.800781 212.148438 L 359.882812 212.148438 L 359.882812 204.394531 L 366.800781 204.394531 Z M 352.960938 220.074219 L 346.042969 220.074219 L 346.042969 212.316406 L 352.960938 212.316406 Z M 332.203125 220.074219 L 318.363281 220.074219 L 318.363281 212.316406 L 332.203125 212.316406 Z M 283.765625 220.074219 L 276.847656 220.074219 L 276.847656 212.316406 L 283.765625 212.316406 Z M 276.847656 212.148438 L 268.8125 212.148438 L 268.8125 204.394531 L 276.847656 204.394531 Z M 260.78125 220.074219 L 252.753906 220.074219 L 252.753906 212.316406 L 260.78125 212.316406 Z M 252.753906 212.148438 L 244.722656 212.148438 L 244.722656 204.394531 L 252.753906 204.394531 Z M 236.695312 220.074219 L 228.660156 220.074219 L 228.660156 212.316406 L 236.695312 212.316406 Z M 212.597656 220.074219 L 196.539062 220.074219 L 196.539062 212.316406 L 212.597656 212.316406 Z M 156.382812 220.074219 L 141.433594 220.074219 L 141.433594 212.316406 L 156.382812 212.316406 Z M 106.832031 220.074219 L 92.996094 220.074219 L 92.996094 212.316406 L 106.832031 212.316406 Z M 79.15625 220.074219 L 72.234375 220.074219 L 72.234375 212.316406 L 79.15625 212.316406 Z M 65.316406 212.148438 L 58.398438 212.148438 L 58.398438 204.394531 L 65.316406 204.394531 Z M 58.398438 212.316406 L 58.398438 220.074219 L 51.476562 220.074219 L 51.476562 212.316406 Z M 44.558594 204.394531 L 44.558594 212.148438 L 37.636719 212.148438 L 37.636719 220.242188 L 44.558594 220.242188 L 44.558594 228.164062 L 37.636719 228.164062 L 37.636719 267.113281 L 387.5625 267.113281 L 387.5625 228.164062 L 380.644531 228.164062 L 380.644531 220.242188 L 387.5625 220.242188 L 387.5625 212.148438 L 380.644531 212.148438 L 380.644531 204.394531 L 387.5625 204.394531 L 387.5625 196.304688 L 380.644531 196.304688 L 380.644531 204.226562 L 373.71875 204.226562 L 373.71875 196.304688 L 359.882812 196.304688 L 359.882812 204.226562 L 352.960938 204.226562 L 352.960938 196.304688 L 346.042969 196.304688 L 346.042969 212.148438 L 339.125 212.148438 L 339.125 204.226562 L 318.363281 204.226562 L 318.363281 212.148438 L 304.523438 212.148438 L 304.523438 196.304688 L 297.605469 196.304688 L 297.605469 204.226562 L 290.683594 204.226562 L 290.683594 212.148438 L 283.765625 212.148438 L 283.765625 204.226562 L 276.847656 204.226562 L 276.847656 196.304688 L 268.8125 196.304688 L 268.8125 204.226562 L 260.78125 204.226562 L 260.78125 196.304688 L 244.722656 196.304688 L 244.722656 204.226562 L 236.695312 204.226562 L 236.695312 196.304688 L 228.660156 196.304688 L 228.660156 212.148438 L 220.632812 212.148438 L 220.632812 204.226562 L 196.539062 204.226562 L 196.539062 212.148438 L 180.480469 212.148438 L 180.480469 196.304688 L 172.449219 196.304688 L 172.449219 204.226562 L 164.414062 204.226562 L 164.414062 212.148438 L 156.382812 212.148438 L 156.382812 204.226562 L 141.433594 204.226562 L 141.433594 212.148438 L 134.515625 212.148438 L 134.515625 204.226562 L 127.59375 204.226562 L 127.59375 196.304688 L 120.675781 196.304688 L 120.675781 212.148438 L 106.832031 212.148438 L 106.832031 204.226562 L 86.078125 204.226562 L 86.078125 212.148438 L 79.15625 212.148438 L 79.15625 196.304688 L 72.234375 196.304688 L 72.234375 204.226562 L 65.316406 204.226562 L 65.316406 196.304688 L 51.476562 196.304688 L 51.476562 204.226562 L 44.558594 204.226562 L 44.558594 196.304688 L 37.636719 196.304688 L 37.636719 204.394531 L 44.558594 204.394531" fill="#4c96cb"/></g></g></svg>