<?xml version="1.0" encoding="UTF-8"?><svg xmlns="http://www.w3.org/2000/svg" xmlns:xlink="http://www.w3.org/1999/xlink" height="427.1" preserveAspectRatio="xMidYMid meet" version="1.0" viewBox="0.0 0.0 500.0 427.1" width="500.0" zoomAndPan="magnify"><defs><clipPath id="a"><path d="M 2 0 L 500 0 L 500 427.078125 L 2 427.078125 Z M 2 0"/></clipPath><clipPath id="b"><path d="M 10 0 L 480 0 L 480 427.078125 L 10 427.078125 Z M 10 0"/></clipPath></defs><g><g clip-path="url(#a)" id="change1_1"><path d="M 468.742188 31.246094 L 458.328125 31.246094 L 458.328125 41.667969 L 468.742188 41.667969 Z M 354.160156 427.078125 L 354.160156 416.667969 L 343.75 416.667969 L 343.75 427.078125 Z M 322.914062 427.078125 L 333.324219 427.078125 L 333.324219 416.667969 L 322.914062 416.667969 Z M 374.996094 416.667969 L 374.996094 406.242188 L 364.585938 406.242188 L 364.585938 416.667969 Z M 302.078125 249.992188 L 302.078125 239.582031 L 291.664062 239.582031 L 291.664062 249.992188 Z M 354.160156 354.160156 L 343.75 354.160156 L 343.75 364.582031 L 354.160156 364.582031 Z M 322.914062 229.167969 L 322.914062 218.746094 L 312.5 218.746094 L 312.5 229.167969 Z M 489.578125 41.667969 L 489.578125 52.082031 L 500 52.082031 L 500 41.667969 Z M 458.328125 41.667969 L 447.914062 41.667969 L 447.914062 52.082031 L 458.328125 52.082031 Z M 479.164062 62.496094 L 489.578125 62.496094 L 489.578125 52.082031 L 479.164062 52.082031 Z M 447.914062 52.082031 L 437.492188 52.082031 L 437.492188 62.496094 L 447.914062 62.496094 Z M 333.324219 416.667969 L 343.75 416.667969 L 343.75 406.242188 L 333.324219 406.242188 Z M 458.328125 62.496094 L 458.328125 72.917969 L 479.164062 72.917969 L 479.164062 62.496094 Z M 437.492188 72.917969 L 437.492188 83.332031 L 439.492188 83.332031 L 439.492188 85.332031 L 437.492188 85.332031 L 437.492188 83.332031 L 427.082031 83.332031 L 427.082031 72.917969 L 437.492188 72.917969 L 437.492188 62.496094 L 425.082031 62.496094 L 425.082031 43.667969 L 418.65625 43.667969 L 418.65625 62.496094 L 416.65625 62.496094 L 416.65625 72.917969 L 395.832031 72.917969 L 395.832031 83.332031 L 385.410156 83.332031 L 385.410156 93.742188 L 374.996094 93.742188 L 374.996094 104.164062 L 354.160156 104.164062 L 354.160156 114.578125 L 333.324219 114.578125 L 333.324219 116.578125 L 310.5 116.578125 L 310.5 102.164062 L 320.914062 102.164062 L 320.914062 95.742188 L 304.078125 95.742188 L 304.078125 106.164062 L 293.664062 106.164062 L 293.664062 116.578125 L 283.242188 116.578125 L 283.242188 127.003906 L 272.828125 127.003906 L 272.828125 135.414062 L 260.417969 135.414062 L 260.417969 145.828125 L 229.160156 145.828125 L 229.160156 156.25 L 197.910156 156.25 L 197.910156 166.660156 L 187.5 166.660156 L 187.5 168.660156 L 185.5 168.660156 L 185.5 166.660156 L 187.5 166.660156 L 187.5 145.828125 L 197.910156 145.828125 L 197.910156 135.414062 L 187.5 135.414062 L 187.5 114.578125 L 185.5 114.578125 L 185.5 112.578125 L 187.5 112.578125 L 187.5 114.578125 L 197.910156 114.578125 L 197.910156 104.164062 L 195.910156 104.164062 L 195.910156 95.742188 L 187.5 95.742188 L 187.5 93.742188 L 185.5 93.742188 L 185.5 83.332031 L 187.5 83.332031 L 187.5 81.332031 L 197.910156 81.332031 L 197.910156 83.332031 L 199.910156 83.332031 L 199.910156 91.742188 L 206.335938 91.742188 L 206.335938 83.332031 L 208.335938 83.332031 L 208.335938 81.332031 L 216.746094 81.332031 L 216.746094 74.917969 L 208.335938 74.917969 L 208.335938 72.917969 L 197.910156 72.917969 L 197.910156 74.917969 L 187.5 74.917969 L 187.5 72.917969 L 175.074219 72.917969 L 175.074219 62.496094 L 177.074219 62.496094 L 177.074219 60.496094 L 185.5 60.496094 L 185.5 52.082031 L 187.5 52.082031 L 187.5 50.082031 L 195.910156 50.082031 L 195.910156 41.667969 L 197.910156 41.667969 L 197.910156 31.246094 L 187.5 31.246094 L 187.5 41.667969 L 189.5 41.667969 L 189.5 43.667969 L 187.5 43.667969 L 187.5 41.667969 L 166.664062 41.667969 L 166.664062 52.082031 L 156.25 52.082031 L 156.25 62.496094 L 143.828125 62.496094 L 143.828125 52.082031 L 145.828125 52.082031 L 145.828125 50.082031 L 154.25 50.082031 L 154.25 41.667969 L 156.25 41.667969 L 156.25 39.667969 L 164.664062 39.667969 L 164.664062 31.246094 L 166.664062 31.246094 L 166.664062 29.246094 L 175.074219 29.246094 L 175.074219 20.835938 L 177.074219 20.835938 L 177.074219 18.835938 L 185.5 18.835938 L 185.5 10.410156 L 187.5 10.410156 L 187.5 0 L 177.074219 0 L 177.074219 10.410156 L 179.074219 10.410156 L 179.074219 12.410156 L 177.074219 12.410156 L 177.074219 10.410156 L 166.664062 10.410156 L 166.664062 20.835938 L 168.664062 20.835938 L 168.664062 22.835938 L 166.664062 22.835938 L 166.664062 20.835938 L 156.25 20.835938 L 156.25 31.246094 L 158.25 31.246094 L 158.25 33.246094 L 156.25 33.246094 L 156.25 31.246094 L 143.828125 31.246094 L 143.828125 20.835938 L 145.828125 20.835938 L 145.828125 18.835938 L 154.25 18.835938 L 154.25 12.410156 L 145.828125 12.410156 L 145.828125 10.410156 L 135.414062 10.410156 L 135.414062 20.835938 L 137.414062 20.835938 L 137.414062 22.835938 L 135.414062 22.835938 L 135.414062 20.835938 L 124.992188 20.835938 L 124.992188 31.246094 L 126.992188 31.246094 L 126.992188 33.246094 L 124.992188 33.246094 L 124.992188 31.246094 L 114.578125 31.246094 L 114.578125 41.667969 L 116.578125 41.667969 L 116.578125 43.667969 L 114.578125 43.667969 L 114.578125 41.667969 L 93.742188 41.667969 L 93.742188 43.667969 L 91.742188 43.667969 L 91.742188 33.246094 L 85.332031 33.246094 L 85.332031 43.667969 L 74.917969 43.667969 L 74.917969 52.082031 L 72.917969 52.082031 L 72.917969 54.082031 L 64.496094 54.082031 L 64.496094 62.496094 L 62.496094 62.496094 L 62.496094 72.917969 L 64.496094 72.917969 L 64.496094 74.917969 L 62.496094 74.917969 L 62.496094 72.917969 L 52.082031 72.917969 L 52.082031 93.742188 L 41.660156 93.742188 L 41.660156 114.578125 L 31.246094 114.578125 L 31.246094 156.25 L 41.660156 156.25 L 41.660156 166.660156 L 52.082031 166.660156 L 52.082031 177.085938 L 62.496094 177.085938 L 62.496094 187.496094 L 41.660156 187.496094 L 41.660156 197.910156 L 31.246094 197.910156 L 31.246094 208.335938 L 33.246094 208.335938 L 33.246094 210.335938 L 22.835938 210.335938 L 22.835938 220.746094 L 12.414062 220.746094 L 12.414062 231.167969 L 2 231.167969 L 2 237.582031 L 12.414062 237.582031 L 12.414062 247.992188 L 43.660156 247.992188 L 43.660156 258.417969 L 52.082031 258.417969 L 52.082031 260.417969 L 72.917969 260.417969 L 72.917969 270.828125 L 74.917969 270.828125 L 74.917969 279.253906 L 83.332031 279.253906 L 83.332031 281.253906 L 85.332031 281.253906 L 85.332031 289.664062 L 93.742188 289.664062 L 93.742188 302.078125 L 95.742188 302.078125 L 95.742188 310.5 L 104.167969 310.5 L 104.167969 312.5 L 106.167969 312.5 L 106.167969 320.914062 L 124.992188 320.914062 L 124.992188 322.914062 L 126.992188 322.914062 L 126.992188 331.335938 L 166.664062 331.335938 L 166.664062 343.75 L 168.664062 343.75 L 168.664062 345.75 L 137.414062 345.75 L 137.414062 352.160156 L 147.828125 352.160156 L 147.828125 362.582031 L 154.25 362.582031 L 154.25 352.160156 L 175.074219 352.160156 L 175.074219 343.75 L 187.5 343.75 L 187.5 333.335938 L 208.335938 333.335938 L 208.335938 343.75 L 210.335938 343.75 L 210.335938 352.160156 L 216.746094 352.160156 L 216.746094 343.75 L 231.160156 343.75 L 231.160156 352.160156 L 239.582031 352.160156 L 239.582031 354.160156 L 241.582031 354.160156 L 241.582031 362.582031 L 249.996094 362.582031 L 249.996094 374.996094 L 260.417969 374.996094 L 260.417969 385.410156 L 270.828125 385.410156 L 270.828125 395.832031 L 281.242188 395.832031 L 281.242188 406.242188 L 283.242188 406.242188 L 283.242188 414.667969 L 289.664062 414.667969 L 289.664062 406.242188 L 302.078125 406.242188 L 302.078125 416.667969 L 322.914062 416.667969 L 322.914062 406.242188 L 333.324219 406.242188 L 333.324219 395.832031 L 343.75 395.832031 L 343.75 406.242188 L 364.585938 406.242188 L 364.585938 395.832031 L 354.160156 395.832031 L 354.160156 385.410156 L 364.585938 385.410156 L 364.585938 374.996094 L 343.75 374.996094 L 343.75 364.582031 L 333.324219 364.582031 L 333.324219 354.160156 L 310.5 354.160156 L 310.5 345.75 L 302.078125 345.75 L 302.078125 343.75 L 281.242188 343.75 L 281.242188 333.335938 L 279.242188 333.335938 L 279.242188 331.335938 L 289.664062 331.335938 L 289.664062 324.914062 L 270.828125 324.914062 L 270.828125 322.914062 L 249.996094 322.914062 L 249.996094 310.5 L 258.417969 310.5 L 258.417969 304.078125 L 249.996094 304.078125 L 249.996094 302.078125 L 237.582031 302.078125 L 237.582031 293.664062 L 229.160156 293.664062 L 229.160156 281.253906 L 218.746094 281.253906 L 218.746094 270.828125 L 216.746094 270.828125 L 216.746094 268.828125 L 237.582031 268.828125 L 237.582031 260.417969 L 270.828125 260.417969 L 270.828125 249.992188 L 260.417969 249.992188 L 260.417969 239.582031 L 270.828125 239.582031 L 270.828125 249.992188 L 281.242188 249.992188 L 281.242188 239.582031 L 291.664062 239.582031 L 291.664062 229.167969 L 302.078125 229.167969 L 302.078125 218.746094 L 312.5 218.746094 L 312.5 208.335938 L 333.324219 208.335938 L 333.324219 206.335938 L 343.75 206.335938 L 343.75 208.335938 L 354.160156 208.335938 L 354.160156 197.910156 L 343.75 197.910156 L 343.75 199.910156 L 333.324219 199.910156 L 333.324219 197.910156 L 312.5 197.910156 L 312.5 187.496094 L 343.75 187.496094 L 343.75 185.496094 L 362.585938 185.496094 L 362.585938 177.085938 L 374.996094 177.085938 L 374.996094 156.25 L 406.246094 156.25 L 406.246094 154.25 L 414.65625 154.25 L 414.65625 147.828125 L 406.246094 147.828125 L 406.246094 145.828125 L 385.410156 145.828125 L 385.410156 135.414062 L 406.246094 135.414062 L 406.246094 125.003906 L 437.492188 125.003906 L 437.492188 114.578125 L 447.914062 114.578125 L 447.914062 104.164062 L 458.328125 104.164062 L 458.328125 93.742188 L 456.328125 93.742188 L 456.328125 91.742188 L 458.328125 91.742188 L 458.328125 93.742188 L 468.742188 93.742188 L 468.742188 91.742188 L 479.164062 91.742188 L 479.164062 93.742188 L 489.578125 93.742188 L 489.578125 83.332031 L 479.164062 83.332031 L 479.164062 85.332031 L 468.742188 85.332031 L 468.742188 83.332031 L 458.328125 83.332031 L 458.328125 85.332031 L 456.328125 85.332031 L 456.328125 83.332031 L 458.328125 83.332031 L 458.328125 72.917969 Z M 293.664062 425.078125 L 300.078125 425.078125 L 300.078125 418.667969 L 293.664062 418.667969 Z M 210.335938 393.832031 L 216.746094 393.832031 L 216.746094 387.410156 L 210.335938 387.410156 Z M 199.910156 362.582031 L 206.335938 362.582031 L 206.335938 356.160156 L 199.910156 356.160156 Z M 199.910156 383.410156 L 206.335938 383.410156 L 206.335938 376.996094 L 199.910156 376.996094 Z M 189.5 372.996094 L 195.910156 372.996094 L 195.910156 366.582031 L 189.5 366.582031 Z M 341.75 74.917969 L 335.324219 74.917969 L 335.324219 81.332031 L 341.75 81.332031 Z M 331.324219 85.332031 L 324.914062 85.332031 L 324.914062 91.742188 L 331.324219 91.742188 Z M 168.664062 383.410156 L 179.074219 383.410156 L 179.074219 404.242188 L 185.5 404.242188 L 185.5 376.996094 L 168.664062 376.996094 Z M 164.664062 2 L 158.25 2 L 158.25 8.410156 L 164.664062 8.410156 Z M 435.492188 33.246094 L 429.082031 33.246094 L 429.082031 39.667969 L 435.492188 39.667969 Z M 227.160156 64.496094 L 220.746094 64.496094 L 220.746094 70.917969 L 227.160156 70.917969 Z M 158.25 393.832031 L 164.664062 393.832031 L 164.664062 387.410156 L 158.25 387.410156 Z M 102.167969 22.835938 L 95.742188 22.835938 L 95.742188 29.246094 L 102.167969 29.246094 Z M 387.410156 206.335938 L 393.832031 206.335938 L 393.832031 199.910156 L 387.410156 199.910156 Z M 397.832031 185.496094 L 404.246094 185.496094 L 404.246094 179.085938 L 397.832031 179.085938 Z M 477.164062 12.410156 L 470.742188 12.410156 L 470.742188 18.835938 L 477.164062 18.835938 Z M 158.25 372.996094 L 164.664062 372.996094 L 164.664062 366.582031 L 158.25 366.582031 Z M 456.328125 12.410156 L 449.914062 12.410156 L 449.914062 18.835938 L 456.328125 18.835938 Z M 372.996094 206.335938 L 372.996094 199.910156 L 366.585938 199.910156 L 366.585938 206.335938 Z M 429.082031 154.25 L 435.492188 154.25 L 435.492188 147.828125 L 429.082031 147.828125 Z M 133.414062 356.160156 L 126.992188 356.160156 L 126.992188 366.582031 L 116.578125 366.582031 L 116.578125 372.996094 L 126.992188 372.996094 L 126.992188 383.410156 L 133.414062 383.410156 L 133.414062 372.996094 L 143.828125 372.996094 L 143.828125 366.582031 L 133.414062 366.582031 Z M 362.585938 352.160156 L 362.585938 345.75 L 356.160156 345.75 L 356.160156 352.160156 Z M 331.324219 237.582031 L 331.324219 231.167969 L 324.914062 231.167969 L 324.914062 237.582031 Z M 310.5 258.417969 L 310.5 251.992188 L 304.078125 251.992188 L 304.078125 258.417969 Z M 376.996094 185.496094 L 383.410156 185.496094 L 383.410156 179.085938 L 376.996094 179.085938 Z M 345.75 247.992188 L 345.75 241.582031 L 352.160156 241.582031 L 352.160156 247.992188 L 345.75 247.992188" fill="#100f0d"/></g><g id="change2_1"><path d="M 72.917969 208.335938 L 72.917969 218.746094 L 52.082031 218.746094 L 52.082031 208.335938 L 72.917969 208.335938" fill="#fff"/></g><g clip-path="url(#b)" id="change3_1"><path d="M 31.246094 239.582031 L 10.414062 239.582031 L 10.414062 249.992188 L 41.660156 249.992188 L 41.660156 239.582031 Z M 41.660156 260.417969 L 52.082031 260.417969 L 52.082031 249.992188 L 41.660156 249.992188 Z M 62.496094 52.082031 L 62.496094 62.496094 L 72.917969 62.496094 L 72.917969 52.082031 Z M 72.917969 72.917969 L 62.496094 72.917969 L 62.496094 83.332031 L 72.917969 83.332031 Z M 83.332031 62.496094 L 72.917969 62.496094 L 72.917969 72.917969 L 83.332031 72.917969 Z M 83.332031 208.335938 L 83.332031 197.910156 L 62.496094 197.910156 L 62.496094 208.335938 Z M 72.917969 270.828125 L 72.917969 281.253906 L 83.332031 281.253906 L 83.332031 270.828125 Z M 93.742188 52.082031 L 93.742188 31.246094 L 83.332031 31.246094 L 83.332031 41.667969 L 72.917969 41.667969 L 72.917969 52.082031 Z M 93.742188 291.664062 L 93.742188 281.253906 L 83.332031 281.253906 L 83.332031 291.664062 Z M 104.167969 20.835938 L 93.742188 20.835938 L 93.742188 31.246094 L 104.167969 31.246094 Z M 93.742188 302.078125 L 93.742188 312.5 L 104.167969 312.5 L 104.167969 302.078125 Z M 114.578125 281.253906 L 114.578125 270.828125 L 93.742188 270.828125 L 93.742188 281.253906 Z M 114.578125 322.914062 L 124.992188 322.914062 L 124.992188 312.5 L 104.167969 312.5 L 104.167969 322.914062 Z M 124.992188 41.667969 L 114.578125 41.667969 L 114.578125 52.082031 L 124.992188 52.082031 Z M 124.992188 291.664062 L 124.992188 281.253906 L 114.578125 281.253906 L 114.578125 291.664062 Z M 135.414062 31.246094 L 124.992188 31.246094 L 124.992188 41.667969 L 135.414062 41.667969 Z M 135.414062 333.335938 L 166.664062 333.335938 L 166.664062 322.914062 L 124.992188 322.914062 L 124.992188 333.335938 Z M 135.414062 354.160156 L 124.992188 354.160156 L 124.992188 364.582031 L 114.578125 364.582031 L 114.578125 374.996094 L 124.992188 374.996094 L 124.992188 385.410156 L 135.414062 385.410156 L 135.414062 374.996094 L 145.828125 374.996094 L 145.828125 364.582031 L 135.414062 364.582031 Z M 145.828125 20.835938 L 135.414062 20.835938 L 135.414062 31.246094 L 145.828125 31.246094 Z M 135.414062 62.496094 L 145.828125 62.496094 L 145.828125 52.082031 L 135.414062 52.082031 Z M 145.828125 135.414062 L 135.414062 135.414062 L 135.414062 145.828125 L 145.828125 145.828125 Z M 135.414062 270.828125 L 135.414062 281.253906 L 145.828125 281.253906 L 145.828125 270.828125 Z M 156.25 10.410156 L 145.828125 10.410156 L 145.828125 20.835938 L 156.25 20.835938 Z M 145.828125 52.082031 L 156.25 52.082031 L 156.25 41.667969 L 145.828125 41.667969 Z M 156.25 125.003906 L 145.828125 125.003906 L 145.828125 135.414062 L 156.25 135.414062 Z M 156.25 197.910156 L 145.828125 197.910156 L 145.828125 208.335938 L 156.25 208.335938 Z M 156.25 291.664062 L 156.25 281.253906 L 145.828125 281.253906 L 145.828125 291.664062 Z M 166.664062 0 L 156.25 0 L 156.25 10.410156 L 166.664062 10.410156 Z M 156.25 41.667969 L 166.664062 41.667969 L 166.664062 31.246094 L 156.25 31.246094 Z M 156.25 83.332031 L 166.664062 83.332031 L 166.664062 72.917969 L 156.25 72.917969 Z M 166.664062 187.496094 L 156.25 187.496094 L 156.25 197.910156 L 166.664062 197.910156 Z M 166.664062 354.160156 L 177.074219 354.160156 L 177.074219 343.75 L 135.414062 343.75 L 135.414062 354.160156 L 145.828125 354.160156 L 145.828125 364.582031 L 156.25 364.582031 L 156.25 354.160156 Z M 156.25 364.582031 L 156.25 374.996094 L 166.664062 374.996094 L 166.664062 364.582031 Z M 156.25 395.832031 L 166.664062 395.832031 L 166.664062 385.410156 L 156.25 385.410156 Z M 166.664062 31.246094 L 177.074219 31.246094 L 177.074219 20.835938 L 166.664062 20.835938 Z M 166.664062 72.917969 L 177.074219 72.917969 L 177.074219 62.496094 L 166.664062 62.496094 Z M 166.664062 104.164062 L 166.664062 114.578125 L 187.5 114.578125 L 187.5 104.164062 Z M 166.664062 374.996094 L 166.664062 385.410156 L 177.074219 385.410156 L 177.074219 406.242188 L 187.5 406.242188 L 187.5 374.996094 Z M 187.5 10.410156 L 177.074219 10.410156 L 177.074219 20.835938 L 187.5 20.835938 Z M 177.074219 62.496094 L 187.5 62.496094 L 187.5 52.082031 L 177.074219 52.082031 Z M 177.074219 83.332031 L 177.074219 93.742188 L 187.5 93.742188 L 187.5 83.332031 Z M 187.5 52.082031 L 197.910156 52.082031 L 197.910156 41.667969 L 187.5 41.667969 Z M 197.910156 72.917969 L 187.5 72.917969 L 187.5 83.332031 L 197.910156 83.332031 Z M 187.5 104.164062 L 197.910156 104.164062 L 197.910156 93.742188 L 187.5 93.742188 Z M 187.5 374.996094 L 197.910156 374.996094 L 197.910156 364.582031 L 187.5 364.582031 Z M 197.910156 93.742188 L 208.335938 93.742188 L 208.335938 83.332031 L 197.910156 83.332031 Z M 197.910156 249.992188 L 177.074219 249.992188 L 177.074219 260.417969 L 208.335938 260.417969 L 208.335938 249.992188 Z M 197.910156 364.582031 L 208.335938 364.582031 L 208.335938 354.160156 L 197.910156 354.160156 Z M 208.335938 385.410156 L 208.335938 374.996094 L 197.910156 374.996094 L 197.910156 385.410156 Z M 218.746094 72.917969 L 208.335938 72.917969 L 208.335938 83.332031 L 218.746094 83.332031 Z M 218.746094 239.582031 L 208.335938 239.582031 L 208.335938 249.992188 L 218.746094 249.992188 Z M 208.335938 354.160156 L 218.746094 354.160156 L 218.746094 343.75 L 208.335938 343.75 Z M 218.746094 395.832031 L 218.746094 385.410156 L 208.335938 385.410156 L 208.335938 395.832031 Z M 229.160156 62.496094 L 218.746094 62.496094 L 218.746094 72.917969 L 229.160156 72.917969 Z M 239.582031 270.828125 L 239.582031 260.417969 L 208.335938 260.417969 L 208.335938 270.828125 Z M 229.160156 302.078125 L 239.582031 302.078125 L 239.582031 291.664062 L 229.160156 291.664062 Z M 229.160156 343.75 L 229.160156 354.160156 L 239.582031 354.160156 L 239.582031 343.75 Z M 239.582031 364.582031 L 249.996094 364.582031 L 249.996094 354.160156 L 239.582031 354.160156 Z M 249.996094 312.5 L 260.417969 312.5 L 260.417969 302.078125 L 249.996094 302.078125 Z M 291.664062 333.335938 L 291.664062 322.914062 L 270.828125 322.914062 L 270.828125 333.335938 Z M 281.242188 406.242188 L 281.242188 416.667969 L 291.664062 416.667969 L 291.664062 406.242188 Z M 291.664062 427.078125 L 302.078125 427.078125 L 302.078125 416.667969 L 291.664062 416.667969 Z M 302.078125 260.417969 L 312.5 260.417969 L 312.5 249.992188 L 302.078125 249.992188 Z M 302.078125 354.160156 L 312.5 354.160156 L 312.5 343.75 L 302.078125 343.75 Z M 333.324219 83.332031 L 322.914062 83.332031 L 322.914062 93.742188 L 333.324219 93.742188 Z M 333.324219 125.003906 L 333.324219 114.578125 L 312.5 114.578125 L 312.5 104.164062 L 322.914062 104.164062 L 322.914062 93.742188 L 302.078125 93.742188 L 302.078125 104.164062 L 291.664062 104.164062 L 291.664062 114.578125 L 281.242188 114.578125 L 281.242188 125.003906 L 270.828125 125.003906 L 270.828125 135.414062 L 291.664062 135.414062 L 291.664062 125.003906 Z M 322.914062 239.582031 L 333.324219 239.582031 L 333.324219 229.167969 L 322.914062 229.167969 Z M 343.75 72.917969 L 333.324219 72.917969 L 333.324219 83.332031 L 343.75 83.332031 Z M 343.75 197.910156 L 333.324219 197.910156 L 333.324219 208.335938 L 343.75 208.335938 Z M 343.75 187.496094 L 364.585938 187.496094 L 364.585938 177.085938 L 343.75 177.085938 Z M 354.160156 239.582031 L 343.75 239.582031 L 343.75 249.992188 L 354.160156 249.992188 Z M 354.160156 354.160156 L 364.585938 354.160156 L 364.585938 343.75 L 354.160156 343.75 Z M 364.585938 208.335938 L 374.996094 208.335938 L 374.996094 197.910156 L 364.585938 197.910156 Z M 385.410156 177.085938 L 374.996094 177.085938 L 374.996094 187.496094 L 385.410156 187.496094 Z M 385.410156 208.335938 L 395.832031 208.335938 L 395.832031 197.910156 L 385.410156 197.910156 Z M 395.832031 187.496094 L 406.246094 187.496094 L 406.246094 177.085938 L 395.832031 177.085938 Z M 406.246094 156.25 L 416.65625 156.25 L 416.65625 145.828125 L 406.246094 145.828125 Z M 427.082031 52.082031 L 427.082031 41.667969 L 416.65625 41.667969 L 416.65625 62.496094 L 427.082031 62.496094 Z M 427.082031 93.742188 L 416.65625 93.742188 L 416.65625 104.164062 L 427.082031 104.164062 Z M 437.492188 31.246094 L 427.082031 31.246094 L 427.082031 41.667969 L 437.492188 41.667969 Z M 427.082031 156.25 L 437.492188 156.25 L 437.492188 145.828125 L 427.082031 145.828125 Z M 437.492188 83.332031 L 437.492188 93.742188 L 458.328125 93.742188 L 458.328125 83.332031 Z M 447.914062 20.835938 L 458.328125 20.835938 L 458.328125 10.410156 L 447.914062 10.410156 Z M 468.742188 10.410156 L 468.742188 20.835938 L 479.164062 20.835938 L 479.164062 10.410156 Z M 468.742188 83.332031 L 479.164062 83.332031 L 479.164062 93.742188 L 468.742188 93.742188 L 468.742188 83.332031" fill="#21224e"/></g><g id="change4_1"><path d="M 41.660156 208.335938 L 20.835938 208.335938 L 20.835938 218.746094 L 10.414062 218.746094 L 10.414062 229.167969 L 0 229.167969 L 0 239.582031 L 41.660156 239.582031 L 41.660156 249.992188 L 52.082031 249.992188 L 52.082031 218.746094 L 41.660156 218.746094 Z M 114.578125 208.335938 L 114.578125 218.746094 L 135.414062 218.746094 L 135.414062 208.335938 Z M 135.414062 208.335938 L 145.828125 208.335938 L 145.828125 197.910156 L 135.414062 197.910156 Z M 166.664062 187.496094 L 177.074219 187.496094 L 177.074219 177.085938 L 166.664062 177.085938 Z M 187.5 166.660156 L 187.5 177.085938 L 177.074219 177.085938 L 177.074219 166.660156 L 187.5 166.660156" fill="#c5c0bd"/></g></g></svg>