<?xml version="1.0" encoding="UTF-8"?><svg xmlns="http://www.w3.org/2000/svg" xmlns:xlink="http://www.w3.org/1999/xlink" height="294.9" preserveAspectRatio="xMidYMid meet" version="1.0" viewBox="92.1 65.2 241.1 294.9" width="241.1" zoomAndPan="magnify"><g><g id="change1_1"><path d="M 145.660156 145.507812 L 118.863281 145.507812 L 118.863281 118.710938 L 145.660156 118.710938 L 145.660156 145.507812" fill="#fff647"/></g><g id="change2_1"><path d="M 199.261719 145.507812 L 172.464844 145.507812 L 172.464844 118.710938 L 199.261719 118.710938 L 199.261719 145.507812" fill="#e98410"/></g><g id="change2_2"><path d="M 226.0625 145.507812 L 199.261719 145.507812 L 199.261719 118.710938 L 226.0625 118.710938 L 226.0625 145.507812" fill="#e98410"/></g><g id="change2_3"><path d="M 252.859375 145.507812 L 226.0625 145.507812 L 226.0625 118.710938 L 252.859375 118.710938 L 252.859375 145.507812" fill="#e98410"/></g><g id="change3_1"><path d="M 199.261719 172.324219 L 172.464844 172.324219 L 172.464844 145.523438 L 199.261719 145.523438 L 199.261719 172.324219" fill="#fbc308"/></g><g id="change3_2"><path d="M 226.0625 172.324219 L 199.261719 172.324219 L 199.261719 145.523438 L 226.0625 145.523438 L 226.0625 172.324219" fill="#fbc308"/></g><g id="change3_3"><path d="M 252.859375 172.324219 L 226.0625 172.324219 L 226.0625 145.523438 L 252.859375 145.523438 L 252.859375 172.324219" fill="#fbc308"/></g><g id="change3_4"><path d="M 199.261719 199.125 L 172.464844 199.125 L 172.464844 172.324219 L 199.261719 172.324219 L 199.261719 199.125" fill="#fbc308"/></g><g id="change3_5"><path d="M 226.0625 199.125 L 199.261719 199.125 L 199.261719 172.324219 L 226.0625 172.324219 L 226.0625 199.125" fill="#fbc308"/></g><g id="change3_6"><path d="M 252.859375 199.125 L 226.0625 199.125 L 226.0625 172.324219 L 252.859375 172.324219 L 252.859375 199.125" fill="#fbc308"/></g><g id="change3_7"><path d="M 199.261719 225.925781 L 172.464844 225.925781 L 172.464844 199.125 L 199.261719 199.125 L 199.261719 225.925781" fill="#fbc308"/></g><g id="change3_8"><path d="M 226.0625 225.925781 L 199.261719 225.925781 L 199.261719 199.125 L 226.0625 199.125 L 226.0625 225.925781" fill="#fbc308"/></g><g id="change3_9"><path d="M 252.859375 225.925781 L 226.0625 225.925781 L 226.0625 199.125 L 252.859375 199.125 L 252.859375 225.925781" fill="#fbc308"/></g><g id="change3_10"><path d="M 199.261719 252.722656 L 172.464844 252.722656 L 172.464844 225.925781 L 199.261719 225.925781 L 199.261719 252.722656" fill="#fbc308"/></g><g id="change3_11"><path d="M 226.0625 252.722656 L 199.261719 252.722656 L 199.261719 225.925781 L 226.0625 225.925781 L 226.0625 252.722656" fill="#fbc308"/></g><g id="change3_12"><path d="M 252.859375 252.722656 L 226.0625 252.722656 L 226.0625 225.925781 L 252.859375 225.925781 L 252.859375 252.722656" fill="#fbc308"/></g><g id="change3_13"><path d="M 199.261719 279.523438 L 172.464844 279.523438 L 172.464844 252.722656 L 199.261719 252.722656 L 199.261719 279.523438" fill="#fbc308"/></g><g id="change3_14"><path d="M 226.0625 279.523438 L 199.261719 279.523438 L 199.261719 252.722656 L 226.0625 252.722656 L 226.0625 279.523438" fill="#fbc308"/></g><g id="change3_15"><path d="M 252.859375 279.523438 L 226.0625 279.523438 L 226.0625 252.722656 L 252.859375 252.722656 L 252.859375 279.523438" fill="#fbc308"/></g><g id="change2_4"><path d="M 199.121094 306.460938 L 172.320312 306.460938 L 172.320312 279.660156 L 199.121094 279.660156 L 199.121094 306.460938" fill="#e98410"/></g><g id="change2_5"><path d="M 225.921875 306.460938 L 199.121094 306.460938 L 199.121094 279.660156 L 225.921875 279.660156 L 225.921875 306.460938" fill="#e98410"/></g><g id="change2_6"><path d="M 252.722656 306.460938 L 225.921875 306.460938 L 225.921875 279.660156 L 252.722656 279.660156 L 252.722656 306.460938" fill="#e98410"/></g><g id="change3_16"><path d="M 118.863281 145.617188 L 92.0625 145.617188 L 92.0625 118.816406 L 118.863281 118.816406 L 118.863281 145.617188" fill="#fbc308"/></g><g id="change2_7"><path d="M 306.335938 146.050781 L 333.136719 146.050781 L 333.136719 119.253906 L 306.335938 119.253906 L 306.335938 146.050781" fill="#e98410"/></g><g id="change3_17"><path d="M 118.863281 172.324219 L 92.0625 172.324219 L 92.0625 145.523438 L 118.863281 145.523438 L 118.863281 172.324219" fill="#fbc308"/></g><g id="change2_8"><path d="M 306.335938 172.324219 L 333.136719 172.324219 L 333.136719 145.523438 L 306.335938 145.523438 L 306.335938 172.324219" fill="#e98410"/></g><g id="change3_18"><path d="M 118.863281 199.214844 L 92.0625 199.214844 L 92.0625 172.417969 L 118.863281 172.417969 L 118.863281 199.214844" fill="#fbc308"/></g><g id="change2_9"><path d="M 306.335938 199.648438 L 333.136719 199.648438 L 333.136719 172.851562 L 306.335938 172.851562 L 306.335938 199.648438" fill="#e98410"/></g><g id="change3_19"><path d="M 118.863281 226.015625 L 92.0625 226.015625 L 92.0625 199.214844 L 118.863281 199.214844 L 118.863281 226.015625" fill="#fbc308"/></g><g id="change2_10"><path d="M 306.335938 226.449219 L 333.136719 226.449219 L 333.136719 199.648438 L 306.335938 199.648438 L 306.335938 226.449219" fill="#e98410"/></g><g id="change3_20"><path d="M 118.863281 252.8125 L 92.0625 252.8125 L 92.0625 226.015625 L 118.863281 226.015625 L 118.863281 252.8125" fill="#fbc308"/></g><g id="change2_11"><path d="M 306.335938 253.25 L 333.136719 253.25 L 333.136719 226.449219 L 306.335938 226.449219 L 306.335938 253.25" fill="#e98410"/></g><g id="change3_21"><path d="M 118.863281 279.613281 L 92.0625 279.613281 L 92.0625 252.8125 L 118.863281 252.8125 L 118.863281 279.613281" fill="#fbc308"/></g><g id="change2_12"><path d="M 306.335938 280.050781 L 333.136719 280.050781 L 333.136719 253.25 L 306.335938 253.25 L 306.335938 280.050781" fill="#e98410"/></g><g id="change3_22"><path d="M 118.863281 279.613281 L 92.0625 279.613281 L 92.0625 306.414062 L 118.863281 306.414062 L 118.863281 279.613281" fill="#fbc308"/></g><g id="change4_1"><path d="M 145.660156 172.324219 L 118.863281 172.324219 L 118.863281 145.523438 L 145.660156 145.523438 L 145.660156 172.324219" fill="#f89f0e"/></g><g id="change4_2"><path d="M 145.660156 199.214844 L 118.863281 199.214844 L 118.863281 172.417969 L 145.660156 172.417969 L 145.660156 199.214844" fill="#f89f0e"/></g><g id="change4_3"><path d="M 145.660156 226.015625 L 118.863281 226.015625 L 118.863281 199.214844 L 145.660156 199.214844 L 145.660156 226.015625" fill="#f89f0e"/></g><g id="change4_4"><path d="M 145.660156 252.8125 L 118.863281 252.8125 L 118.863281 226.015625 L 145.660156 226.015625 L 145.660156 252.8125" fill="#f89f0e"/></g><g id="change4_5"><path d="M 145.660156 279.613281 L 118.863281 279.613281 L 118.863281 252.8125 L 145.660156 252.8125 L 145.660156 279.613281" fill="#f89f0e"/></g><g id="change2_13"><path d="M 172.414062 172.324219 L 145.617188 172.324219 L 145.617188 145.523438 L 172.414062 145.523438 L 172.414062 172.324219" fill="#e98410"/></g><g id="change3_23"><path d="M 172.414062 145.507812 L 145.617188 145.507812 L 145.617188 118.710938 L 172.414062 118.710938 L 172.414062 145.507812" fill="#fbc308"/></g><g id="change3_24"><path d="M 279.539062 145.507812 L 252.738281 145.507812 L 252.738281 118.710938 L 279.539062 118.710938 L 279.539062 145.507812" fill="#fbc308"/></g><g id="change3_25"><path d="M 172.414062 306.429688 L 145.617188 306.429688 L 145.617188 279.628906 L 172.414062 279.628906 L 172.414062 306.429688" fill="#fbc308"/></g><g id="change3_26"><path d="M 279.539062 306.429688 L 252.738281 306.429688 L 252.738281 279.628906 L 279.539062 279.628906 L 279.539062 306.429688" fill="#fbc308"/></g><g id="change2_14"><path d="M 172.414062 199.214844 L 145.617188 199.214844 L 145.617188 172.417969 L 172.414062 172.417969 L 172.414062 199.214844" fill="#e98410"/></g><g id="change2_15"><path d="M 172.414062 226.015625 L 145.617188 226.015625 L 145.617188 199.214844 L 172.414062 199.214844 L 172.414062 226.015625" fill="#e98410"/></g><g id="change2_16"><path d="M 172.414062 252.8125 L 145.617188 252.8125 L 145.617188 226.015625 L 172.414062 226.015625 L 172.414062 252.8125" fill="#e98410"/></g><g id="change2_17"><path d="M 172.367188 279.613281 L 145.570312 279.613281 L 145.570312 252.8125 L 172.367188 252.8125 L 172.367188 279.613281" fill="#e98410"/></g><g id="change2_18"><path d="M 279.539062 172.324219 L 252.738281 172.324219 L 252.738281 145.523438 L 279.539062 145.523438 L 279.539062 172.324219" fill="#e98410"/></g><g id="change2_19"><path d="M 279.539062 199.214844 L 252.738281 199.214844 L 252.738281 172.417969 L 279.539062 172.417969 L 279.539062 199.214844" fill="#e98410"/></g><g id="change2_20"><path d="M 279.539062 226.015625 L 252.738281 226.015625 L 252.738281 199.214844 L 279.539062 199.214844 L 279.539062 226.015625" fill="#e98410"/></g><g id="change2_21"><path d="M 279.539062 252.8125 L 252.738281 252.8125 L 252.738281 226.015625 L 279.539062 226.015625 L 279.539062 252.8125" fill="#e98410"/></g><g id="change2_22"><path d="M 279.539062 279.613281 L 252.738281 279.613281 L 252.738281 252.8125 L 279.539062 252.8125 L 279.539062 279.613281" fill="#e98410"/></g><g id="change4_6"><path d="M 145.660156 279.941406 L 118.863281 279.941406 L 118.863281 306.367188 L 145.660156 306.367188 L 145.660156 279.941406" fill="#f89f0e"/></g><g id="change4_7"><path d="M 306.398438 279.679688 L 279.597656 279.679688 L 279.597656 306.476562 L 306.398438 306.476562 L 306.398438 279.679688" fill="#f89f0e"/></g><g id="change1_2"><path d="M 306.398438 145.507812 L 279.597656 145.507812 L 279.597656 118.710938 L 306.398438 118.710938 L 306.398438 145.507812" fill="#fff647"/></g><g id="change4_8"><path d="M 306.398438 172.324219 L 279.597656 172.324219 L 279.597656 145.523438 L 306.398438 145.523438 L 306.398438 172.324219" fill="#f89f0e"/></g><g id="change4_9"><path d="M 306.398438 199.214844 L 279.597656 199.214844 L 279.597656 172.417969 L 306.398438 172.417969 L 306.398438 199.214844" fill="#f89f0e"/></g><g id="change4_10"><path d="M 306.398438 226.015625 L 279.597656 226.015625 L 279.597656 199.214844 L 306.398438 199.214844 L 306.398438 226.015625" fill="#f89f0e"/></g><g id="change4_11"><path d="M 306.398438 252.8125 L 279.597656 252.8125 L 279.597656 226.015625 L 306.398438 226.015625 L 306.398438 252.8125" fill="#f89f0e"/></g><g id="change4_12"><path d="M 306.398438 279.613281 L 279.597656 279.613281 L 279.597656 252.8125 L 306.398438 252.8125 L 306.398438 279.613281" fill="#f89f0e"/></g><g id="change4_13"><path d="M 172.277344 333.273438 L 145.476562 333.273438 L 145.476562 306.476562 L 172.277344 306.476562 L 172.277344 333.273438" fill="#f89f0e"/></g><g id="change4_14"><path d="M 199.074219 333.273438 L 172.277344 333.273438 L 172.277344 306.476562 L 199.074219 306.476562 L 199.074219 333.273438" fill="#f89f0e"/></g><g id="change4_15"><path d="M 225.828125 333.273438 L 199.03125 333.273438 L 199.03125 306.476562 L 225.828125 306.476562 L 225.828125 333.273438" fill="#f89f0e"/></g><g id="change4_16"><path d="M 252.628906 333.273438 L 225.828125 333.273438 L 225.828125 306.476562 L 252.628906 306.476562 L 252.628906 333.273438" fill="#f89f0e"/></g><g id="change4_17"><path d="M 279.476562 333.273438 L 252.675781 333.273438 L 252.675781 306.476562 L 279.476562 306.476562 L 279.476562 333.273438" fill="#f89f0e"/></g><g id="change2_23"><path d="M 172.464844 360.046875 L 145.660156 360.046875 L 145.660156 333.246094 L 172.464844 333.246094 L 172.464844 360.046875" fill="#e98410"/></g><g id="change2_24"><path d="M 199.261719 360.046875 L 172.464844 360.046875 L 172.464844 333.246094 L 199.261719 333.246094 L 199.261719 360.046875" fill="#e98410"/></g><g id="change2_25"><path d="M 226.0625 360.046875 L 199.261719 360.046875 L 199.261719 333.246094 L 226.0625 333.246094 L 226.0625 360.046875" fill="#e98410"/></g><g id="change2_26"><path d="M 252.859375 360.046875 L 226.0625 360.046875 L 226.0625 333.246094 L 252.859375 333.246094 L 252.859375 360.046875" fill="#e98410"/></g><g id="change2_27"><path d="M 279.660156 360.046875 L 252.859375 360.046875 L 252.859375 333.246094 L 279.660156 333.246094 L 279.660156 360.046875" fill="#e98410"/></g><g id="change5_1"><path d="M 145.476562 306.476562 L 118.679688 306.476562 L 118.679688 333.273438 L 145.476562 333.273438 L 145.476562 306.476562" fill="#f9a70d"/></g><g id="change2_28"><path d="M 279.476562 306.476562 L 306.273438 306.476562 L 306.273438 333.273438 L 279.476562 333.273438 L 279.476562 306.476562" fill="#e98410"/></g><g id="change4_18"><path d="M 252.675781 91.925781 L 279.476562 91.925781 L 279.476562 118.726562 L 252.675781 118.726562 L 252.675781 91.925781" fill="#f89f0e"/></g><g id="change4_19"><path d="M 225.875 91.925781 L 252.675781 91.925781 L 252.675781 118.726562 L 225.875 118.726562 L 225.875 91.925781" fill="#f89f0e"/></g><g id="change4_20"><path d="M 199.121094 91.925781 L 225.921875 91.925781 L 225.921875 118.726562 L 199.121094 118.726562 L 199.121094 91.925781" fill="#f89f0e"/></g><g id="change4_21"><path d="M 172.320312 91.925781 L 199.121094 91.925781 L 199.121094 118.726562 L 172.320312 118.726562 L 172.320312 91.925781" fill="#f89f0e"/></g><g id="change1_3"><path d="M 145.476562 91.925781 L 172.277344 91.925781 L 172.277344 118.726562 L 145.476562 118.726562 L 145.476562 91.925781" fill="#fff647"/></g><g id="change3_27"><path d="M 252.488281 65.15625 L 279.289062 65.15625 L 279.289062 91.953125 L 252.488281 91.953125 L 252.488281 65.15625" fill="#fbc308"/></g><g id="change3_28"><path d="M 225.691406 65.15625 L 252.488281 65.15625 L 252.488281 91.953125 L 225.691406 91.953125 L 225.691406 65.15625" fill="#fbc308"/></g><g id="change3_29"><path d="M 198.890625 65.15625 L 225.691406 65.15625 L 225.691406 91.953125 L 198.890625 91.953125 L 198.890625 65.15625" fill="#fbc308"/></g><g id="change3_30"><path d="M 172.089844 65.15625 L 198.890625 65.15625 L 198.890625 91.953125 L 172.089844 91.953125 L 172.089844 65.15625" fill="#fbc308"/></g><g id="change3_31"><path d="M 145.289062 65.15625 L 172.089844 65.15625 L 172.089844 91.953125 L 145.289062 91.953125 L 145.289062 65.15625" fill="#fbc308"/></g><g id="change3_32"><path d="M 279.476562 118.726562 L 306.273438 118.726562 L 306.273438 91.925781 L 279.476562 91.925781 L 279.476562 118.726562" fill="#fbc308"/></g><g id="change3_33"><path d="M 145.476562 118.726562 L 118.679688 118.726562 L 118.679688 91.925781 L 145.476562 91.925781 L 145.476562 118.726562" fill="#fbc308"/></g><g id="change2_29"><path d="M 306.335938 279.679688 L 333.136719 279.679688 L 333.136719 306.476562 L 306.335938 306.476562 L 306.335938 279.679688" fill="#e98410"/></g></g></svg>