<?xml version="1.0" encoding="UTF-8"?><svg xmlns="http://www.w3.org/2000/svg" xmlns:xlink="http://www.w3.org/1999/xlink" height="111.1" preserveAspectRatio="xMidYMid meet" version="1.0" viewBox="250.0 444.4 500.0 111.1" width="500.0" zoomAndPan="magnify"><g><g id="change1_1"><path d="M 472.230469 481.480469 L 490.753906 481.480469 L 490.753906 462.960938 L 472.230469 462.960938 L 472.230469 481.480469" fill="#0b0b0b"/></g><g id="change1_2"><path d="M 453.714844 481.480469 L 472.230469 481.480469 L 472.230469 462.960938 L 453.714844 462.960938 L 453.714844 481.480469" fill="#0b0b0b"/></g><g id="change1_3"><path d="M 472.230469 500 L 490.753906 500 L 490.753906 481.480469 L 472.230469 481.480469 L 472.230469 500" fill="#0b0b0b"/></g><g id="change1_4"><path d="M 453.714844 500 L 472.230469 500 L 472.230469 481.480469 L 453.714844 481.480469 L 453.714844 500" fill="#0b0b0b"/></g><g id="change1_5"><path d="M 435.195312 481.480469 L 453.714844 481.480469 L 453.714844 462.960938 L 435.195312 462.960938 L 435.195312 481.480469" fill="#0b0b0b"/></g><g id="change1_6"><path d="M 435.195312 500 L 453.714844 500 L 453.714844 481.480469 L 435.195312 481.480469 L 435.195312 500" fill="#0b0b0b"/></g><g id="change1_7"><path d="M 453.746094 518.519531 L 472.199219 518.519531 C 472.21875 518.519531 472.230469 518.503906 472.230469 518.484375 L 472.230469 500.035156 C 472.230469 500.015625 472.21875 500 472.199219 500 L 453.746094 500 C 453.726562 500 453.714844 500.015625 453.714844 500.035156 L 453.714844 518.484375 C 453.714844 518.503906 453.726562 518.519531 453.746094 518.519531" fill="#0b0b0b"/></g><g id="change1_8"><path d="M 435.226562 518.519531 L 453.679688 518.519531 C 453.699219 518.519531 453.714844 518.503906 453.714844 518.484375 L 453.714844 500.035156 C 453.714844 500.015625 453.699219 500 453.679688 500 L 435.226562 500 C 435.210938 500 435.195312 500.015625 435.195312 500.035156 L 435.195312 518.484375 C 435.195312 518.503906 435.210938 518.519531 435.226562 518.519531" fill="#0b0b0b"/></g><g id="change1_9"><path d="M 416.675781 481.480469 L 435.195312 481.480469 L 435.195312 462.960938 L 416.675781 462.960938 L 416.675781 481.480469" fill="#0b0b0b"/></g><g id="change1_10"><path d="M 416.675781 500 L 435.195312 500 L 435.195312 481.480469 L 416.675781 481.480469 L 416.675781 500" fill="#0b0b0b"/></g><g id="change1_11"><path d="M 416.707031 518.519531 L 435.160156 518.519531 C 435.179688 518.519531 435.195312 518.503906 435.195312 518.484375 L 435.195312 500.035156 C 435.195312 500.015625 435.179688 500 435.160156 500 L 416.707031 500 C 416.6875 500 416.675781 500.015625 416.675781 500.035156 L 416.675781 518.484375 C 416.675781 518.503906 416.6875 518.519531 416.707031 518.519531" fill="#0b0b0b"/></g><g id="change1_12"><path d="M 398.15625 481.480469 L 416.675781 481.480469 L 416.675781 462.960938 L 398.15625 462.960938 L 398.15625 481.480469" fill="#0b0b0b"/></g><g id="change1_13"><path d="M 398.15625 500 L 416.675781 500 L 416.675781 481.480469 L 398.15625 481.480469 L 398.15625 500" fill="#0b0b0b"/></g><g id="change1_14"><path d="M 398.1875 518.519531 L 416.640625 518.519531 C 416.660156 518.519531 416.675781 518.503906 416.675781 518.484375 L 416.675781 500.035156 C 416.675781 500.015625 416.660156 500 416.640625 500 L 398.1875 500 C 398.171875 500 398.15625 500.015625 398.15625 500.035156 L 398.15625 518.484375 C 398.15625 518.503906 398.171875 518.519531 398.1875 518.519531" fill="#0b0b0b"/></g><g id="change1_15"><path d="M 435.226562 537.039062 L 453.679688 537.039062 C 453.699219 537.039062 453.714844 537.023438 453.714844 537.003906 L 453.714844 518.554688 C 453.714844 518.535156 453.699219 518.519531 453.679688 518.519531 L 435.226562 518.519531 C 435.210938 518.519531 435.195312 518.535156 435.195312 518.554688 L 435.195312 537.003906 C 435.195312 537.023438 435.210938 537.039062 435.226562 537.039062" fill="#0b0b0b"/></g><g id="change1_16"><path d="M 416.707031 537.039062 L 435.160156 537.039062 C 435.179688 537.039062 435.195312 537.023438 435.195312 537.003906 L 435.195312 518.554688 C 435.195312 518.535156 435.179688 518.519531 435.160156 518.519531 L 416.707031 518.519531 C 416.6875 518.519531 416.675781 518.535156 416.675781 518.554688 L 416.675781 537.003906 C 416.675781 537.023438 416.6875 537.039062 416.707031 537.039062" fill="#0b0b0b"/></g><g id="change1_17"><path d="M 398.1875 537.039062 L 416.640625 537.039062 C 416.660156 537.039062 416.675781 537.023438 416.675781 537.003906 L 416.675781 518.554688 C 416.675781 518.535156 416.660156 518.519531 416.640625 518.519531 L 398.1875 518.519531 C 398.171875 518.519531 398.15625 518.535156 398.15625 518.554688 L 398.15625 537.003906 C 398.15625 537.023438 398.171875 537.039062 398.1875 537.039062" fill="#0b0b0b"/></g><g id="change1_18"><path d="M 379.636719 481.480469 L 398.15625 481.480469 L 398.15625 462.960938 L 379.636719 462.960938 L 379.636719 481.480469" fill="#0b0b0b"/></g><g id="change1_19"><path d="M 379.636719 500 L 398.15625 500 L 398.15625 481.480469 L 379.636719 481.480469 L 379.636719 500" fill="#0b0b0b"/></g><g id="change1_20"><path d="M 379.667969 518.519531 L 398.121094 518.519531 C 398.140625 518.519531 398.15625 518.503906 398.15625 518.484375 L 398.15625 500.035156 C 398.15625 500.015625 398.140625 500 398.121094 500 L 379.667969 500 C 379.652344 500 379.636719 500.015625 379.636719 500.035156 L 379.636719 518.484375 C 379.636719 518.503906 379.652344 518.519531 379.667969 518.519531" fill="#0b0b0b"/></g><g id="change1_21"><path d="M 379.667969 537.039062 L 398.121094 537.039062 C 398.140625 537.039062 398.15625 537.023438 398.15625 537.003906 L 398.15625 518.554688 C 398.15625 518.535156 398.140625 518.519531 398.121094 518.519531 L 379.667969 518.519531 C 379.652344 518.519531 379.636719 518.535156 379.636719 518.554688 L 379.636719 537.003906 C 379.636719 537.023438 379.652344 537.039062 379.667969 537.039062" fill="#0b0b0b"/></g><g id="change1_22"><path d="M 361.117188 481.480469 L 379.636719 481.480469 L 379.636719 462.960938 L 361.117188 462.960938 L 361.117188 481.480469" fill="#0b0b0b"/></g><g id="change1_23"><path d="M 361.117188 500 L 379.636719 500 L 379.636719 481.480469 L 361.117188 481.480469 L 361.117188 500" fill="#0b0b0b"/></g><g id="change1_24"><path d="M 361.148438 518.519531 L 379.601562 518.519531 C 379.621094 518.519531 379.636719 518.503906 379.636719 518.484375 L 379.636719 500.035156 C 379.636719 500.015625 379.621094 500 379.601562 500 L 361.148438 500 C 361.132812 500 361.117188 500.015625 361.117188 500.035156 L 361.117188 518.484375 C 361.117188 518.503906 361.132812 518.519531 361.148438 518.519531" fill="#0b0b0b"/></g><g id="change1_25"><path d="M 361.148438 537.039062 L 379.601562 537.039062 C 379.621094 537.039062 379.636719 537.023438 379.636719 537.003906 L 379.636719 518.554688 C 379.636719 518.535156 379.621094 518.519531 379.601562 518.519531 L 361.148438 518.519531 C 361.132812 518.519531 361.117188 518.535156 361.117188 518.554688 L 361.117188 537.003906 C 361.117188 537.023438 361.132812 537.039062 361.148438 537.039062" fill="#0b0b0b"/></g><g id="change1_26"><path d="M 342.597656 481.480469 L 361.117188 481.480469 L 361.117188 462.960938 L 342.597656 462.960938 L 342.597656 481.480469" fill="#0b0b0b"/></g><g id="change1_27"><path d="M 342.597656 500 L 361.117188 500 L 361.117188 481.480469 L 342.597656 481.480469 L 342.597656 500" fill="#0b0b0b"/></g><g id="change1_28"><path d="M 342.632812 518.519531 L 361.082031 518.519531 C 361.101562 518.519531 361.117188 518.503906 361.117188 518.484375 L 361.117188 500.035156 C 361.117188 500.015625 361.101562 500 361.082031 500 L 342.628906 500 C 342.613281 500 342.597656 500.015625 342.597656 500.035156 L 342.597656 518.484375 C 342.597656 518.503906 342.613281 518.519531 342.632812 518.519531" fill="#0b0b0b"/></g><g id="change1_29"><path d="M 324.078125 481.480469 L 342.597656 481.480469 L 342.597656 462.960938 L 324.078125 462.960938 L 324.078125 481.480469" fill="#0b0b0b"/></g><g id="change1_30"><path d="M 324.078125 500 L 342.597656 500 L 342.597656 481.480469 L 324.078125 481.480469 L 324.078125 500" fill="#0b0b0b"/></g><g id="change1_31"><path d="M 305.558594 481.480469 L 324.078125 481.480469 L 324.078125 462.960938 L 305.558594 462.960938 L 305.558594 481.480469" fill="#0b0b0b"/></g><g id="change2_1"><path d="M 305.558594 500 L 324.078125 500 L 324.078125 481.480469 L 305.558594 481.480469 L 305.558594 500" fill="#fff"/></g><g id="change2_2"><path d="M 324.109375 518.519531 L 342.5625 518.519531 C 342.582031 518.519531 342.597656 518.503906 342.597656 518.484375 L 342.597656 500.035156 C 342.597656 500.015625 342.582031 500 342.5625 500 L 324.109375 500 C 324.09375 500 324.078125 500.015625 324.078125 500.035156 L 324.078125 518.484375 C 324.078125 518.503906 324.09375 518.519531 324.109375 518.519531" fill="#fff"/></g><g id="change1_32"><path d="M 342.632812 537.039062 L 361.082031 537.039062 C 361.101562 537.039062 361.117188 537.023438 361.117188 537.003906 L 361.117188 518.554688 C 361.117188 518.535156 361.101562 518.519531 361.082031 518.519531 L 342.628906 518.519531 C 342.613281 518.519531 342.597656 518.535156 342.597656 518.554688 L 342.597656 537.003906 C 342.597656 537.023438 342.613281 537.039062 342.632812 537.039062" fill="#0b0b0b"/></g><g id="change1_33"><path d="M 416.707031 555.558594 L 435.160156 555.558594 C 435.179688 555.558594 435.195312 555.542969 435.195312 555.523438 L 435.195312 537.070312 C 435.195312 537.054688 435.179688 537.039062 435.160156 537.039062 L 416.707031 537.039062 C 416.6875 537.039062 416.675781 537.054688 416.675781 537.070312 L 416.675781 555.523438 C 416.675781 555.542969 416.6875 555.558594 416.707031 555.558594" fill="#0b0b0b"/></g><g id="change1_34"><path d="M 398.1875 555.558594 L 416.640625 555.558594 C 416.660156 555.558594 416.675781 555.542969 416.675781 555.523438 L 416.675781 537.070312 C 416.675781 537.054688 416.660156 537.039062 416.640625 537.039062 L 398.1875 537.039062 C 398.171875 537.039062 398.15625 537.054688 398.15625 537.070312 L 398.15625 555.523438 C 398.15625 555.542969 398.171875 555.558594 398.1875 555.558594" fill="#0b0b0b"/></g><g id="change1_35"><path d="M 379.667969 555.558594 L 398.121094 555.558594 C 398.140625 555.558594 398.15625 555.542969 398.15625 555.523438 L 398.15625 537.070312 C 398.15625 537.054688 398.140625 537.039062 398.121094 537.039062 L 379.667969 537.039062 C 379.652344 537.039062 379.636719 537.054688 379.636719 537.070312 L 379.636719 555.523438 C 379.636719 555.542969 379.652344 555.558594 379.667969 555.558594" fill="#0b0b0b"/></g><g id="change1_36"><path d="M 361.148438 555.558594 L 379.601562 555.558594 C 379.621094 555.558594 379.636719 555.542969 379.636719 555.523438 L 379.636719 537.070312 C 379.636719 537.054688 379.621094 537.039062 379.601562 537.039062 L 361.148438 537.039062 C 361.132812 537.039062 361.117188 537.054688 361.117188 537.070312 L 361.117188 555.523438 C 361.117188 555.542969 361.132812 555.558594 361.148438 555.558594" fill="#0b0b0b"/></g><g id="change1_37"><path d="M 342.632812 555.558594 L 361.082031 555.558594 C 361.101562 555.558594 361.117188 555.542969 361.117188 555.523438 L 361.117188 537.070312 C 361.117188 537.054688 361.101562 537.039062 361.082031 537.039062 L 342.628906 537.039062 C 342.613281 537.039062 342.597656 537.054688 342.597656 537.070312 L 342.597656 555.523438 C 342.597656 555.542969 342.613281 555.558594 342.632812 555.558594" fill="#0b0b0b"/></g><g id="change1_38"><path d="M 324.109375 555.558594 L 342.5625 555.558594 C 342.582031 555.558594 342.597656 555.542969 342.597656 555.523438 L 342.597656 537.070312 C 342.597656 537.054688 342.582031 537.039062 342.5625 537.039062 L 324.109375 537.039062 C 324.09375 537.039062 324.078125 537.054688 324.078125 537.070312 L 324.078125 555.523438 C 324.078125 555.542969 324.09375 555.558594 324.109375 555.558594" fill="#0b0b0b"/></g><g id="change1_39"><path d="M 324.109375 537.039062 L 342.5625 537.039062 C 342.582031 537.039062 342.597656 537.023438 342.597656 537.003906 L 342.597656 518.554688 C 342.597656 518.535156 342.582031 518.519531 342.5625 518.519531 L 324.109375 518.519531 C 324.09375 518.519531 324.078125 518.535156 324.078125 518.554688 L 324.078125 537.003906 C 324.078125 537.023438 324.09375 537.039062 324.109375 537.039062" fill="#0b0b0b"/></g><g id="change1_40"><path d="M 305.59375 537.039062 L 324.042969 537.039062 C 324.0625 537.039062 324.078125 537.023438 324.078125 537.003906 L 324.078125 518.554688 C 324.078125 518.535156 324.0625 518.519531 324.042969 518.519531 L 305.59375 518.519531 C 305.574219 518.519531 305.558594 518.535156 305.558594 518.554688 L 305.558594 537.003906 C 305.558594 537.023438 305.574219 537.039062 305.59375 537.039062" fill="#0b0b0b"/></g><g id="change1_41"><path d="M 305.59375 518.519531 L 324.042969 518.519531 C 324.0625 518.519531 324.078125 518.503906 324.078125 518.484375 L 324.078125 500.035156 C 324.078125 500.015625 324.0625 500 324.042969 500 L 305.59375 500 C 305.574219 500 305.558594 500.015625 305.558594 500.035156 L 305.558594 518.484375 C 305.558594 518.503906 305.574219 518.519531 305.59375 518.519531" fill="#0b0b0b"/></g><g id="change1_42"><path d="M 287.074219 518.519531 L 305.523438 518.519531 C 305.542969 518.519531 305.558594 518.503906 305.558594 518.484375 L 305.558594 500.035156 C 305.558594 500.015625 305.542969 500 305.523438 500 L 287.070312 500 C 287.054688 500 287.039062 500.015625 287.039062 500.035156 L 287.039062 518.484375 C 287.039062 518.503906 287.054688 518.519531 287.074219 518.519531" fill="#0b0b0b"/></g><g id="change1_43"><path d="M 287.074219 500 L 305.523438 500 C 305.542969 500 305.558594 499.984375 305.558594 499.964844 L 305.558594 481.515625 C 305.558594 481.496094 305.542969 481.480469 305.523438 481.480469 L 287.070312 481.480469 C 287.054688 481.480469 287.039062 481.496094 287.039062 481.515625 L 287.039062 499.964844 C 287.039062 499.984375 287.054688 500 287.074219 500" fill="#0b0b0b"/></g><g id="change1_44"><path d="M 268.554688 500 L 287.003906 500 C 287.023438 500 287.039062 499.984375 287.039062 499.964844 L 287.039062 481.515625 C 287.039062 481.496094 287.023438 481.480469 287.003906 481.480469 L 268.554688 481.480469 C 268.535156 481.480469 268.519531 481.496094 268.519531 481.515625 L 268.519531 499.964844 C 268.519531 499.984375 268.535156 500 268.554688 500" fill="#0b0b0b"/></g><g id="change1_45"><path d="M 268.554688 481.480469 L 287.003906 481.480469 C 287.023438 481.480469 287.039062 481.464844 287.039062 481.445312 L 287.039062 462.996094 C 287.039062 462.976562 287.023438 462.960938 287.003906 462.960938 L 268.554688 462.960938 C 268.535156 462.960938 268.519531 462.976562 268.519531 462.996094 L 268.519531 481.445312 C 268.519531 481.464844 268.535156 481.480469 268.554688 481.480469" fill="#0b0b0b"/></g><g id="change2_3"><path d="M 287.074219 481.480469 L 305.523438 481.480469 C 305.542969 481.480469 305.558594 481.464844 305.558594 481.445312 L 305.558594 462.996094 C 305.558594 462.976562 305.542969 462.960938 305.523438 462.960938 L 287.070312 462.960938 C 287.054688 462.960938 287.039062 462.976562 287.039062 462.996094 L 287.039062 481.445312 C 287.039062 481.464844 287.054688 481.480469 287.074219 481.480469" fill="#fff"/></g><g id="change1_46"><path d="M 250.035156 481.480469 L 268.484375 481.480469 C 268.503906 481.480469 268.519531 481.464844 268.519531 481.445312 L 268.519531 462.996094 C 268.519531 462.976562 268.503906 462.960938 268.484375 462.960938 L 250.035156 462.960938 C 250.015625 462.960938 250 462.976562 250 462.996094 L 250 481.445312 C 250 481.464844 250.015625 481.480469 250.035156 481.480469" fill="#0b0b0b"/></g><g id="change1_47"><path d="M 472.230469 462.960938 L 490.753906 462.960938 L 490.753906 444.441406 L 472.230469 444.441406 L 472.230469 462.960938" fill="#0b0b0b"/></g><g id="change1_48"><path d="M 453.714844 462.960938 L 472.230469 462.960938 L 472.230469 444.441406 L 453.714844 444.441406 L 453.714844 462.960938" fill="#0b0b0b"/></g><g id="change1_49"><path d="M 435.195312 462.960938 L 453.714844 462.960938 L 453.714844 444.441406 L 435.195312 444.441406 L 435.195312 462.960938" fill="#0b0b0b"/></g><g id="change1_50"><path d="M 416.675781 462.960938 L 435.195312 462.960938 L 435.195312 444.441406 L 416.675781 444.441406 L 416.675781 462.960938" fill="#0b0b0b"/></g><g id="change1_51"><path d="M 398.15625 462.960938 L 416.675781 462.960938 L 416.675781 444.441406 L 398.15625 444.441406 L 398.15625 462.960938" fill="#0b0b0b"/></g><g id="change1_52"><path d="M 379.636719 462.960938 L 398.15625 462.960938 L 398.15625 444.441406 L 379.636719 444.441406 L 379.636719 462.960938" fill="#0b0b0b"/></g><g id="change1_53"><path d="M 361.117188 462.960938 L 379.636719 462.960938 L 379.636719 444.441406 L 361.117188 444.441406 L 361.117188 462.960938" fill="#0b0b0b"/></g><g id="change1_54"><path d="M 342.597656 462.960938 L 361.117188 462.960938 L 361.117188 444.441406 L 342.597656 444.441406 L 342.597656 462.960938" fill="#0b0b0b"/></g><g id="change1_55"><path d="M 324.078125 462.960938 L 342.597656 462.960938 L 342.597656 444.441406 L 324.078125 444.441406 L 324.078125 462.960938" fill="#0b0b0b"/></g><g id="change1_56"><path d="M 305.558594 462.960938 L 324.078125 462.960938 L 324.078125 444.441406 L 305.558594 444.441406 L 305.558594 462.960938" fill="#0b0b0b"/></g><g id="change1_57"><path d="M 287.039062 462.960938 L 305.558594 462.960938 L 305.558594 444.441406 L 287.039062 444.441406 L 287.039062 462.960938" fill="#0b0b0b"/></g><g id="change1_58"><path d="M 268.519531 462.960938 L 287.039062 462.960938 L 287.039062 444.441406 L 268.519531 444.441406 L 268.519531 462.960938" fill="#0b0b0b"/></g><g id="change1_59"><path d="M 250 462.960938 L 268.519531 462.960938 L 268.519531 444.441406 L 250 444.441406 L 250 462.960938" fill="#0b0b0b"/></g><g id="change1_60"><path d="M 509.246094 481.480469 L 490.730469 481.480469 L 490.730469 462.960938 L 509.246094 462.960938 L 509.246094 481.480469" fill="#0b0b0b"/></g><g id="change1_61"><path d="M 527.769531 481.480469 L 509.246094 481.480469 L 509.246094 462.960938 L 527.769531 462.960938 L 527.769531 481.480469" fill="#0b0b0b"/></g><g id="change1_62"><path d="M 546.285156 481.480469 L 527.769531 481.480469 L 527.769531 462.960938 L 546.285156 462.960938 L 546.285156 481.480469" fill="#0b0b0b"/></g><g id="change1_63"><path d="M 509.246094 500 L 490.730469 500 L 490.730469 481.480469 L 509.246094 481.480469 L 509.246094 500" fill="#0b0b0b"/></g><g id="change1_64"><path d="M 527.769531 500 L 509.246094 500 L 509.246094 481.480469 L 527.769531 481.480469 L 527.769531 500" fill="#0b0b0b"/></g><g id="change1_65"><path d="M 546.285156 500 L 527.769531 500 L 527.769531 481.480469 L 546.285156 481.480469 L 546.285156 500" fill="#0b0b0b"/></g><g id="change1_66"><path d="M 564.808594 481.480469 L 546.285156 481.480469 L 546.285156 462.960938 L 564.808594 462.960938 L 564.808594 481.480469" fill="#0b0b0b"/></g><g id="change1_67"><path d="M 564.808594 500 L 546.285156 500 L 546.285156 481.480469 L 564.808594 481.480469 L 564.808594 500" fill="#0b0b0b"/></g><g id="change1_68"><path d="M 546.253906 518.519531 L 527.800781 518.519531 C 527.78125 518.519531 527.769531 518.503906 527.769531 518.484375 L 527.769531 500.035156 C 527.769531 500.015625 527.78125 500 527.800781 500 L 546.253906 500 C 546.269531 500 546.285156 500.015625 546.285156 500.035156 L 546.285156 518.484375 C 546.285156 518.503906 546.269531 518.519531 546.253906 518.519531" fill="#0b0b0b"/></g><g id="change1_69"><path d="M 564.773438 518.519531 L 546.320312 518.519531 C 546.300781 518.519531 546.285156 518.503906 546.285156 518.484375 L 546.285156 500.035156 C 546.285156 500.015625 546.300781 500 546.320312 500 L 564.773438 500 C 564.789062 500 564.808594 500.015625 564.808594 500.035156 L 564.808594 518.484375 C 564.808594 518.503906 564.789062 518.519531 564.773438 518.519531" fill="#0b0b0b"/></g><g id="change1_70"><path d="M 583.324219 481.480469 L 564.808594 481.480469 L 564.808594 462.960938 L 583.324219 462.960938 L 583.324219 481.480469" fill="#0b0b0b"/></g><g id="change1_71"><path d="M 583.324219 500 L 564.808594 500 L 564.808594 481.480469 L 583.324219 481.480469 L 583.324219 500" fill="#0b0b0b"/></g><g id="change1_72"><path d="M 583.292969 518.519531 L 564.839844 518.519531 C 564.820312 518.519531 564.808594 518.503906 564.808594 518.484375 L 564.808594 500.035156 C 564.808594 500.015625 564.820312 500 564.839844 500 L 583.292969 500 C 583.3125 500 583.324219 500.015625 583.324219 500.035156 L 583.324219 518.484375 C 583.324219 518.503906 583.3125 518.519531 583.292969 518.519531" fill="#0b0b0b"/></g><g id="change1_73"><path d="M 601.84375 481.480469 L 583.324219 481.480469 L 583.324219 462.960938 L 601.84375 462.960938 L 601.84375 481.480469" fill="#0b0b0b"/></g><g id="change1_74"><path d="M 601.84375 500 L 583.324219 500 L 583.324219 481.480469 L 601.84375 481.480469 L 601.84375 500" fill="#0b0b0b"/></g><g id="change1_75"><path d="M 601.8125 518.519531 L 583.359375 518.519531 C 583.339844 518.519531 583.324219 518.503906 583.324219 518.484375 L 583.324219 500.035156 C 583.324219 500.015625 583.339844 500 583.359375 500 L 601.8125 500 C 601.828125 500 601.84375 500.015625 601.84375 500.035156 L 601.84375 518.484375 C 601.84375 518.503906 601.828125 518.519531 601.8125 518.519531" fill="#0b0b0b"/></g><g id="change1_76"><path d="M 564.773438 537.039062 L 546.320312 537.039062 C 546.300781 537.039062 546.285156 537.023438 546.285156 537.003906 L 546.285156 518.554688 C 546.285156 518.535156 546.300781 518.519531 546.320312 518.519531 L 564.773438 518.519531 C 564.789062 518.519531 564.808594 518.535156 564.808594 518.554688 L 564.808594 537.003906 C 564.808594 537.023438 564.789062 537.039062 564.773438 537.039062" fill="#0b0b0b"/></g><g id="change1_77"><path d="M 583.292969 537.039062 L 564.839844 537.039062 C 564.820312 537.039062 564.808594 537.023438 564.808594 537.003906 L 564.808594 518.554688 C 564.808594 518.535156 564.820312 518.519531 564.839844 518.519531 L 583.292969 518.519531 C 583.3125 518.519531 583.324219 518.535156 583.324219 518.554688 L 583.324219 537.003906 C 583.324219 537.023438 583.3125 537.039062 583.292969 537.039062" fill="#0b0b0b"/></g><g id="change1_78"><path d="M 601.8125 537.039062 L 583.359375 537.039062 C 583.339844 537.039062 583.324219 537.023438 583.324219 537.003906 L 583.324219 518.554688 C 583.324219 518.535156 583.339844 518.519531 583.359375 518.519531 L 601.8125 518.519531 C 601.828125 518.519531 601.84375 518.535156 601.84375 518.554688 L 601.84375 537.003906 C 601.84375 537.023438 601.828125 537.039062 601.8125 537.039062" fill="#0b0b0b"/></g><g id="change1_79"><path d="M 620.363281 481.480469 L 601.84375 481.480469 L 601.84375 462.960938 L 620.363281 462.960938 L 620.363281 481.480469" fill="#0b0b0b"/></g><g id="change1_80"><path d="M 620.363281 500 L 601.84375 500 L 601.84375 481.480469 L 620.363281 481.480469 L 620.363281 500" fill="#0b0b0b"/></g><g id="change1_81"><path d="M 620.328125 518.519531 L 601.878906 518.519531 C 601.859375 518.519531 601.84375 518.503906 601.84375 518.484375 L 601.84375 500.035156 C 601.84375 500.015625 601.859375 500 601.878906 500 L 620.332031 500 C 620.351562 500 620.363281 500.015625 620.363281 500.035156 L 620.363281 518.484375 C 620.363281 518.503906 620.351562 518.519531 620.328125 518.519531" fill="#0b0b0b"/></g><g id="change1_82"><path d="M 620.328125 537.039062 L 601.878906 537.039062 C 601.859375 537.039062 601.84375 537.023438 601.84375 537.003906 L 601.84375 518.554688 C 601.84375 518.535156 601.859375 518.519531 601.878906 518.519531 L 620.332031 518.519531 C 620.351562 518.519531 620.363281 518.535156 620.363281 518.554688 L 620.363281 537.003906 C 620.363281 537.023438 620.351562 537.039062 620.328125 537.039062" fill="#0b0b0b"/></g><g id="change1_83"><path d="M 638.882812 481.480469 L 620.363281 481.480469 L 620.363281 462.960938 L 638.882812 462.960938 L 638.882812 481.480469" fill="#0b0b0b"/></g><g id="change1_84"><path d="M 638.882812 500 L 620.363281 500 L 620.363281 481.480469 L 638.882812 481.480469 L 638.882812 500" fill="#0b0b0b"/></g><g id="change1_85"><path d="M 638.851562 518.519531 L 620.398438 518.519531 C 620.378906 518.519531 620.363281 518.503906 620.363281 518.484375 L 620.363281 500.035156 C 620.363281 500.015625 620.378906 500 620.398438 500 L 638.851562 500 C 638.867188 500 638.882812 500.015625 638.882812 500.035156 L 638.882812 518.484375 C 638.882812 518.503906 638.867188 518.519531 638.851562 518.519531" fill="#0b0b0b"/></g><g id="change1_86"><path d="M 638.851562 537.039062 L 620.398438 537.039062 C 620.378906 537.039062 620.363281 537.023438 620.363281 537.003906 L 620.363281 518.554688 C 620.363281 518.535156 620.378906 518.519531 620.398438 518.519531 L 638.851562 518.519531 C 638.867188 518.519531 638.882812 518.535156 638.882812 518.554688 L 638.882812 537.003906 C 638.882812 537.023438 638.867188 537.039062 638.851562 537.039062" fill="#0b0b0b"/></g><g id="change1_87"><path d="M 657.402344 481.480469 L 638.882812 481.480469 L 638.882812 462.960938 L 657.402344 462.960938 L 657.402344 481.480469" fill="#0b0b0b"/></g><g id="change1_88"><path d="M 657.402344 500 L 638.882812 500 L 638.882812 481.480469 L 657.402344 481.480469 L 657.402344 500" fill="#0b0b0b"/></g><g id="change1_89"><path d="M 657.367188 518.519531 L 638.917969 518.519531 C 638.898438 518.519531 638.882812 518.503906 638.882812 518.484375 L 638.882812 500.035156 C 638.882812 500.015625 638.898438 500 638.917969 500 L 657.367188 500 C 657.386719 500 657.402344 500.015625 657.402344 500.035156 L 657.402344 518.484375 C 657.402344 518.503906 657.386719 518.519531 657.367188 518.519531" fill="#0b0b0b"/></g><g id="change1_90"><path d="M 675.921875 481.480469 L 657.402344 481.480469 L 657.402344 462.960938 L 675.921875 462.960938 L 675.921875 481.480469" fill="#0b0b0b"/></g><g id="change1_91"><path d="M 675.921875 500 L 657.402344 500 L 657.402344 481.480469 L 675.921875 481.480469 L 675.921875 500" fill="#0b0b0b"/></g><g id="change1_92"><path d="M 694.441406 481.480469 L 675.921875 481.480469 L 675.921875 462.960938 L 694.441406 462.960938 L 694.441406 481.480469" fill="#0b0b0b"/></g><g id="change2_4"><path d="M 694.441406 500 L 675.921875 500 L 675.921875 481.480469 L 694.441406 481.480469 L 694.441406 500" fill="#fff"/></g><g id="change2_5"><path d="M 675.890625 518.519531 L 657.4375 518.519531 C 657.417969 518.519531 657.402344 518.503906 657.402344 518.484375 L 657.402344 500.035156 C 657.402344 500.015625 657.417969 500 657.4375 500 L 675.890625 500 C 675.90625 500 675.921875 500.015625 675.921875 500.035156 L 675.921875 518.484375 C 675.921875 518.503906 675.90625 518.519531 675.890625 518.519531" fill="#fff"/></g><g id="change1_93"><path d="M 657.367188 537.039062 L 638.917969 537.039062 C 638.898438 537.039062 638.882812 537.023438 638.882812 537.003906 L 638.882812 518.554688 C 638.882812 518.535156 638.898438 518.519531 638.917969 518.519531 L 657.367188 518.519531 C 657.386719 518.519531 657.402344 518.535156 657.402344 518.554688 L 657.402344 537.003906 C 657.402344 537.023438 657.386719 537.039062 657.367188 537.039062" fill="#0b0b0b"/></g><g id="change1_94"><path d="M 583.292969 555.558594 L 564.839844 555.558594 C 564.820312 555.558594 564.808594 555.542969 564.808594 555.523438 L 564.808594 537.070312 C 564.808594 537.054688 564.820312 537.039062 564.839844 537.039062 L 583.292969 537.039062 C 583.3125 537.039062 583.324219 537.054688 583.324219 537.070312 L 583.324219 555.523438 C 583.324219 555.542969 583.3125 555.558594 583.292969 555.558594" fill="#0b0b0b"/></g><g id="change1_95"><path d="M 601.8125 555.558594 L 583.359375 555.558594 C 583.339844 555.558594 583.324219 555.542969 583.324219 555.523438 L 583.324219 537.070312 C 583.324219 537.054688 583.339844 537.039062 583.359375 537.039062 L 601.8125 537.039062 C 601.828125 537.039062 601.84375 537.054688 601.84375 537.070312 L 601.84375 555.523438 C 601.84375 555.542969 601.828125 555.558594 601.8125 555.558594" fill="#0b0b0b"/></g><g id="change1_96"><path d="M 620.328125 555.558594 L 601.878906 555.558594 C 601.859375 555.558594 601.84375 555.542969 601.84375 555.523438 L 601.84375 537.070312 C 601.84375 537.054688 601.859375 537.039062 601.878906 537.039062 L 620.332031 537.039062 C 620.351562 537.039062 620.363281 537.054688 620.363281 537.070312 L 620.363281 555.523438 C 620.363281 555.542969 620.351562 555.558594 620.328125 555.558594" fill="#0b0b0b"/></g><g id="change1_97"><path d="M 638.851562 555.558594 L 620.398438 555.558594 C 620.378906 555.558594 620.363281 555.542969 620.363281 555.523438 L 620.363281 537.070312 C 620.363281 537.054688 620.378906 537.039062 620.398438 537.039062 L 638.851562 537.039062 C 638.867188 537.039062 638.882812 537.054688 638.882812 537.070312 L 638.882812 555.523438 C 638.882812 555.542969 638.867188 555.558594 638.851562 555.558594" fill="#0b0b0b"/></g><g id="change1_98"><path d="M 657.367188 555.558594 L 638.917969 555.558594 C 638.898438 555.558594 638.882812 555.542969 638.882812 555.523438 L 638.882812 537.070312 C 638.882812 537.054688 638.898438 537.039062 638.917969 537.039062 L 657.367188 537.039062 C 657.386719 537.039062 657.402344 537.054688 657.402344 537.070312 L 657.402344 555.523438 C 657.402344 555.542969 657.386719 555.558594 657.367188 555.558594" fill="#0b0b0b"/></g><g id="change1_99"><path d="M 675.890625 555.558594 L 657.4375 555.558594 C 657.417969 555.558594 657.402344 555.542969 657.402344 555.523438 L 657.402344 537.070312 C 657.402344 537.054688 657.417969 537.039062 657.4375 537.039062 L 675.890625 537.039062 C 675.90625 537.039062 675.921875 537.054688 675.921875 537.070312 L 675.921875 555.523438 C 675.921875 555.542969 675.90625 555.558594 675.890625 555.558594" fill="#0b0b0b"/></g><g id="change1_100"><path d="M 675.890625 537.039062 L 657.4375 537.039062 C 657.417969 537.039062 657.402344 537.023438 657.402344 537.003906 L 657.402344 518.554688 C 657.402344 518.535156 657.417969 518.519531 657.4375 518.519531 L 675.890625 518.519531 C 675.90625 518.519531 675.921875 518.535156 675.921875 518.554688 L 675.921875 537.003906 C 675.921875 537.023438 675.90625 537.039062 675.890625 537.039062" fill="#0b0b0b"/></g><g id="change1_101"><path d="M 694.40625 537.039062 L 675.957031 537.039062 C 675.9375 537.039062 675.921875 537.023438 675.921875 537.003906 L 675.921875 518.554688 C 675.921875 518.535156 675.9375 518.519531 675.957031 518.519531 L 694.40625 518.519531 C 694.425781 518.519531 694.441406 518.535156 694.441406 518.554688 L 694.441406 537.003906 C 694.441406 537.023438 694.425781 537.039062 694.40625 537.039062" fill="#0b0b0b"/></g><g id="change1_102"><path d="M 694.40625 518.519531 L 675.957031 518.519531 C 675.9375 518.519531 675.921875 518.503906 675.921875 518.484375 L 675.921875 500.035156 C 675.921875 500.015625 675.9375 500 675.957031 500 L 694.40625 500 C 694.425781 500 694.441406 500.015625 694.441406 500.035156 L 694.441406 518.484375 C 694.441406 518.503906 694.425781 518.519531 694.40625 518.519531" fill="#0b0b0b"/></g><g id="change1_103"><path d="M 712.929688 518.519531 L 694.476562 518.519531 C 694.457031 518.519531 694.441406 518.503906 694.441406 518.484375 L 694.441406 500.035156 C 694.441406 500.015625 694.457031 500 694.476562 500 L 712.929688 500 C 712.945312 500 712.960938 500.015625 712.960938 500.035156 L 712.960938 518.484375 C 712.960938 518.503906 712.945312 518.519531 712.929688 518.519531" fill="#0b0b0b"/></g><g id="change1_104"><path d="M 712.929688 500 L 694.476562 500 C 694.457031 500 694.441406 499.984375 694.441406 499.964844 L 694.441406 481.515625 C 694.441406 481.496094 694.457031 481.480469 694.476562 481.480469 L 712.929688 481.480469 C 712.945312 481.480469 712.960938 481.496094 712.960938 481.515625 L 712.960938 499.964844 C 712.960938 499.984375 712.945312 500 712.929688 500" fill="#0b0b0b"/></g><g id="change1_105"><path d="M 731.445312 500 L 712.996094 500 C 712.976562 500 712.960938 499.984375 712.960938 499.964844 L 712.960938 481.515625 C 712.960938 481.496094 712.976562 481.480469 712.996094 481.480469 L 731.445312 481.480469 C 731.464844 481.480469 731.480469 481.496094 731.480469 481.515625 L 731.480469 499.964844 C 731.480469 499.984375 731.464844 500 731.445312 500" fill="#0b0b0b"/></g><g id="change1_106"><path d="M 731.445312 481.480469 L 712.996094 481.480469 C 712.976562 481.480469 712.960938 481.464844 712.960938 481.445312 L 712.960938 462.996094 C 712.960938 462.976562 712.976562 462.960938 712.996094 462.960938 L 731.445312 462.960938 C 731.464844 462.960938 731.480469 462.976562 731.480469 462.996094 L 731.480469 481.445312 C 731.480469 481.464844 731.464844 481.480469 731.445312 481.480469" fill="#0b0b0b"/></g><g id="change2_6"><path d="M 712.929688 481.480469 L 694.476562 481.480469 C 694.457031 481.480469 694.441406 481.464844 694.441406 481.445312 L 694.441406 462.996094 C 694.441406 462.976562 694.457031 462.960938 694.476562 462.960938 L 712.929688 462.960938 C 712.945312 462.960938 712.960938 462.976562 712.960938 462.996094 L 712.960938 481.445312 C 712.960938 481.464844 712.945312 481.480469 712.929688 481.480469" fill="#fff"/></g><g id="change1_107"><path d="M 749.964844 481.480469 L 731.515625 481.480469 C 731.496094 481.480469 731.480469 481.464844 731.480469 481.445312 L 731.480469 462.996094 C 731.480469 462.976562 731.496094 462.960938 731.515625 462.960938 L 749.964844 462.960938 C 749.984375 462.960938 750 462.976562 750 462.996094 L 750 481.445312 C 750 481.464844 749.984375 481.480469 749.964844 481.480469" fill="#0b0b0b"/></g><g id="change1_108"><path d="M 509.246094 462.960938 L 490.730469 462.960938 L 490.730469 444.441406 L 509.246094 444.441406 L 509.246094 462.960938" fill="#0b0b0b"/></g><g id="change1_109"><path d="M 527.769531 462.960938 L 509.246094 462.960938 L 509.246094 444.441406 L 527.769531 444.441406 L 527.769531 462.960938" fill="#0b0b0b"/></g><g id="change1_110"><path d="M 546.285156 462.960938 L 527.769531 462.960938 L 527.769531 444.441406 L 546.285156 444.441406 L 546.285156 462.960938" fill="#0b0b0b"/></g><g id="change1_111"><path d="M 564.808594 462.960938 L 546.285156 462.960938 L 546.285156 444.441406 L 564.808594 444.441406 L 564.808594 462.960938" fill="#0b0b0b"/></g><g id="change1_112"><path d="M 583.324219 462.960938 L 564.808594 462.960938 L 564.808594 444.441406 L 583.324219 444.441406 L 583.324219 462.960938" fill="#0b0b0b"/></g><g id="change1_113"><path d="M 601.84375 462.960938 L 583.324219 462.960938 L 583.324219 444.441406 L 601.84375 444.441406 L 601.84375 462.960938" fill="#0b0b0b"/></g><g id="change1_114"><path d="M 620.363281 462.960938 L 601.84375 462.960938 L 601.84375 444.441406 L 620.363281 444.441406 L 620.363281 462.960938" fill="#0b0b0b"/></g><g id="change1_115"><path d="M 638.882812 462.960938 L 620.363281 462.960938 L 620.363281 444.441406 L 638.882812 444.441406 L 638.882812 462.960938" fill="#0b0b0b"/></g><g id="change1_116"><path d="M 657.402344 462.960938 L 638.882812 462.960938 L 638.882812 444.441406 L 657.402344 444.441406 L 657.402344 462.960938" fill="#0b0b0b"/></g><g id="change1_117"><path d="M 675.921875 462.960938 L 657.402344 462.960938 L 657.402344 444.441406 L 675.921875 444.441406 L 675.921875 462.960938" fill="#0b0b0b"/></g><g id="change1_118"><path d="M 694.441406 462.960938 L 675.921875 462.960938 L 675.921875 444.441406 L 694.441406 444.441406 L 694.441406 462.960938" fill="#0b0b0b"/></g><g id="change1_119"><path d="M 712.960938 462.960938 L 694.441406 462.960938 L 694.441406 444.441406 L 712.960938 444.441406 L 712.960938 462.960938" fill="#0b0b0b"/></g><g id="change1_120"><path d="M 731.480469 462.960938 L 712.960938 462.960938 L 712.960938 444.441406 L 731.480469 444.441406 L 731.480469 462.960938" fill="#0b0b0b"/></g><g id="change1_121"><path d="M 750 462.960938 L 731.480469 462.960938 L 731.480469 444.441406 L 750 444.441406 L 750 462.960938" fill="#0b0b0b"/></g></g></svg>