<?xml version="1.0" encoding="UTF-8"?><svg xmlns="http://www.w3.org/2000/svg" xmlns:xlink="http://www.w3.org/1999/xlink" height="470.6" preserveAspectRatio="xMidYMid meet" version="1.0" viewBox="196.1 62.3 203.0 470.6" width="203.0" zoomAndPan="magnify"><g><g id="change1_1"><path d="M 399.140625 385.292969 L 399.140625 394.523438 L 389.910156 394.523438 L 389.910156 385.292969 L 399.140625 385.292969" fill="#1d381e"/></g><g id="change1_2"><path d="M 399.140625 376.070312 L 399.140625 385.292969 L 389.910156 385.292969 L 389.910156 376.070312 L 399.140625 376.070312" fill="#1d381e"/></g><g id="change1_3"><path d="M 389.910156 394.523438 L 389.910156 403.753906 L 380.683594 403.753906 L 380.683594 394.523438 L 389.910156 394.523438" fill="#1d381e"/></g><g id="change1_4"><path d="M 389.910156 385.292969 L 389.910156 394.523438 L 380.683594 394.523438 L 380.683594 385.292969 L 389.910156 385.292969" fill="#1d381e"/></g><g id="change2_1"><path d="M 389.910156 376.070312 L 389.910156 385.292969 L 380.683594 385.292969 L 380.683594 376.070312 L 389.910156 376.070312" fill="#66c536"/></g><g id="change1_5"><path d="M 389.910156 366.84375 L 389.910156 376.070312 L 380.683594 376.070312 L 380.683594 366.84375 L 389.910156 366.84375" fill="#1d381e"/></g><g id="change1_6"><path d="M 380.683594 403.753906 L 380.683594 412.980469 L 371.453125 412.980469 L 371.453125 403.753906 L 380.683594 403.753906" fill="#1d381e"/></g><g id="change1_7"><path d="M 380.683594 394.523438 L 380.683594 403.753906 L 371.453125 403.753906 L 371.453125 394.523438 L 380.683594 394.523438" fill="#1d381e"/></g><g id="change3_1"><path d="M 380.683594 385.292969 L 380.683594 394.523438 L 371.453125 394.523438 L 371.453125 385.292969 L 380.683594 385.292969" fill="#2b7735"/></g><g id="change2_2"><path d="M 380.683594 376.070312 L 380.683594 385.292969 L 371.453125 385.292969 L 371.453125 376.070312 L 380.683594 376.070312" fill="#66c536"/></g><g id="change1_8"><path d="M 380.683594 366.84375 L 380.683594 376.070312 L 371.453125 376.070312 L 371.453125 366.84375 L 380.683594 366.84375" fill="#1d381e"/></g><g id="change1_9"><path d="M 380.683594 357.613281 L 380.683594 366.84375 L 371.453125 366.84375 L 371.453125 357.613281 L 380.683594 357.613281" fill="#1d381e"/></g><g id="change1_10"><path d="M 371.453125 403.753906 L 371.453125 412.980469 L 362.230469 412.980469 L 362.230469 403.753906 L 371.453125 403.753906" fill="#1d381e"/></g><g id="change3_2"><path d="M 371.453125 394.523438 L 371.453125 403.753906 L 362.230469 403.753906 L 362.230469 394.523438 L 371.453125 394.523438" fill="#2b7735"/></g><g id="change2_3"><path d="M 371.453125 385.292969 L 371.453125 394.523438 L 362.230469 394.523438 L 362.230469 385.292969 L 371.453125 385.292969" fill="#66c536"/></g><g id="change2_4"><path d="M 371.453125 376.070312 L 371.453125 385.292969 L 362.230469 385.292969 L 362.230469 376.070312 L 371.453125 376.070312" fill="#66c536"/></g><g id="change4_1"><path d="M 371.453125 366.84375 L 371.453125 376.070312 L 362.230469 376.070312 L 362.230469 366.84375 L 371.453125 366.84375" fill="#a1ca21"/></g><g id="change1_11"><path d="M 371.453125 357.613281 L 371.453125 366.84375 L 362.230469 366.84375 L 362.230469 357.613281 L 371.453125 357.613281" fill="#1d381e"/></g><g id="change5_1"><path d="M 371.453125 339.164062 L 371.453125 348.386719 L 362.230469 348.386719 L 362.230469 339.164062 L 371.453125 339.164062" fill="#9d2698"/></g><g id="change5_2"><path d="M 371.453125 329.933594 L 371.453125 339.164062 L 362.230469 339.164062 L 362.230469 329.933594 L 371.453125 329.933594" fill="#9d2698"/></g><g id="change5_3"><path d="M 371.453125 320.703125 L 371.453125 329.933594 L 362.230469 329.933594 L 362.230469 320.703125 L 371.453125 320.703125" fill="#9d2698"/></g><g id="change5_4"><path d="M 371.453125 311.476562 L 371.453125 320.703125 L 362.230469 320.703125 L 362.230469 311.476562 L 371.453125 311.476562" fill="#9d2698"/></g><g id="change1_12"><path d="M 371.453125 163.84375 L 371.453125 173.070312 L 362.230469 173.070312 L 362.230469 163.84375 L 371.453125 163.84375" fill="#1d381e"/></g><g id="change1_13"><path d="M 371.453125 154.613281 L 371.453125 163.84375 L 362.230469 163.84375 L 362.230469 154.613281 L 371.453125 154.613281" fill="#1d381e"/></g><g id="change1_14"><path d="M 371.453125 145.390625 L 371.453125 154.613281 L 362.230469 154.613281 L 362.230469 145.390625 L 371.453125 145.390625" fill="#1d381e"/></g><g id="change1_15"><path d="M 371.453125 136.160156 L 371.453125 145.390625 L 362.230469 145.390625 L 362.230469 136.160156 L 371.453125 136.160156" fill="#1d381e"/></g><g id="change1_16"><path d="M 362.230469 403.753906 L 362.230469 412.980469 L 353.003906 412.980469 L 353.003906 403.753906 L 362.230469 403.753906" fill="#1d381e"/></g><g id="change3_3"><path d="M 362.230469 394.523438 L 362.230469 403.753906 L 353.003906 403.753906 L 353.003906 394.523438 L 362.230469 394.523438" fill="#2b7735"/></g><g id="change3_4"><path d="M 362.230469 385.292969 L 362.230469 394.523438 L 353.003906 394.523438 L 353.003906 385.292969 L 362.230469 385.292969" fill="#2b7735"/></g><g id="change2_5"><path d="M 362.230469 376.070312 L 362.230469 385.292969 L 353.003906 385.292969 L 353.003906 376.070312 L 362.230469 376.070312" fill="#66c536"/></g><g id="change4_2"><path d="M 362.230469 366.84375 L 362.230469 376.070312 L 353.003906 376.070312 L 353.003906 366.84375 L 362.230469 366.84375" fill="#a1ca21"/></g><g id="change1_17"><path d="M 362.230469 357.613281 L 362.230469 366.84375 L 353.003906 366.84375 L 353.003906 357.613281 L 362.230469 357.613281" fill="#1d381e"/></g><g id="change5_5"><path d="M 362.230469 348.386719 L 362.230469 357.613281 L 353.003906 357.613281 L 353.003906 348.386719 L 362.230469 348.386719" fill="#9d2698"/></g><g id="change5_6"><path d="M 362.230469 339.164062 L 362.230469 348.386719 L 353.003906 348.386719 L 353.003906 339.164062 L 362.230469 339.164062" fill="#9d2698"/></g><g id="change6_1"><path d="M 362.230469 329.933594 L 362.230469 339.164062 L 353.003906 339.164062 L 353.003906 329.933594 L 362.230469 329.933594" fill="#da6cbd"/></g><g id="change7_1"><path d="M 362.230469 320.703125 L 362.230469 329.933594 L 353.003906 329.933594 L 353.003906 320.703125 L 362.230469 320.703125" fill="#fff"/></g><g id="change5_7"><path d="M 362.230469 311.476562 L 362.230469 320.703125 L 353.003906 320.703125 L 353.003906 311.476562 L 362.230469 311.476562" fill="#9d2698"/></g><g id="change1_18"><path d="M 362.230469 173.070312 L 362.230469 182.300781 L 353.003906 182.300781 L 353.003906 173.070312 L 362.230469 173.070312" fill="#1d381e"/></g><g id="change1_19"><path d="M 362.230469 163.84375 L 362.230469 173.070312 L 353.003906 173.070312 L 353.003906 163.84375 L 362.230469 163.84375" fill="#1d381e"/></g><g id="change3_5"><path d="M 362.230469 154.613281 L 362.230469 163.84375 L 353.003906 163.84375 L 353.003906 154.613281 L 362.230469 154.613281" fill="#2b7735"/></g><g id="change4_3"><path d="M 362.230469 145.390625 L 362.230469 154.613281 L 353.003906 154.613281 L 353.003906 145.390625 L 362.230469 145.390625" fill="#a1ca21"/></g><g id="change1_20"><path d="M 362.230469 136.160156 L 362.230469 145.390625 L 353.003906 145.390625 L 353.003906 136.160156 L 362.230469 136.160156" fill="#1d381e"/></g><g id="change1_21"><path d="M 353.003906 403.753906 L 353.003906 412.980469 L 343.773438 412.980469 L 343.773438 403.753906 L 353.003906 403.753906" fill="#1d381e"/></g><g id="change1_22"><path d="M 353.003906 394.523438 L 353.003906 403.753906 L 343.773438 403.753906 L 343.773438 394.523438 L 353.003906 394.523438" fill="#1d381e"/></g><g id="change3_6"><path d="M 353.003906 385.292969 L 353.003906 394.523438 L 343.773438 394.523438 L 343.773438 385.292969 L 353.003906 385.292969" fill="#2b7735"/></g><g id="change2_6"><path d="M 353.003906 376.070312 L 353.003906 385.292969 L 343.773438 385.292969 L 343.773438 376.070312 L 353.003906 376.070312" fill="#66c536"/></g><g id="change1_23"><path d="M 353.003906 366.84375 L 353.003906 376.070312 L 343.773438 376.070312 L 343.773438 366.84375 L 353.003906 366.84375" fill="#1d381e"/></g><g id="change1_24"><path d="M 353.003906 357.613281 L 353.003906 366.84375 L 343.773438 366.84375 L 343.773438 357.613281 L 353.003906 357.613281" fill="#1d381e"/></g><g id="change5_8"><path d="M 353.003906 348.386719 L 353.003906 357.613281 L 343.773438 357.613281 L 343.773438 348.386719 L 353.003906 348.386719" fill="#9d2698"/></g><g id="change5_9"><path d="M 353.003906 339.164062 L 353.003906 348.386719 L 343.773438 348.386719 L 343.773438 339.164062 L 353.003906 339.164062" fill="#9d2698"/></g><g id="change6_2"><path d="M 353.003906 329.933594 L 353.003906 339.164062 L 343.773438 339.164062 L 343.773438 329.933594 L 353.003906 329.933594" fill="#da6cbd"/></g><g id="change7_2"><path d="M 353.003906 320.703125 L 353.003906 329.933594 L 343.773438 329.933594 L 343.773438 320.703125 L 353.003906 320.703125" fill="#fff"/></g><g id="change5_10"><path d="M 353.003906 311.476562 L 353.003906 320.703125 L 343.773438 320.703125 L 343.773438 311.476562 L 353.003906 311.476562" fill="#9d2698"/></g><g id="change1_25"><path d="M 353.003906 182.300781 L 353.003906 191.523438 L 343.773438 191.523438 L 343.773438 182.300781 L 353.003906 182.300781" fill="#1d381e"/></g><g id="change1_26"><path d="M 353.003906 173.070312 L 353.003906 182.300781 L 343.773438 182.300781 L 343.773438 173.070312 L 353.003906 173.070312" fill="#1d381e"/></g><g id="change3_7"><path d="M 353.003906 163.84375 L 353.003906 173.070312 L 343.773438 173.070312 L 343.773438 163.84375 L 353.003906 163.84375" fill="#2b7735"/></g><g id="change4_4"><path d="M 353.003906 154.613281 L 353.003906 163.84375 L 343.773438 163.84375 L 343.773438 154.613281 L 353.003906 154.613281" fill="#a1ca21"/></g><g id="change4_5"><path d="M 353.003906 145.390625 L 353.003906 154.613281 L 343.773438 154.613281 L 343.773438 145.390625 L 353.003906 145.390625" fill="#a1ca21"/></g><g id="change1_27"><path d="M 353.003906 136.160156 L 353.003906 145.390625 L 343.773438 145.390625 L 343.773438 136.160156 L 353.003906 136.160156" fill="#1d381e"/></g><g id="change1_28"><path d="M 343.773438 403.753906 L 343.773438 412.980469 L 334.546875 412.980469 L 334.546875 403.753906 L 343.773438 403.753906" fill="#1d381e"/></g><g id="change1_29"><path d="M 343.773438 394.523438 L 343.773438 403.753906 L 334.546875 403.753906 L 334.546875 394.523438 L 343.773438 394.523438" fill="#1d381e"/></g><g id="change1_30"><path d="M 343.773438 385.292969 L 343.773438 394.523438 L 334.546875 394.523438 L 334.546875 385.292969 L 343.773438 385.292969" fill="#1d381e"/></g><g id="change1_31"><path d="M 343.773438 376.070312 L 343.773438 385.292969 L 334.546875 385.292969 L 334.546875 376.070312 L 343.773438 376.070312" fill="#1d381e"/></g><g id="change1_32"><path d="M 343.773438 366.84375 L 343.773438 376.070312 L 334.546875 376.070312 L 334.546875 366.84375 L 343.773438 366.84375" fill="#1d381e"/></g><g id="change5_11"><path d="M 343.773438 348.386719 L 343.773438 357.613281 L 334.546875 357.613281 L 334.546875 348.386719 L 343.773438 348.386719" fill="#9d2698"/></g><g id="change5_12"><path d="M 343.773438 339.164062 L 343.773438 348.386719 L 334.546875 348.386719 L 334.546875 339.164062 L 343.773438 339.164062" fill="#9d2698"/></g><g id="change7_3"><path d="M 343.773438 329.933594 L 343.773438 339.164062 L 334.546875 339.164062 L 334.546875 329.933594 L 343.773438 329.933594" fill="#fff"/></g><g id="change7_4"><path d="M 343.773438 320.703125 L 343.773438 329.933594 L 334.546875 329.933594 L 334.546875 320.703125 L 343.773438 320.703125" fill="#fff"/></g><g id="change5_13"><path d="M 343.773438 311.476562 L 343.773438 320.703125 L 334.546875 320.703125 L 334.546875 311.476562 L 343.773438 311.476562" fill="#9d2698"/></g><g id="change5_14"><path d="M 343.773438 302.253906 L 343.773438 311.476562 L 334.546875 311.476562 L 334.546875 302.253906 L 343.773438 302.253906" fill="#9d2698"/></g><g id="change5_15"><path d="M 343.773438 293.027344 L 343.773438 302.253906 L 334.546875 302.253906 L 334.546875 293.027344 L 343.773438 293.027344" fill="#9d2698"/></g><g id="change5_16"><path d="M 343.773438 283.796875 L 343.773438 293.027344 L 334.546875 293.027344 L 334.546875 283.796875 L 343.773438 283.796875" fill="#9d2698"/></g><g id="change1_33"><path d="M 343.773438 182.300781 L 343.773438 191.523438 L 334.546875 191.523438 L 334.546875 182.300781 L 343.773438 182.300781" fill="#1d381e"/></g><g id="change3_8"><path d="M 343.773438 173.070312 L 343.773438 182.300781 L 334.546875 182.300781 L 334.546875 173.070312 L 343.773438 173.070312" fill="#2b7735"/></g><g id="change3_9"><path d="M 343.773438 163.84375 L 343.773438 173.070312 L 334.546875 173.070312 L 334.546875 163.84375 L 343.773438 163.84375" fill="#2b7735"/></g><g id="change4_6"><path d="M 343.773438 154.613281 L 343.773438 163.84375 L 334.546875 163.84375 L 334.546875 154.613281 L 343.773438 154.613281" fill="#a1ca21"/></g><g id="change1_34"><path d="M 343.773438 145.390625 L 343.773438 154.613281 L 334.546875 154.613281 L 334.546875 145.390625 L 343.773438 145.390625" fill="#1d381e"/></g><g id="change1_35"><path d="M 334.546875 422.210938 L 334.546875 431.433594 L 325.324219 431.433594 L 325.324219 422.210938 L 334.546875 422.210938" fill="#1d381e"/></g><g id="change1_36"><path d="M 334.546875 412.980469 L 334.546875 422.210938 L 325.324219 422.210938 L 325.324219 412.980469 L 334.546875 412.980469" fill="#1d381e"/></g><g id="change1_37"><path d="M 334.546875 403.753906 L 334.546875 412.980469 L 325.324219 412.980469 L 325.324219 403.753906 L 334.546875 403.753906" fill="#1d381e"/></g><g id="change1_38"><path d="M 334.546875 376.070312 L 334.546875 385.292969 L 325.324219 385.292969 L 325.324219 376.070312 L 334.546875 376.070312" fill="#1d381e"/></g><g id="change1_39"><path d="M 334.546875 366.84375 L 334.546875 376.070312 L 325.324219 376.070312 L 325.324219 366.84375 L 334.546875 366.84375" fill="#1d381e"/></g><g id="change1_40"><path d="M 334.546875 357.613281 L 334.546875 366.84375 L 325.324219 366.84375 L 325.324219 357.613281 L 334.546875 357.613281" fill="#1d381e"/></g><g id="change5_17"><path d="M 334.546875 339.164062 L 334.546875 348.386719 L 325.324219 348.386719 L 325.324219 339.164062 L 334.546875 339.164062" fill="#9d2698"/></g><g id="change5_18"><path d="M 334.546875 329.933594 L 334.546875 339.164062 L 325.324219 339.164062 L 325.324219 329.933594 L 334.546875 329.933594" fill="#9d2698"/></g><g id="change5_19"><path d="M 334.546875 320.703125 L 334.546875 329.933594 L 325.324219 329.933594 L 325.324219 320.703125 L 334.546875 320.703125" fill="#9d2698"/></g><g id="change5_20"><path d="M 334.546875 311.476562 L 334.546875 320.703125 L 325.324219 320.703125 L 325.324219 311.476562 L 334.546875 311.476562" fill="#9d2698"/></g><g id="change5_21"><path d="M 334.546875 302.253906 L 334.546875 311.476562 L 325.324219 311.476562 L 325.324219 302.253906 L 334.546875 302.253906" fill="#9d2698"/></g><g id="change7_5"><path d="M 334.546875 293.027344 L 334.546875 302.253906 L 325.324219 302.253906 L 325.324219 293.027344 L 334.546875 293.027344" fill="#fff"/></g><g id="change5_22"><path d="M 334.546875 283.796875 L 334.546875 293.027344 L 325.324219 293.027344 L 325.324219 283.796875 L 334.546875 283.796875" fill="#9d2698"/></g><g id="change5_23"><path d="M 334.546875 274.566406 L 334.546875 283.796875 L 325.324219 283.796875 L 325.324219 274.566406 L 334.546875 274.566406" fill="#9d2698"/></g><g id="change1_41"><path d="M 334.546875 182.300781 L 334.546875 191.523438 L 325.324219 191.523438 L 325.324219 182.300781 L 334.546875 182.300781" fill="#1d381e"/></g><g id="change1_42"><path d="M 334.546875 173.070312 L 334.546875 182.300781 L 325.324219 182.300781 L 325.324219 173.070312 L 334.546875 173.070312" fill="#1d381e"/></g><g id="change1_43"><path d="M 334.546875 163.84375 L 334.546875 173.070312 L 325.324219 173.070312 L 325.324219 163.84375 L 334.546875 163.84375" fill="#1d381e"/></g><g id="change1_44"><path d="M 334.546875 154.613281 L 334.546875 163.84375 L 325.324219 163.84375 L 325.324219 154.613281 L 334.546875 154.613281" fill="#1d381e"/></g><g id="change1_45"><path d="M 334.546875 145.390625 L 334.546875 154.613281 L 325.324219 154.613281 L 325.324219 145.390625 L 334.546875 145.390625" fill="#1d381e"/></g><g id="change1_46"><path d="M 325.324219 431.433594 L 325.324219 440.660156 L 316.09375 440.660156 L 316.09375 431.433594 L 325.324219 431.433594" fill="#1d381e"/></g><g id="change1_47"><path d="M 325.324219 422.210938 L 325.324219 431.433594 L 316.09375 431.433594 L 316.09375 422.210938 L 325.324219 422.210938" fill="#1d381e"/></g><g id="change1_48"><path d="M 325.324219 366.84375 L 325.324219 376.070312 L 316.09375 376.070312 L 316.09375 366.84375 L 325.324219 366.84375" fill="#1d381e"/></g><g id="change1_49"><path d="M 325.324219 357.613281 L 325.324219 366.84375 L 316.09375 366.84375 L 316.09375 357.613281 L 325.324219 357.613281" fill="#1d381e"/></g><g id="change1_50"><path d="M 325.324219 348.386719 L 325.324219 357.613281 L 316.09375 357.613281 L 316.09375 348.386719 L 325.324219 348.386719" fill="#1d381e"/></g><g id="change1_51"><path d="M 325.324219 339.164062 L 325.324219 348.386719 L 316.09375 348.386719 L 316.09375 339.164062 L 325.324219 339.164062" fill="#1d381e"/></g><g id="change5_24"><path d="M 325.324219 311.476562 L 325.324219 320.703125 L 316.09375 320.703125 L 316.09375 311.476562 L 325.324219 311.476562" fill="#9d2698"/></g><g id="change5_25"><path d="M 325.324219 302.253906 L 325.324219 311.476562 L 316.09375 311.476562 L 316.09375 302.253906 L 325.324219 302.253906" fill="#9d2698"/></g><g id="change6_3"><path d="M 325.324219 293.027344 L 325.324219 302.253906 L 316.09375 302.253906 L 316.09375 293.027344 L 325.324219 293.027344" fill="#da6cbd"/></g><g id="change7_6"><path d="M 325.324219 283.796875 L 325.324219 293.027344 L 316.09375 293.027344 L 316.09375 283.796875 L 325.324219 283.796875" fill="#fff"/></g><g id="change5_26"><path d="M 325.324219 274.566406 L 325.324219 283.796875 L 316.09375 283.796875 L 316.09375 274.566406 L 325.324219 274.566406" fill="#9d2698"/></g><g id="change1_52"><path d="M 325.324219 200.75 L 325.324219 209.980469 L 316.09375 209.980469 L 316.09375 200.75 L 325.324219 200.75" fill="#1d381e"/></g><g id="change1_53"><path d="M 325.324219 191.523438 L 325.324219 200.75 L 316.09375 200.75 L 316.09375 191.523438 L 325.324219 191.523438" fill="#1d381e"/></g><g id="change1_54"><path d="M 325.324219 182.300781 L 325.324219 191.523438 L 316.09375 191.523438 L 316.09375 182.300781 L 325.324219 182.300781" fill="#1d381e"/></g><g id="change1_55"><path d="M 325.324219 163.84375 L 325.324219 173.070312 L 316.09375 173.070312 L 316.09375 163.84375 L 325.324219 163.84375" fill="#1d381e"/></g><g id="change1_56"><path d="M 325.324219 154.613281 L 325.324219 163.84375 L 316.09375 163.84375 L 316.09375 154.613281 L 325.324219 154.613281" fill="#1d381e"/></g><g id="change1_57"><path d="M 325.324219 145.390625 L 325.324219 154.613281 L 316.09375 154.613281 L 316.09375 145.390625 L 325.324219 145.390625" fill="#1d381e"/></g><g id="change1_58"><path d="M 316.09375 440.660156 L 316.09375 449.890625 L 306.863281 449.890625 L 306.863281 440.660156 L 316.09375 440.660156" fill="#1d381e"/></g><g id="change1_59"><path d="M 316.09375 431.433594 L 316.09375 440.660156 L 306.863281 440.660156 L 306.863281 431.433594 L 316.09375 431.433594" fill="#1d381e"/></g><g id="change1_60"><path d="M 316.09375 376.070312 L 316.09375 385.292969 L 306.863281 385.292969 L 306.863281 376.070312 L 316.09375 376.070312" fill="#1d381e"/></g><g id="change1_61"><path d="M 316.09375 366.84375 L 316.09375 376.070312 L 306.863281 376.070312 L 306.863281 366.84375 L 316.09375 366.84375" fill="#1d381e"/></g><g id="change1_62"><path d="M 316.09375 357.613281 L 316.09375 366.84375 L 306.863281 366.84375 L 306.863281 357.613281 L 316.09375 357.613281" fill="#1d381e"/></g><g id="change4_7"><path d="M 316.09375 348.386719 L 316.09375 357.613281 L 306.863281 357.613281 L 306.863281 348.386719 L 316.09375 348.386719" fill="#a1ca21"/></g><g id="change1_63"><path d="M 316.09375 339.164062 L 316.09375 348.386719 L 306.863281 348.386719 L 306.863281 339.164062 L 316.09375 339.164062" fill="#1d381e"/></g><g id="change1_64"><path d="M 316.09375 329.933594 L 316.09375 339.164062 L 306.863281 339.164062 L 306.863281 329.933594 L 316.09375 329.933594" fill="#1d381e"/></g><g id="change5_27"><path d="M 316.09375 302.253906 L 316.09375 311.476562 L 306.863281 311.476562 L 306.863281 302.253906 L 316.09375 302.253906" fill="#9d2698"/></g><g id="change6_4"><path d="M 316.09375 293.027344 L 316.09375 302.253906 L 306.863281 302.253906 L 306.863281 293.027344 L 316.09375 293.027344" fill="#da6cbd"/></g><g id="change5_28"><path d="M 316.09375 283.796875 L 316.09375 293.027344 L 306.863281 293.027344 L 306.863281 283.796875 L 316.09375 283.796875" fill="#9d2698"/></g><g id="change5_29"><path d="M 316.09375 274.566406 L 316.09375 283.796875 L 306.863281 283.796875 L 306.863281 274.566406 L 316.09375 274.566406" fill="#9d2698"/></g><g id="change1_65"><path d="M 316.09375 209.980469 L 316.09375 219.207031 L 306.863281 219.207031 L 306.863281 209.980469 L 316.09375 209.980469" fill="#1d381e"/></g><g id="change1_66"><path d="M 316.09375 200.75 L 316.09375 209.980469 L 306.863281 209.980469 L 306.863281 200.75 L 316.09375 200.75" fill="#1d381e"/></g><g id="change1_67"><path d="M 316.09375 145.390625 L 316.09375 154.613281 L 306.863281 154.613281 L 306.863281 145.390625 L 316.09375 145.390625" fill="#1d381e"/></g><g id="change1_68"><path d="M 306.863281 523.707031 L 306.863281 532.933594 L 297.636719 532.933594 L 297.636719 523.707031 L 306.863281 523.707031" fill="#1d381e"/></g><g id="change1_69"><path d="M 306.863281 440.660156 L 306.863281 449.890625 L 297.636719 449.890625 L 297.636719 440.660156 L 306.863281 440.660156" fill="#1d381e"/></g><g id="change1_70"><path d="M 306.863281 376.070312 L 306.863281 385.292969 L 297.636719 385.292969 L 297.636719 376.070312 L 306.863281 376.070312" fill="#1d381e"/></g><g id="change3_10"><path d="M 306.863281 366.84375 L 306.863281 376.070312 L 297.636719 376.070312 L 297.636719 366.84375 L 306.863281 366.84375" fill="#2b7735"/></g><g id="change3_11"><path d="M 306.863281 357.613281 L 306.863281 366.84375 L 297.636719 366.84375 L 297.636719 357.613281 L 306.863281 357.613281" fill="#2b7735"/></g><g id="change4_8"><path d="M 306.863281 348.386719 L 306.863281 357.613281 L 297.636719 357.613281 L 297.636719 348.386719 L 306.863281 348.386719" fill="#a1ca21"/></g><g id="change1_71"><path d="M 306.863281 339.164062 L 306.863281 348.386719 L 297.636719 348.386719 L 297.636719 339.164062 L 306.863281 339.164062" fill="#1d381e"/></g><g id="change1_72"><path d="M 306.863281 329.933594 L 306.863281 339.164062 L 297.636719 339.164062 L 297.636719 329.933594 L 306.863281 329.933594" fill="#1d381e"/></g><g id="change5_30"><path d="M 306.863281 302.253906 L 306.863281 311.476562 L 297.636719 311.476562 L 297.636719 302.253906 L 306.863281 302.253906" fill="#9d2698"/></g><g id="change5_31"><path d="M 306.863281 293.027344 L 306.863281 302.253906 L 297.636719 302.253906 L 297.636719 293.027344 L 306.863281 293.027344" fill="#9d2698"/></g><g id="change5_32"><path d="M 306.863281 283.796875 L 306.863281 293.027344 L 297.636719 293.027344 L 297.636719 283.796875 L 306.863281 283.796875" fill="#9d2698"/></g><g id="change1_73"><path d="M 306.863281 209.980469 L 306.863281 219.207031 L 297.636719 219.207031 L 297.636719 209.980469 L 306.863281 209.980469" fill="#1d381e"/></g><g id="change1_74"><path d="M 306.863281 145.390625 L 306.863281 154.613281 L 297.636719 154.613281 L 297.636719 145.390625 L 306.863281 145.390625" fill="#1d381e"/></g><g id="change1_75"><path d="M 306.863281 136.160156 L 306.863281 145.390625 L 297.636719 145.390625 L 297.636719 136.160156 L 306.863281 136.160156" fill="#1d381e"/></g><g id="change8_1"><path d="M 306.863281 117.703125 L 306.863281 126.933594 L 297.636719 126.933594 L 297.636719 117.703125 L 306.863281 117.703125" fill="#b3319f"/></g><g id="change8_2"><path d="M 306.863281 108.480469 L 306.863281 117.703125 L 297.636719 117.703125 L 297.636719 108.480469 L 306.863281 108.480469" fill="#b3319f"/></g><g id="change8_3"><path d="M 306.863281 99.253906 L 306.863281 108.480469 L 297.636719 108.480469 L 297.636719 99.253906 L 306.863281 99.253906" fill="#b3319f"/></g><g id="change1_76"><path d="M 297.636719 523.707031 L 297.636719 532.933594 L 288.414062 532.933594 L 288.414062 523.707031 L 297.636719 523.707031" fill="#1d381e"/></g><g id="change1_77"><path d="M 297.636719 514.476562 L 297.636719 523.707031 L 288.414062 523.707031 L 288.414062 514.476562 L 297.636719 514.476562" fill="#1d381e"/></g><g id="change1_78"><path d="M 297.636719 505.25 L 297.636719 514.476562 L 288.414062 514.476562 L 288.414062 505.25 L 297.636719 505.25" fill="#1d381e"/></g><g id="change1_79"><path d="M 297.636719 449.890625 L 297.636719 459.117188 L 288.414062 459.117188 L 288.414062 449.890625 L 297.636719 449.890625" fill="#1d381e"/></g><g id="change1_80"><path d="M 297.636719 440.660156 L 297.636719 449.890625 L 288.414062 449.890625 L 288.414062 440.660156 L 297.636719 440.660156" fill="#1d381e"/></g><g id="change1_81"><path d="M 297.636719 376.070312 L 297.636719 385.292969 L 288.414062 385.292969 L 288.414062 376.070312 L 297.636719 376.070312" fill="#1d381e"/></g><g id="change3_12"><path d="M 297.636719 366.84375 L 297.636719 376.070312 L 288.414062 376.070312 L 288.414062 366.84375 L 297.636719 366.84375" fill="#2b7735"/></g><g id="change2_7"><path d="M 297.636719 357.613281 L 297.636719 366.84375 L 288.414062 366.84375 L 288.414062 357.613281 L 297.636719 357.613281" fill="#66c536"/></g><g id="change1_82"><path d="M 297.636719 348.386719 L 297.636719 357.613281 L 288.414062 357.613281 L 288.414062 348.386719 L 297.636719 348.386719" fill="#1d381e"/></g><g id="change1_83"><path d="M 297.636719 339.164062 L 297.636719 348.386719 L 288.414062 348.386719 L 288.414062 339.164062 L 297.636719 339.164062" fill="#1d381e"/></g><g id="change1_84"><path d="M 297.636719 329.933594 L 297.636719 339.164062 L 288.414062 339.164062 L 288.414062 329.933594 L 297.636719 329.933594" fill="#1d381e"/></g><g id="change1_85"><path d="M 297.636719 320.703125 L 297.636719 329.933594 L 288.414062 329.933594 L 288.414062 320.703125 L 297.636719 320.703125" fill="#1d381e"/></g><g id="change1_86"><path d="M 297.636719 219.207031 L 297.636719 228.429688 L 288.414062 228.429688 L 288.414062 219.207031 L 297.636719 219.207031" fill="#1d381e"/></g><g id="change1_87"><path d="M 297.636719 209.980469 L 297.636719 219.207031 L 288.414062 219.207031 L 288.414062 209.980469 L 297.636719 209.980469" fill="#1d381e"/></g><g id="change1_88"><path d="M 297.636719 182.300781 L 297.636719 191.523438 L 288.414062 191.523438 L 288.414062 182.300781 L 297.636719 182.300781" fill="#1d381e"/></g><g id="change1_89"><path d="M 297.636719 173.070312 L 297.636719 182.300781 L 288.414062 182.300781 L 288.414062 173.070312 L 297.636719 173.070312" fill="#1d381e"/></g><g id="change1_90"><path d="M 297.636719 163.84375 L 297.636719 173.070312 L 288.414062 173.070312 L 288.414062 163.84375 L 297.636719 163.84375" fill="#1d381e"/></g><g id="change1_91"><path d="M 297.636719 136.160156 L 297.636719 145.390625 L 288.414062 145.390625 L 288.414062 136.160156 L 297.636719 136.160156" fill="#1d381e"/></g><g id="change8_4"><path d="M 297.636719 126.933594 L 297.636719 136.160156 L 288.414062 136.160156 L 288.414062 126.933594 L 297.636719 126.933594" fill="#b3319f"/></g><g id="change6_5"><path d="M 297.636719 117.703125 L 297.636719 126.933594 L 288.414062 126.933594 L 288.414062 117.703125 L 297.636719 117.703125" fill="#da6cbd"/></g><g id="change6_6"><path d="M 297.636719 108.480469 L 297.636719 117.703125 L 288.414062 117.703125 L 288.414062 108.480469 L 297.636719 108.480469" fill="#da6cbd"/></g><g id="change7_7"><path d="M 297.636719 99.253906 L 297.636719 108.480469 L 288.414062 108.480469 L 288.414062 99.253906 L 297.636719 99.253906" fill="#fff"/></g><g id="change8_5"><path d="M 297.636719 90.023438 L 297.636719 99.253906 L 288.414062 99.253906 L 288.414062 90.023438 L 297.636719 90.023438" fill="#b3319f"/></g><g id="change1_92"><path d="M 288.414062 505.25 L 288.414062 514.476562 L 279.1875 514.476562 L 279.1875 505.25 L 288.414062 505.25" fill="#1d381e"/></g><g id="change1_93"><path d="M 288.414062 496.027344 L 288.414062 505.25 L 279.1875 505.25 L 279.1875 496.027344 L 288.414062 496.027344" fill="#1d381e"/></g><g id="change1_94"><path d="M 288.414062 486.796875 L 288.414062 496.027344 L 279.1875 496.027344 L 279.1875 486.796875 L 288.414062 486.796875" fill="#1d381e"/></g><g id="change1_95"><path d="M 288.414062 477.570312 L 288.414062 486.796875 L 279.1875 486.796875 L 279.1875 477.570312 L 288.414062 477.570312" fill="#1d381e"/></g><g id="change1_96"><path d="M 288.414062 468.339844 L 288.414062 477.570312 L 279.1875 477.570312 L 279.1875 468.339844 L 288.414062 468.339844" fill="#1d381e"/></g><g id="change1_97"><path d="M 288.414062 459.117188 L 288.414062 468.339844 L 279.1875 468.339844 L 279.1875 459.117188 L 288.414062 459.117188" fill="#1d381e"/></g><g id="change1_98"><path d="M 288.414062 449.890625 L 288.414062 459.117188 L 279.1875 459.117188 L 279.1875 449.890625 L 288.414062 449.890625" fill="#1d381e"/></g><g id="change1_99"><path d="M 288.414062 440.660156 L 288.414062 449.890625 L 279.1875 449.890625 L 279.1875 440.660156 L 288.414062 440.660156" fill="#1d381e"/></g><g id="change1_100"><path d="M 288.414062 431.433594 L 288.414062 440.660156 L 279.1875 440.660156 L 279.1875 431.433594 L 288.414062 431.433594" fill="#1d381e"/></g><g id="change1_101"><path d="M 288.414062 376.070312 L 288.414062 385.292969 L 279.1875 385.292969 L 279.1875 376.070312 L 288.414062 376.070312" fill="#1d381e"/></g><g id="change3_13"><path d="M 288.414062 366.84375 L 288.414062 376.070312 L 279.1875 376.070312 L 279.1875 366.84375 L 288.414062 366.84375" fill="#2b7735"/></g><g id="change1_102"><path d="M 288.414062 357.613281 L 288.414062 366.84375 L 279.1875 366.84375 L 279.1875 357.613281 L 288.414062 357.613281" fill="#1d381e"/></g><g id="change1_103"><path d="M 288.414062 348.386719 L 288.414062 357.613281 L 279.1875 357.613281 L 279.1875 348.386719 L 288.414062 348.386719" fill="#1d381e"/></g><g id="change1_104"><path d="M 288.414062 320.703125 L 288.414062 329.933594 L 279.1875 329.933594 L 279.1875 320.703125 L 288.414062 320.703125" fill="#1d381e"/></g><g id="change1_105"><path d="M 288.414062 228.429688 L 288.414062 237.660156 L 279.1875 237.660156 L 279.1875 228.429688 L 288.414062 228.429688" fill="#1d381e"/></g><g id="change1_106"><path d="M 288.414062 219.207031 L 288.414062 228.429688 L 279.1875 228.429688 L 279.1875 219.207031 L 288.414062 219.207031" fill="#1d381e"/></g><g id="change1_107"><path d="M 288.414062 182.300781 L 288.414062 191.523438 L 279.1875 191.523438 L 279.1875 182.300781 L 288.414062 182.300781" fill="#1d381e"/></g><g id="change1_108"><path d="M 288.414062 145.390625 L 288.414062 154.613281 L 279.1875 154.613281 L 279.1875 145.390625 L 288.414062 145.390625" fill="#1d381e"/></g><g id="change1_109"><path d="M 288.414062 136.160156 L 288.414062 145.390625 L 279.1875 145.390625 L 279.1875 136.160156 L 288.414062 136.160156" fill="#1d381e"/></g><g id="change8_6"><path d="M 288.414062 126.933594 L 288.414062 136.160156 L 279.1875 136.160156 L 279.1875 126.933594 L 288.414062 126.933594" fill="#b3319f"/></g><g id="change6_7"><path d="M 288.414062 117.703125 L 288.414062 126.933594 L 279.1875 126.933594 L 279.1875 117.703125 L 288.414062 117.703125" fill="#da6cbd"/></g><g id="change6_8"><path d="M 288.414062 108.480469 L 288.414062 117.703125 L 279.1875 117.703125 L 279.1875 108.480469 L 288.414062 108.480469" fill="#da6cbd"/></g><g id="change7_8"><path d="M 288.414062 99.253906 L 288.414062 108.480469 L 279.1875 108.480469 L 279.1875 99.253906 L 288.414062 99.253906" fill="#fff"/></g><g id="change8_7"><path d="M 288.414062 90.023438 L 288.414062 99.253906 L 279.1875 99.253906 L 279.1875 90.023438 L 288.414062 90.023438" fill="#b3319f"/></g><g id="change8_8"><path d="M 288.414062 80.796875 L 288.414062 90.023438 L 279.1875 90.023438 L 279.1875 80.796875 L 288.414062 80.796875" fill="#b3319f"/></g><g id="change8_9"><path d="M 288.414062 71.566406 L 288.414062 80.796875 L 279.1875 80.796875 L 279.1875 71.566406 L 288.414062 71.566406" fill="#b3319f"/></g><g id="change8_10"><path d="M 288.414062 62.34375 L 288.414062 71.566406 L 279.1875 71.566406 L 279.1875 62.34375 L 288.414062 62.34375" fill="#b3319f"/></g><g id="change1_110"><path d="M 279.1875 505.25 L 279.1875 514.476562 L 269.957031 514.476562 L 269.957031 505.25 L 279.1875 505.25" fill="#1d381e"/></g><g id="change1_111"><path d="M 279.1875 496.027344 L 279.1875 505.25 L 269.957031 505.25 L 269.957031 496.027344 L 279.1875 496.027344" fill="#1d381e"/></g><g id="change2_8"><path d="M 279.1875 486.796875 L 279.1875 496.027344 L 269.957031 496.027344 L 269.957031 486.796875 L 279.1875 486.796875" fill="#66c536"/></g><g id="change1_112"><path d="M 279.1875 477.570312 L 279.1875 486.796875 L 269.957031 486.796875 L 269.957031 477.570312 L 279.1875 477.570312" fill="#1d381e"/></g><g id="change1_113"><path d="M 279.1875 459.117188 L 279.1875 468.339844 L 269.957031 468.339844 L 269.957031 459.117188 L 279.1875 459.117188" fill="#1d381e"/></g><g id="change3_14"><path d="M 279.1875 449.890625 L 279.1875 459.117188 L 269.957031 459.117188 L 269.957031 449.890625 L 279.1875 449.890625" fill="#2b7735"/></g><g id="change2_9"><path d="M 279.1875 440.660156 L 279.1875 449.890625 L 269.957031 449.890625 L 269.957031 440.660156 L 279.1875 440.660156" fill="#66c536"/></g><g id="change1_114"><path d="M 279.1875 431.433594 L 279.1875 440.660156 L 269.957031 440.660156 L 269.957031 431.433594 L 279.1875 431.433594" fill="#1d381e"/></g><g id="change1_115"><path d="M 279.1875 376.070312 L 279.1875 385.292969 L 269.957031 385.292969 L 269.957031 376.070312 L 279.1875 376.070312" fill="#1d381e"/></g><g id="change1_116"><path d="M 279.1875 366.84375 L 279.1875 376.070312 L 269.957031 376.070312 L 269.957031 366.84375 L 279.1875 366.84375" fill="#1d381e"/></g><g id="change1_117"><path d="M 279.1875 311.476562 L 279.1875 320.703125 L 269.957031 320.703125 L 269.957031 311.476562 L 279.1875 311.476562" fill="#1d381e"/></g><g id="change1_118"><path d="M 279.1875 228.429688 L 279.1875 237.660156 L 269.957031 237.660156 L 269.957031 228.429688 L 279.1875 228.429688" fill="#1d381e"/></g><g id="change1_119"><path d="M 279.1875 173.070312 L 279.1875 182.300781 L 269.957031 182.300781 L 269.957031 173.070312 L 279.1875 173.070312" fill="#1d381e"/></g><g id="change1_120"><path d="M 279.1875 145.390625 L 279.1875 154.613281 L 269.957031 154.613281 L 269.957031 145.390625 L 279.1875 145.390625" fill="#1d381e"/></g><g id="change8_11"><path d="M 279.1875 117.703125 L 279.1875 126.933594 L 269.957031 126.933594 L 269.957031 117.703125 L 279.1875 117.703125" fill="#b3319f"/></g><g id="change8_12"><path d="M 279.1875 108.480469 L 279.1875 117.703125 L 269.957031 117.703125 L 269.957031 108.480469 L 279.1875 108.480469" fill="#b3319f"/></g><g id="change8_13"><path d="M 279.1875 99.253906 L 279.1875 108.480469 L 269.957031 108.480469 L 269.957031 99.253906 L 279.1875 99.253906" fill="#b3319f"/></g><g id="change8_14"><path d="M 279.1875 80.796875 L 279.1875 90.023438 L 269.957031 90.023438 L 269.957031 80.796875 L 279.1875 80.796875" fill="#b3319f"/></g><g id="change6_9"><path d="M 279.1875 71.566406 L 279.1875 80.796875 L 269.957031 80.796875 L 269.957031 71.566406 L 279.1875 71.566406" fill="#da6cbd"/></g><g id="change8_15"><path d="M 279.1875 62.34375 L 279.1875 71.566406 L 269.957031 71.566406 L 269.957031 62.34375 L 279.1875 62.34375" fill="#b3319f"/></g><g id="change1_121"><path d="M 269.957031 505.25 L 269.957031 514.476562 L 260.726562 514.476562 L 260.726562 505.25 L 269.957031 505.25" fill="#1d381e"/></g><g id="change3_15"><path d="M 269.957031 496.027344 L 269.957031 505.25 L 260.726562 505.25 L 260.726562 496.027344 L 269.957031 496.027344" fill="#2b7735"/></g><g id="change2_10"><path d="M 269.957031 486.796875 L 269.957031 496.027344 L 260.726562 496.027344 L 260.726562 486.796875 L 269.957031 486.796875" fill="#66c536"/></g><g id="change1_122"><path d="M 269.957031 477.570312 L 269.957031 486.796875 L 260.726562 486.796875 L 260.726562 477.570312 L 269.957031 477.570312" fill="#1d381e"/></g><g id="change1_123"><path d="M 269.957031 459.117188 L 269.957031 468.339844 L 260.726562 468.339844 L 260.726562 459.117188 L 269.957031 459.117188" fill="#1d381e"/></g><g id="change3_16"><path d="M 269.957031 449.890625 L 269.957031 459.117188 L 260.726562 459.117188 L 260.726562 449.890625 L 269.957031 449.890625" fill="#2b7735"/></g><g id="change2_11"><path d="M 269.957031 440.660156 L 269.957031 449.890625 L 260.726562 449.890625 L 260.726562 440.660156 L 269.957031 440.660156" fill="#66c536"/></g><g id="change2_12"><path d="M 269.957031 431.433594 L 269.957031 440.660156 L 260.726562 440.660156 L 260.726562 431.433594 L 269.957031 431.433594" fill="#66c536"/></g><g id="change1_124"><path d="M 269.957031 422.210938 L 269.957031 431.433594 L 260.726562 431.433594 L 260.726562 422.210938 L 269.957031 422.210938" fill="#1d381e"/></g><g id="change1_125"><path d="M 269.957031 311.476562 L 269.957031 320.703125 L 260.726562 320.703125 L 260.726562 311.476562 L 269.957031 311.476562" fill="#1d381e"/></g><g id="change1_126"><path d="M 269.957031 302.253906 L 269.957031 311.476562 L 260.726562 311.476562 L 260.726562 302.253906 L 269.957031 302.253906" fill="#1d381e"/></g><g id="change1_127"><path d="M 269.957031 293.027344 L 269.957031 302.253906 L 260.726562 302.253906 L 260.726562 293.027344 L 269.957031 293.027344" fill="#1d381e"/></g><g id="change1_128"><path d="M 269.957031 237.660156 L 269.957031 246.886719 L 260.726562 246.886719 L 260.726562 237.660156 L 269.957031 237.660156" fill="#1d381e"/></g><g id="change1_129"><path d="M 269.957031 228.429688 L 269.957031 237.660156 L 260.726562 237.660156 L 260.726562 228.429688 L 269.957031 228.429688" fill="#1d381e"/></g><g id="change1_130"><path d="M 269.957031 219.207031 L 269.957031 228.429688 L 260.726562 228.429688 L 260.726562 219.207031 L 269.957031 219.207031" fill="#1d381e"/></g><g id="change1_131"><path d="M 269.957031 209.980469 L 269.957031 219.207031 L 260.726562 219.207031 L 260.726562 209.980469 L 269.957031 209.980469" fill="#1d381e"/></g><g id="change1_132"><path d="M 269.957031 173.070312 L 269.957031 182.300781 L 260.726562 182.300781 L 260.726562 173.070312 L 269.957031 173.070312" fill="#1d381e"/></g><g id="change1_133"><path d="M 269.957031 163.84375 L 269.957031 173.070312 L 260.726562 173.070312 L 260.726562 163.84375 L 269.957031 163.84375" fill="#1d381e"/></g><g id="change1_134"><path d="M 269.957031 154.613281 L 269.957031 163.84375 L 260.726562 163.84375 L 260.726562 154.613281 L 269.957031 154.613281" fill="#1d381e"/></g><g id="change8_16"><path d="M 269.957031 80.796875 L 269.957031 90.023438 L 260.726562 90.023438 L 260.726562 80.796875 L 269.957031 80.796875" fill="#b3319f"/></g><g id="change8_17"><path d="M 269.957031 71.566406 L 269.957031 80.796875 L 260.726562 80.796875 L 260.726562 71.566406 L 269.957031 71.566406" fill="#b3319f"/></g><g id="change8_18"><path d="M 269.957031 62.34375 L 269.957031 71.566406 L 260.726562 71.566406 L 260.726562 62.34375 L 269.957031 62.34375" fill="#b3319f"/></g><g id="change1_135"><path d="M 260.726562 505.25 L 260.726562 514.476562 L 251.507812 514.476562 L 251.507812 505.25 L 260.726562 505.25" fill="#1d381e"/></g><g id="change1_136"><path d="M 260.726562 496.027344 L 260.726562 505.25 L 251.507812 505.25 L 251.507812 496.027344 L 260.726562 496.027344" fill="#1d381e"/></g><g id="change2_13"><path d="M 260.726562 486.796875 L 260.726562 496.027344 L 251.507812 496.027344 L 251.507812 486.796875 L 260.726562 486.796875" fill="#66c536"/></g><g id="change1_137"><path d="M 260.726562 477.570312 L 260.726562 486.796875 L 251.507812 486.796875 L 251.507812 477.570312 L 260.726562 477.570312" fill="#1d381e"/></g><g id="change1_138"><path d="M 260.726562 459.117188 L 260.726562 468.339844 L 251.507812 468.339844 L 251.507812 459.117188 L 260.726562 459.117188" fill="#1d381e"/></g><g id="change3_17"><path d="M 260.726562 449.890625 L 260.726562 459.117188 L 251.507812 459.117188 L 251.507812 449.890625 L 260.726562 449.890625" fill="#2b7735"/></g><g id="change3_18"><path d="M 260.726562 440.660156 L 260.726562 449.890625 L 251.507812 449.890625 L 251.507812 440.660156 L 260.726562 440.660156" fill="#2b7735"/></g><g id="change2_14"><path d="M 260.726562 431.433594 L 260.726562 440.660156 L 251.507812 440.660156 L 251.507812 431.433594 L 260.726562 431.433594" fill="#66c536"/></g><g id="change1_139"><path d="M 260.726562 422.210938 L 260.726562 431.433594 L 251.507812 431.433594 L 251.507812 422.210938 L 260.726562 422.210938" fill="#1d381e"/></g><g id="change1_140"><path d="M 260.726562 311.476562 L 260.726562 320.703125 L 251.507812 320.703125 L 251.507812 311.476562 L 260.726562 311.476562" fill="#1d381e"/></g><g id="change1_141"><path d="M 260.726562 302.253906 L 260.726562 311.476562 L 251.507812 311.476562 L 251.507812 302.253906 L 260.726562 302.253906" fill="#1d381e"/></g><g id="change1_142"><path d="M 260.726562 293.027344 L 260.726562 302.253906 L 251.507812 302.253906 L 251.507812 293.027344 L 260.726562 293.027344" fill="#1d381e"/></g><g id="change1_143"><path d="M 260.726562 283.796875 L 260.726562 293.027344 L 251.507812 293.027344 L 251.507812 283.796875 L 260.726562 283.796875" fill="#1d381e"/></g><g id="change1_144"><path d="M 260.726562 274.566406 L 260.726562 283.796875 L 251.507812 283.796875 L 251.507812 274.566406 L 260.726562 274.566406" fill="#1d381e"/></g><g id="change1_145"><path d="M 260.726562 265.347656 L 260.726562 274.566406 L 251.507812 274.566406 L 251.507812 265.347656 L 260.726562 265.347656" fill="#1d381e"/></g><g id="change1_146"><path d="M 260.726562 256.117188 L 260.726562 265.347656 L 251.507812 265.347656 L 251.507812 256.117188 L 260.726562 256.117188" fill="#1d381e"/></g><g id="change1_147"><path d="M 260.726562 246.886719 L 260.726562 256.117188 L 251.507812 256.117188 L 251.507812 246.886719 L 260.726562 246.886719" fill="#1d381e"/></g><g id="change1_148"><path d="M 260.726562 237.660156 L 260.726562 246.886719 L 251.507812 246.886719 L 251.507812 237.660156 L 260.726562 237.660156" fill="#1d381e"/></g><g id="change4_9"><path d="M 260.726562 228.429688 L 260.726562 237.660156 L 251.507812 237.660156 L 251.507812 228.429688 L 260.726562 228.429688" fill="#a1ca21"/></g><g id="change4_10"><path d="M 260.726562 219.207031 L 260.726562 228.429688 L 251.507812 228.429688 L 251.507812 219.207031 L 260.726562 219.207031" fill="#a1ca21"/></g><g id="change1_149"><path d="M 260.726562 209.980469 L 260.726562 219.207031 L 251.507812 219.207031 L 251.507812 209.980469 L 260.726562 209.980469" fill="#1d381e"/></g><g id="change1_150"><path d="M 260.726562 200.75 L 260.726562 209.980469 L 251.507812 209.980469 L 251.507812 200.75 L 260.726562 200.75" fill="#1d381e"/></g><g id="change5_33"><path d="M 260.726562 108.480469 L 260.726562 117.703125 L 251.507812 117.703125 L 251.507812 108.480469 L 260.726562 108.480469" fill="#9d2698"/></g><g id="change5_34"><path d="M 260.726562 99.253906 L 260.726562 108.480469 L 251.507812 108.480469 L 251.507812 99.253906 L 260.726562 99.253906" fill="#9d2698"/></g><g id="change5_35"><path d="M 260.726562 90.023438 L 260.726562 99.253906 L 251.507812 99.253906 L 251.507812 90.023438 L 260.726562 90.023438" fill="#9d2698"/></g><g id="change5_36"><path d="M 260.726562 80.796875 L 260.726562 90.023438 L 251.507812 90.023438 L 251.507812 80.796875 L 260.726562 80.796875" fill="#9d2698"/></g><g id="change1_151"><path d="M 251.507812 496.027344 L 251.507812 505.25 L 242.277344 505.25 L 242.277344 496.027344 L 251.507812 496.027344" fill="#1d381e"/></g><g id="change1_152"><path d="M 251.507812 486.796875 L 251.507812 496.027344 L 242.277344 496.027344 L 242.277344 486.796875 L 251.507812 486.796875" fill="#1d381e"/></g><g id="change1_153"><path d="M 251.507812 459.117188 L 251.507812 468.339844 L 242.277344 468.339844 L 242.277344 459.117188 L 251.507812 459.117188" fill="#1d381e"/></g><g id="change1_154"><path d="M 251.507812 449.890625 L 251.507812 459.117188 L 242.277344 459.117188 L 242.277344 449.890625 L 251.507812 449.890625" fill="#1d381e"/></g><g id="change3_19"><path d="M 251.507812 440.660156 L 251.507812 449.890625 L 242.277344 449.890625 L 242.277344 440.660156 L 251.507812 440.660156" fill="#2b7735"/></g><g id="change2_15"><path d="M 251.507812 431.433594 L 251.507812 440.660156 L 242.277344 440.660156 L 242.277344 431.433594 L 251.507812 431.433594" fill="#66c536"/></g><g id="change1_155"><path d="M 251.507812 422.210938 L 251.507812 431.433594 L 242.277344 431.433594 L 242.277344 422.210938 L 251.507812 422.210938" fill="#1d381e"/></g><g id="change1_156"><path d="M 251.507812 320.703125 L 251.507812 329.933594 L 242.277344 329.933594 L 242.277344 320.703125 L 251.507812 320.703125" fill="#1d381e"/></g><g id="change1_157"><path d="M 251.507812 311.476562 L 251.507812 320.703125 L 242.277344 320.703125 L 242.277344 311.476562 L 251.507812 311.476562" fill="#1d381e"/></g><g id="change3_20"><path d="M 251.507812 302.253906 L 251.507812 311.476562 L 242.277344 311.476562 L 242.277344 302.253906 L 251.507812 302.253906" fill="#2b7735"/></g><g id="change1_158"><path d="M 251.507812 293.027344 L 251.507812 302.253906 L 242.277344 302.253906 L 242.277344 293.027344 L 251.507812 293.027344" fill="#1d381e"/></g><g id="change1_159"><path d="M 251.507812 283.796875 L 251.507812 293.027344 L 242.277344 293.027344 L 242.277344 283.796875 L 251.507812 283.796875" fill="#1d381e"/></g><g id="change1_160"><path d="M 251.507812 274.566406 L 251.507812 283.796875 L 242.277344 283.796875 L 242.277344 274.566406 L 251.507812 274.566406" fill="#1d381e"/></g><g id="change1_161"><path d="M 251.507812 246.886719 L 251.507812 256.117188 L 242.277344 256.117188 L 242.277344 246.886719 L 251.507812 246.886719" fill="#1d381e"/></g><g id="change3_21"><path d="M 251.507812 237.660156 L 251.507812 246.886719 L 242.277344 246.886719 L 242.277344 237.660156 L 251.507812 237.660156" fill="#2b7735"/></g><g id="change1_162"><path d="M 251.507812 228.429688 L 251.507812 237.660156 L 242.277344 237.660156 L 242.277344 228.429688 L 251.507812 228.429688" fill="#1d381e"/></g><g id="change4_11"><path d="M 251.507812 219.207031 L 251.507812 228.429688 L 242.277344 228.429688 L 242.277344 219.207031 L 251.507812 219.207031" fill="#a1ca21"/></g><g id="change4_12"><path d="M 251.507812 209.980469 L 251.507812 219.207031 L 242.277344 219.207031 L 242.277344 209.980469 L 251.507812 209.980469" fill="#a1ca21"/></g><g id="change1_163"><path d="M 251.507812 200.75 L 251.507812 209.980469 L 242.277344 209.980469 L 242.277344 200.75 L 251.507812 200.75" fill="#1d381e"/></g><g id="change1_164"><path d="M 251.507812 191.523438 L 251.507812 200.75 L 242.277344 200.75 L 242.277344 191.523438 L 251.507812 191.523438" fill="#1d381e"/></g><g id="change8_19"><path d="M 251.507812 108.480469 L 251.507812 117.703125 L 242.277344 117.703125 L 242.277344 108.480469 L 251.507812 108.480469" fill="#b3319f"/></g><g id="change6_10"><path d="M 251.507812 99.253906 L 251.507812 108.480469 L 242.277344 108.480469 L 242.277344 99.253906 L 251.507812 99.253906" fill="#da6cbd"/></g><g id="change7_9"><path d="M 251.507812 90.023438 L 251.507812 99.253906 L 242.277344 99.253906 L 242.277344 90.023438 L 251.507812 90.023438" fill="#fff"/></g><g id="change8_20"><path d="M 251.507812 80.796875 L 251.507812 90.023438 L 242.277344 90.023438 L 242.277344 80.796875 L 251.507812 80.796875" fill="#b3319f"/></g><g id="change1_165"><path d="M 242.277344 486.796875 L 242.277344 496.027344 L 233.046875 496.027344 L 233.046875 486.796875 L 242.277344 486.796875" fill="#1d381e"/></g><g id="change1_166"><path d="M 242.277344 449.890625 L 242.277344 459.117188 L 233.046875 459.117188 L 233.046875 449.890625 L 242.277344 449.890625" fill="#1d381e"/></g><g id="change1_167"><path d="M 242.277344 440.660156 L 242.277344 449.890625 L 233.046875 449.890625 L 233.046875 440.660156 L 242.277344 440.660156" fill="#1d381e"/></g><g id="change2_16"><path d="M 242.277344 431.433594 L 242.277344 440.660156 L 233.046875 440.660156 L 233.046875 431.433594 L 242.277344 431.433594" fill="#66c536"/></g><g id="change2_17"><path d="M 242.277344 422.210938 L 242.277344 431.433594 L 233.046875 431.433594 L 233.046875 422.210938 L 242.277344 422.210938" fill="#66c536"/></g><g id="change1_168"><path d="M 242.277344 412.980469 L 242.277344 422.210938 L 233.046875 422.210938 L 233.046875 412.980469 L 242.277344 412.980469" fill="#1d381e"/></g><g id="change1_169"><path d="M 242.277344 320.703125 L 242.277344 329.933594 L 233.046875 329.933594 L 233.046875 320.703125 L 242.277344 320.703125" fill="#1d381e"/></g><g id="change3_22"><path d="M 242.277344 311.476562 L 242.277344 320.703125 L 233.046875 320.703125 L 233.046875 311.476562 L 242.277344 311.476562" fill="#2b7735"/></g><g id="change1_170"><path d="M 242.277344 302.253906 L 242.277344 311.476562 L 233.046875 311.476562 L 233.046875 302.253906 L 242.277344 302.253906" fill="#1d381e"/></g><g id="change2_18"><path d="M 242.277344 293.027344 L 242.277344 302.253906 L 233.046875 302.253906 L 233.046875 293.027344 L 242.277344 293.027344" fill="#66c536"/></g><g id="change4_13"><path d="M 242.277344 283.796875 L 242.277344 293.027344 L 233.046875 293.027344 L 233.046875 283.796875 L 242.277344 283.796875" fill="#a1ca21"/></g><g id="change1_171"><path d="M 242.277344 274.566406 L 242.277344 283.796875 L 233.046875 283.796875 L 233.046875 274.566406 L 242.277344 274.566406" fill="#1d381e"/></g><g id="change1_172"><path d="M 242.277344 246.886719 L 242.277344 256.117188 L 233.046875 256.117188 L 233.046875 246.886719 L 242.277344 246.886719" fill="#1d381e"/></g><g id="change1_173"><path d="M 242.277344 237.660156 L 242.277344 246.886719 L 233.046875 246.886719 L 233.046875 237.660156 L 242.277344 237.660156" fill="#1d381e"/></g><g id="change3_23"><path d="M 242.277344 228.429688 L 242.277344 237.660156 L 233.046875 237.660156 L 233.046875 228.429688 L 242.277344 228.429688" fill="#2b7735"/></g><g id="change2_19"><path d="M 242.277344 219.207031 L 242.277344 228.429688 L 233.046875 228.429688 L 233.046875 219.207031 L 242.277344 219.207031" fill="#66c536"/></g><g id="change4_14"><path d="M 242.277344 209.980469 L 242.277344 219.207031 L 233.046875 219.207031 L 233.046875 209.980469 L 242.277344 209.980469" fill="#a1ca21"/></g><g id="change4_15"><path d="M 242.277344 200.75 L 242.277344 209.980469 L 233.046875 209.980469 L 233.046875 200.75 L 242.277344 200.75" fill="#a1ca21"/></g><g id="change1_174"><path d="M 242.277344 191.523438 L 242.277344 200.75 L 233.046875 200.75 L 233.046875 191.523438 L 242.277344 191.523438" fill="#1d381e"/></g><g id="change8_21"><path d="M 242.277344 108.480469 L 242.277344 117.703125 L 233.046875 117.703125 L 233.046875 108.480469 L 242.277344 108.480469" fill="#b3319f"/></g><g id="change6_11"><path d="M 242.277344 99.253906 L 242.277344 108.480469 L 233.046875 108.480469 L 233.046875 99.253906 L 242.277344 99.253906" fill="#da6cbd"/></g><g id="change7_10"><path d="M 242.277344 90.023438 L 242.277344 99.253906 L 233.046875 99.253906 L 233.046875 90.023438 L 242.277344 90.023438" fill="#fff"/></g><g id="change8_22"><path d="M 242.277344 80.796875 L 242.277344 90.023438 L 233.046875 90.023438 L 233.046875 80.796875 L 242.277344 80.796875" fill="#b3319f"/></g><g id="change1_175"><path d="M 233.046875 431.433594 L 233.046875 440.660156 L 223.820312 440.660156 L 223.820312 431.433594 L 233.046875 431.433594" fill="#1d381e"/></g><g id="change1_176"><path d="M 233.046875 422.210938 L 233.046875 431.433594 L 223.820312 431.433594 L 223.820312 422.210938 L 233.046875 422.210938" fill="#1d381e"/></g><g id="change1_177"><path d="M 233.046875 412.980469 L 233.046875 422.210938 L 223.820312 422.210938 L 223.820312 412.980469 L 233.046875 412.980469" fill="#1d381e"/></g><g id="change1_178"><path d="M 233.046875 320.703125 L 233.046875 329.933594 L 223.820312 329.933594 L 223.820312 320.703125 L 233.046875 320.703125" fill="#1d381e"/></g><g id="change3_24"><path d="M 233.046875 311.476562 L 233.046875 320.703125 L 223.820312 320.703125 L 223.820312 311.476562 L 233.046875 311.476562" fill="#2b7735"/></g><g id="change3_25"><path d="M 233.046875 302.253906 L 233.046875 311.476562 L 223.820312 311.476562 L 223.820312 302.253906 L 233.046875 302.253906" fill="#2b7735"/></g><g id="change2_20"><path d="M 233.046875 293.027344 L 233.046875 302.253906 L 223.820312 302.253906 L 223.820312 293.027344 L 233.046875 293.027344" fill="#66c536"/></g><g id="change4_16"><path d="M 233.046875 283.796875 L 233.046875 293.027344 L 223.820312 293.027344 L 223.820312 283.796875 L 233.046875 283.796875" fill="#a1ca21"/></g><g id="change1_179"><path d="M 233.046875 274.566406 L 233.046875 283.796875 L 223.820312 283.796875 L 223.820312 274.566406 L 233.046875 274.566406" fill="#1d381e"/></g><g id="change1_180"><path d="M 233.046875 237.660156 L 233.046875 246.886719 L 223.820312 246.886719 L 223.820312 237.660156 L 233.046875 237.660156" fill="#1d381e"/></g><g id="change1_181"><path d="M 233.046875 228.429688 L 233.046875 237.660156 L 223.820312 237.660156 L 223.820312 228.429688 L 233.046875 228.429688" fill="#1d381e"/></g><g id="change1_182"><path d="M 233.046875 219.207031 L 233.046875 228.429688 L 223.820312 228.429688 L 223.820312 219.207031 L 233.046875 219.207031" fill="#1d381e"/></g><g id="change1_183"><path d="M 233.046875 209.980469 L 233.046875 219.207031 L 223.820312 219.207031 L 223.820312 209.980469 L 233.046875 209.980469" fill="#1d381e"/></g><g id="change1_184"><path d="M 233.046875 200.75 L 233.046875 209.980469 L 223.820312 209.980469 L 223.820312 200.75 L 233.046875 200.75" fill="#1d381e"/></g><g id="change1_185"><path d="M 233.046875 191.523438 L 233.046875 200.75 L 223.820312 200.75 L 223.820312 191.523438 L 233.046875 191.523438" fill="#1d381e"/></g><g id="change5_37"><path d="M 233.046875 108.480469 L 233.046875 117.703125 L 223.820312 117.703125 L 223.820312 108.480469 L 233.046875 108.480469" fill="#9d2698"/></g><g id="change5_38"><path d="M 233.046875 99.253906 L 233.046875 108.480469 L 223.820312 108.480469 L 223.820312 99.253906 L 233.046875 99.253906" fill="#9d2698"/></g><g id="change5_39"><path d="M 233.046875 90.023438 L 233.046875 99.253906 L 223.820312 99.253906 L 223.820312 90.023438 L 233.046875 90.023438" fill="#9d2698"/></g><g id="change5_40"><path d="M 233.046875 80.796875 L 233.046875 90.023438 L 223.820312 90.023438 L 223.820312 80.796875 L 233.046875 80.796875" fill="#9d2698"/></g><g id="change1_186"><path d="M 223.820312 320.703125 L 223.820312 329.933594 L 214.589844 329.933594 L 214.589844 320.703125 L 223.820312 320.703125" fill="#1d381e"/></g><g id="change1_187"><path d="M 223.820312 311.476562 L 223.820312 320.703125 L 214.589844 320.703125 L 214.589844 311.476562 L 223.820312 311.476562" fill="#1d381e"/></g><g id="change2_21"><path d="M 223.820312 302.253906 L 223.820312 311.476562 L 214.589844 311.476562 L 214.589844 302.253906 L 223.820312 302.253906" fill="#66c536"/></g><g id="change4_17"><path d="M 223.820312 293.027344 L 223.820312 302.253906 L 214.589844 302.253906 L 214.589844 293.027344 L 223.820312 293.027344" fill="#a1ca21"/></g><g id="change4_18"><path d="M 223.820312 283.796875 L 223.820312 293.027344 L 214.589844 293.027344 L 214.589844 283.796875 L 223.820312 283.796875" fill="#a1ca21"/></g><g id="change1_188"><path d="M 223.820312 274.566406 L 223.820312 283.796875 L 214.589844 283.796875 L 214.589844 274.566406 L 223.820312 274.566406" fill="#1d381e"/></g><g id="change1_189"><path d="M 214.589844 311.476562 L 214.589844 320.703125 L 205.367188 320.703125 L 205.367188 311.476562 L 214.589844 311.476562" fill="#1d381e"/></g><g id="change1_190"><path d="M 214.589844 302.253906 L 214.589844 311.476562 L 205.367188 311.476562 L 205.367188 302.253906 L 214.589844 302.253906" fill="#1d381e"/></g><g id="change1_191"><path d="M 214.589844 293.027344 L 214.589844 302.253906 L 205.367188 302.253906 L 205.367188 293.027344 L 214.589844 293.027344" fill="#1d381e"/></g><g id="change1_192"><path d="M 214.589844 283.796875 L 214.589844 293.027344 L 205.367188 293.027344 L 205.367188 283.796875 L 214.589844 283.796875" fill="#1d381e"/></g><g id="change1_193"><path d="M 214.589844 274.566406 L 214.589844 283.796875 L 205.367188 283.796875 L 205.367188 274.566406 L 214.589844 274.566406" fill="#1d381e"/></g><g id="change1_194"><path d="M 205.367188 283.796875 L 205.367188 293.027344 L 196.140625 293.027344 L 196.140625 283.796875 L 205.367188 283.796875" fill="#1d381e"/></g></g></svg>