<?xml version="1.0" encoding="UTF-8"?><svg xmlns="http://www.w3.org/2000/svg" xmlns:xlink="http://www.w3.org/1999/xlink" height="81.2" preserveAspectRatio="xMidYMid meet" version="1.0" viewBox="0.0 0.0 375.0 81.2" width="375.0" zoomAndPan="magnify"><g id="change1_1"><path d="M375,31.2V50h-6.2v12.5h-6.2v6.2h-6.2V75h-12.5v6.2H325H50H31.2V75H18.8v-6.2h-6.2v-6.2H6.2V50H0V31.2h6.2V18.8h6.2v-6.2 h6.2V6.2h12.5V0H50h275h18.8v6.2h12.5v6.2h6.2v6.2h6.2v12.5H375z"/></g><g id="change2_1"><path d="M6.2 50L6.2 31.2 12.5 18.8 18.8 12.5 31.2 6.2 343.8 6.2 356.2 12.5 362.5 18.8 368.8 31.2 368.8 50 362.5 62.5 356.2 68.8 343.8 75 31.2 75 18.8 68.8 12.5 62.5z" fill="#c0c0c0"/></g><g id="change3_1"><path d="M343.8,6.2v6.2H31.2V6.2H343.8z M18.8,18.8h12.5v-6.2H18.8V18.8z M31.2,68.8v-6.2H18.8v6.2H31.2z M12.5,31.2 h6.2V18.8h-6.2V31.2z M18.8,62.5V50h-6.2v12.5H18.8z M6.2,50h6.2V31.2H6.2V50z" fill="#fff"/></g><g id="change1_2"><path d="M31.2,12.5H18.8V6.2h12.5V12.5z M18.8,12.5h-6.2v6.2h6.2V12.5z M12.5,62.5v6.2h6.2v-6.2H12.5z M18.8,68.8V75h12.5v-6.2H18.8 z M12.5,18.8H6.2v12.5h6.2V18.8z M6.2,50v12.5h6.2V50H6.2z M0,31.2V50h6.2V31.2H0z M343.8,75h12.5v-6.2h-12.5V75z M356.2,68.8h6.2 v-6.2h-6.2V68.8z M362.5,18.8v-6.2h-6.2v6.2H362.5z M356.2,12.5V6.2h-12.5v6.2H356.2z M362.5,62.5h6.2V50h-6.2V62.5z M368.8,31.2 V18.8h-6.2v12.5H368.8z M368.8,31.2V50h6.2V31.2H368.8z M325,6.2h18.8V0H325H50H31.2v6.2H50H325z M50,75H31.2v6.2H50h275h18.8V75 H325H50z"/></g><g id="change1_3"><path d="M31.2,68.8h312.5V75H31.2V68.8z M343.8,68.8h12.5v-6.2h-12.5V68.8z M343.8,12.5v6.2h12.5v-6.2H343.8z M356.2,62.5h6.2V50h-6.2V62.5z M356.2,18.8v12.5h6.2V18.8H356.2z M362.5,31.2V50h6.2V31.2H362.5z" opacity=".3"/></g></svg>