<?xml version="1.0" encoding="UTF-8" standalone="no"?><svg xmlns="http://www.w3.org/2000/svg" xmlns:xlink="http://www.w3.org/1999/xlink" fill="#000000" height="43.6" preserveAspectRatio="xMidYMid meet" version="1" viewBox="90.0 278.3 420.0 43.6" width="420" zoomAndPan="magnify"><g fill="#8979a6" id="change1_1"><path d="M 428.519531 309.40625 L 428.515625 303.199219 L 434.816406 303.195312 L 434.820312 309.402344 Z M 422.207031 297 L 422.207031 290.792969 L 415.902344 290.796875 L 415.90625 297.003906 L 409.605469 297.007812 L 409.601562 290.800781 L 415.902344 290.796875 L 415.902344 284.59375 L 421.980469 284.589844 L 422.207031 290.792969 L 428.507812 290.789062 L 428.511719 296.996094 Z M 415.914062 309.410156 L 415.910156 303.207031 L 422.210938 303.203125 L 422.214844 309.410156 Z M 177.746094 315.507812 L 171.664062 315.511719 L 171.441406 309.304688 L 165.136719 309.308594 L 165.136719 303.105469 L 171.4375 303.097656 L 171.441406 309.304688 L 177.742188 309.300781 L 177.738281 303.097656 L 184.042969 303.09375 L 184.042969 309.296875 L 177.742188 309.300781 Z M 158.828125 296.902344 L 158.828125 290.695312 L 165.128906 290.691406 L 165.132812 296.898438 Z M 177.730469 290.6875 L 177.734375 296.890625 L 171.433594 296.894531 L 171.429688 290.691406 Z M 447.421875 309.394531 L 447.421875 303.191406 L 441.117188 303.195312 L 441.113281 296.988281 L 434.8125 296.992188 L 434.808594 290.785156 L 441.109375 290.785156 L 441.109375 284.578125 L 434.804688 284.582031 L 434.800781 278.378906 L 171.425781 278.28125 L 171.425781 284.484375 L 165.125 284.488281 L 165.121094 278.285156 L 158.820312 278.289062 L 158.820312 284.492188 L 152.519531 284.496094 L 152.523438 290.699219 L 146.222656 290.703125 L 146.226562 296.910156 L 152.527344 296.90625 L 152.53125 303.109375 L 158.835938 303.105469 L 158.835938 309.3125 L 152.535156 309.316406 L 152.539062 315.519531 L 158.839844 315.519531 L 158.84375 321.722656 L 422.222656 321.820312 L 422.21875 315.613281 L 428.523438 315.609375 L 428.523438 321.816406 L 434.824219 321.8125 L 434.824219 315.605469 L 441.125 315.605469 L 441.121094 309.398438 L 447.421875 309.394531" fill="inherit"/><path d="M 453.722656 303.1875 L 453.71875 296.980469 L 447.417969 296.988281 L 447.421875 303.191406 L 453.722656 303.1875" fill="inherit"/><path d="M 453.726562 309.390625 L 447.421875 309.394531 L 447.425781 315.601562 L 453.726562 315.597656 L 453.726562 309.390625" fill="inherit"/><path d="M 459.890625 303.085938 L 466.191406 303.078125 L 466.1875 296.875 L 460.007812 296.878906 L 459.890625 303.085938" fill="inherit"/><path d="M 485.023438 284.503906 L 485.027344 290.6875 L 478.84375 290.691406 L 478.839844 284.558594 L 472.546875 284.5625 L 472.542969 278.425781 L 466.238281 278.429688 L 466.246094 284.636719 L 472.539062 284.632812 L 472.542969 290.765625 L 478.78125 290.761719 L 478.785156 296.898438 L 485.085938 296.894531 L 485.082031 290.710938 L 491.328125 290.707031 L 491.324219 284.503906 L 485.023438 284.503906" fill="inherit"/><path d="M 509.996094 290.742188 L 503.757812 290.746094 L 503.753906 284.636719 L 503.699219 284.558594 L 497.449219 284.5625 L 497.453125 290.765625 L 503.695312 290.761719 L 503.699219 296.953125 L 510 296.949219 L 509.996094 290.742188" fill="inherit"/><path d="M 491.214844 309.136719 L 484.976562 309.140625 L 484.972656 302.949219 L 478.734375 302.953125 L 478.730469 296.875 L 472.425781 296.878906 L 472.429688 303.085938 L 478.667969 303.078125 L 478.671875 309.160156 L 484.910156 309.15625 L 484.914062 315.269531 L 478.734375 315.269531 L 478.730469 309.191406 L 472.492188 309.195312 L 472.488281 303.117188 L 466.183594 303.121094 L 466.1875 309.25 L 466.128906 309.25 L 466.128906 309.304688 L 459.886719 309.308594 L 459.890625 321.476562 L 466.191406 321.472656 L 466.1875 315.507812 L 466.191406 315.507812 L 466.191406 315.457031 L 478.667969 315.398438 L 478.671875 321.476562 L 484.976562 321.472656 L 484.972656 315.347656 L 491.21875 315.339844 L 491.214844 309.136719" fill="inherit"/><path d="M 466.191406 290.707031 L 466.1875 284.503906 L 459.78125 284.503906 L 459.78125 284.464844 L 459.839844 284.464844 L 459.835938 278.261719 L 453.3125 278.261719 L 453.316406 284.1875 L 447.015625 284.1875 L 447.011719 278.261719 L 441.105469 278.261719 L 441.109375 284.46875 L 447.234375 284.464844 L 447.238281 290.265625 L 453.480469 290.261719 L 453.480469 296.898438 L 459.78125 296.890625 L 459.78125 290.710938 L 466.191406 290.707031" fill="inherit"/><path d="M 447.417969 296.988281 L 447.414062 290.78125 L 441.109375 290.785156 L 441.113281 296.988281 L 447.417969 296.988281" fill="inherit"/><path d="M 441.128906 321.808594 L 447.429688 321.804688 L 447.425781 315.601562 L 441.125 315.605469 L 441.128906 321.808594" fill="inherit"/><path d="M 139.925781 296.914062 L 139.929688 303.117188 L 146.230469 303.113281 L 146.226562 296.910156 L 139.925781 296.914062" fill="inherit"/><path d="M 139.917969 284.503906 L 139.921875 290.707031 L 146.222656 290.703125 L 146.21875 284.5 L 139.917969 284.503906" fill="inherit"/><path d="M 127.457031 303.226562 L 133.640625 303.222656 L 133.753906 297.015625 L 127.453125 297.019531 L 127.457031 303.226562" fill="inherit"/><path d="M 121.109375 315.46875 L 121.105469 309.332031 L 114.863281 309.335938 L 114.863281 303.203125 L 108.558594 303.207031 L 108.5625 309.390625 L 102.316406 309.394531 L 102.320312 315.597656 L 108.621094 315.59375 L 108.617188 309.410156 L 114.800781 309.410156 L 114.804688 315.542969 L 121.101562 315.539062 L 121.105469 321.671875 L 127.40625 321.671875 L 127.402344 315.464844 L 121.109375 315.46875" fill="inherit"/><path d="M 90 297.132812 L 90.003906 303.335938 L 96.304688 303.332031 L 96.300781 297.128906 L 90 297.132812" fill="inherit"/><path d="M 102.433594 290.960938 L 108.671875 290.960938 L 108.675781 297.148438 L 114.914062 297.144531 L 114.914062 303.226562 L 121.21875 303.222656 L 121.214844 297.015625 L 114.976562 297.019531 L 114.972656 290.941406 L 108.734375 290.945312 L 108.730469 284.832031 L 114.914062 284.828125 L 114.914062 290.90625 L 121.15625 290.902344 L 121.160156 296.980469 L 127.460938 296.980469 L 127.457031 290.847656 L 127.519531 290.847656 L 127.519531 290.796875 L 133.761719 290.792969 L 133.753906 278.621094 L 127.453125 278.628906 L 127.457031 284.59375 L 127.453125 284.59375 L 127.453125 284.644531 L 114.976562 284.703125 L 114.972656 278.621094 L 108.671875 278.628906 L 108.675781 284.753906 L 102.429688 284.757812 L 102.433594 290.960938" fill="inherit"/><path d="M 146.410156 315.636719 L 146.40625 309.835938 L 140.167969 309.839844 L 140.164062 303.203125 L 133.863281 303.210938 L 133.863281 309.390625 L 127.453125 309.394531 L 127.457031 315.597656 L 133.867188 315.59375 L 133.867188 315.636719 L 133.808594 315.636719 L 133.8125 321.839844 L 140.332031 321.839844 L 140.328125 315.914062 L 146.628906 315.910156 L 146.632812 321.839844 L 152.542969 321.835938 L 152.539062 315.632812 L 146.410156 315.636719" fill="inherit"/><path d="M 146.230469 303.113281 L 146.234375 309.320312 L 152.535156 309.316406 L 152.53125 303.109375 L 146.230469 303.113281" fill="inherit"/><path d="M 152.515625 278.289062 L 146.214844 278.296875 L 146.21875 284.5 L 152.519531 284.496094 L 152.515625 278.289062" fill="inherit"/></g></svg>