<?xml version="1.0" encoding="UTF-8"?><svg xmlns="http://www.w3.org/2000/svg" xmlns:xlink="http://www.w3.org/1999/xlink" height="258.9" preserveAspectRatio="xMidYMid meet" version="1.0" viewBox="62.7 83.2 299.8 258.9" width="299.8" zoomAndPan="magnify"><g><g id="change1_1"><path d="M 212.613281 328.414062 L 212.613281 342.035156 L 198.921875 342.035156 L 198.921875 328.414062 L 212.613281 328.414062" fill="#e5b94a"/></g><g id="change1_2"><path d="M 212.613281 314.789062 L 212.613281 328.414062 L 198.921875 328.414062 L 198.921875 314.789062 L 212.613281 314.789062" fill="#e5b94a"/></g><g id="change2_1"><path d="M 212.613281 301.171875 L 212.613281 314.789062 L 198.921875 314.789062 L 198.921875 301.171875 L 212.613281 301.171875" fill="#f0d681"/></g><g id="change2_2"><path d="M 212.613281 287.550781 L 212.613281 301.171875 L 198.921875 301.171875 L 198.921875 287.550781 L 212.613281 287.550781" fill="#f0d681"/></g><g id="change2_3"><path d="M 212.613281 273.925781 L 212.613281 287.550781 L 198.921875 287.550781 L 198.921875 273.925781 L 212.613281 273.925781" fill="#f0d681"/></g><g id="change3_1"><path d="M 212.613281 260.304688 L 212.613281 273.925781 L 198.921875 273.925781 L 198.921875 260.304688 L 212.613281 260.304688" fill="#a41625"/></g><g id="change3_2"><path d="M 212.613281 246.691406 L 212.613281 260.304688 L 198.921875 260.304688 L 198.921875 246.691406 L 212.613281 246.691406" fill="#a41625"/></g><g id="change4_1"><path d="M 212.613281 233.066406 L 212.613281 246.691406 L 198.921875 246.691406 L 198.921875 233.066406 L 212.613281 233.066406" fill="#fff"/></g><g id="change4_2"><path d="M 212.613281 219.367188 L 212.613281 233.066406 L 198.921875 233.066406 L 198.921875 219.367188 L 212.613281 219.367188" fill="#fff"/></g><g id="change5_1"><path d="M 212.613281 205.757812 L 212.613281 219.367188 L 198.921875 219.367188 L 198.921875 205.757812 L 212.613281 205.757812" fill="#ed1c24"/></g><g id="change5_2"><path d="M 212.613281 192.128906 L 212.613281 205.757812 L 198.921875 205.757812 L 198.921875 192.128906 L 212.613281 192.128906" fill="#ed1c24"/></g><g id="change5_3"><path d="M 212.613281 178.503906 L 212.613281 192.128906 L 198.921875 192.128906 L 198.921875 178.503906 L 212.613281 178.503906" fill="#ed1c24"/></g><g id="change5_4"><path d="M 212.613281 164.882812 L 212.613281 178.503906 L 198.921875 178.503906 L 198.921875 164.882812 L 212.613281 164.882812" fill="#ed1c24"/></g><g id="change4_3"><path d="M 212.613281 151.269531 L 212.613281 164.882812 L 198.921875 164.882812 L 198.921875 151.269531 L 212.613281 151.269531" fill="#fff"/></g><g id="change4_4"><path d="M 212.613281 137.644531 L 212.613281 151.269531 L 198.921875 151.269531 L 198.921875 137.644531 L 212.613281 137.644531" fill="#fff"/></g><g id="change4_5"><path d="M 212.613281 124.019531 L 212.613281 137.644531 L 198.921875 137.644531 L 198.921875 124.019531 L 212.613281 124.019531" fill="#fff"/></g><g id="change5_5"><path d="M 212.613281 110.398438 L 212.613281 124.019531 L 198.921875 124.019531 L 198.921875 110.398438 L 212.613281 110.398438" fill="#ed1c24"/></g><g id="change5_6"><path d="M 212.613281 96.773438 L 212.613281 110.398438 L 198.921875 110.398438 L 198.921875 96.773438 L 212.613281 96.773438" fill="#ed1c24"/></g><g id="change6_1"><path d="M 212.613281 83.164062 L 212.613281 96.773438 L 198.921875 96.773438 L 198.921875 83.164062 L 212.613281 83.164062" fill="#f14624"/></g><g id="change1_3"><path d="M 198.921875 328.414062 L 198.921875 342.035156 L 185.304688 342.035156 L 185.304688 328.414062 L 198.921875 328.414062" fill="#e5b94a"/></g><g id="change2_4"><path d="M 198.921875 314.789062 L 198.921875 328.414062 L 185.304688 328.414062 L 185.304688 314.789062 L 198.921875 314.789062" fill="#f0d681"/></g><g id="change2_5"><path d="M 198.921875 301.171875 L 198.921875 314.789062 L 185.304688 314.789062 L 185.304688 301.171875 L 198.921875 301.171875" fill="#f0d681"/></g><g id="change2_6"><path d="M 198.921875 287.550781 L 198.921875 301.171875 L 185.304688 301.171875 L 185.304688 287.550781 L 198.921875 287.550781" fill="#f0d681"/></g><g id="change2_7"><path d="M 198.921875 273.925781 L 198.921875 287.550781 L 185.304688 287.550781 L 185.304688 273.925781 L 198.921875 273.925781" fill="#f0d681"/></g><g id="change3_3"><path d="M 198.921875 260.304688 L 198.921875 273.925781 L 185.304688 273.925781 L 185.304688 260.304688 L 198.921875 260.304688" fill="#a41625"/></g><g id="change3_4"><path d="M 198.921875 246.691406 L 198.921875 260.304688 L 185.304688 260.304688 L 185.304688 246.691406 L 198.921875 246.691406" fill="#a41625"/></g><g id="change5_7"><path d="M 198.921875 233.066406 L 198.921875 246.691406 L 185.304688 246.691406 L 185.304688 233.066406 L 198.921875 233.066406" fill="#ed1c24"/></g><g id="change5_8"><path d="M 198.921875 219.367188 L 198.921875 233.066406 L 185.304688 233.066406 L 185.304688 219.367188 L 198.921875 219.367188" fill="#ed1c24"/></g><g id="change5_9"><path d="M 198.921875 205.757812 L 198.921875 219.367188 L 185.304688 219.367188 L 185.304688 205.757812 L 198.921875 205.757812" fill="#ed1c24"/></g><g id="change5_10"><path d="M 198.921875 192.128906 L 198.921875 205.757812 L 185.304688 205.757812 L 185.304688 192.128906 L 198.921875 192.128906" fill="#ed1c24"/></g><g id="change5_11"><path d="M 198.921875 178.503906 L 198.921875 192.128906 L 185.304688 192.128906 L 185.304688 178.503906 L 198.921875 178.503906" fill="#ed1c24"/></g><g id="change5_12"><path d="M 198.921875 164.882812 L 198.921875 178.503906 L 185.304688 178.503906 L 185.304688 164.882812 L 198.921875 164.882812" fill="#ed1c24"/></g><g id="change4_6"><path d="M 198.921875 151.269531 L 198.921875 164.882812 L 185.304688 164.882812 L 185.304688 151.269531 L 198.921875 151.269531" fill="#fff"/></g><g id="change4_7"><path d="M 198.921875 137.644531 L 198.921875 151.269531 L 185.304688 151.269531 L 185.304688 137.644531 L 198.921875 137.644531" fill="#fff"/></g><g id="change4_8"><path d="M 198.921875 124.019531 L 198.921875 137.644531 L 185.304688 137.644531 L 185.304688 124.019531 L 198.921875 124.019531" fill="#fff"/></g><g id="change5_13"><path d="M 198.921875 110.398438 L 198.921875 124.019531 L 185.304688 124.019531 L 185.304688 110.398438 L 198.921875 110.398438" fill="#ed1c24"/></g><g id="change6_2"><path d="M 198.921875 96.773438 L 198.921875 110.398438 L 185.304688 110.398438 L 185.304688 96.773438 L 198.921875 96.773438" fill="#f14624"/></g><g id="change6_3"><path d="M 198.921875 83.164062 L 198.921875 96.773438 L 185.304688 96.773438 L 185.304688 83.164062 L 198.921875 83.164062" fill="#f14624"/></g><g id="change1_4"><path d="M 185.304688 328.414062 L 185.304688 342.035156 L 171.675781 342.035156 L 171.675781 328.414062 L 185.304688 328.414062" fill="#e5b94a"/></g><g id="change2_8"><path d="M 185.304688 314.789062 L 185.304688 328.414062 L 171.675781 328.414062 L 171.675781 314.789062 L 185.304688 314.789062" fill="#f0d681"/></g><g id="change2_9"><path d="M 185.304688 301.171875 L 185.304688 314.789062 L 171.675781 314.789062 L 171.675781 301.171875 L 185.304688 301.171875" fill="#f0d681"/></g><g id="change2_10"><path d="M 185.304688 287.550781 L 185.304688 301.171875 L 171.675781 301.171875 L 171.675781 287.550781 L 185.304688 287.550781" fill="#f0d681"/></g><g id="change2_11"><path d="M 185.304688 273.925781 L 185.304688 287.550781 L 171.675781 287.550781 L 171.675781 273.925781 L 185.304688 273.925781" fill="#f0d681"/></g><g id="change3_5"><path d="M 185.304688 260.304688 L 185.304688 273.925781 L 171.675781 273.925781 L 171.675781 260.304688 L 185.304688 260.304688" fill="#a41625"/></g><g id="change3_6"><path d="M 185.304688 246.691406 L 185.304688 260.304688 L 171.675781 260.304688 L 171.675781 246.691406 L 185.304688 246.691406" fill="#a41625"/></g><g id="change5_14"><path d="M 185.304688 233.066406 L 185.304688 246.691406 L 171.675781 246.691406 L 171.675781 233.066406 L 185.304688 233.066406" fill="#ed1c24"/></g><g id="change5_15"><path d="M 185.304688 219.367188 L 185.304688 233.066406 L 171.675781 233.066406 L 171.675781 219.367188 L 185.304688 219.367188" fill="#ed1c24"/></g><g id="change5_16"><path d="M 185.304688 205.757812 L 185.304688 219.367188 L 171.675781 219.367188 L 171.675781 205.757812 L 185.304688 205.757812" fill="#ed1c24"/></g><g id="change5_17"><path d="M 185.304688 192.128906 L 185.304688 205.757812 L 171.675781 205.757812 L 171.675781 192.128906 L 185.304688 192.128906" fill="#ed1c24"/></g><g id="change5_18"><path d="M 185.304688 178.503906 L 185.304688 192.128906 L 171.675781 192.128906 L 171.675781 178.503906 L 185.304688 178.503906" fill="#ed1c24"/></g><g id="change5_19"><path d="M 185.304688 164.882812 L 185.304688 178.503906 L 171.675781 178.503906 L 171.675781 164.882812 L 185.304688 164.882812" fill="#ed1c24"/></g><g id="change5_20"><path d="M 185.304688 151.269531 L 185.304688 164.882812 L 171.675781 164.882812 L 171.675781 151.269531 L 185.304688 151.269531" fill="#ed1c24"/></g><g id="change4_9"><path d="M 185.304688 137.644531 L 185.304688 151.269531 L 171.675781 151.269531 L 171.675781 137.644531 L 185.304688 137.644531" fill="#fff"/></g><g id="change5_21"><path d="M 185.304688 124.019531 L 185.304688 137.644531 L 171.675781 137.644531 L 171.675781 124.019531 L 185.304688 124.019531" fill="#ed1c24"/></g><g id="change5_22"><path d="M 185.304688 110.398438 L 185.304688 124.019531 L 171.675781 124.019531 L 171.675781 110.398438 L 185.304688 110.398438" fill="#ed1c24"/></g><g id="change6_4"><path d="M 185.304688 96.773438 L 185.304688 110.398438 L 171.675781 110.398438 L 171.675781 96.773438 L 185.304688 96.773438" fill="#f14624"/></g><g id="change6_5"><path d="M 185.304688 83.164062 L 185.304688 96.773438 L 171.675781 96.773438 L 171.675781 83.164062 L 185.304688 83.164062" fill="#f14624"/></g><g id="change1_5"><path d="M 171.675781 328.414062 L 171.675781 342.035156 L 158.066406 342.035156 L 158.066406 328.414062 L 171.675781 328.414062" fill="#e5b94a"/></g><g id="change2_12"><path d="M 171.675781 314.789062 L 171.675781 328.414062 L 158.066406 328.414062 L 158.066406 314.789062 L 171.675781 314.789062" fill="#f0d681"/></g><g id="change2_13"><path d="M 171.675781 301.171875 L 171.675781 314.789062 L 158.066406 314.789062 L 158.066406 301.171875 L 171.675781 301.171875" fill="#f0d681"/></g><g id="change2_14"><path d="M 171.675781 287.550781 L 171.675781 301.171875 L 158.066406 301.171875 L 158.066406 287.550781 L 171.675781 287.550781" fill="#f0d681"/></g><g id="change2_15"><path d="M 171.675781 273.925781 L 171.675781 287.550781 L 158.066406 287.550781 L 158.066406 273.925781 L 171.675781 273.925781" fill="#f0d681"/></g><g id="change3_7"><path d="M 171.675781 260.304688 L 171.675781 273.925781 L 158.066406 273.925781 L 158.066406 260.304688 L 171.675781 260.304688" fill="#a41625"/></g><g id="change3_8"><path d="M 171.675781 246.691406 L 171.675781 260.304688 L 158.066406 260.304688 L 158.066406 246.691406 L 171.675781 246.691406" fill="#a41625"/></g><g id="change5_23"><path d="M 171.675781 233.066406 L 171.675781 246.691406 L 158.066406 246.691406 L 158.066406 233.066406 L 171.675781 233.066406" fill="#ed1c24"/></g><g id="change5_24"><path d="M 171.675781 219.367188 L 171.675781 233.066406 L 158.066406 233.066406 L 158.066406 219.367188 L 171.675781 219.367188" fill="#ed1c24"/></g><g id="change5_25"><path d="M 171.675781 205.757812 L 171.675781 219.367188 L 158.066406 219.367188 L 158.066406 205.757812 L 171.675781 205.757812" fill="#ed1c24"/></g><g id="change5_26"><path d="M 171.675781 192.128906 L 171.675781 205.757812 L 158.066406 205.757812 L 158.066406 192.128906 L 171.675781 192.128906" fill="#ed1c24"/></g><g id="change4_10"><path d="M 171.675781 178.503906 L 171.675781 192.128906 L 158.066406 192.128906 L 158.066406 178.503906 L 171.675781 178.503906" fill="#fff"/></g><g id="change4_11"><path d="M 171.675781 164.882812 L 171.675781 178.503906 L 158.066406 178.503906 L 158.066406 164.882812 L 171.675781 164.882812" fill="#fff"/></g><g id="change5_27"><path d="M 171.675781 151.269531 L 171.675781 164.882812 L 158.066406 164.882812 L 158.066406 151.269531 L 171.675781 151.269531" fill="#ed1c24"/></g><g id="change5_28"><path d="M 171.675781 137.644531 L 171.675781 151.269531 L 158.066406 151.269531 L 158.066406 137.644531 L 171.675781 137.644531" fill="#ed1c24"/></g><g id="change5_29"><path d="M 171.675781 124.019531 L 171.675781 137.644531 L 158.066406 137.644531 L 158.066406 124.019531 L 171.675781 124.019531" fill="#ed1c24"/></g><g id="change6_6"><path d="M 171.675781 110.398438 L 171.675781 124.019531 L 158.066406 124.019531 L 158.066406 110.398438 L 171.675781 110.398438" fill="#f14624"/></g><g id="change6_7"><path d="M 171.675781 96.773438 L 171.675781 110.398438 L 158.066406 110.398438 L 158.066406 96.773438 L 171.675781 96.773438" fill="#f14624"/></g><g id="change6_8"><path d="M 171.675781 83.164062 L 171.675781 96.773438 L 158.066406 96.773438 L 158.066406 83.164062 L 171.675781 83.164062" fill="#f14624"/></g><g id="change1_6"><path d="M 158.066406 328.414062 L 158.066406 342.035156 L 144.441406 342.035156 L 144.441406 328.414062 L 158.066406 328.414062" fill="#e5b94a"/></g><g id="change2_16"><path d="M 158.066406 314.789062 L 158.066406 328.414062 L 144.441406 328.414062 L 144.441406 314.789062 L 158.066406 314.789062" fill="#f0d681"/></g><g id="change2_17"><path d="M 158.066406 301.171875 L 158.066406 314.789062 L 144.441406 314.789062 L 144.441406 301.171875 L 158.066406 301.171875" fill="#f0d681"/></g><g id="change2_18"><path d="M 158.066406 287.550781 L 158.066406 301.171875 L 144.441406 301.171875 L 144.441406 287.550781 L 158.066406 287.550781" fill="#f0d681"/></g><g id="change2_19"><path d="M 158.066406 273.925781 L 158.066406 287.550781 L 144.441406 287.550781 L 144.441406 273.925781 L 158.066406 273.925781" fill="#f0d681"/></g><g id="change3_9"><path d="M 158.066406 260.304688 L 158.066406 273.925781 L 144.441406 273.925781 L 144.441406 260.304688 L 158.066406 260.304688" fill="#a41625"/></g><g id="change3_10"><path d="M 158.066406 246.691406 L 158.066406 260.304688 L 144.441406 260.304688 L 144.441406 246.691406 L 158.066406 246.691406" fill="#a41625"/></g><g id="change5_30"><path d="M 158.066406 233.066406 L 158.066406 246.691406 L 144.441406 246.691406 L 144.441406 233.066406 L 158.066406 233.066406" fill="#ed1c24"/></g><g id="change5_31"><path d="M 158.066406 219.367188 L 158.066406 233.066406 L 144.441406 233.066406 L 144.441406 219.367188 L 158.066406 219.367188" fill="#ed1c24"/></g><g id="change5_32"><path d="M 158.066406 205.757812 L 158.066406 219.367188 L 144.441406 219.367188 L 144.441406 205.757812 L 158.066406 205.757812" fill="#ed1c24"/></g><g id="change4_12"><path d="M 158.066406 192.128906 L 158.066406 205.757812 L 144.441406 205.757812 L 144.441406 192.128906 L 158.066406 192.128906" fill="#fff"/></g><g id="change4_13"><path d="M 158.066406 178.503906 L 158.066406 192.128906 L 144.441406 192.128906 L 144.441406 178.503906 L 158.066406 178.503906" fill="#fff"/></g><g id="change4_14"><path d="M 158.066406 164.882812 L 158.066406 178.503906 L 144.441406 178.503906 L 144.441406 164.882812 L 158.066406 164.882812" fill="#fff"/></g><g id="change4_15"><path d="M 158.066406 151.269531 L 158.066406 164.882812 L 144.441406 164.882812 L 144.441406 151.269531 L 158.066406 151.269531" fill="#fff"/></g><g id="change5_33"><path d="M 158.066406 137.644531 L 158.066406 151.269531 L 144.441406 151.269531 L 144.441406 137.644531 L 158.066406 137.644531" fill="#ed1c24"/></g><g id="change6_9"><path d="M 158.066406 124.019531 L 158.066406 137.644531 L 144.441406 137.644531 L 144.441406 124.019531 L 158.066406 124.019531" fill="#f14624"/></g><g id="change6_10"><path d="M 158.066406 110.398438 L 158.066406 124.019531 L 144.441406 124.019531 L 144.441406 110.398438 L 158.066406 110.398438" fill="#f14624"/></g><g id="change6_11"><path d="M 158.066406 96.773438 L 158.066406 110.398438 L 144.441406 110.398438 L 144.441406 96.773438 L 158.066406 96.773438" fill="#f14624"/></g><g id="change3_11"><path d="M 144.441406 260.304688 L 144.441406 273.925781 L 130.816406 273.925781 L 130.816406 260.304688 L 144.441406 260.304688" fill="#a41625"/></g><g id="change3_12"><path d="M 144.441406 246.691406 L 144.441406 260.304688 L 130.816406 260.304688 L 130.816406 246.691406 L 144.441406 246.691406" fill="#a41625"/></g><g id="change5_34"><path d="M 144.441406 233.066406 L 144.441406 246.691406 L 130.816406 246.691406 L 130.816406 233.066406 L 144.441406 233.066406" fill="#ed1c24"/></g><g id="change5_35"><path d="M 144.441406 219.367188 L 144.441406 233.066406 L 130.816406 233.066406 L 130.816406 219.367188 L 144.441406 219.367188" fill="#ed1c24"/></g><g id="change5_36"><path d="M 144.441406 205.757812 L 144.441406 219.367188 L 130.816406 219.367188 L 130.816406 205.757812 L 144.441406 205.757812" fill="#ed1c24"/></g><g id="change5_37"><path d="M 144.441406 192.128906 L 144.441406 205.757812 L 130.816406 205.757812 L 130.816406 192.128906 L 144.441406 192.128906" fill="#ed1c24"/></g><g id="change4_16"><path d="M 144.441406 178.503906 L 144.441406 192.128906 L 130.816406 192.128906 L 130.816406 178.503906 L 144.441406 178.503906" fill="#fff"/></g><g id="change4_17"><path d="M 144.441406 164.882812 L 144.441406 178.503906 L 130.816406 178.503906 L 130.816406 164.882812 L 144.441406 164.882812" fill="#fff"/></g><g id="change5_38"><path d="M 144.441406 151.269531 L 144.441406 164.882812 L 130.816406 164.882812 L 130.816406 151.269531 L 144.441406 151.269531" fill="#ed1c24"/></g><g id="change6_12"><path d="M 144.441406 137.644531 L 144.441406 151.269531 L 130.816406 151.269531 L 130.816406 137.644531 L 144.441406 137.644531" fill="#f14624"/></g><g id="change6_13"><path d="M 144.441406 124.019531 L 144.441406 137.644531 L 130.816406 137.644531 L 130.816406 124.019531 L 144.441406 124.019531" fill="#f14624"/></g><g id="change6_14"><path d="M 144.441406 110.398438 L 144.441406 124.019531 L 130.816406 124.019531 L 130.816406 110.398438 L 144.441406 110.398438" fill="#f14624"/></g><g id="change3_13"><path d="M 130.816406 260.304688 L 130.816406 273.925781 L 117.1875 273.925781 L 117.1875 260.304688 L 130.816406 260.304688" fill="#a41625"/></g><g id="change3_14"><path d="M 130.816406 246.691406 L 130.816406 260.304688 L 117.1875 260.304688 L 117.1875 246.691406 L 130.816406 246.691406" fill="#a41625"/></g><g id="change5_39"><path d="M 130.816406 233.066406 L 130.816406 246.691406 L 117.1875 246.691406 L 117.1875 233.066406 L 130.816406 233.066406" fill="#ed1c24"/></g><g id="change4_18"><path d="M 130.816406 219.367188 L 130.816406 233.066406 L 117.1875 233.066406 L 117.1875 219.367188 L 130.816406 219.367188" fill="#fff"/></g><g id="change5_40"><path d="M 130.816406 205.757812 L 130.816406 219.367188 L 117.1875 219.367188 L 117.1875 205.757812 L 130.816406 205.757812" fill="#ed1c24"/></g><g id="change5_41"><path d="M 130.816406 192.128906 L 130.816406 205.757812 L 117.1875 205.757812 L 117.1875 192.128906 L 130.816406 192.128906" fill="#ed1c24"/></g><g id="change5_42"><path d="M 130.816406 178.503906 L 130.816406 192.128906 L 117.1875 192.128906 L 117.1875 178.503906 L 130.816406 178.503906" fill="#ed1c24"/></g><g id="change5_43"><path d="M 130.816406 164.882812 L 130.816406 178.503906 L 117.1875 178.503906 L 117.1875 164.882812 L 130.816406 164.882812" fill="#ed1c24"/></g><g id="change5_44"><path d="M 130.816406 151.269531 L 130.816406 164.882812 L 117.1875 164.882812 L 117.1875 151.269531 L 130.816406 151.269531" fill="#ed1c24"/></g><g id="change6_15"><path d="M 130.816406 137.644531 L 130.816406 151.269531 L 117.1875 151.269531 L 117.1875 137.644531 L 130.816406 137.644531" fill="#f14624"/></g><g id="change6_16"><path d="M 130.816406 124.019531 L 130.816406 137.644531 L 117.1875 137.644531 L 117.1875 124.019531 L 130.816406 124.019531" fill="#f14624"/></g><g id="change3_15"><path d="M 117.1875 260.304688 L 117.1875 273.925781 L 103.566406 273.925781 L 103.566406 260.304688 L 117.1875 260.304688" fill="#a41625"/></g><g id="change3_16"><path d="M 117.1875 246.691406 L 117.1875 260.304688 L 103.566406 260.304688 L 103.566406 246.691406 L 117.1875 246.691406" fill="#a41625"/></g><g id="change4_19"><path d="M 117.1875 233.066406 L 117.1875 246.691406 L 103.566406 246.691406 L 103.566406 233.066406 L 117.1875 233.066406" fill="#fff"/></g><g id="change4_20"><path d="M 117.1875 219.367188 L 117.1875 233.066406 L 103.566406 233.066406 L 103.566406 219.367188 L 117.1875 219.367188" fill="#fff"/></g><g id="change4_21"><path d="M 117.1875 205.757812 L 117.1875 219.367188 L 103.566406 219.367188 L 103.566406 205.757812 L 117.1875 205.757812" fill="#fff"/></g><g id="change5_45"><path d="M 117.1875 192.128906 L 117.1875 205.757812 L 103.566406 205.757812 L 103.566406 192.128906 L 117.1875 192.128906" fill="#ed1c24"/></g><g id="change5_46"><path d="M 117.1875 178.503906 L 117.1875 192.128906 L 103.566406 192.128906 L 103.566406 178.503906 L 117.1875 178.503906" fill="#ed1c24"/></g><g id="change5_47"><path d="M 117.1875 164.882812 L 117.1875 178.503906 L 103.566406 178.503906 L 103.566406 164.882812 L 117.1875 164.882812" fill="#ed1c24"/></g><g id="change6_17"><path d="M 117.1875 151.269531 L 117.1875 164.882812 L 103.566406 164.882812 L 103.566406 151.269531 L 117.1875 151.269531" fill="#f14624"/></g><g id="change6_18"><path d="M 117.1875 137.644531 L 117.1875 151.269531 L 103.566406 151.269531 L 103.566406 137.644531 L 117.1875 137.644531" fill="#f14624"/></g><g id="change3_17"><path d="M 103.566406 260.304688 L 103.566406 273.925781 L 89.960938 273.925781 L 89.960938 260.304688 L 103.566406 260.304688" fill="#a41625"/></g><g id="change3_18"><path d="M 103.566406 246.691406 L 103.566406 260.304688 L 89.960938 260.304688 L 89.960938 246.691406 L 103.566406 246.691406" fill="#a41625"/></g><g id="change4_22"><path d="M 103.566406 233.066406 L 103.566406 246.691406 L 89.960938 246.691406 L 89.960938 233.066406 L 103.566406 233.066406" fill="#fff"/></g><g id="change4_23"><path d="M 103.566406 219.367188 L 103.566406 233.066406 L 89.960938 233.066406 L 89.960938 219.367188 L 103.566406 219.367188" fill="#fff"/></g><g id="change4_24"><path d="M 103.566406 205.757812 L 103.566406 219.367188 L 89.960938 219.367188 L 89.960938 205.757812 L 103.566406 205.757812" fill="#fff"/></g><g id="change5_48"><path d="M 103.566406 192.128906 L 103.566406 205.757812 L 89.960938 205.757812 L 89.960938 192.128906 L 103.566406 192.128906" fill="#ed1c24"/></g><g id="change5_49"><path d="M 103.566406 178.503906 L 103.566406 192.128906 L 89.960938 192.128906 L 89.960938 178.503906 L 103.566406 178.503906" fill="#ed1c24"/></g><g id="change6_19"><path d="M 103.566406 164.882812 L 103.566406 178.503906 L 89.960938 178.503906 L 89.960938 164.882812 L 103.566406 164.882812" fill="#f14624"/></g><g id="change6_20"><path d="M 103.566406 151.269531 L 103.566406 164.882812 L 89.960938 164.882812 L 89.960938 151.269531 L 103.566406 151.269531" fill="#f14624"/></g><g id="change3_19"><path d="M 89.960938 260.304688 L 89.960938 273.925781 L 76.332031 273.925781 L 76.332031 260.304688 L 89.960938 260.304688" fill="#a41625"/></g><g id="change3_20"><path d="M 89.960938 246.691406 L 89.960938 260.304688 L 76.332031 260.304688 L 76.332031 246.691406 L 89.960938 246.691406" fill="#a41625"/></g><g id="change5_50"><path d="M 89.960938 233.066406 L 89.960938 246.691406 L 76.332031 246.691406 L 76.332031 233.066406 L 89.960938 233.066406" fill="#ed1c24"/></g><g id="change4_25"><path d="M 89.960938 219.367188 L 89.960938 233.066406 L 76.332031 233.066406 L 76.332031 219.367188 L 89.960938 219.367188" fill="#fff"/></g><g id="change5_51"><path d="M 89.960938 205.757812 L 89.960938 219.367188 L 76.332031 219.367188 L 76.332031 205.757812 L 89.960938 205.757812" fill="#ed1c24"/></g><g id="change5_52"><path d="M 89.960938 192.128906 L 89.960938 205.757812 L 76.332031 205.757812 L 76.332031 192.128906 L 89.960938 192.128906" fill="#ed1c24"/></g><g id="change6_21"><path d="M 89.960938 178.503906 L 89.960938 192.128906 L 76.332031 192.128906 L 76.332031 178.503906 L 89.960938 178.503906" fill="#f14624"/></g><g id="change6_22"><path d="M 89.960938 164.882812 L 89.960938 178.503906 L 76.332031 178.503906 L 76.332031 164.882812 L 89.960938 164.882812" fill="#f14624"/></g><g id="change3_21"><path d="M 76.332031 260.304688 L 76.332031 273.925781 L 62.710938 273.925781 L 62.710938 260.304688 L 76.332031 260.304688" fill="#a41625"/></g><g id="change3_22"><path d="M 76.332031 246.691406 L 76.332031 260.304688 L 62.710938 260.304688 L 62.710938 246.691406 L 76.332031 246.691406" fill="#a41625"/></g><g id="change5_53"><path d="M 76.332031 233.066406 L 76.332031 246.691406 L 62.710938 246.691406 L 62.710938 233.066406 L 76.332031 233.066406" fill="#ed1c24"/></g><g id="change5_54"><path d="M 76.332031 219.367188 L 76.332031 233.066406 L 62.710938 233.066406 L 62.710938 219.367188 L 76.332031 219.367188" fill="#ed1c24"/></g><g id="change5_55"><path d="M 76.332031 205.757812 L 76.332031 219.367188 L 62.710938 219.367188 L 62.710938 205.757812 L 76.332031 205.757812" fill="#ed1c24"/></g><g id="change5_56"><path d="M 76.332031 192.128906 L 76.332031 205.757812 L 62.710938 205.757812 L 62.710938 192.128906 L 76.332031 192.128906" fill="#ed1c24"/></g><g id="change6_23"><path d="M 76.332031 178.503906 L 76.332031 192.128906 L 62.710938 192.128906 L 62.710938 178.503906 L 76.332031 178.503906" fill="#f14624"/></g><g id="change1_7"><path d="M 212.582031 328.414062 L 212.582031 342.035156 L 226.269531 342.035156 L 226.269531 328.414062 L 212.582031 328.414062" fill="#e5b94a"/></g><g id="change1_8"><path d="M 212.582031 314.789062 L 212.582031 328.414062 L 226.269531 328.414062 L 226.269531 314.789062 L 212.582031 314.789062" fill="#e5b94a"/></g><g id="change2_20"><path d="M 212.582031 301.171875 L 212.582031 314.789062 L 226.269531 314.789062 L 226.269531 301.171875 L 212.582031 301.171875" fill="#f0d681"/></g><g id="change2_21"><path d="M 212.582031 287.550781 L 212.582031 301.171875 L 226.269531 301.171875 L 226.269531 287.550781 L 212.582031 287.550781" fill="#f0d681"/></g><g id="change2_22"><path d="M 212.582031 273.925781 L 212.582031 287.550781 L 226.269531 287.550781 L 226.269531 273.925781 L 212.582031 273.925781" fill="#f0d681"/></g><g id="change3_23"><path d="M 212.582031 260.304688 L 212.582031 273.925781 L 226.269531 273.925781 L 226.269531 260.304688 L 212.582031 260.304688" fill="#a41625"/></g><g id="change3_24"><path d="M 212.582031 246.691406 L 212.582031 260.304688 L 226.269531 260.304688 L 226.269531 246.691406 L 212.582031 246.691406" fill="#a41625"/></g><g id="change4_26"><path d="M 212.582031 233.066406 L 212.582031 246.691406 L 226.269531 246.691406 L 226.269531 233.066406 L 212.582031 233.066406" fill="#fff"/></g><g id="change4_27"><path d="M 212.582031 219.367188 L 212.582031 233.066406 L 226.269531 233.066406 L 226.269531 219.367188 L 212.582031 219.367188" fill="#fff"/></g><g id="change5_57"><path d="M 212.582031 205.757812 L 212.582031 219.367188 L 226.269531 219.367188 L 226.269531 205.757812 L 212.582031 205.757812" fill="#ed1c24"/></g><g id="change5_58"><path d="M 212.582031 192.128906 L 212.582031 205.757812 L 226.269531 205.757812 L 226.269531 192.128906 L 212.582031 192.128906" fill="#ed1c24"/></g><g id="change5_59"><path d="M 212.582031 178.503906 L 212.582031 192.128906 L 226.269531 192.128906 L 226.269531 178.503906 L 212.582031 178.503906" fill="#ed1c24"/></g><g id="change5_60"><path d="M 212.582031 164.882812 L 212.582031 178.503906 L 226.269531 178.503906 L 226.269531 164.882812 L 212.582031 164.882812" fill="#ed1c24"/></g><g id="change4_28"><path d="M 212.582031 151.269531 L 212.582031 164.882812 L 226.269531 164.882812 L 226.269531 151.269531 L 212.582031 151.269531" fill="#fff"/></g><g id="change4_29"><path d="M 212.582031 137.644531 L 212.582031 151.269531 L 226.269531 151.269531 L 226.269531 137.644531 L 212.582031 137.644531" fill="#fff"/></g><g id="change4_30"><path d="M 212.582031 124.019531 L 212.582031 137.644531 L 226.269531 137.644531 L 226.269531 124.019531 L 212.582031 124.019531" fill="#fff"/></g><g id="change5_61"><path d="M 212.582031 110.398438 L 212.582031 124.019531 L 226.269531 124.019531 L 226.269531 110.398438 L 212.582031 110.398438" fill="#ed1c24"/></g><g id="change5_62"><path d="M 212.582031 96.773438 L 212.582031 110.398438 L 226.269531 110.398438 L 226.269531 96.773438 L 212.582031 96.773438" fill="#ed1c24"/></g><g id="change6_24"><path d="M 212.582031 83.164062 L 212.582031 96.773438 L 226.269531 96.773438 L 226.269531 83.164062 L 212.582031 83.164062" fill="#f14624"/></g><g id="change1_9"><path d="M 226.269531 328.414062 L 226.269531 342.035156 L 239.890625 342.035156 L 239.890625 328.414062 L 226.269531 328.414062" fill="#e5b94a"/></g><g id="change1_10"><path d="M 226.269531 314.789062 L 226.269531 328.414062 L 239.890625 328.414062 L 239.890625 314.789062 L 226.269531 314.789062" fill="#e5b94a"/></g><g id="change1_11"><path d="M 226.269531 301.171875 L 226.269531 314.789062 L 239.890625 314.789062 L 239.890625 301.171875 L 226.269531 301.171875" fill="#e5b94a"/></g><g id="change2_23"><path d="M 226.269531 287.550781 L 226.269531 301.171875 L 239.890625 301.171875 L 239.890625 287.550781 L 226.269531 287.550781" fill="#f0d681"/></g><g id="change2_24"><path d="M 226.269531 273.925781 L 226.269531 287.550781 L 239.890625 287.550781 L 239.890625 273.925781 L 226.269531 273.925781" fill="#f0d681"/></g><g id="change3_25"><path d="M 226.269531 260.304688 L 226.269531 273.925781 L 239.890625 273.925781 L 239.890625 260.304688 L 226.269531 260.304688" fill="#a41625"/></g><g id="change3_26"><path d="M 226.269531 246.691406 L 226.269531 260.304688 L 239.890625 260.304688 L 239.890625 246.691406 L 226.269531 246.691406" fill="#a41625"/></g><g id="change5_63"><path d="M 226.269531 233.066406 L 226.269531 246.691406 L 239.890625 246.691406 L 239.890625 233.066406 L 226.269531 233.066406" fill="#ed1c24"/></g><g id="change5_64"><path d="M 226.269531 219.367188 L 226.269531 233.066406 L 239.890625 233.066406 L 239.890625 219.367188 L 226.269531 219.367188" fill="#ed1c24"/></g><g id="change5_65"><path d="M 226.269531 205.757812 L 226.269531 219.367188 L 239.890625 219.367188 L 239.890625 205.757812 L 226.269531 205.757812" fill="#ed1c24"/></g><g id="change5_66"><path d="M 226.269531 192.128906 L 226.269531 205.757812 L 239.890625 205.757812 L 239.890625 192.128906 L 226.269531 192.128906" fill="#ed1c24"/></g><g id="change5_67"><path d="M 226.269531 178.503906 L 226.269531 192.128906 L 239.890625 192.128906 L 239.890625 178.503906 L 226.269531 178.503906" fill="#ed1c24"/></g><g id="change5_68"><path d="M 226.269531 164.882812 L 226.269531 178.503906 L 239.890625 178.503906 L 239.890625 164.882812 L 226.269531 164.882812" fill="#ed1c24"/></g><g id="change4_31"><path d="M 226.269531 151.269531 L 226.269531 164.882812 L 239.890625 164.882812 L 239.890625 151.269531 L 226.269531 151.269531" fill="#fff"/></g><g id="change4_32"><path d="M 226.269531 137.644531 L 226.269531 151.269531 L 239.890625 151.269531 L 239.890625 137.644531 L 226.269531 137.644531" fill="#fff"/></g><g id="change4_33"><path d="M 226.269531 124.019531 L 226.269531 137.644531 L 239.890625 137.644531 L 239.890625 124.019531 L 226.269531 124.019531" fill="#fff"/></g><g id="change5_69"><path d="M 226.269531 110.398438 L 226.269531 124.019531 L 239.890625 124.019531 L 239.890625 110.398438 L 226.269531 110.398438" fill="#ed1c24"/></g><g id="change5_70"><path d="M 226.269531 96.773438 L 226.269531 110.398438 L 239.890625 110.398438 L 239.890625 96.773438 L 226.269531 96.773438" fill="#ed1c24"/></g><g id="change5_71"><path d="M 226.269531 83.164062 L 226.269531 96.773438 L 239.890625 96.773438 L 239.890625 83.164062 L 226.269531 83.164062" fill="#ed1c24"/></g><g id="change1_12"><path d="M 239.890625 328.414062 L 239.890625 342.035156 L 253.519531 342.035156 L 253.519531 328.414062 L 239.890625 328.414062" fill="#e5b94a"/></g><g id="change1_13"><path d="M 239.890625 314.789062 L 239.890625 328.414062 L 253.519531 328.414062 L 253.519531 314.789062 L 239.890625 314.789062" fill="#e5b94a"/></g><g id="change1_14"><path d="M 239.890625 301.171875 L 239.890625 314.789062 L 253.519531 314.789062 L 253.519531 301.171875 L 239.890625 301.171875" fill="#e5b94a"/></g><g id="change2_25"><path d="M 239.890625 287.550781 L 239.890625 301.171875 L 253.519531 301.171875 L 253.519531 287.550781 L 239.890625 287.550781" fill="#f0d681"/></g><g id="change2_26"><path d="M 239.890625 273.925781 L 239.890625 287.550781 L 253.519531 287.550781 L 253.519531 273.925781 L 239.890625 273.925781" fill="#f0d681"/></g><g id="change3_27"><path d="M 239.890625 260.304688 L 239.890625 273.925781 L 253.519531 273.925781 L 253.519531 260.304688 L 239.890625 260.304688" fill="#a41625"/></g><g id="change3_28"><path d="M 239.890625 246.691406 L 239.890625 260.304688 L 253.519531 260.304688 L 253.519531 246.691406 L 239.890625 246.691406" fill="#a41625"/></g><g id="change5_72"><path d="M 239.890625 233.066406 L 239.890625 246.691406 L 253.519531 246.691406 L 253.519531 233.066406 L 239.890625 233.066406" fill="#ed1c24"/></g><g id="change5_73"><path d="M 239.890625 219.367188 L 239.890625 233.066406 L 253.519531 233.066406 L 253.519531 219.367188 L 239.890625 219.367188" fill="#ed1c24"/></g><g id="change5_74"><path d="M 239.890625 205.757812 L 239.890625 219.367188 L 253.519531 219.367188 L 253.519531 205.757812 L 239.890625 205.757812" fill="#ed1c24"/></g><g id="change5_75"><path d="M 239.890625 192.128906 L 239.890625 205.757812 L 253.519531 205.757812 L 253.519531 192.128906 L 239.890625 192.128906" fill="#ed1c24"/></g><g id="change5_76"><path d="M 239.890625 178.503906 L 239.890625 192.128906 L 253.519531 192.128906 L 253.519531 178.503906 L 239.890625 178.503906" fill="#ed1c24"/></g><g id="change5_77"><path d="M 239.890625 164.882812 L 239.890625 178.503906 L 253.519531 178.503906 L 253.519531 164.882812 L 239.890625 164.882812" fill="#ed1c24"/></g><g id="change5_78"><path d="M 239.890625 151.269531 L 239.890625 164.882812 L 253.519531 164.882812 L 253.519531 151.269531 L 239.890625 151.269531" fill="#ed1c24"/></g><g id="change4_34"><path d="M 239.890625 137.644531 L 239.890625 151.269531 L 253.519531 151.269531 L 253.519531 137.644531 L 239.890625 137.644531" fill="#fff"/></g><g id="change5_79"><path d="M 239.890625 124.019531 L 239.890625 137.644531 L 253.519531 137.644531 L 253.519531 124.019531 L 239.890625 124.019531" fill="#ed1c24"/></g><g id="change5_80"><path d="M 239.890625 110.398438 L 239.890625 124.019531 L 253.519531 124.019531 L 253.519531 110.398438 L 239.890625 110.398438" fill="#ed1c24"/></g><g id="change5_81"><path d="M 239.890625 96.773438 L 239.890625 110.398438 L 253.519531 110.398438 L 253.519531 96.773438 L 239.890625 96.773438" fill="#ed1c24"/></g><g id="change5_82"><path d="M 239.890625 83.164062 L 239.890625 96.773438 L 253.519531 96.773438 L 253.519531 83.164062 L 239.890625 83.164062" fill="#ed1c24"/></g><g id="change1_15"><path d="M 253.519531 328.414062 L 253.519531 342.035156 L 267.128906 342.035156 L 267.128906 328.414062 L 253.519531 328.414062" fill="#e5b94a"/></g><g id="change1_16"><path d="M 253.519531 314.789062 L 253.519531 328.414062 L 267.128906 328.414062 L 267.128906 314.789062 L 253.519531 314.789062" fill="#e5b94a"/></g><g id="change1_17"><path d="M 253.519531 301.171875 L 253.519531 314.789062 L 267.128906 314.789062 L 267.128906 301.171875 L 253.519531 301.171875" fill="#e5b94a"/></g><g id="change2_27"><path d="M 253.519531 287.550781 L 253.519531 301.171875 L 267.128906 301.171875 L 267.128906 287.550781 L 253.519531 287.550781" fill="#f0d681"/></g><g id="change2_28"><path d="M 253.519531 273.925781 L 253.519531 287.550781 L 267.128906 287.550781 L 267.128906 273.925781 L 253.519531 273.925781" fill="#f0d681"/></g><g id="change3_29"><path d="M 253.519531 260.304688 L 253.519531 273.925781 L 267.128906 273.925781 L 267.128906 260.304688 L 253.519531 260.304688" fill="#a41625"/></g><g id="change3_30"><path d="M 253.519531 246.691406 L 253.519531 260.304688 L 267.128906 260.304688 L 267.128906 246.691406 L 253.519531 246.691406" fill="#a41625"/></g><g id="change5_83"><path d="M 253.519531 233.066406 L 253.519531 246.691406 L 267.128906 246.691406 L 267.128906 233.066406 L 253.519531 233.066406" fill="#ed1c24"/></g><g id="change5_84"><path d="M 253.519531 219.367188 L 253.519531 233.066406 L 267.128906 233.066406 L 267.128906 219.367188 L 253.519531 219.367188" fill="#ed1c24"/></g><g id="change5_85"><path d="M 253.519531 205.757812 L 253.519531 219.367188 L 267.128906 219.367188 L 267.128906 205.757812 L 253.519531 205.757812" fill="#ed1c24"/></g><g id="change5_86"><path d="M 253.519531 192.128906 L 253.519531 205.757812 L 267.128906 205.757812 L 267.128906 192.128906 L 253.519531 192.128906" fill="#ed1c24"/></g><g id="change4_35"><path d="M 253.519531 178.503906 L 253.519531 192.128906 L 267.128906 192.128906 L 267.128906 178.503906 L 253.519531 178.503906" fill="#fff"/></g><g id="change4_36"><path d="M 253.519531 164.882812 L 253.519531 178.503906 L 267.128906 178.503906 L 267.128906 164.882812 L 253.519531 164.882812" fill="#fff"/></g><g id="change5_87"><path d="M 253.519531 151.269531 L 253.519531 164.882812 L 267.128906 164.882812 L 267.128906 151.269531 L 253.519531 151.269531" fill="#ed1c24"/></g><g id="change5_88"><path d="M 253.519531 137.644531 L 253.519531 151.269531 L 267.128906 151.269531 L 267.128906 137.644531 L 253.519531 137.644531" fill="#ed1c24"/></g><g id="change5_89"><path d="M 253.519531 124.019531 L 253.519531 137.644531 L 267.128906 137.644531 L 267.128906 124.019531 L 253.519531 124.019531" fill="#ed1c24"/></g><g id="change5_90"><path d="M 253.519531 110.398438 L 253.519531 124.019531 L 267.128906 124.019531 L 267.128906 110.398438 L 253.519531 110.398438" fill="#ed1c24"/></g><g id="change5_91"><path d="M 253.519531 96.773438 L 253.519531 110.398438 L 267.128906 110.398438 L 267.128906 96.773438 L 253.519531 96.773438" fill="#ed1c24"/></g><g id="change5_92"><path d="M 253.519531 83.164062 L 253.519531 96.773438 L 267.128906 96.773438 L 267.128906 83.164062 L 253.519531 83.164062" fill="#ed1c24"/></g><g id="change1_18"><path d="M 267.128906 328.414062 L 267.128906 342.035156 L 280.746094 342.035156 L 280.746094 328.414062 L 267.128906 328.414062" fill="#e5b94a"/></g><g id="change1_19"><path d="M 267.128906 314.789062 L 267.128906 328.414062 L 280.746094 328.414062 L 280.746094 314.789062 L 267.128906 314.789062" fill="#e5b94a"/></g><g id="change1_20"><path d="M 267.128906 301.171875 L 267.128906 314.789062 L 280.746094 314.789062 L 280.746094 301.171875 L 267.128906 301.171875" fill="#e5b94a"/></g><g id="change1_21"><path d="M 267.128906 287.550781 L 267.128906 301.171875 L 280.746094 301.171875 L 280.746094 287.550781 L 267.128906 287.550781" fill="#e5b94a"/></g><g id="change1_22"><path d="M 267.128906 273.925781 L 267.128906 287.550781 L 280.746094 287.550781 L 280.746094 273.925781 L 267.128906 273.925781" fill="#e5b94a"/></g><g id="change3_31"><path d="M 267.128906 260.304688 L 267.128906 273.925781 L 280.746094 273.925781 L 280.746094 260.304688 L 267.128906 260.304688" fill="#a41625"/></g><g id="change3_32"><path d="M 267.128906 246.691406 L 267.128906 260.304688 L 280.746094 260.304688 L 280.746094 246.691406 L 267.128906 246.691406" fill="#a41625"/></g><g id="change5_93"><path d="M 267.128906 233.066406 L 267.128906 246.691406 L 280.746094 246.691406 L 280.746094 233.066406 L 267.128906 233.066406" fill="#ed1c24"/></g><g id="change5_94"><path d="M 267.128906 219.367188 L 267.128906 233.066406 L 280.746094 233.066406 L 280.746094 219.367188 L 267.128906 219.367188" fill="#ed1c24"/></g><g id="change5_95"><path d="M 267.128906 205.757812 L 267.128906 219.367188 L 280.746094 219.367188 L 280.746094 205.757812 L 267.128906 205.757812" fill="#ed1c24"/></g><g id="change4_37"><path d="M 267.128906 192.128906 L 267.128906 205.757812 L 280.746094 205.757812 L 280.746094 192.128906 L 267.128906 192.128906" fill="#fff"/></g><g id="change4_38"><path d="M 267.128906 178.503906 L 267.128906 192.128906 L 280.746094 192.128906 L 280.746094 178.503906 L 267.128906 178.503906" fill="#fff"/></g><g id="change4_39"><path d="M 267.128906 164.882812 L 267.128906 178.503906 L 280.746094 178.503906 L 280.746094 164.882812 L 267.128906 164.882812" fill="#fff"/></g><g id="change4_40"><path d="M 267.128906 151.269531 L 267.128906 164.882812 L 280.746094 164.882812 L 280.746094 151.269531 L 267.128906 151.269531" fill="#fff"/></g><g id="change5_96"><path d="M 267.128906 137.644531 L 267.128906 151.269531 L 280.746094 151.269531 L 280.746094 137.644531 L 267.128906 137.644531" fill="#ed1c24"/></g><g id="change5_97"><path d="M 267.128906 124.019531 L 267.128906 137.644531 L 280.746094 137.644531 L 280.746094 124.019531 L 267.128906 124.019531" fill="#ed1c24"/></g><g id="change5_98"><path d="M 267.128906 110.398438 L 267.128906 124.019531 L 280.746094 124.019531 L 280.746094 110.398438 L 267.128906 110.398438" fill="#ed1c24"/></g><g id="change5_99"><path d="M 267.128906 96.773438 L 267.128906 110.398438 L 280.746094 110.398438 L 280.746094 96.773438 L 267.128906 96.773438" fill="#ed1c24"/></g><g id="change3_33"><path d="M 280.746094 260.304688 L 280.746094 273.925781 L 294.378906 273.925781 L 294.378906 260.304688 L 280.746094 260.304688" fill="#a41625"/></g><g id="change3_34"><path d="M 280.746094 246.691406 L 280.746094 260.304688 L 294.378906 260.304688 L 294.378906 246.691406 L 280.746094 246.691406" fill="#a41625"/></g><g id="change5_100"><path d="M 280.746094 233.066406 L 280.746094 246.691406 L 294.378906 246.691406 L 294.378906 233.066406 L 280.746094 233.066406" fill="#ed1c24"/></g><g id="change5_101"><path d="M 280.746094 219.367188 L 280.746094 233.066406 L 294.378906 233.066406 L 294.378906 219.367188 L 280.746094 219.367188" fill="#ed1c24"/></g><g id="change5_102"><path d="M 280.746094 205.757812 L 280.746094 219.367188 L 294.378906 219.367188 L 294.378906 205.757812 L 280.746094 205.757812" fill="#ed1c24"/></g><g id="change5_103"><path d="M 280.746094 192.128906 L 280.746094 205.757812 L 294.378906 205.757812 L 294.378906 192.128906 L 280.746094 192.128906" fill="#ed1c24"/></g><g id="change4_41"><path d="M 280.746094 178.503906 L 280.746094 192.128906 L 294.378906 192.128906 L 294.378906 178.503906 L 280.746094 178.503906" fill="#fff"/></g><g id="change4_42"><path d="M 280.746094 164.882812 L 280.746094 178.503906 L 294.378906 178.503906 L 294.378906 164.882812 L 280.746094 164.882812" fill="#fff"/></g><g id="change5_104"><path d="M 280.746094 151.269531 L 280.746094 164.882812 L 294.378906 164.882812 L 294.378906 151.269531 L 280.746094 151.269531" fill="#ed1c24"/></g><g id="change5_105"><path d="M 280.746094 137.644531 L 280.746094 151.269531 L 294.378906 151.269531 L 294.378906 137.644531 L 280.746094 137.644531" fill="#ed1c24"/></g><g id="change5_106"><path d="M 280.746094 124.019531 L 280.746094 137.644531 L 294.378906 137.644531 L 294.378906 124.019531 L 280.746094 124.019531" fill="#ed1c24"/></g><g id="change5_107"><path d="M 280.746094 110.398438 L 280.746094 124.019531 L 294.378906 124.019531 L 294.378906 110.398438 L 280.746094 110.398438" fill="#ed1c24"/></g><g id="change3_35"><path d="M 294.378906 260.304688 L 294.378906 273.925781 L 308.003906 273.925781 L 308.003906 260.304688 L 294.378906 260.304688" fill="#a41625"/></g><g id="change3_36"><path d="M 294.378906 246.691406 L 294.378906 260.304688 L 308.003906 260.304688 L 308.003906 246.691406 L 294.378906 246.691406" fill="#a41625"/></g><g id="change5_108"><path d="M 294.378906 233.066406 L 294.378906 246.691406 L 308.003906 246.691406 L 308.003906 233.066406 L 294.378906 233.066406" fill="#ed1c24"/></g><g id="change4_43"><path d="M 294.378906 219.367188 L 294.378906 233.066406 L 308.003906 233.066406 L 308.003906 219.367188 L 294.378906 219.367188" fill="#fff"/></g><g id="change5_109"><path d="M 294.378906 205.757812 L 294.378906 219.367188 L 308.003906 219.367188 L 308.003906 205.757812 L 294.378906 205.757812" fill="#ed1c24"/></g><g id="change5_110"><path d="M 294.378906 192.128906 L 294.378906 205.757812 L 308.003906 205.757812 L 308.003906 192.128906 L 294.378906 192.128906" fill="#ed1c24"/></g><g id="change5_111"><path d="M 294.378906 178.503906 L 294.378906 192.128906 L 308.003906 192.128906 L 308.003906 178.503906 L 294.378906 178.503906" fill="#ed1c24"/></g><g id="change5_112"><path d="M 294.378906 164.882812 L 294.378906 178.503906 L 308.003906 178.503906 L 308.003906 164.882812 L 294.378906 164.882812" fill="#ed1c24"/></g><g id="change5_113"><path d="M 294.378906 151.269531 L 294.378906 164.882812 L 308.003906 164.882812 L 308.003906 151.269531 L 294.378906 151.269531" fill="#ed1c24"/></g><g id="change5_114"><path d="M 294.378906 137.644531 L 294.378906 151.269531 L 308.003906 151.269531 L 308.003906 137.644531 L 294.378906 137.644531" fill="#ed1c24"/></g><g id="change5_115"><path d="M 294.378906 124.019531 L 294.378906 137.644531 L 308.003906 137.644531 L 308.003906 124.019531 L 294.378906 124.019531" fill="#ed1c24"/></g><g id="change3_37"><path d="M 308.003906 260.304688 L 308.003906 273.925781 L 321.625 273.925781 L 321.625 260.304688 L 308.003906 260.304688" fill="#a41625"/></g><g id="change3_38"><path d="M 308.003906 246.691406 L 308.003906 260.304688 L 321.625 260.304688 L 321.625 246.691406 L 308.003906 246.691406" fill="#a41625"/></g><g id="change7_1"><path d="M 308.003906 233.066406 L 308.003906 246.691406 L 321.625 246.691406 L 321.625 233.066406 L 308.003906 233.066406" fill="#d5d4d5"/></g><g id="change4_44"><path d="M 308.003906 219.367188 L 308.003906 233.066406 L 321.625 233.066406 L 321.625 219.367188 L 308.003906 219.367188" fill="#fff"/></g><g id="change4_45"><path d="M 308.003906 205.757812 L 308.003906 219.367188 L 321.625 219.367188 L 321.625 205.757812 L 308.003906 205.757812" fill="#fff"/></g><g id="change5_116"><path d="M 308.003906 192.128906 L 308.003906 205.757812 L 321.625 205.757812 L 321.625 192.128906 L 308.003906 192.128906" fill="#ed1c24"/></g><g id="change5_117"><path d="M 308.003906 178.503906 L 308.003906 192.128906 L 321.625 192.128906 L 321.625 178.503906 L 308.003906 178.503906" fill="#ed1c24"/></g><g id="change5_118"><path d="M 308.003906 164.882812 L 308.003906 178.503906 L 321.625 178.503906 L 321.625 164.882812 L 308.003906 164.882812" fill="#ed1c24"/></g><g id="change5_119"><path d="M 308.003906 151.269531 L 308.003906 164.882812 L 321.625 164.882812 L 321.625 151.269531 L 308.003906 151.269531" fill="#ed1c24"/></g><g id="change5_120"><path d="M 308.003906 137.644531 L 308.003906 151.269531 L 321.625 151.269531 L 321.625 137.644531 L 308.003906 137.644531" fill="#ed1c24"/></g><g id="change3_39"><path d="M 321.625 260.304688 L 321.625 273.925781 L 335.234375 273.925781 L 335.234375 260.304688 L 321.625 260.304688" fill="#a41625"/></g><g id="change3_40"><path d="M 321.625 246.691406 L 321.625 260.304688 L 335.234375 260.304688 L 335.234375 246.691406 L 321.625 246.691406" fill="#a41625"/></g><g id="change7_2"><path d="M 321.625 233.066406 L 321.625 246.691406 L 335.234375 246.691406 L 335.234375 233.066406 L 321.625 233.066406" fill="#d5d4d5"/></g><g id="change7_3"><path d="M 321.625 219.367188 L 321.625 233.066406 L 335.234375 233.066406 L 335.234375 219.367188 L 321.625 219.367188" fill="#d5d4d5"/></g><g id="change4_46"><path d="M 321.625 205.757812 L 321.625 219.367188 L 335.234375 219.367188 L 335.234375 205.757812 L 321.625 205.757812" fill="#fff"/></g><g id="change5_121"><path d="M 321.625 192.128906 L 321.625 205.757812 L 335.234375 205.757812 L 335.234375 192.128906 L 321.625 192.128906" fill="#ed1c24"/></g><g id="change5_122"><path d="M 321.625 178.503906 L 321.625 192.128906 L 335.234375 192.128906 L 335.234375 178.503906 L 321.625 178.503906" fill="#ed1c24"/></g><g id="change5_123"><path d="M 321.625 164.882812 L 321.625 178.503906 L 335.234375 178.503906 L 335.234375 164.882812 L 321.625 164.882812" fill="#ed1c24"/></g><g id="change5_124"><path d="M 321.625 151.269531 L 321.625 164.882812 L 335.234375 164.882812 L 335.234375 151.269531 L 321.625 151.269531" fill="#ed1c24"/></g><g id="change3_41"><path d="M 335.234375 260.304688 L 335.234375 273.925781 L 348.863281 273.925781 L 348.863281 260.304688 L 335.234375 260.304688" fill="#a41625"/></g><g id="change3_42"><path d="M 335.234375 246.691406 L 335.234375 260.304688 L 348.863281 260.304688 L 348.863281 246.691406 L 335.234375 246.691406" fill="#a41625"/></g><g id="change3_43"><path d="M 335.234375 233.066406 L 335.234375 246.691406 L 348.863281 246.691406 L 348.863281 233.066406 L 335.234375 233.066406" fill="#a41625"/></g><g id="change7_4"><path d="M 335.234375 219.367188 L 335.234375 233.066406 L 348.863281 233.066406 L 348.863281 219.367188 L 335.234375 219.367188" fill="#d5d4d5"/></g><g id="change5_125"><path d="M 335.234375 205.757812 L 335.234375 219.367188 L 348.863281 219.367188 L 348.863281 205.757812 L 335.234375 205.757812" fill="#ed1c24"/></g><g id="change5_126"><path d="M 335.234375 192.128906 L 335.234375 205.757812 L 348.863281 205.757812 L 348.863281 192.128906 L 335.234375 192.128906" fill="#ed1c24"/></g><g id="change5_127"><path d="M 335.234375 178.503906 L 335.234375 192.128906 L 348.863281 192.128906 L 348.863281 178.503906 L 335.234375 178.503906" fill="#ed1c24"/></g><g id="change5_128"><path d="M 335.234375 164.882812 L 335.234375 178.503906 L 348.863281 178.503906 L 348.863281 164.882812 L 335.234375 164.882812" fill="#ed1c24"/></g><g id="change3_44"><path d="M 348.863281 260.304688 L 348.863281 273.925781 L 362.484375 273.925781 L 362.484375 260.304688 L 348.863281 260.304688" fill="#a41625"/></g><g id="change3_45"><path d="M 348.863281 246.691406 L 348.863281 260.304688 L 362.484375 260.304688 L 362.484375 246.691406 L 348.863281 246.691406" fill="#a41625"/></g><g id="change3_46"><path d="M 348.863281 233.066406 L 348.863281 246.691406 L 362.484375 246.691406 L 362.484375 233.066406 L 348.863281 233.066406" fill="#a41625"/></g><g id="change3_47"><path d="M 348.863281 219.367188 L 348.863281 233.066406 L 362.484375 233.066406 L 362.484375 219.367188 L 348.863281 219.367188" fill="#a41625"/></g><g id="change3_48"><path d="M 348.863281 205.757812 L 348.863281 219.367188 L 362.484375 219.367188 L 362.484375 205.757812 L 348.863281 205.757812" fill="#a41625"/></g><g id="change3_49"><path d="M 348.863281 192.128906 L 348.863281 205.757812 L 362.484375 205.757812 L 362.484375 192.128906 L 348.863281 192.128906" fill="#a41625"/></g><g id="change3_50"><path d="M 348.863281 178.503906 L 348.863281 192.128906 L 362.484375 192.128906 L 362.484375 178.503906 L 348.863281 178.503906" fill="#a41625"/></g></g></svg>