<?xml version="1.0" encoding="UTF-8" standalone="no"?><svg xmlns="http://www.w3.org/2000/svg" xmlns:xlink="http://www.w3.org/1999/xlink" fill="#000000" height="250" preserveAspectRatio="xMidYMid meet" version="1" viewBox="125.0 125.0 250.0 250.0" width="250" zoomAndPan="magnify"><g fill="#ffd939" id="change1_1"><path d="M 222.324219 338.746094 L 161.253906 338.746094 L 161.253906 283.394531 L 191.789062 283.394531 L 191.789062 252.859375 L 247.140625 252.859375 L 247.140625 283.394531 L 313.929688 283.394531 L 313.929688 252.859375 L 344.464844 252.859375 L 344.464844 216.601562 L 338.746094 216.601562 L 338.746094 247.140625 L 283.398438 247.140625 L 283.398438 216.601562 L 277.675781 216.601562 L 277.675781 252.859375 L 308.210938 252.859375 L 308.210938 277.675781 L 252.859375 277.675781 L 252.859375 247.140625 L 155.535156 247.140625 L 155.535156 252.859375 L 186.070312 252.859375 L 186.070312 277.675781 L 155.535156 277.675781 L 155.535156 344.464844 L 216.601562 344.464844 L 216.601562 369.277344 L 130.722656 369.277344 L 130.722656 222.324219 L 161.253906 222.324219 L 161.253906 216.601562 L 130.722656 216.601562 L 130.722656 161.257812 L 161.253906 161.257812 L 161.253906 155.535156 L 130.722656 155.535156 L 130.722656 130.722656 L 216.601562 130.722656 L 216.601562 191.789062 L 222.324219 191.789062 L 222.324219 161.257812 L 283.398438 161.257812 L 283.398438 155.535156 L 222.324219 155.535156 L 222.324219 125 L 125 125 L 125 375 L 252.859375 375 L 252.859375 369.277344 L 222.324219 369.277344 L 222.324219 338.746094" fill="inherit"/><path d="M 247.140625 125 L 247.140625 130.722656 L 308.210938 130.722656 L 308.210938 161.257812 L 313.929688 161.257812 L 313.929688 130.722656 L 369.277344 130.722656 L 369.277344 186.070312 L 344.464844 186.070312 L 344.464844 155.535156 L 338.746094 155.535156 L 338.746094 186.070312 L 247.140625 186.070312 L 247.140625 216.601562 L 191.789062 216.601562 L 191.789062 155.535156 L 186.070312 155.535156 L 186.070312 186.070312 L 155.535156 186.070312 L 155.535156 191.789062 L 186.070312 191.789062 L 186.070312 222.324219 L 252.859375 222.324219 L 252.859375 191.789062 L 308.210938 191.789062 L 308.210938 222.324219 L 313.929688 222.324219 L 313.929688 191.789062 L 369.277344 191.789062 L 369.277344 308.210938 L 344.464844 308.210938 L 344.464844 277.675781 L 338.746094 277.675781 L 338.746094 313.933594 L 369.277344 313.933594 L 369.277344 369.277344 L 283.398438 369.277344 L 283.398438 338.746094 L 252.859375 338.746094 L 252.859375 313.933594 L 308.210938 313.933594 L 308.210938 344.464844 L 344.464844 344.464844 L 344.464844 338.746094 L 313.929688 338.746094 L 313.929688 308.210938 L 222.324219 308.210938 L 222.324219 277.675781 L 216.601562 277.675781 L 216.601562 308.210938 L 186.070312 308.210938 L 186.070312 313.933594 L 247.140625 313.933594 L 247.140625 344.464844 L 277.675781 344.464844 L 277.675781 375 L 375 375 L 375 125 L 247.140625 125" fill="inherit"/></g></svg>