<?xml version="1.0" encoding="UTF-8"?><svg xmlns="http://www.w3.org/2000/svg" xmlns:xlink="http://www.w3.org/1999/xlink" height="103.0" preserveAspectRatio="xMidYMid meet" version="1.0" viewBox="60.7 130.0 303.7 103.0" width="303.7" zoomAndPan="magnify"><defs><clipPath id="a"><path d="M 199 136 L 225 136 L 225 144 L 199 144 Z M 199 136"/></clipPath><clipPath id="b"><path d="M 222.515625 143.941406 L 201.445312 143.941406 C 200.246094 143.941406 199.269531 142.96875 199.269531 141.765625 L 199.269531 138.421875 C 199.269531 137.21875 200.246094 136.246094 201.445312 136.246094 L 222.515625 136.246094 C 223.71875 136.246094 224.691406 137.21875 224.691406 138.421875 L 224.691406 141.765625 C 224.691406 142.96875 223.71875 143.941406 222.515625 143.941406"/></clipPath><clipPath id="c"><path d="M 298 136 L 325 136 L 325 144 L 298 144 Z M 298 136"/></clipPath><clipPath id="d"><path d="M 321.855469 143.941406 L 300.785156 143.941406 C 299.585938 143.941406 298.609375 142.96875 298.609375 141.765625 L 298.609375 138.421875 C 298.609375 137.21875 299.585938 136.246094 300.785156 136.246094 L 321.855469 136.246094 C 323.058594 136.246094 324.03125 137.21875 324.03125 138.421875 L 324.03125 141.765625 C 324.03125 142.96875 323.058594 143.941406 321.855469 143.941406"/></clipPath></defs><g><g id="change1_1"><path d="M 61.519531 232.203125 L 363.679688 232.203125 L 363.679688 130.796875 L 61.519531 130.796875 Z M 61.519531 232.203125" fill="#4b1615"/></g><g id="change1_2"><path d="M 363.679688 232.203125 L 363.679688 231.425781 L 62.296875 231.425781 L 62.296875 131.574219 L 362.902344 131.574219 L 362.902344 232.203125 L 363.679688 232.203125 L 363.679688 231.425781 L 363.679688 232.203125 L 364.457031 232.203125 L 364.457031 130.019531 L 60.746094 130.019531 L 60.746094 232.980469 L 364.457031 232.980469 L 364.457031 232.203125 L 363.679688 232.203125" fill="#4b1615"/></g><g id="change1_3"><path d="M 66.179688 228.585938 L 160.34375 228.585938 L 160.34375 134.417969 L 66.179688 134.417969 Z M 66.179688 228.585938" fill="#4b1615"/></g><g id="change1_4"><path d="M 160.34375 228.585938 L 160.34375 228.261719 L 66.5 228.261719 L 66.5 134.738281 L 160.019531 134.738281 L 160.019531 228.585938 L 160.34375 228.585938 L 160.34375 228.261719 L 160.34375 228.585938 L 160.664062 228.585938 L 160.664062 134.09375 L 65.855469 134.09375 L 65.855469 228.90625 L 160.664062 228.90625 L 160.664062 228.585938 L 160.34375 228.585938" fill="#4b1615"/></g><g id="change2_1"><path d="M 66.179688 151.507812 L 95.785156 151.507812 L 95.785156 134.417969 L 66.179688 134.417969 Z M 66.179688 151.507812" fill="#d94f22"/></g><g id="change2_2"><path d="M 98.292969 151.507812 L 127.902344 151.507812 L 127.902344 134.417969 L 98.292969 134.417969 Z M 98.292969 151.507812" fill="#d94f22"/></g><g id="change2_3"><path d="M 130.410156 151.507812 L 160.289062 151.507812 L 160.289062 134.417969 L 130.410156 134.417969 Z M 130.410156 151.507812" fill="#d94f22"/></g><g id="change2_4"><path d="M 84.234375 170.738281 L 113.847656 170.738281 L 113.847656 153.648438 L 84.234375 153.648438 Z M 84.234375 170.738281" fill="#d94f22"/></g><g id="change2_5"><path d="M 116.351562 170.738281 L 145.960938 170.738281 L 145.960938 153.648438 L 116.351562 153.648438 Z M 116.351562 170.738281" fill="#d94f22"/></g><g id="change2_6"><path d="M 148.46875 170.738281 L 160.34375 170.738281 L 160.34375 153.648438 L 148.46875 153.648438 Z M 148.46875 170.738281" fill="#d94f22"/></g><g id="change2_7"><path d="M 66.179688 189.96875 L 95.785156 189.96875 L 95.785156 172.882812 L 66.179688 172.882812 Z M 66.179688 189.96875" fill="#d94f22"/></g><g id="change2_8"><path d="M 98.292969 189.96875 L 127.902344 189.96875 L 127.902344 172.882812 L 98.292969 172.882812 Z M 98.292969 189.96875" fill="#d94f22"/></g><g id="change2_9"><path d="M 130.410156 189.96875 L 160.289062 189.96875 L 160.289062 172.882812 L 130.410156 172.882812 Z M 130.410156 189.96875" fill="#d94f22"/></g><g id="change2_10"><path d="M 84.234375 209.199219 L 113.847656 209.199219 L 113.847656 192.113281 L 84.234375 192.113281 Z M 84.234375 209.199219" fill="#d94f22"/></g><g id="change2_11"><path d="M 116.351562 209.199219 L 145.960938 209.199219 L 145.960938 192.113281 L 116.351562 192.113281 Z M 116.351562 209.199219" fill="#d94f22"/></g><g id="change2_12"><path d="M 148.46875 209.199219 L 160.34375 209.199219 L 160.34375 192.113281 L 148.46875 192.113281 Z M 148.46875 209.199219" fill="#d94f22"/></g><g id="change2_13"><path d="M 66.179688 170.738281 L 81.175781 170.738281 L 81.175781 153.648438 L 66.179688 153.648438 Z M 66.179688 170.738281" fill="#d94f22"/></g><g id="change2_14"><path d="M 66.179688 209.199219 L 81.175781 209.199219 L 81.175781 192.113281 L 66.179688 192.113281 Z M 66.179688 209.199219" fill="#d94f22"/></g><g id="change2_15"><path d="M 66.179688 228.433594 L 95.785156 228.433594 L 95.785156 211.347656 L 66.179688 211.347656 Z M 66.179688 228.433594" fill="#d94f22"/></g><g id="change2_16"><path d="M 98.292969 228.433594 L 127.902344 228.433594 L 127.902344 211.347656 L 98.292969 211.347656 Z M 98.292969 228.433594" fill="#d94f22"/></g><g id="change2_17"><path d="M 130.410156 228.433594 L 160.289062 228.433594 L 160.289062 211.347656 L 130.410156 211.347656 Z M 130.410156 228.433594" fill="#d94f22"/></g><g id="change3_1"><path d="M 123.175781 143.941406 L 102.109375 143.941406 C 100.902344 143.941406 99.929688 142.96875 99.929688 141.765625 L 99.929688 138.421875 C 99.929688 137.21875 100.902344 136.246094 102.109375 136.246094 L 123.175781 136.246094 C 124.378906 136.246094 125.355469 137.21875 125.355469 138.421875 L 125.355469 141.765625 C 125.355469 142.96875 124.378906 143.941406 123.175781 143.941406" fill="#e88320"/></g><g id="change3_2"><path d="M 155.746094 143.941406 L 134.679688 143.941406 C 133.476562 143.941406 132.5 142.96875 132.5 141.765625 L 132.5 138.421875 C 132.5 137.21875 133.476562 136.246094 134.679688 136.246094 L 155.746094 136.246094 C 156.949219 136.246094 157.925781 137.21875 157.925781 138.421875 L 157.925781 141.765625 C 157.925781 142.96875 156.949219 143.941406 155.746094 143.941406" fill="#e88320"/></g><g id="change3_3"><path d="M 91.410156 143.941406 L 70.34375 143.941406 C 69.140625 143.941406 68.164062 142.96875 68.164062 141.765625 L 68.164062 138.421875 C 68.164062 137.21875 69.140625 136.246094 70.34375 136.246094 L 91.410156 136.246094 C 92.613281 136.246094 93.589844 137.21875 93.589844 138.421875 L 93.589844 141.765625 C 93.589844 142.96875 92.613281 143.941406 91.410156 143.941406" fill="#e88320"/></g><g id="change3_4"><path d="M 141.398438 162.972656 L 120.328125 162.972656 C 119.125 162.972656 118.148438 161.996094 118.148438 160.792969 L 118.148438 157.449219 C 118.148438 156.25 119.125 155.273438 120.328125 155.273438 L 141.398438 155.273438 C 142.597656 155.273438 143.574219 156.25 143.574219 157.449219 L 143.574219 160.792969 C 143.574219 161.996094 142.597656 162.972656 141.398438 162.972656" fill="#e88320"/></g><g id="change3_5"><path d="M 160.300781 162.972656 L 152.535156 162.972656 C 151.332031 162.972656 150.359375 161.996094 150.359375 160.792969 L 150.359375 157.449219 C 150.359375 156.25 151.332031 155.273438 152.535156 155.273438 L 160.300781 155.273438 L 160.300781 162.972656" fill="#e88320"/></g><g id="change3_6"><path d="M 73.984375 162.972656 L 66.21875 162.972656 L 66.21875 155.273438 L 73.984375 155.273438 C 75.183594 155.273438 76.160156 156.25 76.160156 157.449219 L 76.160156 160.792969 C 76.160156 161.996094 75.183594 162.972656 73.984375 162.972656" fill="#e88320"/></g><g id="change3_7"><path d="M 109.632812 162.972656 L 88.5625 162.972656 C 87.359375 162.972656 86.386719 161.996094 86.386719 160.792969 L 86.386719 157.449219 C 86.386719 156.25 87.359375 155.273438 88.5625 155.273438 L 109.632812 155.273438 C 110.832031 155.273438 111.808594 156.25 111.808594 157.449219 L 111.808594 160.792969 C 111.808594 161.996094 110.832031 162.972656 109.632812 162.972656" fill="#e88320"/></g><g id="change3_8"><path d="M 123.175781 182.53125 L 102.109375 182.53125 C 100.902344 182.53125 99.929688 181.558594 99.929688 180.355469 L 99.929688 177.015625 C 99.929688 175.8125 100.902344 174.839844 102.109375 174.839844 L 123.175781 174.839844 C 124.378906 174.839844 125.355469 175.8125 125.355469 177.015625 L 125.355469 180.355469 C 125.355469 181.558594 124.378906 182.53125 123.175781 182.53125" fill="#e88320"/></g><g id="change3_9"><path d="M 155.746094 182.53125 L 134.679688 182.53125 C 133.476562 182.53125 132.5 181.558594 132.5 180.355469 L 132.5 177.015625 C 132.5 175.8125 133.476562 174.839844 134.679688 174.839844 L 155.746094 174.839844 C 156.949219 174.839844 157.925781 175.8125 157.925781 177.015625 L 157.925781 180.355469 C 157.925781 181.558594 156.949219 182.53125 155.746094 182.53125" fill="#e88320"/></g><g id="change3_10"><path d="M 91.410156 182.53125 L 70.34375 182.53125 C 69.140625 182.53125 68.164062 181.558594 68.164062 180.355469 L 68.164062 177.015625 C 68.164062 175.8125 69.140625 174.839844 70.34375 174.839844 L 91.410156 174.839844 C 92.613281 174.839844 93.589844 175.8125 93.589844 177.015625 L 93.589844 180.355469 C 93.589844 181.558594 92.613281 182.53125 91.410156 182.53125" fill="#e88320"/></g><g id="change3_11"><path d="M 123.175781 221.335938 L 102.109375 221.335938 C 100.902344 221.335938 99.929688 220.359375 99.929688 219.164062 L 99.929688 215.816406 C 99.929688 214.617188 100.902344 213.640625 102.109375 213.640625 L 123.175781 213.640625 C 124.378906 213.640625 125.355469 214.617188 125.355469 215.816406 L 125.355469 219.164062 C 125.355469 220.359375 124.378906 221.335938 123.175781 221.335938" fill="#e88320"/></g><g id="change3_12"><path d="M 155.746094 221.335938 L 134.679688 221.335938 C 133.476562 221.335938 132.5 220.359375 132.5 219.164062 L 132.5 215.816406 C 132.5 214.617188 133.476562 213.640625 134.679688 213.640625 L 155.746094 213.640625 C 156.949219 213.640625 157.925781 214.617188 157.925781 215.816406 L 157.925781 219.164062 C 157.925781 220.359375 156.949219 221.335938 155.746094 221.335938" fill="#e88320"/></g><g id="change3_13"><path d="M 91.410156 221.335938 L 70.34375 221.335938 C 69.140625 221.335938 68.164062 220.359375 68.164062 219.164062 L 68.164062 215.816406 C 68.164062 214.617188 69.140625 213.640625 70.34375 213.640625 L 91.410156 213.640625 C 92.613281 213.640625 93.589844 214.617188 93.589844 215.816406 L 93.589844 219.164062 C 93.589844 220.359375 92.613281 221.335938 91.410156 221.335938" fill="#e88320"/></g><g id="change3_14"><path d="M 141.398438 201.5625 L 120.328125 201.5625 C 119.125 201.5625 118.148438 200.585938 118.148438 199.386719 L 118.148438 196.039062 C 118.148438 194.835938 119.125 193.863281 120.328125 193.863281 L 141.398438 193.863281 C 142.597656 193.863281 143.574219 194.835938 143.574219 196.039062 L 143.574219 199.386719 C 143.574219 200.585938 142.597656 201.5625 141.398438 201.5625" fill="#e88320"/></g><g id="change3_15"><path d="M 160.300781 201.5625 L 152.535156 201.5625 C 151.332031 201.5625 150.359375 200.585938 150.359375 199.386719 L 150.359375 196.039062 C 150.359375 194.835938 151.332031 193.863281 152.535156 193.863281 L 160.300781 193.863281 L 160.300781 201.5625" fill="#e88320"/></g><g id="change3_16"><path d="M 73.984375 201.5625 L 66.21875 201.5625 L 66.21875 193.863281 L 73.984375 193.863281 C 75.183594 193.863281 76.160156 194.835938 76.160156 196.039062 L 76.160156 199.386719 C 76.160156 200.585938 75.183594 201.5625 73.984375 201.5625" fill="#e88320"/></g><g id="change3_17"><path d="M 109.632812 201.5625 L 88.5625 201.5625 C 87.359375 201.5625 86.386719 200.585938 86.386719 199.386719 L 86.386719 196.039062 C 86.386719 194.835938 87.359375 193.863281 88.5625 193.863281 L 109.632812 193.863281 C 110.832031 193.863281 111.808594 194.835938 111.808594 196.039062 L 111.808594 199.386719 C 111.808594 200.585938 110.832031 201.5625 109.632812 201.5625" fill="#e88320"/></g><g id="change1_5"><path d="M 165.515625 228.585938 L 259.683594 228.585938 L 259.683594 134.417969 L 165.515625 134.417969 Z M 165.515625 228.585938" fill="#4b1615"/></g><g id="change1_6"><path d="M 259.683594 228.585938 L 259.683594 228.261719 L 165.839844 228.261719 L 165.839844 134.738281 L 259.359375 134.738281 L 259.359375 228.585938 L 259.683594 228.585938 L 259.683594 228.261719 L 259.683594 228.585938 L 260.003906 228.585938 L 260.003906 134.09375 L 165.191406 134.09375 L 165.191406 228.90625 L 260.003906 228.90625 L 260.003906 228.585938 L 259.683594 228.585938" fill="#4b1615"/></g><g id="change2_18"><path d="M 165.515625 151.507812 L 195.125 151.507812 L 195.125 134.417969 L 165.515625 134.417969 Z M 165.515625 151.507812" fill="#d94f22"/></g><g id="change2_19"><path d="M 197.636719 151.507812 L 227.246094 151.507812 L 227.246094 134.417969 L 197.636719 134.417969 Z M 197.636719 151.507812" fill="#d94f22"/></g><g id="change2_20"><path d="M 229.75 151.507812 L 259.628906 151.507812 L 259.628906 134.417969 L 229.75 134.417969 Z M 229.75 151.507812" fill="#d94f22"/></g><g id="change2_21"><path d="M 183.574219 170.738281 L 213.1875 170.738281 L 213.1875 153.648438 L 183.574219 153.648438 Z M 183.574219 170.738281" fill="#d94f22"/></g><g id="change2_22"><path d="M 215.691406 170.738281 L 245.300781 170.738281 L 245.300781 153.648438 L 215.691406 153.648438 Z M 215.691406 170.738281" fill="#d94f22"/></g><g id="change2_23"><path d="M 247.808594 170.738281 L 259.683594 170.738281 L 259.683594 153.648438 L 247.808594 153.648438 Z M 247.808594 170.738281" fill="#d94f22"/></g><g id="change2_24"><path d="M 165.515625 189.96875 L 195.125 189.96875 L 195.125 172.882812 L 165.515625 172.882812 Z M 165.515625 189.96875" fill="#d94f22"/></g><g id="change2_25"><path d="M 197.636719 189.96875 L 227.246094 189.96875 L 227.246094 172.882812 L 197.636719 172.882812 Z M 197.636719 189.96875" fill="#d94f22"/></g><g id="change2_26"><path d="M 229.75 189.96875 L 259.628906 189.96875 L 259.628906 172.882812 L 229.75 172.882812 Z M 229.75 189.96875" fill="#d94f22"/></g><g id="change2_27"><path d="M 183.574219 209.199219 L 213.1875 209.199219 L 213.1875 192.113281 L 183.574219 192.113281 Z M 183.574219 209.199219" fill="#d94f22"/></g><g id="change2_28"><path d="M 215.691406 209.199219 L 245.300781 209.199219 L 245.300781 192.113281 L 215.691406 192.113281 Z M 215.691406 209.199219" fill="#d94f22"/></g><g id="change2_29"><path d="M 247.808594 209.199219 L 259.683594 209.199219 L 259.683594 192.113281 L 247.808594 192.113281 Z M 247.808594 209.199219" fill="#d94f22"/></g><g id="change2_30"><path d="M 165.515625 170.738281 L 180.511719 170.738281 L 180.511719 153.648438 L 165.515625 153.648438 Z M 165.515625 170.738281" fill="#d94f22"/></g><g id="change2_31"><path d="M 165.515625 209.199219 L 180.511719 209.199219 L 180.511719 192.113281 L 165.515625 192.113281 Z M 165.515625 209.199219" fill="#d94f22"/></g><g id="change2_32"><path d="M 165.515625 228.433594 L 195.125 228.433594 L 195.125 211.347656 L 165.515625 211.347656 Z M 165.515625 228.433594" fill="#d94f22"/></g><g id="change2_33"><path d="M 197.636719 228.433594 L 227.246094 228.433594 L 227.246094 211.347656 L 197.636719 211.347656 Z M 197.636719 228.433594" fill="#d94f22"/></g><g id="change2_34"><path d="M 229.75 228.433594 L 259.628906 228.433594 L 259.628906 211.347656 L 229.75 211.347656 Z M 229.75 228.433594" fill="#d94f22"/></g><g clip-path="url(#a)"><g clip-path="url(#b)" id="change3_51"><path d="M 199.269531 143.941406 L 224.691406 143.941406 L 224.691406 136.246094 L 199.269531 136.246094 Z M 199.269531 143.941406" fill="#e88320"/></g></g><g id="change3_18"><path d="M 255.085938 143.941406 L 234.019531 143.941406 C 232.816406 143.941406 231.84375 142.96875 231.84375 141.765625 L 231.84375 138.421875 C 231.84375 137.21875 232.816406 136.246094 234.019531 136.246094 L 255.085938 136.246094 C 256.289062 136.246094 257.265625 137.21875 257.265625 138.421875 L 257.265625 141.765625 C 257.265625 142.96875 256.289062 143.941406 255.085938 143.941406" fill="#e88320"/></g><g id="change3_19"><path d="M 190.75 143.941406 L 169.683594 143.941406 C 168.480469 143.941406 167.507812 142.96875 167.507812 141.765625 L 167.507812 138.421875 C 167.507812 137.21875 168.480469 136.246094 169.683594 136.246094 L 190.75 136.246094 C 191.953125 136.246094 192.929688 137.21875 192.929688 138.421875 L 192.929688 141.765625 C 192.929688 142.96875 191.953125 143.941406 190.75 143.941406" fill="#e88320"/></g><g id="change3_20"><path d="M 240.734375 162.972656 L 219.667969 162.972656 C 218.464844 162.972656 217.488281 161.996094 217.488281 160.792969 L 217.488281 157.449219 C 217.488281 156.25 218.464844 155.273438 219.667969 155.273438 L 240.734375 155.273438 C 241.9375 155.273438 242.914062 156.25 242.914062 157.449219 L 242.914062 160.792969 C 242.914062 161.996094 241.9375 162.972656 240.734375 162.972656" fill="#e88320"/></g><g id="change3_21"><path d="M 259.644531 162.972656 L 251.875 162.972656 C 250.671875 162.972656 249.699219 161.996094 249.699219 160.792969 L 249.699219 157.449219 C 249.699219 156.25 250.671875 155.273438 251.875 155.273438 L 259.644531 155.273438 L 259.644531 162.972656" fill="#e88320"/></g><g id="change3_22"><path d="M 173.324219 162.972656 L 165.558594 162.972656 L 165.558594 155.273438 L 173.324219 155.273438 C 174.527344 155.273438 175.5 156.25 175.5 157.449219 L 175.5 160.792969 C 175.5 161.996094 174.527344 162.972656 173.324219 162.972656" fill="#e88320"/></g><g id="change3_23"><path d="M 208.972656 162.972656 L 187.902344 162.972656 C 186.703125 162.972656 185.726562 161.996094 185.726562 160.792969 L 185.726562 157.449219 C 185.726562 156.25 186.703125 155.273438 187.902344 155.273438 L 208.972656 155.273438 C 210.175781 155.273438 211.148438 156.25 211.148438 157.449219 L 211.148438 160.792969 C 211.148438 161.996094 210.175781 162.972656 208.972656 162.972656" fill="#e88320"/></g><g id="change3_24"><path d="M 222.515625 182.53125 L 201.445312 182.53125 C 200.246094 182.53125 199.269531 181.558594 199.269531 180.355469 L 199.269531 177.015625 C 199.269531 175.8125 200.246094 174.839844 201.445312 174.839844 L 222.515625 174.839844 C 223.71875 174.839844 224.691406 175.8125 224.691406 177.015625 L 224.691406 180.355469 C 224.691406 181.558594 223.71875 182.53125 222.515625 182.53125" fill="#e88320"/></g><g id="change3_25"><path d="M 255.085938 182.53125 L 234.019531 182.53125 C 232.816406 182.53125 231.84375 181.558594 231.84375 180.355469 L 231.84375 177.015625 C 231.84375 175.8125 232.816406 174.839844 234.019531 174.839844 L 255.085938 174.839844 C 256.289062 174.839844 257.265625 175.8125 257.265625 177.015625 L 257.265625 180.355469 C 257.265625 181.558594 256.289062 182.53125 255.085938 182.53125" fill="#e88320"/></g><g id="change3_26"><path d="M 190.75 182.53125 L 169.683594 182.53125 C 168.480469 182.53125 167.507812 181.558594 167.507812 180.355469 L 167.507812 177.015625 C 167.507812 175.8125 168.480469 174.839844 169.683594 174.839844 L 190.75 174.839844 C 191.953125 174.839844 192.929688 175.8125 192.929688 177.015625 L 192.929688 180.355469 C 192.929688 181.558594 191.953125 182.53125 190.75 182.53125" fill="#e88320"/></g><g id="change3_27"><path d="M 222.515625 221.335938 L 201.445312 221.335938 C 200.246094 221.335938 199.269531 220.359375 199.269531 219.164062 L 199.269531 215.816406 C 199.269531 214.617188 200.246094 213.640625 201.445312 213.640625 L 222.515625 213.640625 C 223.71875 213.640625 224.691406 214.617188 224.691406 215.816406 L 224.691406 219.164062 C 224.691406 220.359375 223.71875 221.335938 222.515625 221.335938" fill="#e88320"/></g><g id="change3_28"><path d="M 255.085938 221.335938 L 234.019531 221.335938 C 232.816406 221.335938 231.84375 220.359375 231.84375 219.164062 L 231.84375 215.816406 C 231.84375 214.617188 232.816406 213.640625 234.019531 213.640625 L 255.085938 213.640625 C 256.289062 213.640625 257.265625 214.617188 257.265625 215.816406 L 257.265625 219.164062 C 257.265625 220.359375 256.289062 221.335938 255.085938 221.335938" fill="#e88320"/></g><g id="change3_29"><path d="M 190.75 221.335938 L 169.683594 221.335938 C 168.480469 221.335938 167.507812 220.359375 167.507812 219.164062 L 167.507812 215.816406 C 167.507812 214.617188 168.480469 213.640625 169.683594 213.640625 L 190.75 213.640625 C 191.953125 213.640625 192.929688 214.617188 192.929688 215.816406 L 192.929688 219.164062 C 192.929688 220.359375 191.953125 221.335938 190.75 221.335938" fill="#e88320"/></g><g id="change3_30"><path d="M 240.734375 201.5625 L 219.667969 201.5625 C 218.464844 201.5625 217.488281 200.585938 217.488281 199.386719 L 217.488281 196.039062 C 217.488281 194.835938 218.464844 193.863281 219.667969 193.863281 L 240.734375 193.863281 C 241.9375 193.863281 242.914062 194.835938 242.914062 196.039062 L 242.914062 199.386719 C 242.914062 200.585938 241.9375 201.5625 240.734375 201.5625" fill="#e88320"/></g><g id="change3_31"><path d="M 259.644531 201.5625 L 251.875 201.5625 C 250.671875 201.5625 249.699219 200.585938 249.699219 199.386719 L 249.699219 196.039062 C 249.699219 194.835938 250.671875 193.863281 251.875 193.863281 L 259.644531 193.863281 L 259.644531 201.5625" fill="#e88320"/></g><g id="change3_32"><path d="M 173.324219 201.5625 L 165.558594 201.5625 L 165.558594 193.863281 L 173.324219 193.863281 C 174.527344 193.863281 175.5 194.835938 175.5 196.039062 L 175.5 199.386719 C 175.5 200.585938 174.527344 201.5625 173.324219 201.5625" fill="#e88320"/></g><g id="change3_33"><path d="M 208.972656 201.5625 L 187.902344 201.5625 C 186.703125 201.5625 185.726562 200.585938 185.726562 199.386719 L 185.726562 196.039062 C 185.726562 194.835938 186.703125 193.863281 187.902344 193.863281 L 208.972656 193.863281 C 210.175781 193.863281 211.148438 194.835938 211.148438 196.039062 L 211.148438 199.386719 C 211.148438 200.585938 210.175781 201.5625 208.972656 201.5625" fill="#e88320"/></g><g id="change1_7"><path d="M 264.855469 228.585938 L 359.023438 228.585938 L 359.023438 134.417969 L 264.855469 134.417969 Z M 264.855469 228.585938" fill="#4b1615"/></g><g id="change1_8"><path d="M 359.023438 228.585938 L 359.023438 228.261719 L 265.179688 228.261719 L 265.179688 134.738281 L 358.699219 134.738281 L 358.699219 228.585938 L 359.023438 228.585938 L 359.023438 228.261719 L 359.023438 228.585938 L 359.34375 228.585938 L 359.34375 134.09375 L 264.535156 134.09375 L 264.535156 228.90625 L 359.34375 228.90625 L 359.34375 228.585938 L 359.023438 228.585938" fill="#4b1615"/></g><g id="change2_35"><path d="M 264.855469 151.507812 L 294.464844 151.507812 L 294.464844 134.417969 L 264.855469 134.417969 Z M 264.855469 151.507812" fill="#d94f22"/></g><g id="change2_36"><path d="M 296.972656 151.507812 L 326.582031 151.507812 L 326.582031 134.417969 L 296.972656 134.417969 Z M 296.972656 151.507812" fill="#d94f22"/></g><g id="change2_37"><path d="M 329.089844 151.507812 L 358.96875 151.507812 L 358.96875 134.417969 L 329.089844 134.417969 Z M 329.089844 151.507812" fill="#d94f22"/></g><g id="change2_38"><path d="M 282.917969 170.738281 L 312.523438 170.738281 L 312.523438 153.648438 L 282.917969 153.648438 Z M 282.917969 170.738281" fill="#d94f22"/></g><g id="change2_39"><path d="M 315.03125 170.738281 L 344.644531 170.738281 L 344.644531 153.648438 L 315.03125 153.648438 Z M 315.03125 170.738281" fill="#d94f22"/></g><g id="change2_40"><path d="M 347.148438 170.738281 L 359.023438 170.738281 L 359.023438 153.648438 L 347.148438 153.648438 Z M 347.148438 170.738281" fill="#d94f22"/></g><g id="change2_41"><path d="M 264.855469 189.96875 L 294.464844 189.96875 L 294.464844 172.882812 L 264.855469 172.882812 Z M 264.855469 189.96875" fill="#d94f22"/></g><g id="change2_42"><path d="M 296.972656 189.96875 L 326.582031 189.96875 L 326.582031 172.882812 L 296.972656 172.882812 Z M 296.972656 189.96875" fill="#d94f22"/></g><g id="change2_43"><path d="M 329.089844 189.96875 L 358.96875 189.96875 L 358.96875 172.882812 L 329.089844 172.882812 Z M 329.089844 189.96875" fill="#d94f22"/></g><g id="change2_44"><path d="M 282.917969 209.199219 L 312.523438 209.199219 L 312.523438 192.113281 L 282.917969 192.113281 Z M 282.917969 209.199219" fill="#d94f22"/></g><g id="change2_45"><path d="M 315.03125 209.199219 L 344.644531 209.199219 L 344.644531 192.113281 L 315.03125 192.113281 Z M 315.03125 209.199219" fill="#d94f22"/></g><g id="change2_46"><path d="M 347.148438 209.199219 L 359.023438 209.199219 L 359.023438 192.113281 L 347.148438 192.113281 Z M 347.148438 209.199219" fill="#d94f22"/></g><g id="change2_47"><path d="M 264.855469 170.738281 L 279.851562 170.738281 L 279.851562 153.648438 L 264.855469 153.648438 Z M 264.855469 170.738281" fill="#d94f22"/></g><g id="change2_48"><path d="M 264.855469 209.199219 L 279.851562 209.199219 L 279.851562 192.113281 L 264.855469 192.113281 Z M 264.855469 209.199219" fill="#d94f22"/></g><g id="change2_49"><path d="M 264.855469 228.433594 L 294.464844 228.433594 L 294.464844 211.347656 L 264.855469 211.347656 Z M 264.855469 228.433594" fill="#d94f22"/></g><g id="change2_50"><path d="M 296.972656 228.433594 L 326.582031 228.433594 L 326.582031 211.347656 L 296.972656 211.347656 Z M 296.972656 228.433594" fill="#d94f22"/></g><g id="change2_51"><path d="M 329.089844 228.433594 L 358.96875 228.433594 L 358.96875 211.347656 L 329.089844 211.347656 Z M 329.089844 228.433594" fill="#d94f22"/></g><g clip-path="url(#c)"><g clip-path="url(#d)" id="change3_50"><path d="M 298.609375 143.941406 L 324.03125 143.941406 L 324.03125 136.246094 L 298.609375 136.246094 Z M 298.609375 143.941406" fill="#e88320"/></g></g><g id="change3_34"><path d="M 354.425781 143.941406 L 333.359375 143.941406 C 332.15625 143.941406 331.183594 142.96875 331.183594 141.765625 L 331.183594 138.421875 C 331.183594 137.21875 332.15625 136.246094 333.359375 136.246094 L 354.425781 136.246094 C 355.628906 136.246094 356.605469 137.21875 356.605469 138.421875 L 356.605469 141.765625 C 356.605469 142.96875 355.628906 143.941406 354.425781 143.941406" fill="#e88320"/></g><g id="change3_35"><path d="M 290.089844 143.941406 L 269.023438 143.941406 C 267.820312 143.941406 266.847656 142.96875 266.847656 141.765625 L 266.847656 138.421875 C 266.847656 137.21875 267.820312 136.246094 269.023438 136.246094 L 290.089844 136.246094 C 291.296875 136.246094 292.269531 137.21875 292.269531 138.421875 L 292.269531 141.765625 C 292.269531 142.96875 291.296875 143.941406 290.089844 143.941406" fill="#e88320"/></g><g id="change3_36"><path d="M 340.074219 162.972656 L 319.007812 162.972656 C 317.804688 162.972656 316.828125 161.996094 316.828125 160.792969 L 316.828125 157.449219 C 316.828125 156.25 317.804688 155.273438 319.007812 155.273438 L 340.074219 155.273438 C 341.277344 155.273438 342.253906 156.25 342.253906 157.449219 L 342.253906 160.792969 C 342.253906 161.996094 341.277344 162.972656 340.074219 162.972656" fill="#e88320"/></g><g id="change3_37"><path d="M 358.980469 162.972656 L 351.214844 162.972656 C 350.015625 162.972656 349.039062 161.996094 349.039062 160.792969 L 349.039062 157.449219 C 349.039062 156.25 350.015625 155.273438 351.214844 155.273438 L 358.980469 155.273438 L 358.980469 162.972656" fill="#e88320"/></g><g id="change3_38"><path d="M 272.664062 162.972656 L 264.898438 162.972656 L 264.898438 155.273438 L 272.664062 155.273438 C 273.867188 155.273438 274.839844 156.25 274.839844 157.449219 L 274.839844 160.792969 C 274.839844 161.996094 273.867188 162.972656 272.664062 162.972656" fill="#e88320"/></g><g id="change3_39"><path d="M 308.3125 162.972656 L 287.242188 162.972656 C 286.039062 162.972656 285.066406 161.996094 285.066406 160.792969 L 285.066406 157.449219 C 285.066406 156.25 286.039062 155.273438 287.242188 155.273438 L 308.3125 155.273438 C 309.515625 155.273438 310.488281 156.25 310.488281 157.449219 L 310.488281 160.792969 C 310.488281 161.996094 309.515625 162.972656 308.3125 162.972656" fill="#e88320"/></g><g id="change3_40"><path d="M 321.855469 182.53125 L 300.785156 182.53125 C 299.585938 182.53125 298.609375 181.558594 298.609375 180.355469 L 298.609375 177.015625 C 298.609375 175.8125 299.585938 174.839844 300.785156 174.839844 L 321.855469 174.839844 C 323.058594 174.839844 324.03125 175.8125 324.03125 177.015625 L 324.03125 180.355469 C 324.03125 181.558594 323.058594 182.53125 321.855469 182.53125" fill="#e88320"/></g><g id="change3_41"><path d="M 354.425781 182.53125 L 333.359375 182.53125 C 332.15625 182.53125 331.183594 181.558594 331.183594 180.355469 L 331.183594 177.015625 C 331.183594 175.8125 332.15625 174.839844 333.359375 174.839844 L 354.425781 174.839844 C 355.628906 174.839844 356.605469 175.8125 356.605469 177.015625 L 356.605469 180.355469 C 356.605469 181.558594 355.628906 182.53125 354.425781 182.53125" fill="#e88320"/></g><g id="change3_42"><path d="M 290.089844 182.53125 L 269.023438 182.53125 C 267.820312 182.53125 266.847656 181.558594 266.847656 180.355469 L 266.847656 177.015625 C 266.847656 175.8125 267.820312 174.839844 269.023438 174.839844 L 290.089844 174.839844 C 291.296875 174.839844 292.269531 175.8125 292.269531 177.015625 L 292.269531 180.355469 C 292.269531 181.558594 291.296875 182.53125 290.089844 182.53125" fill="#e88320"/></g><g id="change3_43"><path d="M 321.855469 221.335938 L 300.785156 221.335938 C 299.585938 221.335938 298.609375 220.359375 298.609375 219.164062 L 298.609375 215.816406 C 298.609375 214.617188 299.585938 213.640625 300.785156 213.640625 L 321.855469 213.640625 C 323.058594 213.640625 324.03125 214.617188 324.03125 215.816406 L 324.03125 219.164062 C 324.03125 220.359375 323.058594 221.335938 321.855469 221.335938" fill="#e88320"/></g><g id="change3_44"><path d="M 354.425781 221.335938 L 333.359375 221.335938 C 332.15625 221.335938 331.183594 220.359375 331.183594 219.164062 L 331.183594 215.816406 C 331.183594 214.617188 332.15625 213.640625 333.359375 213.640625 L 354.425781 213.640625 C 355.628906 213.640625 356.605469 214.617188 356.605469 215.816406 L 356.605469 219.164062 C 356.605469 220.359375 355.628906 221.335938 354.425781 221.335938" fill="#e88320"/></g><g id="change3_45"><path d="M 290.089844 221.335938 L 269.023438 221.335938 C 267.820312 221.335938 266.847656 220.359375 266.847656 219.164062 L 266.847656 215.816406 C 266.847656 214.617188 267.820312 213.640625 269.023438 213.640625 L 290.089844 213.640625 C 291.296875 213.640625 292.269531 214.617188 292.269531 215.816406 L 292.269531 219.164062 C 292.269531 220.359375 291.296875 221.335938 290.089844 221.335938" fill="#e88320"/></g><g id="change3_46"><path d="M 340.074219 201.5625 L 319.007812 201.5625 C 317.804688 201.5625 316.828125 200.585938 316.828125 199.386719 L 316.828125 196.039062 C 316.828125 194.835938 317.804688 193.863281 319.007812 193.863281 L 340.074219 193.863281 C 341.277344 193.863281 342.253906 194.835938 342.253906 196.039062 L 342.253906 199.386719 C 342.253906 200.585938 341.277344 201.5625 340.074219 201.5625" fill="#e88320"/></g><g id="change3_47"><path d="M 358.980469 201.5625 L 351.214844 201.5625 C 350.015625 201.5625 349.039062 200.585938 349.039062 199.386719 L 349.039062 196.039062 C 349.039062 194.835938 350.015625 193.863281 351.214844 193.863281 L 358.980469 193.863281 L 358.980469 201.5625" fill="#e88320"/></g><g id="change3_48"><path d="M 272.664062 201.5625 L 264.898438 201.5625 L 264.898438 193.863281 L 272.664062 193.863281 C 273.867188 193.863281 274.839844 194.835938 274.839844 196.039062 L 274.839844 199.386719 C 274.839844 200.585938 273.867188 201.5625 272.664062 201.5625" fill="#e88320"/></g><g id="change3_49"><path d="M 308.3125 201.5625 L 287.242188 201.5625 C 286.039062 201.5625 285.066406 200.585938 285.066406 199.386719 L 285.066406 196.039062 C 285.066406 194.835938 286.039062 193.863281 287.242188 193.863281 L 308.3125 193.863281 C 309.515625 193.863281 310.488281 194.835938 310.488281 196.039062 L 310.488281 199.386719 C 310.488281 200.585938 309.515625 201.5625 308.3125 201.5625" fill="#e88320"/></g></g></svg>