<?xml version="1.0" encoding="UTF-8"?><svg xmlns="http://www.w3.org/2000/svg" xmlns:xlink="http://www.w3.org/1999/xlink" height="225.4" preserveAspectRatio="xMidYMid meet" version="1.0" viewBox="134.8 184.9 325.6 225.4" width="325.6" zoomAndPan="magnify"><g><g id="change1_1"><path d="M 447.9375 347.734375 L 435.402344 347.734375 L 435.402344 335.210938 L 422.882812 335.210938 L 422.882812 322.6875 L 435.402344 322.6875 L 435.402344 285.113281 L 447.9375 285.113281 L 447.9375 272.589844 L 435.402344 272.589844 L 435.402344 247.546875 L 410.359375 247.546875 L 410.359375 209.96875 L 397.835938 209.96875 L 397.835938 197.449219 L 385.316406 197.449219 L 385.316406 184.925781 L 297.640625 184.925781 L 297.640625 197.449219 L 272.597656 197.449219 L 272.597656 209.96875 L 209.976562 209.96875 L 209.976562 235.023438 L 184.921875 235.023438 L 184.921875 247.546875 L 172.398438 247.546875 L 172.398438 260.070312 L 159.878906 260.070312 L 159.878906 310.167969 L 172.398438 310.167969 L 172.398438 322.6875 L 197.453125 322.6875 L 197.453125 335.210938 L 159.878906 335.210938 L 159.878906 347.734375 L 147.355469 347.734375 L 147.355469 372.789062 L 134.820312 372.789062 L 134.820312 385.308594 L 147.355469 385.308594 L 147.355469 397.832031 L 172.398438 397.832031 L 172.398438 410.355469 L 197.453125 410.355469 L 197.453125 397.832031 L 222.496094 397.832031 L 222.496094 385.308594 L 247.539062 385.308594 L 247.539062 397.832031 L 335.21875 397.832031 L 335.21875 385.308594 L 360.261719 385.308594 L 360.261719 397.832031 L 397.835938 397.832031 L 397.835938 410.355469 L 435.402344 410.355469 L 435.402344 397.832031 L 447.9375 397.832031 L 447.9375 385.308594 L 460.457031 385.308594 L 460.457031 360.265625 L 447.9375 360.265625 L 447.9375 347.734375" fill="#1e1c1b"/></g><g id="change1_2"><path d="M 447.9375 372.789062 L 447.9375 385.308594 L 460.457031 385.308594 L 460.457031 360.265625 L 447.9375 360.265625 L 447.9375 372.789062" fill="#1e1c1b"/></g><g id="change1_3"><path d="M 435.402344 397.832031 L 447.9375 397.832031 L 447.9375 385.308594 L 435.402344 385.308594 L 435.402344 397.832031" fill="#1e1c1b"/></g><g id="change2_1"><path d="M 447.9375 360.265625 L 435.402344 360.265625 L 435.402344 347.734375 L 422.882812 347.734375 L 422.882812 335.210938 L 410.359375 335.210938 L 410.359375 347.734375 L 397.835938 347.734375 L 397.835938 360.265625 L 422.882812 360.265625 L 422.882812 372.789062 L 435.402344 372.789062 L 435.402344 385.308594 L 447.9375 385.308594 L 447.9375 360.265625" fill="#338a39"/></g><g id="change1_4"><path d="M 447.9375 360.265625 L 447.9375 347.734375 L 435.402344 347.734375 L 435.402344 360.265625 L 447.9375 360.265625" fill="#1e1c1b"/></g><g id="change1_5"><path d="M 447.9375 285.113281 L 447.9375 272.589844 L 435.402344 272.589844 L 435.402344 285.113281 L 447.9375 285.113281" fill="#1e1c1b"/></g><g id="change3_1"><path d="M 435.402344 372.789062 L 422.882812 372.789062 L 422.882812 360.265625 L 360.261719 360.265625 L 360.261719 385.308594 L 397.835938 385.308594 L 397.835938 397.832031 L 435.402344 397.832031 L 435.402344 372.789062" fill="#28612c"/></g><g id="change1_6"><path d="M 435.402344 347.734375 L 435.402344 335.210938 L 422.882812 335.210938 L 422.882812 347.734375 L 435.402344 347.734375" fill="#1e1c1b"/></g><g id="change3_2"><path d="M 422.882812 285.113281 L 435.402344 285.113281 L 435.402344 272.589844 L 422.882812 272.589844 L 422.882812 285.113281" fill="#28612c"/></g><g id="change1_7"><path d="M 410.359375 397.832031 L 397.835938 397.832031 L 397.835938 410.355469 L 435.402344 410.355469 L 435.402344 397.832031 L 410.359375 397.832031" fill="#1e1c1b"/></g><g id="change1_8"><path d="M 422.882812 260.070312 L 422.882812 272.589844 L 435.402344 272.589844 L 435.402344 247.546875 L 410.359375 247.546875 L 410.359375 260.070312 L 422.882812 260.070312" fill="#1e1c1b"/></g><g id="change1_9"><path d="M 385.316406 385.308594 L 360.261719 385.308594 L 360.261719 397.832031 L 397.835938 397.832031 L 397.835938 385.308594 L 385.316406 385.308594" fill="#1e1c1b"/></g><g id="change2_2"><path d="M 222.496094 272.589844 L 235.019531 272.589844 L 235.019531 285.113281 L 222.496094 285.113281 Z M 285.117188 285.113281 L 285.117188 297.644531 L 272.597656 297.644531 L 272.597656 285.113281 Z M 322.695312 247.546875 L 335.21875 247.546875 L 335.21875 260.070312 L 322.695312 260.070312 Z M 335.21875 297.644531 L 322.695312 297.644531 L 322.695312 285.113281 L 335.21875 285.113281 Z M 397.835938 260.070312 L 385.316406 260.070312 L 385.316406 247.546875 L 372.78125 247.546875 L 372.78125 260.070312 L 360.261719 260.070312 L 360.261719 247.546875 L 372.78125 247.546875 L 372.78125 235.023438 L 360.261719 235.023438 L 360.261719 222.492188 L 347.738281 222.492188 L 347.738281 209.96875 L 285.117188 209.96875 L 285.117188 222.492188 L 297.640625 222.492188 L 297.640625 247.546875 L 285.117188 247.546875 L 285.117188 235.023438 L 272.597656 235.023438 L 272.597656 260.070312 L 297.640625 260.070312 L 297.640625 272.589844 L 272.597656 272.589844 L 272.597656 260.070312 L 260.074219 260.070312 L 260.074219 272.589844 L 247.539062 272.589844 L 247.539062 235.023438 L 235.019531 235.023438 L 235.019531 247.546875 L 222.496094 247.546875 L 222.496094 260.070312 L 209.976562 260.070312 L 209.976562 297.644531 L 222.496094 297.644531 L 222.496094 310.167969 L 260.074219 310.167969 L 260.074219 322.6875 L 285.117188 322.6875 L 285.117188 335.210938 L 297.640625 335.210938 L 297.640625 322.6875 L 310.160156 322.6875 L 310.160156 335.210938 L 347.738281 335.210938 L 347.738281 322.6875 L 372.78125 322.6875 L 372.78125 297.644531 L 360.261719 297.644531 L 360.261719 285.113281 L 372.78125 285.113281 L 372.78125 297.644531 L 397.835938 297.644531 L 397.835938 260.070312" fill="#338a39"/></g><g id="change4_1"><path d="M 397.835938 235.023438 L 397.835938 222.492188 L 385.316406 222.492188 L 385.316406 209.96875 L 372.78125 209.96875 L 372.78125 197.449219 L 310.160156 197.449219 L 310.160156 209.96875 L 347.738281 209.96875 L 347.738281 222.492188 L 360.261719 222.492188 L 360.261719 235.023438 L 372.78125 235.023438 L 372.78125 247.546875 L 385.316406 247.546875 L 385.316406 260.070312 L 397.835938 260.070312 L 397.835938 285.113281 L 422.882812 285.113281 L 422.882812 260.070312 L 410.359375 260.070312 L 410.359375 247.546875 L 397.835938 247.546875 L 397.835938 235.023438" fill="#4ebd38"/></g><g id="change4_2"><path d="M 360.261719 285.113281 L 360.261719 297.644531 L 372.78125 297.644531 L 372.78125 285.113281 L 360.261719 285.113281" fill="#4ebd38"/></g><g id="change4_3"><path d="M 360.261719 260.070312 L 372.78125 260.070312 L 372.78125 247.546875 L 360.261719 247.546875 L 360.261719 260.070312" fill="#4ebd38"/></g><g id="change1_10"><path d="M 360.261719 360.265625 L 397.835938 360.265625 L 397.835938 347.734375 L 410.359375 347.734375 L 410.359375 335.210938 L 422.882812 335.210938 L 422.882812 322.6875 L 435.402344 322.6875 L 435.402344 285.113281 L 422.882812 285.113281 L 422.882812 310.167969 L 410.359375 310.167969 L 410.359375 322.6875 L 397.835938 322.6875 L 397.835938 335.210938 L 385.316406 335.210938 L 385.316406 347.734375 L 347.738281 347.734375 L 347.738281 360.265625 L 335.21875 360.265625 L 335.21875 372.789062 L 322.695312 372.789062 L 322.695312 385.308594 L 260.074219 385.308594 L 260.074219 372.789062 L 247.539062 372.789062 L 247.539062 360.265625 L 235.019531 360.265625 L 235.019531 372.789062 L 222.496094 372.789062 L 222.496094 385.308594 L 247.539062 385.308594 L 247.539062 397.832031 L 335.21875 397.832031 L 335.21875 385.308594 L 360.261719 385.308594 L 360.261719 360.265625" fill="#1e1c1b"/></g><g id="change4_4"><path d="M 322.695312 297.644531 L 335.21875 297.644531 L 335.21875 285.113281 L 322.695312 285.113281 L 322.695312 297.644531" fill="#4ebd38"/></g><g id="change4_5"><path d="M 335.21875 247.546875 L 322.695312 247.546875 L 322.695312 260.070312 L 335.21875 260.070312 L 335.21875 247.546875" fill="#4ebd38"/></g><g id="change4_6"><path d="M 297.640625 322.6875 L 297.640625 335.210938 L 310.160156 335.210938 L 310.160156 322.6875 L 297.640625 322.6875" fill="#4ebd38"/></g><g id="change4_7"><path d="M 285.117188 297.644531 L 285.117188 285.113281 L 272.597656 285.113281 L 272.597656 297.644531 L 285.117188 297.644531" fill="#4ebd38"/></g><g id="change4_8"><path d="M 285.117188 272.589844 L 297.640625 272.589844 L 297.640625 260.070312 L 272.597656 260.070312 L 272.597656 272.589844 L 285.117188 272.589844" fill="#4ebd38"/></g><g id="change4_9"><path d="M 247.539062 247.546875 L 247.539062 272.589844 L 260.074219 272.589844 L 260.074219 260.070312 L 272.597656 260.070312 L 272.597656 235.023438 L 247.539062 235.023438 L 247.539062 247.546875" fill="#4ebd38"/></g><g id="change4_10"><path d="M 235.019531 272.589844 L 222.496094 272.589844 L 222.496094 285.113281 L 235.019531 285.113281 L 235.019531 272.589844" fill="#4ebd38"/></g><g id="change3_3"><path d="M 235.019531 235.023438 L 260.074219 235.023438 L 260.074219 222.492188 L 222.496094 222.492188 L 222.496094 247.546875 L 235.019531 247.546875 L 235.019531 235.023438" fill="#28612c"/></g><g id="change3_4"><path d="M 209.976562 372.789062 L 197.453125 372.789062 L 197.453125 360.265625 L 184.921875 360.265625 L 184.921875 372.789062 L 147.355469 372.789062 L 147.355469 385.308594 L 172.398438 385.308594 L 172.398438 397.832031 L 197.453125 397.832031 L 197.453125 385.308594 L 222.496094 385.308594 L 222.496094 372.789062 L 209.976562 372.789062" fill="#28612c"/></g><g id="change3_5"><path d="M 209.976562 335.210938 L 222.496094 335.210938 L 222.496094 347.734375 L 235.019531 347.734375 L 235.019531 360.265625 L 247.539062 360.265625 L 247.539062 372.789062 L 260.074219 372.789062 L 260.074219 385.308594 L 322.695312 385.308594 L 322.695312 372.789062 L 335.21875 372.789062 L 335.21875 360.265625 L 347.738281 360.265625 L 347.738281 347.734375 L 385.316406 347.734375 L 385.316406 335.210938 L 397.835938 335.210938 L 397.835938 322.6875 L 410.359375 322.6875 L 410.359375 310.167969 L 422.882812 310.167969 L 422.882812 285.113281 L 397.835938 285.113281 L 397.835938 297.644531 L 372.78125 297.644531 L 372.78125 322.6875 L 347.738281 322.6875 L 347.738281 335.210938 L 285.117188 335.210938 L 285.117188 322.6875 L 260.074219 322.6875 L 260.074219 310.167969 L 222.496094 310.167969 L 222.496094 297.644531 L 209.976562 297.644531 L 209.976562 260.070312 L 222.496094 260.070312 L 222.496094 247.546875 L 197.453125 247.546875 L 197.453125 260.070312 L 184.921875 260.070312 L 184.921875 272.589844 L 172.398438 272.589844 L 172.398438 297.644531 L 184.921875 297.644531 L 184.921875 310.167969 L 197.453125 310.167969 L 197.453125 322.6875 L 209.976562 322.6875 L 209.976562 335.210938" fill="#28612c"/></g><g id="change1_11"><path d="M 197.453125 385.308594 L 197.453125 397.832031 L 222.496094 397.832031 L 222.496094 385.308594 L 197.453125 385.308594" fill="#1e1c1b"/></g><g id="change1_12"><path d="M 184.921875 310.167969 L 184.921875 297.644531 L 172.398438 297.644531 L 172.398438 272.589844 L 184.921875 272.589844 L 184.921875 260.070312 L 197.453125 260.070312 L 197.453125 247.546875 L 222.496094 247.546875 L 222.496094 222.492188 L 260.074219 222.492188 L 260.074219 235.023438 L 285.117188 235.023438 L 285.117188 247.546875 L 297.640625 247.546875 L 297.640625 222.492188 L 285.117188 222.492188 L 285.117188 209.96875 L 310.160156 209.96875 L 310.160156 197.449219 L 372.78125 197.449219 L 372.78125 209.96875 L 385.316406 209.96875 L 385.316406 222.492188 L 397.835938 222.492188 L 397.835938 247.546875 L 410.359375 247.546875 L 410.359375 209.96875 L 397.835938 209.96875 L 397.835938 197.449219 L 385.316406 197.449219 L 385.316406 184.925781 L 297.640625 184.925781 L 297.640625 197.449219 L 272.597656 197.449219 L 272.597656 209.96875 L 209.976562 209.96875 L 209.976562 235.023438 L 184.921875 235.023438 L 184.921875 247.546875 L 172.398438 247.546875 L 172.398438 260.070312 L 159.878906 260.070312 L 159.878906 310.167969 L 172.398438 310.167969 L 172.398438 322.6875 L 197.453125 322.6875 L 197.453125 310.167969 L 184.921875 310.167969" fill="#1e1c1b"/></g><g id="change1_13"><path d="M 172.398438 397.832031 L 172.398438 410.355469 L 197.453125 410.355469 L 197.453125 397.832031 L 172.398438 397.832031" fill="#1e1c1b"/></g><g id="change1_14"><path d="M 184.921875 347.734375 L 209.976562 347.734375 L 209.976562 360.265625 L 235.019531 360.265625 L 235.019531 347.734375 L 222.496094 347.734375 L 222.496094 335.210938 L 209.976562 335.210938 L 209.976562 322.6875 L 197.453125 322.6875 L 197.453125 335.210938 L 159.878906 335.210938 L 159.878906 347.734375 L 184.921875 347.734375" fill="#1e1c1b"/></g><g id="change1_15"><path d="M 159.878906 385.308594 L 147.355469 385.308594 L 147.355469 397.832031 L 172.398438 397.832031 L 172.398438 385.308594 L 159.878906 385.308594" fill="#1e1c1b"/></g><g id="change2_3"><path d="M 159.878906 372.789062 L 184.921875 372.789062 L 184.921875 360.265625 L 197.453125 360.265625 L 197.453125 372.789062 L 235.019531 372.789062 L 235.019531 360.265625 L 209.976562 360.265625 L 209.976562 347.734375 L 159.878906 347.734375 L 159.878906 372.789062" fill="#338a39"/></g><g id="change1_16"><path d="M 159.878906 360.265625 L 159.878906 347.734375 L 147.355469 347.734375 L 147.355469 372.789062 L 159.878906 372.789062 L 159.878906 360.265625" fill="#1e1c1b"/></g><g id="change1_17"><path d="M 134.820312 372.789062 L 134.820312 385.308594 L 147.355469 385.308594 L 147.355469 372.789062 L 134.820312 372.789062" fill="#1e1c1b"/></g></g></svg>