<?xml version="1.0" encoding="UTF-8"?><svg xmlns="http://www.w3.org/2000/svg" xmlns:xlink="http://www.w3.org/1999/xlink" height="239.9" preserveAspectRatio="xMidYMid meet" version="1.0" viewBox="177.7 177.7 239.9 239.9" width="239.9" zoomAndPan="magnify"><g><g id="change1_1"><path d="M 417.59375 288.410156 L 417.59375 297.640625 L 408.367188 297.640625 L 408.367188 288.410156 L 417.59375 288.410156" fill="#1d381e"/></g><g id="change1_2"><path d="M 417.59375 279.183594 L 417.59375 288.410156 L 408.367188 288.410156 L 408.367188 279.183594 L 417.59375 279.183594" fill="#1d381e"/></g><g id="change1_3"><path d="M 408.367188 334.550781 L 408.367188 343.777344 L 399.144531 343.777344 L 399.144531 334.550781 L 408.367188 334.550781" fill="#1d381e"/></g><g id="change1_4"><path d="M 408.367188 325.320312 L 408.367188 334.550781 L 399.144531 334.550781 L 399.144531 325.320312 L 408.367188 325.320312" fill="#1d381e"/></g><g id="change1_5"><path d="M 408.367188 316.089844 L 408.367188 325.320312 L 399.144531 325.320312 L 399.144531 316.089844 L 408.367188 316.089844" fill="#1d381e"/></g><g id="change1_6"><path d="M 408.367188 306.867188 L 408.367188 316.089844 L 399.144531 316.089844 L 399.144531 306.867188 L 408.367188 306.867188" fill="#1d381e"/></g><g id="change1_7"><path d="M 408.367188 297.640625 L 408.367188 306.867188 L 399.144531 306.867188 L 399.144531 297.640625 L 408.367188 297.640625" fill="#1d381e"/></g><g id="change2_1"><path d="M 408.367188 288.410156 L 408.367188 297.640625 L 399.144531 297.640625 L 399.144531 288.410156 L 408.367188 288.410156" fill="#66c536"/></g><g id="change1_8"><path d="M 408.367188 279.183594 L 408.367188 288.410156 L 399.144531 288.410156 L 399.144531 279.183594 L 408.367188 279.183594" fill="#1d381e"/></g><g id="change1_9"><path d="M 399.144531 343.777344 L 399.144531 353 L 389.914062 353 L 389.914062 343.777344 L 399.144531 343.777344" fill="#1d381e"/></g><g id="change1_10"><path d="M 399.144531 334.550781 L 399.144531 343.777344 L 389.914062 343.777344 L 389.914062 334.550781 L 399.144531 334.550781" fill="#1d381e"/></g><g id="change3_1"><path d="M 399.144531 325.320312 L 399.144531 334.550781 L 389.914062 334.550781 L 389.914062 325.320312 L 399.144531 325.320312" fill="#a1ca21"/></g><g id="change1_11"><path d="M 399.144531 316.089844 L 399.144531 325.320312 L 389.914062 325.320312 L 389.914062 316.089844 L 399.144531 316.089844" fill="#1d381e"/></g><g id="change4_1"><path d="M 399.144531 306.867188 L 399.144531 316.089844 L 389.914062 316.089844 L 389.914062 306.867188 L 399.144531 306.867188" fill="#358e3f"/></g><g id="change2_2"><path d="M 399.144531 297.640625 L 399.144531 306.867188 L 389.914062 306.867188 L 389.914062 297.640625 L 399.144531 297.640625" fill="#66c536"/></g><g id="change1_12"><path d="M 399.144531 288.410156 L 399.144531 297.640625 L 389.914062 297.640625 L 389.914062 288.410156 L 399.144531 288.410156" fill="#1d381e"/></g><g id="change1_13"><path d="M 389.914062 389.910156 L 389.914062 399.136719 L 380.6875 399.136719 L 380.6875 389.910156 L 389.914062 389.910156" fill="#1d381e"/></g><g id="change1_14"><path d="M 389.914062 380.6875 L 389.914062 389.910156 L 380.6875 389.910156 L 380.6875 380.6875 L 389.914062 380.6875" fill="#1d381e"/></g><g id="change1_15"><path d="M 389.914062 371.457031 L 389.914062 380.6875 L 380.6875 380.6875 L 380.6875 371.457031 L 389.914062 371.457031" fill="#1d381e"/></g><g id="change1_16"><path d="M 389.914062 362.230469 L 389.914062 371.457031 L 380.6875 371.457031 L 380.6875 362.230469 L 389.914062 362.230469" fill="#1d381e"/></g><g id="change1_17"><path d="M 389.914062 353 L 389.914062 362.230469 L 380.6875 362.230469 L 380.6875 353 L 389.914062 353" fill="#1d381e"/></g><g id="change2_3"><path d="M 389.914062 343.777344 L 389.914062 353 L 380.6875 353 L 380.6875 343.777344 L 389.914062 343.777344" fill="#66c536"/></g><g id="change2_4"><path d="M 389.914062 334.550781 L 389.914062 343.777344 L 380.6875 343.777344 L 380.6875 334.550781 L 389.914062 334.550781" fill="#66c536"/></g><g id="change1_18"><path d="M 389.914062 325.320312 L 389.914062 334.550781 L 380.6875 334.550781 L 380.6875 325.320312 L 389.914062 325.320312" fill="#1d381e"/></g><g id="change4_2"><path d="M 389.914062 316.089844 L 389.914062 325.320312 L 380.6875 325.320312 L 380.6875 316.089844 L 389.914062 316.089844" fill="#358e3f"/></g><g id="change2_5"><path d="M 389.914062 306.867188 L 389.914062 316.089844 L 380.6875 316.089844 L 380.6875 306.867188 L 389.914062 306.867188" fill="#66c536"/></g><g id="change1_19"><path d="M 389.914062 297.640625 L 389.914062 306.867188 L 380.6875 306.867188 L 380.6875 297.640625 L 389.914062 297.640625" fill="#1d381e"/></g><g id="change1_20"><path d="M 380.6875 408.367188 L 380.6875 417.59375 L 371.457031 417.59375 L 371.457031 408.367188 L 380.6875 408.367188" fill="#1d381e"/></g><g id="change1_21"><path d="M 380.6875 399.136719 L 380.6875 408.367188 L 371.457031 408.367188 L 371.457031 399.136719 L 380.6875 399.136719" fill="#1d381e"/></g><g id="change1_22"><path d="M 380.6875 389.910156 L 380.6875 399.136719 L 371.457031 399.136719 L 371.457031 389.910156 L 380.6875 389.910156" fill="#1d381e"/></g><g id="change2_6"><path d="M 380.6875 380.6875 L 380.6875 389.910156 L 371.457031 389.910156 L 371.457031 380.6875 L 380.6875 380.6875" fill="#66c536"/></g><g id="change2_7"><path d="M 380.6875 371.457031 L 380.6875 380.6875 L 371.457031 380.6875 L 371.457031 371.457031 L 380.6875 371.457031" fill="#66c536"/></g><g id="change1_23"><path d="M 380.6875 362.230469 L 380.6875 371.457031 L 371.457031 371.457031 L 371.457031 362.230469 L 380.6875 362.230469" fill="#1d381e"/></g><g id="change1_24"><path d="M 380.6875 353 L 380.6875 362.230469 L 371.457031 362.230469 L 371.457031 353 L 380.6875 353" fill="#1d381e"/></g><g id="change2_8"><path d="M 380.6875 343.777344 L 380.6875 353 L 371.457031 353 L 371.457031 343.777344 L 380.6875 343.777344" fill="#66c536"/></g><g id="change3_2"><path d="M 380.6875 334.550781 L 380.6875 343.777344 L 371.457031 343.777344 L 371.457031 334.550781 L 380.6875 334.550781" fill="#a1ca21"/></g><g id="change1_25"><path d="M 380.6875 325.320312 L 380.6875 334.550781 L 371.457031 334.550781 L 371.457031 325.320312 L 380.6875 325.320312" fill="#1d381e"/></g><g id="change2_9"><path d="M 380.6875 316.089844 L 380.6875 325.320312 L 371.457031 325.320312 L 371.457031 316.089844 L 380.6875 316.089844" fill="#66c536"/></g><g id="change1_26"><path d="M 380.6875 306.867188 L 380.6875 316.089844 L 371.457031 316.089844 L 371.457031 306.867188 L 380.6875 306.867188" fill="#1d381e"/></g><g id="change1_27"><path d="M 371.457031 408.367188 L 371.457031 417.59375 L 362.230469 417.59375 L 362.230469 408.367188 L 371.457031 408.367188" fill="#1d381e"/></g><g id="change2_10"><path d="M 371.457031 399.136719 L 371.457031 408.367188 L 362.230469 408.367188 L 362.230469 399.136719 L 371.457031 399.136719" fill="#66c536"/></g><g id="change2_11"><path d="M 371.457031 389.910156 L 371.457031 399.136719 L 362.230469 399.136719 L 362.230469 389.910156 L 371.457031 389.910156" fill="#66c536"/></g><g id="change2_12"><path d="M 371.457031 380.6875 L 371.457031 389.910156 L 362.230469 389.910156 L 362.230469 380.6875 L 371.457031 380.6875" fill="#66c536"/></g><g id="change4_3"><path d="M 371.457031 371.457031 L 371.457031 380.6875 L 362.230469 380.6875 L 362.230469 371.457031 L 371.457031 371.457031" fill="#358e3f"/></g><g id="change1_28"><path d="M 371.457031 362.230469 L 371.457031 371.457031 L 362.230469 371.457031 L 362.230469 362.230469 L 371.457031 362.230469" fill="#1d381e"/></g><g id="change2_13"><path d="M 371.457031 353 L 371.457031 362.230469 L 362.230469 362.230469 L 362.230469 353 L 371.457031 353" fill="#66c536"/></g><g id="change2_14"><path d="M 371.457031 343.777344 L 371.457031 353 L 362.230469 353 L 362.230469 343.777344 L 371.457031 343.777344" fill="#66c536"/></g><g id="change3_3"><path d="M 371.457031 334.550781 L 371.457031 343.777344 L 362.230469 343.777344 L 362.230469 334.550781 L 371.457031 334.550781" fill="#a1ca21"/></g><g id="change1_29"><path d="M 371.457031 325.320312 L 371.457031 334.550781 L 362.230469 334.550781 L 362.230469 325.320312 L 371.457031 325.320312" fill="#1d381e"/></g><g id="change1_30"><path d="M 371.457031 316.089844 L 371.457031 325.320312 L 362.230469 325.320312 L 362.230469 316.089844 L 371.457031 316.089844" fill="#1d381e"/></g><g id="change1_31"><path d="M 371.457031 288.410156 L 371.457031 297.640625 L 362.230469 297.640625 L 362.230469 288.410156 L 371.457031 288.410156" fill="#1d381e"/></g><g id="change1_32"><path d="M 371.457031 279.183594 L 371.457031 288.410156 L 362.230469 288.410156 L 362.230469 279.183594 L 371.457031 279.183594" fill="#1d381e"/></g><g id="change1_33"><path d="M 371.457031 269.953125 L 371.457031 279.183594 L 362.230469 279.183594 L 362.230469 269.953125 L 371.457031 269.953125" fill="#1d381e"/></g><g id="change1_34"><path d="M 362.230469 408.367188 L 362.230469 417.59375 L 353.007812 417.59375 L 353.007812 408.367188 L 362.230469 408.367188" fill="#1d381e"/></g><g id="change4_4"><path d="M 362.230469 399.136719 L 362.230469 408.367188 L 353.007812 408.367188 L 353.007812 399.136719 L 362.230469 399.136719" fill="#358e3f"/></g><g id="change4_5"><path d="M 362.230469 389.910156 L 362.230469 399.136719 L 353.007812 399.136719 L 353.007812 389.910156 L 362.230469 389.910156" fill="#358e3f"/></g><g id="change4_6"><path d="M 362.230469 380.6875 L 362.230469 389.910156 L 353.007812 389.910156 L 353.007812 380.6875 L 362.230469 380.6875" fill="#358e3f"/></g><g id="change1_35"><path d="M 362.230469 371.457031 L 362.230469 380.6875 L 353.007812 380.6875 L 353.007812 371.457031 L 362.230469 371.457031" fill="#1d381e"/></g><g id="change2_15"><path d="M 362.230469 362.230469 L 362.230469 371.457031 L 353.007812 371.457031 L 353.007812 362.230469 L 362.230469 362.230469" fill="#66c536"/></g><g id="change2_16"><path d="M 362.230469 353 L 362.230469 362.230469 L 353.007812 362.230469 L 353.007812 353 L 362.230469 353" fill="#66c536"/></g><g id="change3_4"><path d="M 362.230469 343.777344 L 362.230469 353 L 353.007812 353 L 353.007812 343.777344 L 362.230469 343.777344" fill="#a1ca21"/></g><g id="change1_36"><path d="M 362.230469 334.550781 L 362.230469 343.777344 L 353.007812 343.777344 L 353.007812 334.550781 L 362.230469 334.550781" fill="#1d381e"/></g><g id="change1_37"><path d="M 362.230469 306.867188 L 362.230469 316.089844 L 353.007812 316.089844 L 353.007812 306.867188 L 362.230469 306.867188" fill="#1d381e"/></g><g id="change1_38"><path d="M 362.230469 297.640625 L 362.230469 306.867188 L 353.007812 306.867188 L 353.007812 297.640625 L 362.230469 297.640625" fill="#1d381e"/></g><g id="change1_39"><path d="M 362.230469 288.410156 L 362.230469 297.640625 L 353.007812 297.640625 L 353.007812 288.410156 L 362.230469 288.410156" fill="#1d381e"/></g><g id="change3_5"><path d="M 362.230469 279.183594 L 362.230469 288.410156 L 353.007812 288.410156 L 353.007812 279.183594 L 362.230469 279.183594" fill="#a1ca21"/></g><g id="change1_40"><path d="M 362.230469 269.953125 L 362.230469 279.183594 L 353.007812 279.183594 L 353.007812 269.953125 L 362.230469 269.953125" fill="#1d381e"/></g><g id="change1_41"><path d="M 353.007812 408.367188 L 353.007812 417.59375 L 343.777344 417.59375 L 343.777344 408.367188 L 353.007812 408.367188" fill="#1d381e"/></g><g id="change4_7"><path d="M 353.007812 399.136719 L 353.007812 408.367188 L 343.777344 408.367188 L 343.777344 399.136719 L 353.007812 399.136719" fill="#358e3f"/></g><g id="change1_42"><path d="M 353.007812 389.910156 L 353.007812 399.136719 L 343.777344 399.136719 L 343.777344 389.910156 L 353.007812 389.910156" fill="#1d381e"/></g><g id="change1_43"><path d="M 353.007812 380.6875 L 353.007812 389.910156 L 343.777344 389.910156 L 343.777344 380.6875 L 353.007812 380.6875" fill="#1d381e"/></g><g id="change2_17"><path d="M 353.007812 371.457031 L 353.007812 380.6875 L 343.777344 380.6875 L 343.777344 371.457031 L 353.007812 371.457031" fill="#66c536"/></g><g id="change2_18"><path d="M 353.007812 362.230469 L 353.007812 371.457031 L 343.777344 371.457031 L 343.777344 362.230469 L 353.007812 362.230469" fill="#66c536"/></g><g id="change3_6"><path d="M 353.007812 353 L 353.007812 362.230469 L 343.777344 362.230469 L 343.777344 353 L 353.007812 353" fill="#a1ca21"/></g><g id="change3_7"><path d="M 353.007812 343.777344 L 353.007812 353 L 343.777344 353 L 343.777344 343.777344 L 353.007812 343.777344" fill="#a1ca21"/></g><g id="change1_44"><path d="M 353.007812 334.550781 L 353.007812 343.777344 L 343.777344 343.777344 L 343.777344 334.550781 L 353.007812 334.550781" fill="#1d381e"/></g><g id="change1_45"><path d="M 353.007812 325.320312 L 353.007812 334.550781 L 343.777344 334.550781 L 343.777344 325.320312 L 353.007812 325.320312" fill="#1d381e"/></g><g id="change1_46"><path d="M 353.007812 316.089844 L 353.007812 325.320312 L 343.777344 325.320312 L 343.777344 316.089844 L 353.007812 316.089844" fill="#1d381e"/></g><g id="change1_47"><path d="M 353.007812 306.867188 L 353.007812 316.089844 L 343.777344 316.089844 L 343.777344 306.867188 L 353.007812 306.867188" fill="#1d381e"/></g><g id="change2_19"><path d="M 353.007812 297.640625 L 353.007812 306.867188 L 343.777344 306.867188 L 343.777344 297.640625 L 353.007812 297.640625" fill="#66c536"/></g><g id="change3_8"><path d="M 353.007812 288.410156 L 353.007812 297.640625 L 343.777344 297.640625 L 343.777344 288.410156 L 353.007812 288.410156" fill="#a1ca21"/></g><g id="change3_9"><path d="M 353.007812 279.183594 L 353.007812 288.410156 L 343.777344 288.410156 L 343.777344 279.183594 L 353.007812 279.183594" fill="#a1ca21"/></g><g id="change1_48"><path d="M 353.007812 269.953125 L 353.007812 279.183594 L 343.777344 279.183594 L 343.777344 269.953125 L 353.007812 269.953125" fill="#1d381e"/></g><g id="change1_49"><path d="M 343.777344 408.367188 L 343.777344 417.59375 L 334.550781 417.59375 L 334.550781 408.367188 L 343.777344 408.367188" fill="#1d381e"/></g><g id="change1_50"><path d="M 343.777344 399.136719 L 343.777344 408.367188 L 334.550781 408.367188 L 334.550781 399.136719 L 343.777344 399.136719" fill="#1d381e"/></g><g id="change1_51"><path d="M 343.777344 389.910156 L 343.777344 399.136719 L 334.550781 399.136719 L 334.550781 389.910156 L 343.777344 389.910156" fill="#1d381e"/></g><g id="change4_8"><path d="M 343.777344 380.6875 L 343.777344 389.910156 L 334.550781 389.910156 L 334.550781 380.6875 L 343.777344 380.6875" fill="#358e3f"/></g><g id="change2_20"><path d="M 343.777344 371.457031 L 343.777344 380.6875 L 334.550781 380.6875 L 334.550781 371.457031 L 343.777344 371.457031" fill="#66c536"/></g><g id="change3_10"><path d="M 343.777344 362.230469 L 343.777344 371.457031 L 334.550781 371.457031 L 334.550781 362.230469 L 343.777344 362.230469" fill="#a1ca21"/></g><g id="change3_11"><path d="M 343.777344 353 L 343.777344 362.230469 L 334.550781 362.230469 L 334.550781 353 L 343.777344 353" fill="#a1ca21"/></g><g id="change1_52"><path d="M 343.777344 343.777344 L 343.777344 353 L 334.550781 353 L 334.550781 343.777344 L 343.777344 343.777344" fill="#1d381e"/></g><g id="change1_53"><path d="M 343.777344 334.550781 L 343.777344 343.777344 L 334.550781 343.777344 L 334.550781 334.550781 L 343.777344 334.550781" fill="#1d381e"/></g><g id="change4_9"><path d="M 343.777344 325.320312 L 343.777344 334.550781 L 334.550781 334.550781 L 334.550781 325.320312 L 343.777344 325.320312" fill="#358e3f"/></g><g id="change2_21"><path d="M 343.777344 316.089844 L 343.777344 325.320312 L 334.550781 325.320312 L 334.550781 316.089844 L 343.777344 316.089844" fill="#66c536"/></g><g id="change2_22"><path d="M 343.777344 306.867188 L 343.777344 316.089844 L 334.550781 316.089844 L 334.550781 306.867188 L 343.777344 306.867188" fill="#66c536"/></g><g id="change2_23"><path d="M 343.777344 297.640625 L 343.777344 306.867188 L 334.550781 306.867188 L 334.550781 297.640625 L 343.777344 297.640625" fill="#66c536"/></g><g id="change3_12"><path d="M 343.777344 288.410156 L 343.777344 297.640625 L 334.550781 297.640625 L 334.550781 288.410156 L 343.777344 288.410156" fill="#a1ca21"/></g><g id="change1_54"><path d="M 343.777344 279.183594 L 343.777344 288.410156 L 334.550781 288.410156 L 334.550781 279.183594 L 343.777344 279.183594" fill="#1d381e"/></g><g id="change1_55"><path d="M 334.550781 408.367188 L 334.550781 417.59375 L 325.320312 417.59375 L 325.320312 408.367188 L 334.550781 408.367188" fill="#1d381e"/></g><g id="change4_10"><path d="M 334.550781 399.136719 L 334.550781 408.367188 L 325.320312 408.367188 L 325.320312 399.136719 L 334.550781 399.136719" fill="#358e3f"/></g><g id="change4_11"><path d="M 334.550781 389.910156 L 334.550781 399.136719 L 325.320312 399.136719 L 325.320312 389.910156 L 334.550781 389.910156" fill="#358e3f"/></g><g id="change4_12"><path d="M 334.550781 380.6875 L 334.550781 389.910156 L 325.320312 389.910156 L 325.320312 380.6875 L 334.550781 380.6875" fill="#358e3f"/></g><g id="change2_24"><path d="M 334.550781 371.457031 L 334.550781 380.6875 L 325.320312 380.6875 L 325.320312 371.457031 L 334.550781 371.457031" fill="#66c536"/></g><g id="change1_56"><path d="M 334.550781 362.230469 L 334.550781 371.457031 L 325.320312 371.457031 L 325.320312 362.230469 L 334.550781 362.230469" fill="#1d381e"/></g><g id="change1_57"><path d="M 334.550781 353 L 334.550781 362.230469 L 325.320312 362.230469 L 325.320312 353 L 334.550781 353" fill="#1d381e"/></g><g id="change2_25"><path d="M 334.550781 343.777344 L 334.550781 353 L 325.320312 353 L 325.320312 343.777344 L 334.550781 343.777344" fill="#66c536"/></g><g id="change2_26"><path d="M 334.550781 334.550781 L 334.550781 343.777344 L 325.320312 343.777344 L 325.320312 334.550781 L 334.550781 334.550781" fill="#66c536"/></g><g id="change2_27"><path d="M 334.550781 325.320312 L 334.550781 334.550781 L 325.320312 334.550781 L 325.320312 325.320312 L 334.550781 325.320312" fill="#66c536"/></g><g id="change2_28"><path d="M 334.550781 316.089844 L 334.550781 325.320312 L 325.320312 325.320312 L 325.320312 316.089844 L 334.550781 316.089844" fill="#66c536"/></g><g id="change3_13"><path d="M 334.550781 306.867188 L 334.550781 316.089844 L 325.320312 316.089844 L 325.320312 306.867188 L 334.550781 306.867188" fill="#a1ca21"/></g><g id="change3_14"><path d="M 334.550781 297.640625 L 334.550781 306.867188 L 325.320312 306.867188 L 325.320312 297.640625 L 334.550781 297.640625" fill="#a1ca21"/></g><g id="change1_58"><path d="M 334.550781 288.410156 L 334.550781 297.640625 L 325.320312 297.640625 L 325.320312 288.410156 L 334.550781 288.410156" fill="#1d381e"/></g><g id="change1_59"><path d="M 334.550781 223.820312 L 334.550781 233.046875 L 325.320312 233.046875 L 325.320312 223.820312 L 334.550781 223.820312" fill="#1d381e"/></g><g id="change4_13"><path d="M 334.550781 214.59375 L 334.550781 223.820312 L 325.320312 223.820312 L 325.320312 214.59375 L 334.550781 214.59375" fill="#358e3f"/></g><g id="change5_1"><path d="M 334.550781 205.363281 L 334.550781 214.59375 L 325.320312 214.59375 L 325.320312 205.363281 L 334.550781 205.363281" fill="#da6cbd"/></g><g id="change5_2"><path d="M 334.550781 196.136719 L 334.550781 205.363281 L 325.320312 205.363281 L 325.320312 196.136719 L 334.550781 196.136719" fill="#da6cbd"/></g><g id="change1_60"><path d="M 325.320312 408.367188 L 325.320312 417.59375 L 316.097656 417.59375 L 316.097656 408.367188 L 325.320312 408.367188" fill="#1d381e"/></g><g id="change4_14"><path d="M 325.320312 399.136719 L 325.320312 408.367188 L 316.097656 408.367188 L 316.097656 399.136719 L 325.320312 399.136719" fill="#358e3f"/></g><g id="change4_15"><path d="M 325.320312 389.910156 L 325.320312 399.136719 L 316.097656 399.136719 L 316.097656 389.910156 L 325.320312 389.910156" fill="#358e3f"/></g><g id="change2_29"><path d="M 325.320312 380.6875 L 325.320312 389.910156 L 316.097656 389.910156 L 316.097656 380.6875 L 325.320312 380.6875" fill="#66c536"/></g><g id="change1_61"><path d="M 325.320312 371.457031 L 325.320312 380.6875 L 316.097656 380.6875 L 316.097656 371.457031 L 325.320312 371.457031" fill="#1d381e"/></g><g id="change4_16"><path d="M 325.320312 362.230469 L 325.320312 371.457031 L 316.097656 371.457031 L 316.097656 362.230469 L 325.320312 362.230469" fill="#358e3f"/></g><g id="change2_30"><path d="M 325.320312 353 L 325.320312 362.230469 L 316.097656 362.230469 L 316.097656 353 L 325.320312 353" fill="#66c536"/></g><g id="change2_31"><path d="M 325.320312 343.777344 L 325.320312 353 L 316.097656 353 L 316.097656 343.777344 L 325.320312 343.777344" fill="#66c536"/></g><g id="change3_15"><path d="M 325.320312 334.550781 L 325.320312 343.777344 L 316.097656 343.777344 L 316.097656 334.550781 L 325.320312 334.550781" fill="#a1ca21"/></g><g id="change3_16"><path d="M 325.320312 325.320312 L 325.320312 334.550781 L 316.097656 334.550781 L 316.097656 325.320312 L 325.320312 325.320312" fill="#a1ca21"/></g><g id="change3_17"><path d="M 325.320312 316.089844 L 325.320312 325.320312 L 316.097656 325.320312 L 316.097656 316.089844 L 325.320312 316.089844" fill="#a1ca21"/></g><g id="change1_62"><path d="M 325.320312 306.867188 L 325.320312 316.089844 L 316.097656 316.089844 L 316.097656 306.867188 L 325.320312 306.867188" fill="#1d381e"/></g><g id="change1_63"><path d="M 325.320312 297.640625 L 325.320312 306.867188 L 316.097656 306.867188 L 316.097656 297.640625 L 325.320312 297.640625" fill="#1d381e"/></g><g id="change1_64"><path d="M 325.320312 288.410156 L 325.320312 297.640625 L 316.097656 297.640625 L 316.097656 288.410156 L 325.320312 288.410156" fill="#1d381e"/></g><g id="change1_65"><path d="M 325.320312 279.183594 L 325.320312 288.410156 L 316.097656 288.410156 L 316.097656 279.183594 L 325.320312 279.183594" fill="#1d381e"/></g><g id="change4_17"><path d="M 325.320312 269.953125 L 325.320312 279.183594 L 316.097656 279.183594 L 316.097656 269.953125 L 325.320312 269.953125" fill="#358e3f"/></g><g id="change4_18"><path d="M 325.320312 260.730469 L 325.320312 269.953125 L 316.097656 269.953125 L 316.097656 260.730469 L 325.320312 260.730469" fill="#358e3f"/></g><g id="change4_19"><path d="M 325.320312 251.503906 L 325.320312 260.730469 L 316.097656 260.730469 L 316.097656 251.503906 L 325.320312 251.503906" fill="#358e3f"/></g><g id="change4_20"><path d="M 325.320312 242.273438 L 325.320312 251.503906 L 316.097656 251.503906 L 316.097656 242.273438 L 325.320312 242.273438" fill="#358e3f"/></g><g id="change4_21"><path d="M 325.320312 233.046875 L 325.320312 242.273438 L 316.097656 242.273438 L 316.097656 233.046875 L 325.320312 233.046875" fill="#358e3f"/></g><g id="change1_66"><path d="M 325.320312 223.820312 L 325.320312 233.046875 L 316.097656 233.046875 L 316.097656 223.820312 L 325.320312 223.820312" fill="#1d381e"/></g><g id="change4_22"><path d="M 325.320312 214.59375 L 325.320312 223.820312 L 316.097656 223.820312 L 316.097656 214.59375 L 325.320312 214.59375" fill="#358e3f"/></g><g id="change5_3"><path d="M 325.320312 205.363281 L 325.320312 214.59375 L 316.097656 214.59375 L 316.097656 205.363281 L 325.320312 205.363281" fill="#da6cbd"/></g><g id="change5_4"><path d="M 325.320312 196.136719 L 325.320312 205.363281 L 316.097656 205.363281 L 316.097656 196.136719 L 325.320312 196.136719" fill="#da6cbd"/></g><g id="change1_67"><path d="M 316.097656 408.367188 L 316.097656 417.59375 L 306.867188 417.59375 L 306.867188 408.367188 L 316.097656 408.367188" fill="#1d381e"/></g><g id="change4_23"><path d="M 316.097656 399.136719 L 316.097656 408.367188 L 306.867188 408.367188 L 306.867188 399.136719 L 316.097656 399.136719" fill="#358e3f"/></g><g id="change2_32"><path d="M 316.097656 389.910156 L 316.097656 399.136719 L 306.867188 399.136719 L 306.867188 389.910156 L 316.097656 389.910156" fill="#66c536"/></g><g id="change1_68"><path d="M 316.097656 380.6875 L 316.097656 389.910156 L 306.867188 389.910156 L 306.867188 380.6875 L 316.097656 380.6875" fill="#1d381e"/></g><g id="change4_24"><path d="M 316.097656 371.457031 L 316.097656 380.6875 L 306.867188 380.6875 L 306.867188 371.457031 L 316.097656 371.457031" fill="#358e3f"/></g><g id="change2_33"><path d="M 316.097656 362.230469 L 316.097656 371.457031 L 306.867188 371.457031 L 306.867188 362.230469 L 316.097656 362.230469" fill="#66c536"/></g><g id="change2_34"><path d="M 316.097656 353 L 316.097656 362.230469 L 306.867188 362.230469 L 306.867188 353 L 316.097656 353" fill="#66c536"/></g><g id="change1_69"><path d="M 316.097656 343.777344 L 316.097656 353 L 306.867188 353 L 306.867188 343.777344 L 316.097656 343.777344" fill="#1d381e"/></g><g id="change1_70"><path d="M 316.097656 334.550781 L 316.097656 343.777344 L 306.867188 343.777344 L 306.867188 334.550781 L 316.097656 334.550781" fill="#1d381e"/></g><g id="change1_71"><path d="M 316.097656 325.320312 L 316.097656 334.550781 L 306.867188 334.550781 L 306.867188 325.320312 L 316.097656 325.320312" fill="#1d381e"/></g><g id="change1_72"><path d="M 316.097656 316.089844 L 316.097656 325.320312 L 306.867188 325.320312 L 306.867188 316.089844 L 316.097656 316.089844" fill="#1d381e"/></g><g id="change1_73"><path d="M 316.097656 223.820312 L 316.097656 233.046875 L 306.867188 233.046875 L 306.867188 223.820312 L 316.097656 223.820312" fill="#1d381e"/></g><g id="change4_25"><path d="M 316.097656 214.59375 L 316.097656 223.820312 L 306.867188 223.820312 L 306.867188 214.59375 L 316.097656 214.59375" fill="#358e3f"/></g><g id="change5_5"><path d="M 316.097656 205.363281 L 316.097656 214.59375 L 306.867188 214.59375 L 306.867188 205.363281 L 316.097656 205.363281" fill="#da6cbd"/></g><g id="change1_74"><path d="M 306.867188 408.367188 L 306.867188 417.59375 L 297.640625 417.59375 L 297.640625 408.367188 L 306.867188 408.367188" fill="#1d381e"/></g><g id="change4_26"><path d="M 306.867188 399.136719 L 306.867188 408.367188 L 297.640625 408.367188 L 297.640625 399.136719 L 306.867188 399.136719" fill="#358e3f"/></g><g id="change1_75"><path d="M 306.867188 389.910156 L 306.867188 399.136719 L 297.640625 399.136719 L 297.640625 389.910156 L 306.867188 389.910156" fill="#1d381e"/></g><g id="change1_76"><path d="M 306.867188 380.6875 L 306.867188 389.910156 L 297.640625 389.910156 L 297.640625 380.6875 L 306.867188 380.6875" fill="#1d381e"/></g><g id="change1_77"><path d="M 306.867188 371.457031 L 306.867188 380.6875 L 297.640625 380.6875 L 297.640625 371.457031 L 306.867188 371.457031" fill="#1d381e"/></g><g id="change1_78"><path d="M 306.867188 362.230469 L 306.867188 371.457031 L 297.640625 371.457031 L 297.640625 362.230469 L 306.867188 362.230469" fill="#1d381e"/></g><g id="change1_79"><path d="M 306.867188 353 L 306.867188 362.230469 L 297.640625 362.230469 L 297.640625 353 L 306.867188 353" fill="#1d381e"/></g><g id="change1_80"><path d="M 297.640625 408.367188 L 297.640625 417.59375 L 288.410156 417.59375 L 288.410156 408.367188 L 297.640625 408.367188" fill="#1d381e"/></g><g id="change1_81"><path d="M 297.640625 399.136719 L 297.640625 408.367188 L 288.410156 408.367188 L 288.410156 399.136719 L 297.640625 399.136719" fill="#1d381e"/></g><g id="change1_82"><path d="M 297.640625 389.910156 L 297.640625 399.136719 L 288.410156 399.136719 L 288.410156 389.910156 L 297.640625 389.910156" fill="#1d381e"/></g><g id="change1_83"><path d="M 297.640625 380.6875 L 297.640625 389.910156 L 288.410156 389.910156 L 288.410156 380.6875 L 297.640625 380.6875" fill="#1d381e"/></g><g id="change2_35"><path d="M 297.640625 371.457031 L 297.640625 380.6875 L 288.410156 380.6875 L 288.410156 371.457031 L 297.640625 371.457031" fill="#66c536"/></g><g id="change2_36"><path d="M 297.640625 362.230469 L 297.640625 371.457031 L 288.410156 371.457031 L 288.410156 362.230469 L 297.640625 362.230469" fill="#66c536"/></g><g id="change3_18"><path d="M 297.640625 353 L 297.640625 362.230469 L 288.410156 362.230469 L 288.410156 353 L 297.640625 353" fill="#a1ca21"/></g><g id="change1_84"><path d="M 297.640625 343.777344 L 297.640625 353 L 288.410156 353 L 288.410156 343.777344 L 297.640625 343.777344" fill="#1d381e"/></g><g id="change1_85"><path d="M 297.640625 334.550781 L 297.640625 343.777344 L 288.410156 343.777344 L 288.410156 334.550781 L 297.640625 334.550781" fill="#1d381e"/></g><g id="change1_86"><path d="M 288.410156 408.367188 L 288.410156 417.59375 L 279.1875 417.59375 L 279.1875 408.367188 L 288.410156 408.367188" fill="#1d381e"/></g><g id="change4_27"><path d="M 288.410156 399.136719 L 288.410156 408.367188 L 279.1875 408.367188 L 279.1875 399.136719 L 288.410156 399.136719" fill="#358e3f"/></g><g id="change4_28"><path d="M 288.410156 389.910156 L 288.410156 399.136719 L 279.1875 399.136719 L 279.1875 389.910156 L 288.410156 389.910156" fill="#358e3f"/></g><g id="change1_87"><path d="M 288.410156 380.6875 L 288.410156 389.910156 L 279.1875 389.910156 L 279.1875 380.6875 L 288.410156 380.6875" fill="#1d381e"/></g><g id="change1_88"><path d="M 288.410156 371.457031 L 288.410156 380.6875 L 279.1875 380.6875 L 279.1875 371.457031 L 288.410156 371.457031" fill="#1d381e"/></g><g id="change2_37"><path d="M 288.410156 362.230469 L 288.410156 371.457031 L 279.1875 371.457031 L 279.1875 362.230469 L 288.410156 362.230469" fill="#66c536"/></g><g id="change2_38"><path d="M 288.410156 353 L 288.410156 362.230469 L 279.1875 362.230469 L 279.1875 353 L 288.410156 353" fill="#66c536"/></g><g id="change3_19"><path d="M 288.410156 343.777344 L 288.410156 353 L 279.1875 353 L 279.1875 343.777344 L 288.410156 343.777344" fill="#a1ca21"/></g><g id="change3_20"><path d="M 288.410156 334.550781 L 288.410156 343.777344 L 279.1875 343.777344 L 279.1875 334.550781 L 288.410156 334.550781" fill="#a1ca21"/></g><g id="change1_89"><path d="M 288.410156 325.320312 L 288.410156 334.550781 L 279.1875 334.550781 L 279.1875 325.320312 L 288.410156 325.320312" fill="#1d381e"/></g><g id="change1_90"><path d="M 288.410156 316.089844 L 288.410156 325.320312 L 279.1875 325.320312 L 279.1875 316.089844 L 288.410156 316.089844" fill="#1d381e"/></g><g id="change1_91"><path d="M 288.410156 306.867188 L 288.410156 316.089844 L 279.1875 316.089844 L 279.1875 306.867188 L 288.410156 306.867188" fill="#1d381e"/></g><g id="change4_29"><path d="M 288.410156 297.640625 L 288.410156 306.867188 L 279.1875 306.867188 L 279.1875 297.640625 L 288.410156 297.640625" fill="#358e3f"/></g><g id="change4_30"><path d="M 288.410156 288.410156 L 288.410156 297.640625 L 279.1875 297.640625 L 279.1875 288.410156 L 288.410156 288.410156" fill="#358e3f"/></g><g id="change4_31"><path d="M 288.410156 279.183594 L 288.410156 288.410156 L 279.1875 288.410156 L 279.1875 279.183594 L 288.410156 279.183594" fill="#358e3f"/></g><g id="change4_32"><path d="M 288.410156 269.953125 L 288.410156 279.183594 L 279.1875 279.183594 L 279.1875 269.953125 L 288.410156 269.953125" fill="#358e3f"/></g><g id="change4_33"><path d="M 288.410156 260.730469 L 288.410156 269.953125 L 279.1875 269.953125 L 279.1875 260.730469 L 288.410156 260.730469" fill="#358e3f"/></g><g id="change4_34"><path d="M 288.410156 251.503906 L 288.410156 260.730469 L 279.1875 260.730469 L 279.1875 251.503906 L 288.410156 251.503906" fill="#358e3f"/></g><g id="change4_35"><path d="M 288.410156 242.273438 L 288.410156 251.503906 L 279.1875 251.503906 L 279.1875 242.273438 L 288.410156 242.273438" fill="#358e3f"/></g><g id="change4_36"><path d="M 288.410156 233.046875 L 288.410156 242.273438 L 279.1875 242.273438 L 279.1875 233.046875 L 288.410156 233.046875" fill="#358e3f"/></g><g id="change4_37"><path d="M 288.410156 223.820312 L 288.410156 233.046875 L 279.1875 233.046875 L 279.1875 223.820312 L 288.410156 223.820312" fill="#358e3f"/></g><g id="change1_92"><path d="M 288.410156 205.363281 L 288.410156 214.59375 L 279.1875 214.59375 L 279.1875 205.363281 L 288.410156 205.363281" fill="#1d381e"/></g><g id="change5_6"><path d="M 288.410156 196.136719 L 288.410156 205.363281 L 279.1875 205.363281 L 279.1875 196.136719 L 288.410156 196.136719" fill="#da6cbd"/></g><g id="change5_7"><path d="M 288.410156 186.914062 L 288.410156 196.136719 L 279.1875 196.136719 L 279.1875 186.914062 L 288.410156 186.914062" fill="#da6cbd"/></g><g id="change1_93"><path d="M 279.1875 408.367188 L 279.1875 417.59375 L 269.960938 417.59375 L 269.960938 408.367188 L 279.1875 408.367188" fill="#1d381e"/></g><g id="change1_94"><path d="M 279.1875 399.136719 L 279.1875 408.367188 L 269.960938 408.367188 L 269.960938 399.136719 L 279.1875 399.136719" fill="#1d381e"/></g><g id="change4_38"><path d="M 279.1875 389.910156 L 279.1875 399.136719 L 269.960938 399.136719 L 269.960938 389.910156 L 279.1875 389.910156" fill="#358e3f"/></g><g id="change4_39"><path d="M 279.1875 380.6875 L 279.1875 389.910156 L 269.960938 389.910156 L 269.960938 380.6875 L 279.1875 380.6875" fill="#358e3f"/></g><g id="change1_95"><path d="M 279.1875 371.457031 L 279.1875 380.6875 L 269.960938 380.6875 L 269.960938 371.457031 L 279.1875 371.457031" fill="#1d381e"/></g><g id="change1_96"><path d="M 279.1875 362.230469 L 279.1875 371.457031 L 269.960938 371.457031 L 269.960938 362.230469 L 279.1875 362.230469" fill="#1d381e"/></g><g id="change2_39"><path d="M 279.1875 353 L 279.1875 362.230469 L 269.960938 362.230469 L 269.960938 353 L 279.1875 353" fill="#66c536"/></g><g id="change2_40"><path d="M 279.1875 343.777344 L 279.1875 353 L 269.960938 353 L 269.960938 343.777344 L 279.1875 343.777344" fill="#66c536"/></g><g id="change3_21"><path d="M 279.1875 334.550781 L 279.1875 343.777344 L 269.960938 343.777344 L 269.960938 334.550781 L 279.1875 334.550781" fill="#a1ca21"/></g><g id="change3_22"><path d="M 279.1875 325.320312 L 279.1875 334.550781 L 269.960938 334.550781 L 269.960938 325.320312 L 279.1875 325.320312" fill="#a1ca21"/></g><g id="change3_23"><path d="M 279.1875 316.089844 L 279.1875 325.320312 L 269.960938 325.320312 L 269.960938 316.089844 L 279.1875 316.089844" fill="#a1ca21"/></g><g id="change1_97"><path d="M 279.1875 306.867188 L 279.1875 316.089844 L 269.960938 316.089844 L 269.960938 306.867188 L 279.1875 306.867188" fill="#1d381e"/></g><g id="change1_98"><path d="M 279.1875 297.640625 L 279.1875 306.867188 L 269.960938 306.867188 L 269.960938 297.640625 L 279.1875 297.640625" fill="#1d381e"/></g><g id="change1_99"><path d="M 279.1875 223.820312 L 279.1875 233.046875 L 269.960938 233.046875 L 269.960938 223.820312 L 279.1875 223.820312" fill="#1d381e"/></g><g id="change1_100"><path d="M 279.1875 214.59375 L 279.1875 223.820312 L 269.960938 223.820312 L 269.960938 214.59375 L 279.1875 214.59375" fill="#1d381e"/></g><g id="change4_40"><path d="M 279.1875 205.363281 L 279.1875 214.59375 L 269.960938 214.59375 L 269.960938 205.363281 L 279.1875 205.363281" fill="#358e3f"/></g><g id="change5_8"><path d="M 279.1875 196.136719 L 279.1875 205.363281 L 269.960938 205.363281 L 269.960938 196.136719 L 279.1875 196.136719" fill="#da6cbd"/></g><g id="change5_9"><path d="M 279.1875 186.914062 L 279.1875 196.136719 L 269.960938 196.136719 L 269.960938 186.914062 L 279.1875 186.914062" fill="#da6cbd"/></g><g id="change5_10"><path d="M 279.1875 177.683594 L 279.1875 186.914062 L 269.960938 186.914062 L 269.960938 177.683594 L 279.1875 177.683594" fill="#da6cbd"/></g><g id="change1_101"><path d="M 269.960938 408.367188 L 269.960938 417.59375 L 260.730469 417.59375 L 260.730469 408.367188 L 269.960938 408.367188" fill="#1d381e"/></g><g id="change1_102"><path d="M 269.960938 399.136719 L 269.960938 408.367188 L 260.730469 408.367188 L 260.730469 399.136719 L 269.960938 399.136719" fill="#1d381e"/></g><g id="change1_103"><path d="M 269.960938 389.910156 L 269.960938 399.136719 L 260.730469 399.136719 L 260.730469 389.910156 L 269.960938 389.910156" fill="#1d381e"/></g><g id="change3_24"><path d="M 269.960938 380.6875 L 269.960938 389.910156 L 260.730469 389.910156 L 260.730469 380.6875 L 269.960938 380.6875" fill="#a1ca21"/></g><g id="change3_25"><path d="M 269.960938 371.457031 L 269.960938 380.6875 L 260.730469 380.6875 L 260.730469 371.457031 L 269.960938 371.457031" fill="#a1ca21"/></g><g id="change1_104"><path d="M 269.960938 362.230469 L 269.960938 371.457031 L 260.730469 371.457031 L 260.730469 362.230469 L 269.960938 362.230469" fill="#1d381e"/></g><g id="change1_105"><path d="M 269.960938 353 L 269.960938 362.230469 L 260.730469 362.230469 L 260.730469 353 L 269.960938 353" fill="#1d381e"/></g><g id="change2_41"><path d="M 269.960938 343.777344 L 269.960938 353 L 260.730469 353 L 260.730469 343.777344 L 269.960938 343.777344" fill="#66c536"/></g><g id="change4_41"><path d="M 269.960938 334.550781 L 269.960938 343.777344 L 260.730469 343.777344 L 260.730469 334.550781 L 269.960938 334.550781" fill="#358e3f"/></g><g id="change3_26"><path d="M 269.960938 325.320312 L 269.960938 334.550781 L 260.730469 334.550781 L 260.730469 325.320312 L 269.960938 325.320312" fill="#a1ca21"/></g><g id="change3_27"><path d="M 269.960938 316.089844 L 269.960938 325.320312 L 260.730469 325.320312 L 260.730469 316.089844 L 269.960938 316.089844" fill="#a1ca21"/></g><g id="change3_28"><path d="M 269.960938 306.867188 L 269.960938 316.089844 L 260.730469 316.089844 L 260.730469 306.867188 L 269.960938 306.867188" fill="#a1ca21"/></g><g id="change3_29"><path d="M 269.960938 297.640625 L 269.960938 306.867188 L 260.730469 306.867188 L 260.730469 297.640625 L 269.960938 297.640625" fill="#a1ca21"/></g><g id="change1_106"><path d="M 269.960938 288.410156 L 269.960938 297.640625 L 260.730469 297.640625 L 260.730469 288.410156 L 269.960938 288.410156" fill="#1d381e"/></g><g id="change1_107"><path d="M 269.960938 279.183594 L 269.960938 288.410156 L 260.730469 288.410156 L 260.730469 279.183594 L 269.960938 279.183594" fill="#1d381e"/></g><g id="change1_108"><path d="M 269.960938 205.363281 L 269.960938 214.59375 L 260.730469 214.59375 L 260.730469 205.363281 L 269.960938 205.363281" fill="#1d381e"/></g><g id="change1_109"><path d="M 269.960938 196.136719 L 269.960938 205.363281 L 260.730469 205.363281 L 260.730469 196.136719 L 269.960938 196.136719" fill="#1d381e"/></g><g id="change5_11"><path d="M 269.960938 186.914062 L 269.960938 196.136719 L 260.730469 196.136719 L 260.730469 186.914062 L 269.960938 186.914062" fill="#da6cbd"/></g><g id="change5_12"><path d="M 269.960938 177.683594 L 269.960938 186.914062 L 260.730469 186.914062 L 260.730469 177.683594 L 269.960938 177.683594" fill="#da6cbd"/></g><g id="change1_110"><path d="M 260.730469 408.367188 L 260.730469 417.59375 L 251.503906 417.59375 L 251.503906 408.367188 L 260.730469 408.367188" fill="#1d381e"/></g><g id="change4_42"><path d="M 260.730469 399.136719 L 260.730469 408.367188 L 251.503906 408.367188 L 251.503906 399.136719 L 260.730469 399.136719" fill="#358e3f"/></g><g id="change1_111"><path d="M 260.730469 389.910156 L 260.730469 399.136719 L 251.503906 399.136719 L 251.503906 389.910156 L 260.730469 389.910156" fill="#1d381e"/></g><g id="change4_43"><path d="M 260.730469 380.6875 L 260.730469 389.910156 L 251.503906 389.910156 L 251.503906 380.6875 L 260.730469 380.6875" fill="#358e3f"/></g><g id="change3_30"><path d="M 260.730469 371.457031 L 260.730469 380.6875 L 251.503906 380.6875 L 251.503906 371.457031 L 260.730469 371.457031" fill="#a1ca21"/></g><g id="change3_31"><path d="M 260.730469 362.230469 L 260.730469 371.457031 L 251.503906 371.457031 L 251.503906 362.230469 L 260.730469 362.230469" fill="#a1ca21"/></g><g id="change1_112"><path d="M 260.730469 353 L 260.730469 362.230469 L 251.503906 362.230469 L 251.503906 353 L 260.730469 353" fill="#1d381e"/></g><g id="change1_113"><path d="M 260.730469 343.777344 L 260.730469 353 L 251.503906 353 L 251.503906 343.777344 L 260.730469 343.777344" fill="#1d381e"/></g><g id="change4_44"><path d="M 260.730469 334.550781 L 260.730469 343.777344 L 251.503906 343.777344 L 251.503906 334.550781 L 260.730469 334.550781" fill="#358e3f"/></g><g id="change4_45"><path d="M 260.730469 325.320312 L 260.730469 334.550781 L 251.503906 334.550781 L 251.503906 325.320312 L 260.730469 325.320312" fill="#358e3f"/></g><g id="change4_46"><path d="M 260.730469 316.089844 L 260.730469 325.320312 L 251.503906 325.320312 L 251.503906 316.089844 L 260.730469 316.089844" fill="#358e3f"/></g><g id="change4_47"><path d="M 260.730469 306.867188 L 260.730469 316.089844 L 251.503906 316.089844 L 251.503906 306.867188 L 260.730469 306.867188" fill="#358e3f"/></g><g id="change4_48"><path d="M 260.730469 297.640625 L 260.730469 306.867188 L 251.503906 306.867188 L 251.503906 297.640625 L 260.730469 297.640625" fill="#358e3f"/></g><g id="change3_32"><path d="M 260.730469 288.410156 L 260.730469 297.640625 L 251.503906 297.640625 L 251.503906 288.410156 L 260.730469 288.410156" fill="#a1ca21"/></g><g id="change3_33"><path d="M 260.730469 279.183594 L 260.730469 288.410156 L 251.503906 288.410156 L 251.503906 279.183594 L 260.730469 279.183594" fill="#a1ca21"/></g><g id="change1_114"><path d="M 260.730469 269.953125 L 260.730469 279.183594 L 251.503906 279.183594 L 251.503906 269.953125 L 260.730469 269.953125" fill="#1d381e"/></g><g id="change1_115"><path d="M 260.730469 260.730469 L 260.730469 269.953125 L 251.503906 269.953125 L 251.503906 260.730469 L 260.730469 260.730469" fill="#1d381e"/></g><g id="change1_116"><path d="M 251.503906 408.367188 L 251.503906 417.59375 L 242.28125 417.59375 L 242.28125 408.367188 L 251.503906 408.367188" fill="#1d381e"/></g><g id="change4_49"><path d="M 251.503906 399.136719 L 251.503906 408.367188 L 242.28125 408.367188 L 242.28125 399.136719 L 251.503906 399.136719" fill="#358e3f"/></g><g id="change4_50"><path d="M 251.503906 389.910156 L 251.503906 399.136719 L 242.28125 399.136719 L 242.28125 389.910156 L 251.503906 389.910156" fill="#358e3f"/></g><g id="change1_117"><path d="M 251.503906 380.6875 L 251.503906 389.910156 L 242.28125 389.910156 L 242.28125 380.6875 L 251.503906 380.6875" fill="#1d381e"/></g><g id="change4_51"><path d="M 251.503906 371.457031 L 251.503906 380.6875 L 242.28125 380.6875 L 242.28125 371.457031 L 251.503906 371.457031" fill="#358e3f"/></g><g id="change3_34"><path d="M 251.503906 362.230469 L 251.503906 371.457031 L 242.28125 371.457031 L 242.28125 362.230469 L 251.503906 362.230469" fill="#a1ca21"/></g><g id="change3_35"><path d="M 251.503906 353 L 251.503906 362.230469 L 242.28125 362.230469 L 242.28125 353 L 251.503906 353" fill="#a1ca21"/></g><g id="change3_36"><path d="M 251.503906 343.777344 L 251.503906 353 L 242.28125 353 L 242.28125 343.777344 L 251.503906 343.777344" fill="#a1ca21"/></g><g id="change1_118"><path d="M 251.503906 334.550781 L 251.503906 343.777344 L 242.28125 343.777344 L 242.28125 334.550781 L 251.503906 334.550781" fill="#1d381e"/></g><g id="change1_119"><path d="M 251.503906 325.320312 L 251.503906 334.550781 L 242.28125 334.550781 L 242.28125 325.320312 L 251.503906 325.320312" fill="#1d381e"/></g><g id="change4_52"><path d="M 251.503906 316.089844 L 251.503906 325.320312 L 242.28125 325.320312 L 242.28125 316.089844 L 251.503906 316.089844" fill="#358e3f"/></g><g id="change4_53"><path d="M 251.503906 306.867188 L 251.503906 316.089844 L 242.28125 316.089844 L 242.28125 306.867188 L 251.503906 306.867188" fill="#358e3f"/></g><g id="change4_54"><path d="M 251.503906 297.640625 L 251.503906 306.867188 L 242.28125 306.867188 L 242.28125 297.640625 L 251.503906 297.640625" fill="#358e3f"/></g><g id="change2_42"><path d="M 251.503906 288.410156 L 251.503906 297.640625 L 242.28125 297.640625 L 242.28125 288.410156 L 251.503906 288.410156" fill="#66c536"/></g><g id="change2_43"><path d="M 251.503906 279.183594 L 251.503906 288.410156 L 242.28125 288.410156 L 242.28125 279.183594 L 251.503906 279.183594" fill="#66c536"/></g><g id="change2_44"><path d="M 251.503906 269.953125 L 251.503906 279.183594 L 242.28125 279.183594 L 242.28125 269.953125 L 251.503906 269.953125" fill="#66c536"/></g><g id="change3_37"><path d="M 251.503906 260.730469 L 251.503906 269.953125 L 242.28125 269.953125 L 242.28125 260.730469 L 251.503906 260.730469" fill="#a1ca21"/></g><g id="change1_120"><path d="M 251.503906 251.503906 L 251.503906 260.730469 L 242.28125 260.730469 L 242.28125 251.503906 L 251.503906 251.503906" fill="#1d381e"/></g><g id="change1_121"><path d="M 242.28125 408.367188 L 242.28125 417.59375 L 233.050781 417.59375 L 233.050781 408.367188 L 242.28125 408.367188" fill="#1d381e"/></g><g id="change4_55"><path d="M 242.28125 399.136719 L 242.28125 408.367188 L 233.050781 408.367188 L 233.050781 399.136719 L 242.28125 399.136719" fill="#358e3f"/></g><g id="change4_56"><path d="M 242.28125 389.910156 L 242.28125 399.136719 L 233.050781 399.136719 L 233.050781 389.910156 L 242.28125 389.910156" fill="#358e3f"/></g><g id="change4_57"><path d="M 242.28125 380.6875 L 242.28125 389.910156 L 233.050781 389.910156 L 233.050781 380.6875 L 242.28125 380.6875" fill="#358e3f"/></g><g id="change1_122"><path d="M 242.28125 371.457031 L 242.28125 380.6875 L 233.050781 380.6875 L 233.050781 371.457031 L 242.28125 371.457031" fill="#1d381e"/></g><g id="change4_58"><path d="M 242.28125 362.230469 L 242.28125 371.457031 L 233.050781 371.457031 L 233.050781 362.230469 L 242.28125 362.230469" fill="#358e3f"/></g><g id="change4_59"><path d="M 242.28125 353 L 242.28125 362.230469 L 233.050781 362.230469 L 233.050781 353 L 242.28125 353" fill="#358e3f"/></g><g id="change3_38"><path d="M 242.28125 343.777344 L 242.28125 353 L 233.050781 353 L 233.050781 343.777344 L 242.28125 343.777344" fill="#a1ca21"/></g><g id="change3_39"><path d="M 242.28125 334.550781 L 242.28125 343.777344 L 233.050781 343.777344 L 233.050781 334.550781 L 242.28125 334.550781" fill="#a1ca21"/></g><g id="change1_123"><path d="M 242.28125 325.320312 L 242.28125 334.550781 L 233.050781 334.550781 L 233.050781 325.320312 L 242.28125 325.320312" fill="#1d381e"/></g><g id="change1_124"><path d="M 242.28125 316.089844 L 242.28125 325.320312 L 233.050781 325.320312 L 233.050781 316.089844 L 242.28125 316.089844" fill="#1d381e"/></g><g id="change4_60"><path d="M 242.28125 306.867188 L 242.28125 316.089844 L 233.050781 316.089844 L 233.050781 306.867188 L 242.28125 306.867188" fill="#358e3f"/></g><g id="change4_61"><path d="M 242.28125 297.640625 L 242.28125 306.867188 L 233.050781 306.867188 L 233.050781 297.640625 L 242.28125 297.640625" fill="#358e3f"/></g><g id="change4_62"><path d="M 242.28125 288.410156 L 242.28125 297.640625 L 233.050781 297.640625 L 233.050781 288.410156 L 242.28125 288.410156" fill="#358e3f"/></g><g id="change4_63"><path d="M 242.28125 279.183594 L 242.28125 288.410156 L 233.050781 288.410156 L 233.050781 279.183594 L 242.28125 279.183594" fill="#358e3f"/></g><g id="change2_45"><path d="M 242.28125 269.953125 L 242.28125 279.183594 L 233.050781 279.183594 L 233.050781 269.953125 L 242.28125 269.953125" fill="#66c536"/></g><g id="change2_46"><path d="M 242.28125 260.730469 L 242.28125 269.953125 L 233.050781 269.953125 L 233.050781 260.730469 L 242.28125 260.730469" fill="#66c536"/></g><g id="change3_40"><path d="M 242.28125 251.503906 L 242.28125 260.730469 L 233.050781 260.730469 L 233.050781 251.503906 L 242.28125 251.503906" fill="#a1ca21"/></g><g id="change1_125"><path d="M 242.28125 242.273438 L 242.28125 251.503906 L 233.050781 251.503906 L 233.050781 242.273438 L 242.28125 242.273438" fill="#1d381e"/></g><g id="change1_126"><path d="M 233.050781 408.367188 L 233.050781 417.59375 L 223.820312 417.59375 L 223.820312 408.367188 L 233.050781 408.367188" fill="#1d381e"/></g><g id="change4_64"><path d="M 233.050781 399.136719 L 233.050781 408.367188 L 223.820312 408.367188 L 223.820312 399.136719 L 233.050781 399.136719" fill="#358e3f"/></g><g id="change4_65"><path d="M 233.050781 389.910156 L 233.050781 399.136719 L 223.820312 399.136719 L 223.820312 389.910156 L 233.050781 389.910156" fill="#358e3f"/></g><g id="change4_66"><path d="M 233.050781 380.6875 L 233.050781 389.910156 L 223.820312 389.910156 L 223.820312 380.6875 L 233.050781 380.6875" fill="#358e3f"/></g><g id="change4_67"><path d="M 233.050781 371.457031 L 233.050781 380.6875 L 223.820312 380.6875 L 223.820312 371.457031 L 233.050781 371.457031" fill="#358e3f"/></g><g id="change1_127"><path d="M 233.050781 362.230469 L 233.050781 371.457031 L 223.820312 371.457031 L 223.820312 362.230469 L 233.050781 362.230469" fill="#1d381e"/></g><g id="change4_68"><path d="M 233.050781 353 L 233.050781 362.230469 L 223.820312 362.230469 L 223.820312 353 L 233.050781 353" fill="#358e3f"/></g><g id="change4_69"><path d="M 233.050781 343.777344 L 233.050781 353 L 223.820312 353 L 223.820312 343.777344 L 233.050781 343.777344" fill="#358e3f"/></g><g id="change3_41"><path d="M 233.050781 334.550781 L 233.050781 343.777344 L 223.820312 343.777344 L 223.820312 334.550781 L 233.050781 334.550781" fill="#a1ca21"/></g><g id="change3_42"><path d="M 233.050781 325.320312 L 233.050781 334.550781 L 223.820312 334.550781 L 223.820312 325.320312 L 233.050781 325.320312" fill="#a1ca21"/></g><g id="change1_128"><path d="M 233.050781 316.089844 L 233.050781 325.320312 L 223.820312 325.320312 L 223.820312 316.089844 L 233.050781 316.089844" fill="#1d381e"/></g><g id="change1_129"><path d="M 233.050781 306.867188 L 233.050781 316.089844 L 223.820312 316.089844 L 223.820312 306.867188 L 233.050781 306.867188" fill="#1d381e"/></g><g id="change4_70"><path d="M 233.050781 297.640625 L 233.050781 306.867188 L 223.820312 306.867188 L 223.820312 297.640625 L 233.050781 297.640625" fill="#358e3f"/></g><g id="change4_71"><path d="M 233.050781 288.410156 L 233.050781 297.640625 L 223.820312 297.640625 L 223.820312 288.410156 L 233.050781 288.410156" fill="#358e3f"/></g><g id="change4_72"><path d="M 233.050781 279.183594 L 233.050781 288.410156 L 223.820312 288.410156 L 223.820312 279.183594 L 233.050781 279.183594" fill="#358e3f"/></g><g id="change4_73"><path d="M 233.050781 269.953125 L 233.050781 279.183594 L 223.820312 279.183594 L 223.820312 269.953125 L 233.050781 269.953125" fill="#358e3f"/></g><g id="change2_47"><path d="M 233.050781 260.730469 L 233.050781 269.953125 L 223.820312 269.953125 L 223.820312 260.730469 L 233.050781 260.730469" fill="#66c536"/></g><g id="change2_48"><path d="M 233.050781 251.503906 L 233.050781 260.730469 L 223.820312 260.730469 L 223.820312 251.503906 L 233.050781 251.503906" fill="#66c536"/></g><g id="change2_49"><path d="M 233.050781 242.273438 L 233.050781 251.503906 L 223.820312 251.503906 L 223.820312 242.273438 L 233.050781 242.273438" fill="#66c536"/></g><g id="change1_130"><path d="M 233.050781 233.046875 L 233.050781 242.273438 L 223.820312 242.273438 L 223.820312 233.046875 L 233.050781 233.046875" fill="#1d381e"/></g><g id="change1_131"><path d="M 223.820312 399.136719 L 223.820312 408.367188 L 214.59375 408.367188 L 214.59375 399.136719 L 223.820312 399.136719" fill="#1d381e"/></g><g id="change2_50"><path d="M 223.820312 389.910156 L 223.820312 399.136719 L 214.59375 399.136719 L 214.59375 389.910156 L 223.820312 389.910156" fill="#66c536"/></g><g id="change2_51"><path d="M 223.820312 380.6875 L 223.820312 389.910156 L 214.59375 389.910156 L 214.59375 380.6875 L 223.820312 380.6875" fill="#66c536"/></g><g id="change4_74"><path d="M 223.820312 371.457031 L 223.820312 380.6875 L 214.59375 380.6875 L 214.59375 371.457031 L 223.820312 371.457031" fill="#358e3f"/></g><g id="change4_75"><path d="M 223.820312 362.230469 L 223.820312 371.457031 L 214.59375 371.457031 L 214.59375 362.230469 L 223.820312 362.230469" fill="#358e3f"/></g><g id="change1_132"><path d="M 223.820312 353 L 223.820312 362.230469 L 214.59375 362.230469 L 214.59375 353 L 223.820312 353" fill="#1d381e"/></g><g id="change1_133"><path d="M 223.820312 343.777344 L 223.820312 353 L 214.59375 353 L 214.59375 343.777344 L 223.820312 343.777344" fill="#1d381e"/></g><g id="change4_76"><path d="M 223.820312 334.550781 L 223.820312 343.777344 L 214.59375 343.777344 L 214.59375 334.550781 L 223.820312 334.550781" fill="#358e3f"/></g><g id="change3_43"><path d="M 223.820312 325.320312 L 223.820312 334.550781 L 214.59375 334.550781 L 214.59375 325.320312 L 223.820312 325.320312" fill="#a1ca21"/></g><g id="change3_44"><path d="M 223.820312 316.089844 L 223.820312 325.320312 L 214.59375 325.320312 L 214.59375 316.089844 L 223.820312 316.089844" fill="#a1ca21"/></g><g id="change1_134"><path d="M 223.820312 306.867188 L 223.820312 316.089844 L 214.59375 316.089844 L 214.59375 306.867188 L 223.820312 306.867188" fill="#1d381e"/></g><g id="change1_135"><path d="M 223.820312 297.640625 L 223.820312 306.867188 L 214.59375 306.867188 L 214.59375 297.640625 L 223.820312 297.640625" fill="#1d381e"/></g><g id="change1_136"><path d="M 223.820312 288.410156 L 223.820312 297.640625 L 214.59375 297.640625 L 214.59375 288.410156 L 223.820312 288.410156" fill="#1d381e"/></g><g id="change1_137"><path d="M 223.820312 279.183594 L 223.820312 288.410156 L 214.59375 288.410156 L 214.59375 279.183594 L 223.820312 279.183594" fill="#1d381e"/></g><g id="change4_77"><path d="M 223.820312 269.953125 L 223.820312 279.183594 L 214.59375 279.183594 L 214.59375 269.953125 L 223.820312 269.953125" fill="#358e3f"/></g><g id="change4_78"><path d="M 223.820312 260.730469 L 223.820312 269.953125 L 214.59375 269.953125 L 214.59375 260.730469 L 223.820312 260.730469" fill="#358e3f"/></g><g id="change4_79"><path d="M 223.820312 251.503906 L 223.820312 260.730469 L 214.59375 260.730469 L 214.59375 251.503906 L 223.820312 251.503906" fill="#358e3f"/></g><g id="change2_52"><path d="M 223.820312 242.273438 L 223.820312 251.503906 L 214.59375 251.503906 L 214.59375 242.273438 L 223.820312 242.273438" fill="#66c536"/></g><g id="change1_138"><path d="M 223.820312 233.046875 L 223.820312 242.273438 L 214.59375 242.273438 L 214.59375 233.046875 L 223.820312 233.046875" fill="#1d381e"/></g><g id="change1_139"><path d="M 214.59375 389.910156 L 214.59375 399.136719 L 205.363281 399.136719 L 205.363281 389.910156 L 214.59375 389.910156" fill="#1d381e"/></g><g id="change2_53"><path d="M 214.59375 380.6875 L 214.59375 389.910156 L 205.363281 389.910156 L 205.363281 380.6875 L 214.59375 380.6875" fill="#66c536"/></g><g id="change2_54"><path d="M 214.59375 371.457031 L 214.59375 380.6875 L 205.363281 380.6875 L 205.363281 371.457031 L 214.59375 371.457031" fill="#66c536"/></g><g id="change2_55"><path d="M 214.59375 362.230469 L 214.59375 371.457031 L 205.363281 371.457031 L 205.363281 362.230469 L 214.59375 362.230469" fill="#66c536"/></g><g id="change1_140"><path d="M 214.59375 353 L 214.59375 362.230469 L 205.363281 362.230469 L 205.363281 353 L 214.59375 353" fill="#1d381e"/></g><g id="change1_141"><path d="M 214.59375 343.777344 L 214.59375 353 L 205.363281 353 L 205.363281 343.777344 L 214.59375 343.777344" fill="#1d381e"/></g><g id="change1_142"><path d="M 214.59375 334.550781 L 214.59375 343.777344 L 205.363281 343.777344 L 205.363281 334.550781 L 214.59375 334.550781" fill="#1d381e"/></g><g id="change4_80"><path d="M 214.59375 325.320312 L 214.59375 334.550781 L 205.363281 334.550781 L 205.363281 325.320312 L 214.59375 325.320312" fill="#358e3f"/></g><g id="change3_45"><path d="M 214.59375 316.089844 L 214.59375 325.320312 L 205.363281 325.320312 L 205.363281 316.089844 L 214.59375 316.089844" fill="#a1ca21"/></g><g id="change3_46"><path d="M 214.59375 306.867188 L 214.59375 316.089844 L 205.363281 316.089844 L 205.363281 306.867188 L 214.59375 306.867188" fill="#a1ca21"/></g><g id="change1_143"><path d="M 214.59375 297.640625 L 214.59375 306.867188 L 205.363281 306.867188 L 205.363281 297.640625 L 214.59375 297.640625" fill="#1d381e"/></g><g id="change1_144"><path d="M 214.59375 269.953125 L 214.59375 279.183594 L 205.363281 279.183594 L 205.363281 269.953125 L 214.59375 269.953125" fill="#1d381e"/></g><g id="change1_145"><path d="M 214.59375 260.730469 L 214.59375 269.953125 L 205.363281 269.953125 L 205.363281 260.730469 L 214.59375 260.730469" fill="#1d381e"/></g><g id="change1_146"><path d="M 214.59375 251.503906 L 214.59375 260.730469 L 205.363281 260.730469 L 205.363281 251.503906 L 214.59375 251.503906" fill="#1d381e"/></g><g id="change1_147"><path d="M 214.59375 242.273438 L 214.59375 251.503906 L 205.363281 251.503906 L 205.363281 242.273438 L 214.59375 242.273438" fill="#1d381e"/></g><g id="change1_148"><path d="M 214.59375 233.046875 L 214.59375 242.273438 L 205.363281 242.273438 L 205.363281 233.046875 L 214.59375 233.046875" fill="#1d381e"/></g><g id="change1_149"><path d="M 205.363281 380.6875 L 205.363281 389.910156 L 196.144531 389.910156 L 196.144531 380.6875 L 205.363281 380.6875" fill="#1d381e"/></g><g id="change1_150"><path d="M 205.363281 371.457031 L 205.363281 380.6875 L 196.144531 380.6875 L 196.144531 371.457031 L 205.363281 371.457031" fill="#1d381e"/></g><g id="change2_56"><path d="M 205.363281 362.230469 L 205.363281 371.457031 L 196.144531 371.457031 L 196.144531 362.230469 L 205.363281 362.230469" fill="#66c536"/></g><g id="change2_57"><path d="M 205.363281 353 L 205.363281 362.230469 L 196.144531 362.230469 L 196.144531 353 L 205.363281 353" fill="#66c536"/></g><g id="change1_151"><path d="M 205.363281 343.777344 L 205.363281 353 L 196.144531 353 L 196.144531 343.777344 L 205.363281 343.777344" fill="#1d381e"/></g><g id="change1_152"><path d="M 205.363281 325.320312 L 205.363281 334.550781 L 196.144531 334.550781 L 196.144531 325.320312 L 205.363281 325.320312" fill="#1d381e"/></g><g id="change1_153"><path d="M 205.363281 316.089844 L 205.363281 325.320312 L 196.144531 325.320312 L 196.144531 316.089844 L 205.363281 316.089844" fill="#1d381e"/></g><g id="change4_81"><path d="M 205.363281 306.867188 L 205.363281 316.089844 L 196.144531 316.089844 L 196.144531 306.867188 L 205.363281 306.867188" fill="#358e3f"/></g><g id="change1_154"><path d="M 205.363281 297.640625 L 205.363281 306.867188 L 196.144531 306.867188 L 196.144531 297.640625 L 205.363281 297.640625" fill="#1d381e"/></g><g id="change1_155"><path d="M 196.144531 362.230469 L 196.144531 371.457031 L 186.914062 371.457031 L 186.914062 362.230469 L 196.144531 362.230469" fill="#1d381e"/></g><g id="change1_156"><path d="M 196.144531 353 L 196.144531 362.230469 L 186.914062 362.230469 L 186.914062 353 L 196.144531 353" fill="#1d381e"/></g><g id="change1_157"><path d="M 196.144531 343.777344 L 196.144531 353 L 186.914062 353 L 186.914062 343.777344 L 196.144531 343.777344" fill="#1d381e"/></g><g id="change1_158"><path d="M 196.144531 316.089844 L 196.144531 325.320312 L 186.914062 325.320312 L 186.914062 316.089844 L 196.144531 316.089844" fill="#1d381e"/></g><g id="change1_159"><path d="M 196.144531 306.867188 L 196.144531 316.089844 L 186.914062 316.089844 L 186.914062 306.867188 L 196.144531 306.867188" fill="#1d381e"/></g><g id="change1_160"><path d="M 196.144531 297.640625 L 196.144531 306.867188 L 186.914062 306.867188 L 186.914062 297.640625 L 196.144531 297.640625" fill="#1d381e"/></g><g id="change1_161"><path d="M 186.914062 306.867188 L 186.914062 316.089844 L 177.683594 316.089844 L 177.683594 306.867188 L 186.914062 306.867188" fill="#1d381e"/></g><g id="change1_162"><path d="M 186.914062 297.640625 L 186.914062 306.867188 L 177.683594 306.867188 L 177.683594 297.640625 L 186.914062 297.640625" fill="#1d381e"/></g></g></svg>