<?xml version="1.0" encoding="UTF-8"?><svg xmlns="http://www.w3.org/2000/svg" xmlns:xlink="http://www.w3.org/1999/xlink" height="99.8" preserveAspectRatio="xMidYMid meet" version="1.0" viewBox="190.7 247.7 213.9 99.8" width="213.9" zoomAndPan="magnify"><g><g id="change1_1"><path d="M 404.570312 333.285156 L 404.570312 340.414062 L 397.441406 340.414062 L 397.441406 333.285156 L 404.570312 333.285156" fill="#1d381e"/></g><g id="change1_2"><path d="M 404.570312 326.15625 L 404.570312 333.285156 L 397.441406 333.285156 L 397.441406 326.15625 L 404.570312 326.15625" fill="#1d381e"/></g><g id="change1_3"><path d="M 397.441406 340.414062 L 397.441406 347.546875 L 390.308594 347.546875 L 390.308594 340.414062 L 397.441406 340.414062" fill="#1d381e"/></g><g id="change1_4"><path d="M 397.441406 333.285156 L 397.441406 340.414062 L 390.308594 340.414062 L 390.308594 333.285156 L 397.441406 333.285156" fill="#1d381e"/></g><g id="change1_5"><path d="M 397.441406 326.15625 L 397.441406 333.285156 L 390.308594 333.285156 L 390.308594 326.15625 L 397.441406 326.15625" fill="#1d381e"/></g><g id="change1_6"><path d="M 397.441406 319.023438 L 397.441406 326.15625 L 390.308594 326.15625 L 390.308594 319.023438 L 397.441406 319.023438" fill="#1d381e"/></g><g id="change1_7"><path d="M 390.308594 340.414062 L 390.308594 347.546875 L 383.179688 347.546875 L 383.179688 340.414062 L 390.308594 340.414062" fill="#1d381e"/></g><g id="change1_8"><path d="M 390.308594 333.285156 L 390.308594 340.414062 L 383.179688 340.414062 L 383.179688 333.285156 L 390.308594 333.285156" fill="#1d381e"/></g><g id="change2_1"><path d="M 390.308594 326.15625 L 390.308594 333.285156 L 383.179688 333.285156 L 383.179688 326.15625 L 390.308594 326.15625" fill="#66c536"/></g><g id="change2_2"><path d="M 390.308594 319.023438 L 390.308594 326.15625 L 383.179688 326.15625 L 383.179688 319.023438 L 390.308594 319.023438" fill="#66c536"/></g><g id="change1_9"><path d="M 390.308594 311.894531 L 390.308594 319.023438 L 383.179688 319.023438 L 383.179688 311.894531 L 390.308594 311.894531" fill="#1d381e"/></g><g id="change1_10"><path d="M 390.308594 304.765625 L 390.308594 311.894531 L 383.179688 311.894531 L 383.179688 304.765625 L 390.308594 304.765625" fill="#1d381e"/></g><g id="change1_11"><path d="M 390.308594 297.636719 L 390.308594 304.765625 L 383.179688 304.765625 L 383.179688 297.636719 L 390.308594 297.636719" fill="#1d381e"/></g><g id="change1_12"><path d="M 390.308594 290.515625 L 390.308594 297.636719 L 383.179688 297.636719 L 383.179688 290.515625 L 390.308594 290.515625" fill="#1d381e"/></g><g id="change1_13"><path d="M 390.308594 283.386719 L 390.308594 290.515625 L 383.179688 290.515625 L 383.179688 283.386719 L 390.308594 283.386719" fill="#1d381e"/></g><g id="change1_14"><path d="M 390.308594 276.253906 L 390.308594 283.386719 L 383.179688 283.386719 L 383.179688 276.253906 L 390.308594 276.253906" fill="#1d381e"/></g><g id="change1_15"><path d="M 383.179688 340.414062 L 383.179688 347.546875 L 376.050781 347.546875 L 376.050781 340.414062 L 383.179688 340.414062" fill="#1d381e"/></g><g id="change3_1"><path d="M 383.179688 333.285156 L 383.179688 340.414062 L 376.050781 340.414062 L 376.050781 333.285156 L 383.179688 333.285156" fill="#2b7735"/></g><g id="change3_2"><path d="M 383.179688 326.15625 L 383.179688 333.285156 L 376.050781 333.285156 L 376.050781 326.15625 L 383.179688 326.15625" fill="#2b7735"/></g><g id="change2_3"><path d="M 383.179688 319.023438 L 383.179688 326.15625 L 376.050781 326.15625 L 376.050781 319.023438 L 383.179688 319.023438" fill="#66c536"/></g><g id="change1_16"><path d="M 383.179688 311.894531 L 383.179688 319.023438 L 376.050781 319.023438 L 376.050781 311.894531 L 383.179688 311.894531" fill="#1d381e"/></g><g id="change1_17"><path d="M 383.179688 304.765625 L 383.179688 311.894531 L 376.050781 311.894531 L 376.050781 304.765625 L 383.179688 304.765625" fill="#1d381e"/></g><g id="change3_3"><path d="M 383.179688 297.636719 L 383.179688 304.765625 L 376.050781 304.765625 L 376.050781 297.636719 L 383.179688 297.636719" fill="#2b7735"/></g><g id="change3_4"><path d="M 383.179688 290.515625 L 383.179688 297.636719 L 376.050781 297.636719 L 376.050781 290.515625 L 383.179688 290.515625" fill="#2b7735"/></g><g id="change2_4"><path d="M 383.179688 283.386719 L 383.179688 290.515625 L 376.050781 290.515625 L 376.050781 283.386719 L 383.179688 283.386719" fill="#66c536"/></g><g id="change1_18"><path d="M 383.179688 276.253906 L 383.179688 283.386719 L 376.050781 283.386719 L 376.050781 276.253906 L 383.179688 276.253906" fill="#1d381e"/></g><g id="change1_19"><path d="M 376.050781 340.414062 L 376.050781 347.546875 L 368.921875 347.546875 L 368.921875 340.414062 L 376.050781 340.414062" fill="#1d381e"/></g><g id="change3_5"><path d="M 376.050781 333.285156 L 376.050781 340.414062 L 368.921875 340.414062 L 368.921875 333.285156 L 376.050781 333.285156" fill="#2b7735"/></g><g id="change3_6"><path d="M 376.050781 326.15625 L 376.050781 333.285156 L 368.921875 333.285156 L 368.921875 326.15625 L 376.050781 326.15625" fill="#2b7735"/></g><g id="change2_5"><path d="M 376.050781 319.023438 L 376.050781 326.15625 L 368.921875 326.15625 L 368.921875 319.023438 L 376.050781 319.023438" fill="#66c536"/></g><g id="change1_20"><path d="M 376.050781 311.894531 L 376.050781 319.023438 L 368.921875 319.023438 L 368.921875 311.894531 L 376.050781 311.894531" fill="#1d381e"/></g><g id="change1_21"><path d="M 376.050781 304.765625 L 376.050781 311.894531 L 368.921875 311.894531 L 368.921875 304.765625 L 376.050781 304.765625" fill="#1d381e"/></g><g id="change3_7"><path d="M 376.050781 297.636719 L 376.050781 304.765625 L 368.921875 304.765625 L 368.921875 297.636719 L 376.050781 297.636719" fill="#2b7735"/></g><g id="change3_8"><path d="M 376.050781 290.515625 L 376.050781 297.636719 L 368.921875 297.636719 L 368.921875 290.515625 L 376.050781 290.515625" fill="#2b7735"/></g><g id="change2_6"><path d="M 376.050781 283.386719 L 376.050781 290.515625 L 368.921875 290.515625 L 368.921875 283.386719 L 376.050781 283.386719" fill="#66c536"/></g><g id="change1_22"><path d="M 376.050781 276.253906 L 376.050781 283.386719 L 368.921875 283.386719 L 368.921875 276.253906 L 376.050781 276.253906" fill="#1d381e"/></g><g id="change1_23"><path d="M 376.050781 269.125 L 376.050781 276.253906 L 368.921875 276.253906 L 368.921875 269.125 L 376.050781 269.125" fill="#1d381e"/></g><g id="change1_24"><path d="M 368.921875 340.414062 L 368.921875 347.546875 L 361.800781 347.546875 L 361.800781 340.414062 L 368.921875 340.414062" fill="#1d381e"/></g><g id="change3_9"><path d="M 368.921875 333.285156 L 368.921875 340.414062 L 361.800781 340.414062 L 361.800781 333.285156 L 368.921875 333.285156" fill="#2b7735"/></g><g id="change3_10"><path d="M 368.921875 326.15625 L 368.921875 333.285156 L 361.800781 333.285156 L 361.800781 326.15625 L 368.921875 326.15625" fill="#2b7735"/></g><g id="change2_7"><path d="M 368.921875 319.023438 L 368.921875 326.15625 L 361.800781 326.15625 L 361.800781 319.023438 L 368.921875 319.023438" fill="#66c536"/></g><g id="change2_8"><path d="M 368.921875 311.894531 L 368.921875 319.023438 L 361.800781 319.023438 L 361.800781 311.894531 L 368.921875 311.894531" fill="#66c536"/></g><g id="change1_25"><path d="M 368.921875 304.765625 L 368.921875 311.894531 L 361.800781 311.894531 L 361.800781 304.765625 L 368.921875 304.765625" fill="#1d381e"/></g><g id="change3_11"><path d="M 368.921875 297.636719 L 368.921875 304.765625 L 361.800781 304.765625 L 361.800781 297.636719 L 368.921875 297.636719" fill="#2b7735"/></g><g id="change3_12"><path d="M 368.921875 290.515625 L 368.921875 297.636719 L 361.800781 297.636719 L 361.800781 290.515625 L 368.921875 290.515625" fill="#2b7735"/></g><g id="change2_9"><path d="M 368.921875 283.386719 L 368.921875 290.515625 L 361.800781 290.515625 L 361.800781 283.386719 L 368.921875 283.386719" fill="#66c536"/></g><g id="change2_10"><path d="M 368.921875 276.253906 L 368.921875 283.386719 L 361.800781 283.386719 L 361.800781 276.253906 L 368.921875 276.253906" fill="#66c536"/></g><g id="change1_26"><path d="M 368.921875 269.125 L 368.921875 276.253906 L 361.800781 276.253906 L 361.800781 269.125 L 368.921875 269.125" fill="#1d381e"/></g><g id="change1_27"><path d="M 361.800781 340.414062 L 361.800781 347.546875 L 354.671875 347.546875 L 354.671875 340.414062 L 361.800781 340.414062" fill="#1d381e"/></g><g id="change3_13"><path d="M 361.800781 333.285156 L 361.800781 340.414062 L 354.671875 340.414062 L 354.671875 333.285156 L 361.800781 333.285156" fill="#2b7735"/></g><g id="change3_14"><path d="M 361.800781 326.15625 L 361.800781 333.285156 L 354.671875 333.285156 L 354.671875 326.15625 L 361.800781 326.15625" fill="#2b7735"/></g><g id="change3_15"><path d="M 361.800781 319.023438 L 361.800781 326.15625 L 354.671875 326.15625 L 354.671875 319.023438 L 361.800781 319.023438" fill="#2b7735"/></g><g id="change2_11"><path d="M 361.800781 311.894531 L 361.800781 319.023438 L 354.671875 319.023438 L 354.671875 311.894531 L 361.800781 311.894531" fill="#66c536"/></g><g id="change1_28"><path d="M 361.800781 304.765625 L 361.800781 311.894531 L 354.671875 311.894531 L 354.671875 304.765625 L 361.800781 304.765625" fill="#1d381e"/></g><g id="change3_16"><path d="M 361.800781 297.636719 L 361.800781 304.765625 L 354.671875 304.765625 L 354.671875 297.636719 L 361.800781 297.636719" fill="#2b7735"/></g><g id="change2_12"><path d="M 361.800781 290.515625 L 361.800781 297.636719 L 354.671875 297.636719 L 354.671875 290.515625 L 361.800781 290.515625" fill="#66c536"/></g><g id="change2_13"><path d="M 361.800781 283.386719 L 361.800781 290.515625 L 354.671875 290.515625 L 354.671875 283.386719 L 361.800781 283.386719" fill="#66c536"/></g><g id="change1_29"><path d="M 361.800781 276.253906 L 361.800781 283.386719 L 354.671875 283.386719 L 354.671875 276.253906 L 361.800781 276.253906" fill="#1d381e"/></g><g id="change1_30"><path d="M 361.800781 269.125 L 361.800781 276.253906 L 354.671875 276.253906 L 354.671875 269.125 L 361.800781 269.125" fill="#1d381e"/></g><g id="change1_31"><path d="M 354.671875 340.414062 L 354.671875 347.546875 L 347.539062 347.546875 L 347.539062 340.414062 L 354.671875 340.414062" fill="#1d381e"/></g><g id="change3_17"><path d="M 354.671875 333.285156 L 354.671875 340.414062 L 347.539062 340.414062 L 347.539062 333.285156 L 354.671875 333.285156" fill="#2b7735"/></g><g id="change3_18"><path d="M 354.671875 326.15625 L 354.671875 333.285156 L 347.539062 333.285156 L 347.539062 326.15625 L 354.671875 326.15625" fill="#2b7735"/></g><g id="change2_14"><path d="M 354.671875 319.023438 L 354.671875 326.15625 L 347.539062 326.15625 L 347.539062 319.023438 L 354.671875 319.023438" fill="#66c536"/></g><g id="change2_15"><path d="M 354.671875 311.894531 L 354.671875 319.023438 L 347.539062 319.023438 L 347.539062 311.894531 L 354.671875 311.894531" fill="#66c536"/></g><g id="change1_32"><path d="M 354.671875 304.765625 L 354.671875 311.894531 L 347.539062 311.894531 L 347.539062 304.765625 L 354.671875 304.765625" fill="#1d381e"/></g><g id="change3_19"><path d="M 354.671875 297.636719 L 354.671875 304.765625 L 347.539062 304.765625 L 347.539062 297.636719 L 354.671875 297.636719" fill="#2b7735"/></g><g id="change2_16"><path d="M 354.671875 290.515625 L 354.671875 297.636719 L 347.539062 297.636719 L 347.539062 290.515625 L 354.671875 290.515625" fill="#66c536"/></g><g id="change2_17"><path d="M 354.671875 283.386719 L 354.671875 290.515625 L 347.539062 290.515625 L 347.539062 283.386719 L 354.671875 283.386719" fill="#66c536"/></g><g id="change1_33"><path d="M 354.671875 276.253906 L 354.671875 283.386719 L 347.539062 283.386719 L 347.539062 276.253906 L 354.671875 276.253906" fill="#1d381e"/></g><g id="change1_34"><path d="M 347.539062 340.414062 L 347.539062 347.546875 L 340.410156 347.546875 L 340.410156 340.414062 L 347.539062 340.414062" fill="#1d381e"/></g><g id="change3_20"><path d="M 347.539062 333.285156 L 347.539062 340.414062 L 340.410156 340.414062 L 340.410156 333.285156 L 347.539062 333.285156" fill="#2b7735"/></g><g id="change3_21"><path d="M 347.539062 326.15625 L 347.539062 333.285156 L 340.410156 333.285156 L 340.410156 326.15625 L 347.539062 326.15625" fill="#2b7735"/></g><g id="change2_18"><path d="M 347.539062 319.023438 L 347.539062 326.15625 L 340.410156 326.15625 L 340.410156 319.023438 L 347.539062 319.023438" fill="#66c536"/></g><g id="change2_19"><path d="M 347.539062 311.894531 L 347.539062 319.023438 L 340.410156 319.023438 L 340.410156 311.894531 L 347.539062 311.894531" fill="#66c536"/></g><g id="change1_35"><path d="M 347.539062 304.765625 L 347.539062 311.894531 L 340.410156 311.894531 L 340.410156 304.765625 L 347.539062 304.765625" fill="#1d381e"/></g><g id="change3_22"><path d="M 347.539062 297.636719 L 347.539062 304.765625 L 340.410156 304.765625 L 340.410156 297.636719 L 347.539062 297.636719" fill="#2b7735"/></g><g id="change2_20"><path d="M 347.539062 290.515625 L 347.539062 297.636719 L 340.410156 297.636719 L 340.410156 290.515625 L 347.539062 290.515625" fill="#66c536"/></g><g id="change1_36"><path d="M 347.539062 283.386719 L 347.539062 290.515625 L 340.410156 290.515625 L 340.410156 283.386719 L 347.539062 283.386719" fill="#1d381e"/></g><g id="change1_37"><path d="M 347.539062 276.253906 L 347.539062 283.386719 L 340.410156 283.386719 L 340.410156 276.253906 L 347.539062 276.253906" fill="#1d381e"/></g><g id="change1_38"><path d="M 340.410156 340.414062 L 340.410156 347.546875 L 333.28125 347.546875 L 333.28125 340.414062 L 340.410156 340.414062" fill="#1d381e"/></g><g id="change3_23"><path d="M 340.410156 333.285156 L 340.410156 340.414062 L 333.28125 340.414062 L 333.28125 333.285156 L 340.410156 333.285156" fill="#2b7735"/></g><g id="change3_24"><path d="M 340.410156 326.15625 L 340.410156 333.285156 L 333.28125 333.285156 L 333.28125 326.15625 L 340.410156 326.15625" fill="#2b7735"/></g><g id="change2_21"><path d="M 340.410156 319.023438 L 340.410156 326.15625 L 333.28125 326.15625 L 333.28125 319.023438 L 340.410156 319.023438" fill="#66c536"/></g><g id="change1_39"><path d="M 340.410156 311.894531 L 340.410156 319.023438 L 333.28125 319.023438 L 333.28125 311.894531 L 340.410156 311.894531" fill="#1d381e"/></g><g id="change3_25"><path d="M 340.410156 304.765625 L 340.410156 311.894531 L 333.28125 311.894531 L 333.28125 304.765625 L 340.410156 304.765625" fill="#2b7735"/></g><g id="change2_22"><path d="M 340.410156 297.636719 L 340.410156 304.765625 L 333.28125 304.765625 L 333.28125 297.636719 L 340.410156 297.636719" fill="#66c536"/></g><g id="change2_23"><path d="M 340.410156 290.515625 L 340.410156 297.636719 L 333.28125 297.636719 L 333.28125 290.515625 L 340.410156 290.515625" fill="#66c536"/></g><g id="change1_40"><path d="M 340.410156 283.386719 L 340.410156 290.515625 L 333.28125 290.515625 L 333.28125 283.386719 L 340.410156 283.386719" fill="#1d381e"/></g><g id="change1_41"><path d="M 340.410156 276.253906 L 340.410156 283.386719 L 333.28125 283.386719 L 333.28125 276.253906 L 340.410156 276.253906" fill="#1d381e"/></g><g id="change1_42"><path d="M 340.410156 269.125 L 340.410156 276.253906 L 333.28125 276.253906 L 333.28125 269.125 L 340.410156 269.125" fill="#1d381e"/></g><g id="change1_43"><path d="M 340.410156 261.996094 L 340.410156 269.125 L 333.28125 269.125 L 333.28125 261.996094 L 340.410156 261.996094" fill="#1d381e"/></g><g id="change1_44"><path d="M 340.410156 254.863281 L 340.410156 261.996094 L 333.28125 261.996094 L 333.28125 254.863281 L 340.410156 254.863281" fill="#1d381e"/></g><g id="change1_45"><path d="M 333.28125 340.414062 L 333.28125 347.546875 L 326.148438 347.546875 L 326.148438 340.414062 L 333.28125 340.414062" fill="#1d381e"/></g><g id="change3_26"><path d="M 333.28125 333.285156 L 333.28125 340.414062 L 326.148438 340.414062 L 326.148438 333.285156 L 333.28125 333.285156" fill="#2b7735"/></g><g id="change2_24"><path d="M 333.28125 326.15625 L 333.28125 333.285156 L 326.148438 333.285156 L 326.148438 326.15625 L 333.28125 326.15625" fill="#66c536"/></g><g id="change2_25"><path d="M 333.28125 319.023438 L 333.28125 326.15625 L 326.148438 326.15625 L 326.148438 319.023438 L 333.28125 319.023438" fill="#66c536"/></g><g id="change1_46"><path d="M 333.28125 311.894531 L 333.28125 319.023438 L 326.148438 319.023438 L 326.148438 311.894531 L 333.28125 311.894531" fill="#1d381e"/></g><g id="change3_27"><path d="M 333.28125 304.765625 L 333.28125 311.894531 L 326.148438 311.894531 L 326.148438 304.765625 L 333.28125 304.765625" fill="#2b7735"/></g><g id="change3_28"><path d="M 333.28125 297.636719 L 333.28125 304.765625 L 326.148438 304.765625 L 326.148438 297.636719 L 333.28125 297.636719" fill="#2b7735"/></g><g id="change1_47"><path d="M 333.28125 290.515625 L 333.28125 297.636719 L 326.148438 297.636719 L 326.148438 290.515625 L 333.28125 290.515625" fill="#1d381e"/></g><g id="change3_29"><path d="M 333.28125 283.386719 L 333.28125 290.515625 L 326.148438 290.515625 L 326.148438 283.386719 L 333.28125 283.386719" fill="#2b7735"/></g><g id="change3_30"><path d="M 333.28125 276.253906 L 333.28125 283.386719 L 326.148438 283.386719 L 326.148438 276.253906 L 333.28125 276.253906" fill="#2b7735"/></g><g id="change3_31"><path d="M 333.28125 269.125 L 333.28125 276.253906 L 326.148438 276.253906 L 326.148438 269.125 L 333.28125 269.125" fill="#2b7735"/></g><g id="change2_26"><path d="M 333.28125 261.996094 L 333.28125 269.125 L 326.148438 269.125 L 326.148438 261.996094 L 333.28125 261.996094" fill="#66c536"/></g><g id="change1_48"><path d="M 333.28125 254.863281 L 333.28125 261.996094 L 326.148438 261.996094 L 326.148438 254.863281 L 333.28125 254.863281" fill="#1d381e"/></g><g id="change1_49"><path d="M 326.148438 340.414062 L 326.148438 347.546875 L 319.019531 347.546875 L 319.019531 340.414062 L 326.148438 340.414062" fill="#1d381e"/></g><g id="change3_32"><path d="M 326.148438 333.285156 L 326.148438 340.414062 L 319.019531 340.414062 L 319.019531 333.285156 L 326.148438 333.285156" fill="#2b7735"/></g><g id="change2_27"><path d="M 326.148438 326.15625 L 326.148438 333.285156 L 319.019531 333.285156 L 319.019531 326.15625 L 326.148438 326.15625" fill="#66c536"/></g><g id="change1_50"><path d="M 326.148438 319.023438 L 326.148438 326.15625 L 319.019531 326.15625 L 319.019531 319.023438 L 326.148438 319.023438" fill="#1d381e"/></g><g id="change1_51"><path d="M 326.148438 311.894531 L 326.148438 319.023438 L 319.019531 319.023438 L 319.019531 311.894531 L 326.148438 311.894531" fill="#1d381e"/></g><g id="change3_33"><path d="M 326.148438 304.765625 L 326.148438 311.894531 L 319.019531 311.894531 L 319.019531 304.765625 L 326.148438 304.765625" fill="#2b7735"/></g><g id="change1_52"><path d="M 326.148438 297.636719 L 326.148438 304.765625 L 319.019531 304.765625 L 319.019531 297.636719 L 326.148438 297.636719" fill="#1d381e"/></g><g id="change1_53"><path d="M 326.148438 290.515625 L 326.148438 297.636719 L 319.019531 297.636719 L 319.019531 290.515625 L 326.148438 290.515625" fill="#1d381e"/></g><g id="change3_34"><path d="M 326.148438 283.386719 L 326.148438 290.515625 L 319.019531 290.515625 L 319.019531 283.386719 L 326.148438 283.386719" fill="#2b7735"/></g><g id="change3_35"><path d="M 326.148438 276.253906 L 326.148438 283.386719 L 319.019531 283.386719 L 319.019531 276.253906 L 326.148438 276.253906" fill="#2b7735"/></g><g id="change3_36"><path d="M 326.148438 269.125 L 326.148438 276.253906 L 319.019531 276.253906 L 319.019531 269.125 L 326.148438 269.125" fill="#2b7735"/></g><g id="change2_28"><path d="M 326.148438 261.996094 L 326.148438 269.125 L 319.019531 269.125 L 319.019531 261.996094 L 326.148438 261.996094" fill="#66c536"/></g><g id="change1_54"><path d="M 326.148438 254.863281 L 326.148438 261.996094 L 319.019531 261.996094 L 319.019531 254.863281 L 326.148438 254.863281" fill="#1d381e"/></g><g id="change1_55"><path d="M 319.019531 340.414062 L 319.019531 347.546875 L 311.890625 347.546875 L 311.890625 340.414062 L 319.019531 340.414062" fill="#1d381e"/></g><g id="change3_37"><path d="M 319.019531 333.285156 L 319.019531 340.414062 L 311.890625 340.414062 L 311.890625 333.285156 L 319.019531 333.285156" fill="#2b7735"/></g><g id="change2_29"><path d="M 319.019531 326.15625 L 319.019531 333.285156 L 311.890625 333.285156 L 311.890625 326.15625 L 319.019531 326.15625" fill="#66c536"/></g><g id="change1_56"><path d="M 319.019531 319.023438 L 319.019531 326.15625 L 311.890625 326.15625 L 311.890625 319.023438 L 319.019531 319.023438" fill="#1d381e"/></g><g id="change1_57"><path d="M 319.019531 311.894531 L 319.019531 319.023438 L 311.890625 319.023438 L 311.890625 311.894531 L 319.019531 311.894531" fill="#1d381e"/></g><g id="change1_58"><path d="M 319.019531 304.765625 L 319.019531 311.894531 L 311.890625 311.894531 L 311.890625 304.765625 L 319.019531 304.765625" fill="#1d381e"/></g><g id="change1_59"><path d="M 319.019531 297.636719 L 319.019531 304.765625 L 311.890625 304.765625 L 311.890625 297.636719 L 319.019531 297.636719" fill="#1d381e"/></g><g id="change1_60"><path d="M 319.019531 290.515625 L 319.019531 297.636719 L 311.890625 297.636719 L 311.890625 290.515625 L 319.019531 290.515625" fill="#1d381e"/></g><g id="change1_61"><path d="M 319.019531 283.386719 L 319.019531 290.515625 L 311.890625 290.515625 L 311.890625 283.386719 L 319.019531 283.386719" fill="#1d381e"/></g><g id="change3_38"><path d="M 319.019531 276.253906 L 319.019531 283.386719 L 311.890625 283.386719 L 311.890625 276.253906 L 319.019531 276.253906" fill="#2b7735"/></g><g id="change2_30"><path d="M 319.019531 269.125 L 319.019531 276.253906 L 311.890625 276.253906 L 311.890625 269.125 L 319.019531 269.125" fill="#66c536"/></g><g id="change2_31"><path d="M 319.019531 261.996094 L 319.019531 269.125 L 311.890625 269.125 L 311.890625 261.996094 L 319.019531 261.996094" fill="#66c536"/></g><g id="change1_62"><path d="M 319.019531 254.863281 L 319.019531 261.996094 L 311.890625 261.996094 L 311.890625 254.863281 L 319.019531 254.863281" fill="#1d381e"/></g><g id="change1_63"><path d="M 311.890625 340.414062 L 311.890625 347.546875 L 304.769531 347.546875 L 304.769531 340.414062 L 311.890625 340.414062" fill="#1d381e"/></g><g id="change3_39"><path d="M 311.890625 333.285156 L 311.890625 340.414062 L 304.769531 340.414062 L 304.769531 333.285156 L 311.890625 333.285156" fill="#2b7735"/></g><g id="change1_64"><path d="M 311.890625 326.15625 L 311.890625 333.285156 L 304.769531 333.285156 L 304.769531 326.15625 L 311.890625 326.15625" fill="#1d381e"/></g><g id="change3_40"><path d="M 311.890625 319.023438 L 311.890625 326.15625 L 304.769531 326.15625 L 304.769531 319.023438 L 311.890625 319.023438" fill="#2b7735"/></g><g id="change3_41"><path d="M 311.890625 311.894531 L 311.890625 319.023438 L 304.769531 319.023438 L 304.769531 311.894531 L 311.890625 311.894531" fill="#2b7735"/></g><g id="change3_42"><path d="M 311.890625 304.765625 L 311.890625 311.894531 L 304.769531 311.894531 L 304.769531 304.765625 L 311.890625 304.765625" fill="#2b7735"/></g><g id="change2_32"><path d="M 311.890625 297.636719 L 311.890625 304.765625 L 304.769531 304.765625 L 304.769531 297.636719 L 311.890625 297.636719" fill="#66c536"/></g><g id="change2_33"><path d="M 311.890625 290.515625 L 311.890625 297.636719 L 304.769531 297.636719 L 304.769531 290.515625 L 311.890625 290.515625" fill="#66c536"/></g><g id="change1_65"><path d="M 311.890625 283.386719 L 311.890625 290.515625 L 304.769531 290.515625 L 304.769531 283.386719 L 311.890625 283.386719" fill="#1d381e"/></g><g id="change1_66"><path d="M 311.890625 276.253906 L 311.890625 283.386719 L 304.769531 283.386719 L 304.769531 276.253906 L 311.890625 276.253906" fill="#1d381e"/></g><g id="change2_34"><path d="M 311.890625 269.125 L 311.890625 276.253906 L 304.769531 276.253906 L 304.769531 269.125 L 311.890625 269.125" fill="#66c536"/></g><g id="change1_67"><path d="M 311.890625 261.996094 L 311.890625 269.125 L 304.769531 269.125 L 304.769531 261.996094 L 311.890625 261.996094" fill="#1d381e"/></g><g id="change1_68"><path d="M 311.890625 254.863281 L 311.890625 261.996094 L 304.769531 261.996094 L 304.769531 254.863281 L 311.890625 254.863281" fill="#1d381e"/></g><g id="change1_69"><path d="M 304.769531 340.414062 L 304.769531 347.546875 L 297.640625 347.546875 L 297.640625 340.414062 L 304.769531 340.414062" fill="#1d381e"/></g><g id="change1_70"><path d="M 304.769531 333.285156 L 304.769531 340.414062 L 297.640625 340.414062 L 297.640625 333.285156 L 304.769531 333.285156" fill="#1d381e"/></g><g id="change3_43"><path d="M 304.769531 326.15625 L 304.769531 333.285156 L 297.640625 333.285156 L 297.640625 326.15625 L 304.769531 326.15625" fill="#2b7735"/></g><g id="change3_44"><path d="M 304.769531 319.023438 L 304.769531 326.15625 L 297.640625 326.15625 L 297.640625 319.023438 L 304.769531 319.023438" fill="#2b7735"/></g><g id="change3_45"><path d="M 304.769531 311.894531 L 304.769531 319.023438 L 297.640625 319.023438 L 297.640625 311.894531 L 304.769531 311.894531" fill="#2b7735"/></g><g id="change3_46"><path d="M 304.769531 304.765625 L 304.769531 311.894531 L 297.640625 311.894531 L 297.640625 304.765625 L 304.769531 304.765625" fill="#2b7735"/></g><g id="change3_47"><path d="M 304.769531 297.636719 L 304.769531 304.765625 L 297.640625 304.765625 L 297.640625 297.636719 L 304.769531 297.636719" fill="#2b7735"/></g><g id="change2_35"><path d="M 304.769531 290.515625 L 304.769531 297.636719 L 297.640625 297.636719 L 297.640625 290.515625 L 304.769531 290.515625" fill="#66c536"/></g><g id="change2_36"><path d="M 304.769531 283.386719 L 304.769531 290.515625 L 297.640625 290.515625 L 297.640625 283.386719 L 304.769531 283.386719" fill="#66c536"/></g><g id="change1_71"><path d="M 304.769531 276.253906 L 304.769531 283.386719 L 297.640625 283.386719 L 297.640625 276.253906 L 304.769531 276.253906" fill="#1d381e"/></g><g id="change1_72"><path d="M 304.769531 269.125 L 304.769531 276.253906 L 297.640625 276.253906 L 297.640625 269.125 L 304.769531 269.125" fill="#1d381e"/></g><g id="change1_73"><path d="M 297.640625 340.414062 L 297.640625 347.546875 L 290.511719 347.546875 L 290.511719 340.414062 L 297.640625 340.414062" fill="#1d381e"/></g><g id="change3_48"><path d="M 297.640625 333.285156 L 297.640625 340.414062 L 290.511719 340.414062 L 290.511719 333.285156 L 297.640625 333.285156" fill="#2b7735"/></g><g id="change3_49"><path d="M 297.640625 326.15625 L 297.640625 333.285156 L 290.511719 333.285156 L 290.511719 326.15625 L 297.640625 326.15625" fill="#2b7735"/></g><g id="change3_50"><path d="M 297.640625 319.023438 L 297.640625 326.15625 L 290.511719 326.15625 L 290.511719 319.023438 L 297.640625 319.023438" fill="#2b7735"/></g><g id="change3_51"><path d="M 297.640625 311.894531 L 297.640625 319.023438 L 290.511719 319.023438 L 290.511719 311.894531 L 297.640625 311.894531" fill="#2b7735"/></g><g id="change3_52"><path d="M 297.640625 304.765625 L 297.640625 311.894531 L 290.511719 311.894531 L 290.511719 304.765625 L 297.640625 304.765625" fill="#2b7735"/></g><g id="change3_53"><path d="M 297.640625 297.636719 L 297.640625 304.765625 L 290.511719 304.765625 L 290.511719 297.636719 L 297.640625 297.636719" fill="#2b7735"/></g><g id="change2_37"><path d="M 297.640625 290.515625 L 297.640625 297.636719 L 290.511719 297.636719 L 290.511719 290.515625 L 297.640625 290.515625" fill="#66c536"/></g><g id="change1_74"><path d="M 297.640625 283.386719 L 297.640625 290.515625 L 290.511719 290.515625 L 290.511719 283.386719 L 297.640625 283.386719" fill="#1d381e"/></g><g id="change1_75"><path d="M 297.640625 276.253906 L 297.640625 283.386719 L 290.511719 283.386719 L 290.511719 276.253906 L 297.640625 276.253906" fill="#1d381e"/></g><g id="change1_76"><path d="M 297.640625 269.125 L 297.640625 276.253906 L 290.511719 276.253906 L 290.511719 269.125 L 297.640625 269.125" fill="#1d381e"/></g><g id="change1_77"><path d="M 297.640625 261.996094 L 297.640625 269.125 L 290.511719 269.125 L 290.511719 261.996094 L 297.640625 261.996094" fill="#1d381e"/></g><g id="change1_78"><path d="M 290.511719 340.414062 L 290.511719 347.546875 L 283.378906 347.546875 L 283.378906 340.414062 L 290.511719 340.414062" fill="#1d381e"/></g><g id="change3_54"><path d="M 290.511719 333.285156 L 290.511719 340.414062 L 283.378906 340.414062 L 283.378906 333.285156 L 290.511719 333.285156" fill="#2b7735"/></g><g id="change3_55"><path d="M 290.511719 326.15625 L 290.511719 333.285156 L 283.378906 333.285156 L 283.378906 326.15625 L 290.511719 326.15625" fill="#2b7735"/></g><g id="change3_56"><path d="M 290.511719 319.023438 L 290.511719 326.15625 L 283.378906 326.15625 L 283.378906 319.023438 L 290.511719 319.023438" fill="#2b7735"/></g><g id="change3_57"><path d="M 290.511719 311.894531 L 290.511719 319.023438 L 283.378906 319.023438 L 283.378906 311.894531 L 290.511719 311.894531" fill="#2b7735"/></g><g id="change3_58"><path d="M 290.511719 304.765625 L 290.511719 311.894531 L 283.378906 311.894531 L 283.378906 304.765625 L 290.511719 304.765625" fill="#2b7735"/></g><g id="change2_38"><path d="M 290.511719 297.636719 L 290.511719 304.765625 L 283.378906 304.765625 L 283.378906 297.636719 L 290.511719 297.636719" fill="#66c536"/></g><g id="change2_39"><path d="M 290.511719 290.515625 L 290.511719 297.636719 L 283.378906 297.636719 L 283.378906 290.515625 L 290.511719 290.515625" fill="#66c536"/></g><g id="change1_79"><path d="M 290.511719 283.386719 L 290.511719 290.515625 L 283.378906 290.515625 L 283.378906 283.386719 L 290.511719 283.386719" fill="#1d381e"/></g><g id="change3_59"><path d="M 290.511719 276.253906 L 290.511719 283.386719 L 283.378906 283.386719 L 283.378906 276.253906 L 290.511719 276.253906" fill="#2b7735"/></g><g id="change2_40"><path d="M 290.511719 269.125 L 290.511719 276.253906 L 283.378906 276.253906 L 283.378906 269.125 L 290.511719 269.125" fill="#66c536"/></g><g id="change1_80"><path d="M 290.511719 261.996094 L 290.511719 269.125 L 283.378906 269.125 L 283.378906 261.996094 L 290.511719 261.996094" fill="#1d381e"/></g><g id="change1_81"><path d="M 290.511719 254.863281 L 290.511719 261.996094 L 283.378906 261.996094 L 283.378906 254.863281 L 290.511719 254.863281" fill="#1d381e"/></g><g id="change1_82"><path d="M 283.378906 340.414062 L 283.378906 347.546875 L 276.25 347.546875 L 276.25 340.414062 L 283.378906 340.414062" fill="#1d381e"/></g><g id="change3_60"><path d="M 283.378906 333.285156 L 283.378906 340.414062 L 276.25 340.414062 L 276.25 333.285156 L 283.378906 333.285156" fill="#2b7735"/></g><g id="change3_61"><path d="M 283.378906 326.15625 L 283.378906 333.285156 L 276.25 333.285156 L 276.25 326.15625 L 283.378906 326.15625" fill="#2b7735"/></g><g id="change3_62"><path d="M 283.378906 319.023438 L 283.378906 326.15625 L 276.25 326.15625 L 276.25 319.023438 L 283.378906 319.023438" fill="#2b7735"/></g><g id="change1_83"><path d="M 283.378906 311.894531 L 283.378906 319.023438 L 276.25 319.023438 L 276.25 311.894531 L 283.378906 311.894531" fill="#1d381e"/></g><g id="change1_84"><path d="M 283.378906 304.765625 L 283.378906 311.894531 L 276.25 311.894531 L 276.25 304.765625 L 283.378906 304.765625" fill="#1d381e"/></g><g id="change1_85"><path d="M 283.378906 297.636719 L 283.378906 304.765625 L 276.25 304.765625 L 276.25 297.636719 L 283.378906 297.636719" fill="#1d381e"/></g><g id="change1_86"><path d="M 283.378906 290.515625 L 283.378906 297.636719 L 276.25 297.636719 L 276.25 290.515625 L 283.378906 290.515625" fill="#1d381e"/></g><g id="change3_63"><path d="M 283.378906 283.386719 L 283.378906 290.515625 L 276.25 290.515625 L 276.25 283.386719 L 283.378906 283.386719" fill="#2b7735"/></g><g id="change3_64"><path d="M 283.378906 276.253906 L 283.378906 283.386719 L 276.25 283.386719 L 276.25 276.253906 L 283.378906 276.253906" fill="#2b7735"/></g><g id="change2_41"><path d="M 283.378906 269.125 L 283.378906 276.253906 L 276.25 276.253906 L 276.25 269.125 L 283.378906 269.125" fill="#66c536"/></g><g id="change2_42"><path d="M 283.378906 261.996094 L 283.378906 269.125 L 276.25 269.125 L 276.25 261.996094 L 283.378906 261.996094" fill="#66c536"/></g><g id="change1_87"><path d="M 283.378906 254.863281 L 283.378906 261.996094 L 276.25 261.996094 L 276.25 254.863281 L 283.378906 254.863281" fill="#1d381e"/></g><g id="change1_88"><path d="M 276.25 340.414062 L 276.25 347.546875 L 269.121094 347.546875 L 269.121094 340.414062 L 276.25 340.414062" fill="#1d381e"/></g><g id="change1_89"><path d="M 276.25 333.285156 L 276.25 340.414062 L 269.121094 340.414062 L 269.121094 333.285156 L 276.25 333.285156" fill="#1d381e"/></g><g id="change1_90"><path d="M 276.25 326.15625 L 276.25 333.285156 L 269.121094 333.285156 L 269.121094 326.15625 L 276.25 326.15625" fill="#1d381e"/></g><g id="change1_91"><path d="M 276.25 319.023438 L 276.25 326.15625 L 269.121094 326.15625 L 269.121094 319.023438 L 276.25 319.023438" fill="#1d381e"/></g><g id="change2_43"><path d="M 276.25 311.894531 L 276.25 319.023438 L 269.121094 319.023438 L 269.121094 311.894531 L 276.25 311.894531" fill="#66c536"/></g><g id="change2_44"><path d="M 276.25 304.765625 L 276.25 311.894531 L 269.121094 311.894531 L 269.121094 304.765625 L 276.25 304.765625" fill="#66c536"/></g><g id="change1_92"><path d="M 276.25 297.636719 L 276.25 304.765625 L 269.121094 304.765625 L 269.121094 297.636719 L 276.25 297.636719" fill="#1d381e"/></g><g id="change1_93"><path d="M 276.25 290.515625 L 276.25 297.636719 L 269.121094 297.636719 L 269.121094 290.515625 L 276.25 290.515625" fill="#1d381e"/></g><g id="change3_65"><path d="M 276.25 283.386719 L 276.25 290.515625 L 269.121094 290.515625 L 269.121094 283.386719 L 276.25 283.386719" fill="#2b7735"/></g><g id="change3_66"><path d="M 276.25 276.253906 L 276.25 283.386719 L 269.121094 283.386719 L 269.121094 276.253906 L 276.25 276.253906" fill="#2b7735"/></g><g id="change3_67"><path d="M 276.25 269.125 L 276.25 276.253906 L 269.121094 276.253906 L 269.121094 269.125 L 276.25 269.125" fill="#2b7735"/></g><g id="change2_45"><path d="M 276.25 261.996094 L 276.25 269.125 L 269.121094 269.125 L 269.121094 261.996094 L 276.25 261.996094" fill="#66c536"/></g><g id="change2_46"><path d="M 276.25 254.863281 L 276.25 261.996094 L 269.121094 261.996094 L 269.121094 254.863281 L 276.25 254.863281" fill="#66c536"/></g><g id="change1_94"><path d="M 276.25 247.734375 L 276.25 254.863281 L 269.121094 254.863281 L 269.121094 247.734375 L 276.25 247.734375" fill="#1d381e"/></g><g id="change1_95"><path d="M 269.121094 340.414062 L 269.121094 347.546875 L 261.988281 347.546875 L 261.988281 340.414062 L 269.121094 340.414062" fill="#1d381e"/></g><g id="change3_68"><path d="M 269.121094 333.285156 L 269.121094 340.414062 L 261.988281 340.414062 L 261.988281 333.285156 L 269.121094 333.285156" fill="#2b7735"/></g><g id="change3_69"><path d="M 269.121094 326.15625 L 269.121094 333.285156 L 261.988281 333.285156 L 261.988281 326.15625 L 269.121094 326.15625" fill="#2b7735"/></g><g id="change1_96"><path d="M 269.121094 319.023438 L 269.121094 326.15625 L 261.988281 326.15625 L 261.988281 319.023438 L 269.121094 319.023438" fill="#1d381e"/></g><g id="change3_70"><path d="M 269.121094 311.894531 L 269.121094 319.023438 L 261.988281 319.023438 L 261.988281 311.894531 L 269.121094 311.894531" fill="#2b7735"/></g><g id="change2_47"><path d="M 269.121094 304.765625 L 269.121094 311.894531 L 261.988281 311.894531 L 261.988281 304.765625 L 269.121094 304.765625" fill="#66c536"/></g><g id="change2_48"><path d="M 269.121094 297.636719 L 269.121094 304.765625 L 261.988281 304.765625 L 261.988281 297.636719 L 269.121094 297.636719" fill="#66c536"/></g><g id="change1_97"><path d="M 269.121094 290.515625 L 269.121094 297.636719 L 261.988281 297.636719 L 261.988281 290.515625 L 269.121094 290.515625" fill="#1d381e"/></g><g id="change1_98"><path d="M 269.121094 283.386719 L 269.121094 290.515625 L 261.988281 290.515625 L 261.988281 283.386719 L 269.121094 283.386719" fill="#1d381e"/></g><g id="change3_71"><path d="M 269.121094 276.253906 L 269.121094 283.386719 L 261.988281 283.386719 L 261.988281 276.253906 L 269.121094 276.253906" fill="#2b7735"/></g><g id="change3_72"><path d="M 269.121094 269.125 L 269.121094 276.253906 L 261.988281 276.253906 L 261.988281 269.125 L 269.121094 269.125" fill="#2b7735"/></g><g id="change2_49"><path d="M 269.121094 261.996094 L 269.121094 269.125 L 261.988281 269.125 L 261.988281 261.996094 L 269.121094 261.996094" fill="#66c536"/></g><g id="change2_50"><path d="M 269.121094 254.863281 L 269.121094 261.996094 L 261.988281 261.996094 L 261.988281 254.863281 L 269.121094 254.863281" fill="#66c536"/></g><g id="change1_99"><path d="M 269.121094 247.734375 L 269.121094 254.863281 L 261.988281 254.863281 L 261.988281 247.734375 L 269.121094 247.734375" fill="#1d381e"/></g><g id="change1_100"><path d="M 261.988281 340.414062 L 261.988281 347.546875 L 254.859375 347.546875 L 254.859375 340.414062 L 261.988281 340.414062" fill="#1d381e"/></g><g id="change3_73"><path d="M 261.988281 333.285156 L 261.988281 340.414062 L 254.859375 340.414062 L 254.859375 333.285156 L 261.988281 333.285156" fill="#2b7735"/></g><g id="change3_74"><path d="M 261.988281 326.15625 L 261.988281 333.285156 L 254.859375 333.285156 L 254.859375 326.15625 L 261.988281 326.15625" fill="#2b7735"/></g><g id="change1_101"><path d="M 261.988281 319.023438 L 261.988281 326.15625 L 254.859375 326.15625 L 254.859375 319.023438 L 261.988281 319.023438" fill="#1d381e"/></g><g id="change1_102"><path d="M 261.988281 311.894531 L 261.988281 319.023438 L 254.859375 319.023438 L 254.859375 311.894531 L 261.988281 311.894531" fill="#1d381e"/></g><g id="change3_75"><path d="M 261.988281 304.765625 L 261.988281 311.894531 L 254.859375 311.894531 L 254.859375 304.765625 L 261.988281 304.765625" fill="#2b7735"/></g><g id="change2_51"><path d="M 261.988281 297.636719 L 261.988281 304.765625 L 254.859375 304.765625 L 254.859375 297.636719 L 261.988281 297.636719" fill="#66c536"/></g><g id="change2_52"><path d="M 261.988281 290.515625 L 261.988281 297.636719 L 254.859375 297.636719 L 254.859375 290.515625 L 261.988281 290.515625" fill="#66c536"/></g><g id="change1_103"><path d="M 261.988281 283.386719 L 261.988281 290.515625 L 254.859375 290.515625 L 254.859375 283.386719 L 261.988281 283.386719" fill="#1d381e"/></g><g id="change1_104"><path d="M 261.988281 276.253906 L 261.988281 283.386719 L 254.859375 283.386719 L 254.859375 276.253906 L 261.988281 276.253906" fill="#1d381e"/></g><g id="change1_105"><path d="M 261.988281 269.125 L 261.988281 276.253906 L 254.859375 276.253906 L 254.859375 269.125 L 261.988281 269.125" fill="#1d381e"/></g><g id="change1_106"><path d="M 261.988281 261.996094 L 261.988281 269.125 L 254.859375 269.125 L 254.859375 261.996094 L 261.988281 261.996094" fill="#1d381e"/></g><g id="change1_107"><path d="M 261.988281 254.863281 L 261.988281 261.996094 L 254.859375 261.996094 L 254.859375 254.863281 L 261.988281 254.863281" fill="#1d381e"/></g><g id="change1_108"><path d="M 254.859375 340.414062 L 254.859375 347.546875 L 247.738281 347.546875 L 247.738281 340.414062 L 254.859375 340.414062" fill="#1d381e"/></g><g id="change3_76"><path d="M 254.859375 333.285156 L 254.859375 340.414062 L 247.738281 340.414062 L 247.738281 333.285156 L 254.859375 333.285156" fill="#2b7735"/></g><g id="change3_77"><path d="M 254.859375 326.15625 L 254.859375 333.285156 L 247.738281 333.285156 L 247.738281 326.15625 L 254.859375 326.15625" fill="#2b7735"/></g><g id="change2_53"><path d="M 254.859375 319.023438 L 254.859375 326.15625 L 247.738281 326.15625 L 247.738281 319.023438 L 254.859375 319.023438" fill="#66c536"/></g><g id="change1_109"><path d="M 254.859375 311.894531 L 254.859375 319.023438 L 247.738281 319.023438 L 247.738281 311.894531 L 254.859375 311.894531" fill="#1d381e"/></g><g id="change3_78"><path d="M 254.859375 304.765625 L 254.859375 311.894531 L 247.738281 311.894531 L 247.738281 304.765625 L 254.859375 304.765625" fill="#2b7735"/></g><g id="change3_79"><path d="M 254.859375 297.636719 L 254.859375 304.765625 L 247.738281 304.765625 L 247.738281 297.636719 L 254.859375 297.636719" fill="#2b7735"/></g><g id="change2_54"><path d="M 254.859375 290.515625 L 254.859375 297.636719 L 247.738281 297.636719 L 247.738281 290.515625 L 254.859375 290.515625" fill="#66c536"/></g><g id="change1_110"><path d="M 254.859375 283.386719 L 254.859375 290.515625 L 247.738281 290.515625 L 247.738281 283.386719 L 254.859375 283.386719" fill="#1d381e"/></g><g id="change1_111"><path d="M 247.738281 340.414062 L 247.738281 347.546875 L 240.609375 347.546875 L 240.609375 340.414062 L 247.738281 340.414062" fill="#1d381e"/></g><g id="change3_80"><path d="M 247.738281 333.285156 L 247.738281 340.414062 L 240.609375 340.414062 L 240.609375 333.285156 L 247.738281 333.285156" fill="#2b7735"/></g><g id="change3_81"><path d="M 247.738281 326.15625 L 247.738281 333.285156 L 240.609375 333.285156 L 240.609375 326.15625 L 247.738281 326.15625" fill="#2b7735"/></g><g id="change2_55"><path d="M 247.738281 319.023438 L 247.738281 326.15625 L 240.609375 326.15625 L 240.609375 319.023438 L 247.738281 319.023438" fill="#66c536"/></g><g id="change1_112"><path d="M 247.738281 311.894531 L 247.738281 319.023438 L 240.609375 319.023438 L 240.609375 311.894531 L 247.738281 311.894531" fill="#1d381e"/></g><g id="change3_82"><path d="M 247.738281 304.765625 L 247.738281 311.894531 L 240.609375 311.894531 L 240.609375 304.765625 L 247.738281 304.765625" fill="#2b7735"/></g><g id="change3_83"><path d="M 247.738281 297.636719 L 247.738281 304.765625 L 240.609375 304.765625 L 240.609375 297.636719 L 247.738281 297.636719" fill="#2b7735"/></g><g id="change2_56"><path d="M 247.738281 290.515625 L 247.738281 297.636719 L 240.609375 297.636719 L 240.609375 290.515625 L 247.738281 290.515625" fill="#66c536"/></g><g id="change1_113"><path d="M 247.738281 283.386719 L 247.738281 290.515625 L 240.609375 290.515625 L 240.609375 283.386719 L 247.738281 283.386719" fill="#1d381e"/></g><g id="change1_114"><path d="M 240.609375 340.414062 L 240.609375 347.546875 L 233.480469 347.546875 L 233.480469 340.414062 L 240.609375 340.414062" fill="#1d381e"/></g><g id="change3_84"><path d="M 240.609375 333.285156 L 240.609375 340.414062 L 233.480469 340.414062 L 233.480469 333.285156 L 240.609375 333.285156" fill="#2b7735"/></g><g id="change3_85"><path d="M 240.609375 326.15625 L 240.609375 333.285156 L 233.480469 333.285156 L 233.480469 326.15625 L 240.609375 326.15625" fill="#2b7735"/></g><g id="change2_57"><path d="M 240.609375 319.023438 L 240.609375 326.15625 L 233.480469 326.15625 L 233.480469 319.023438 L 240.609375 319.023438" fill="#66c536"/></g><g id="change1_115"><path d="M 240.609375 311.894531 L 240.609375 319.023438 L 233.480469 319.023438 L 233.480469 311.894531 L 240.609375 311.894531" fill="#1d381e"/></g><g id="change3_86"><path d="M 240.609375 304.765625 L 240.609375 311.894531 L 233.480469 311.894531 L 233.480469 304.765625 L 240.609375 304.765625" fill="#2b7735"/></g><g id="change3_87"><path d="M 240.609375 297.636719 L 240.609375 304.765625 L 233.480469 304.765625 L 233.480469 297.636719 L 240.609375 297.636719" fill="#2b7735"/></g><g id="change2_58"><path d="M 240.609375 290.515625 L 240.609375 297.636719 L 233.480469 297.636719 L 233.480469 290.515625 L 240.609375 290.515625" fill="#66c536"/></g><g id="change1_116"><path d="M 240.609375 283.386719 L 240.609375 290.515625 L 233.480469 290.515625 L 233.480469 283.386719 L 240.609375 283.386719" fill="#1d381e"/></g><g id="change1_117"><path d="M 233.480469 340.414062 L 233.480469 347.546875 L 226.351562 347.546875 L 226.351562 340.414062 L 233.480469 340.414062" fill="#1d381e"/></g><g id="change3_88"><path d="M 233.480469 333.285156 L 233.480469 340.414062 L 226.351562 340.414062 L 226.351562 333.285156 L 233.480469 333.285156" fill="#2b7735"/></g><g id="change3_89"><path d="M 233.480469 326.15625 L 233.480469 333.285156 L 226.351562 333.285156 L 226.351562 326.15625 L 233.480469 326.15625" fill="#2b7735"/></g><g id="change2_59"><path d="M 233.480469 319.023438 L 233.480469 326.15625 L 226.351562 326.15625 L 226.351562 319.023438 L 233.480469 319.023438" fill="#66c536"/></g><g id="change1_118"><path d="M 233.480469 311.894531 L 233.480469 319.023438 L 226.351562 319.023438 L 226.351562 311.894531 L 233.480469 311.894531" fill="#1d381e"/></g><g id="change3_90"><path d="M 233.480469 304.765625 L 233.480469 311.894531 L 226.351562 311.894531 L 226.351562 304.765625 L 233.480469 304.765625" fill="#2b7735"/></g><g id="change3_91"><path d="M 233.480469 297.636719 L 233.480469 304.765625 L 226.351562 304.765625 L 226.351562 297.636719 L 233.480469 297.636719" fill="#2b7735"/></g><g id="change2_60"><path d="M 233.480469 290.515625 L 233.480469 297.636719 L 226.351562 297.636719 L 226.351562 290.515625 L 233.480469 290.515625" fill="#66c536"/></g><g id="change1_119"><path d="M 233.480469 283.386719 L 233.480469 290.515625 L 226.351562 290.515625 L 226.351562 283.386719 L 233.480469 283.386719" fill="#1d381e"/></g><g id="change1_120"><path d="M 226.351562 340.414062 L 226.351562 347.546875 L 219.21875 347.546875 L 219.21875 340.414062 L 226.351562 340.414062" fill="#1d381e"/></g><g id="change3_92"><path d="M 226.351562 333.285156 L 226.351562 340.414062 L 219.21875 340.414062 L 219.21875 333.285156 L 226.351562 333.285156" fill="#2b7735"/></g><g id="change3_93"><path d="M 226.351562 326.15625 L 226.351562 333.285156 L 219.21875 333.285156 L 219.21875 326.15625 L 226.351562 326.15625" fill="#2b7735"/></g><g id="change2_61"><path d="M 226.351562 319.023438 L 226.351562 326.15625 L 219.21875 326.15625 L 219.21875 319.023438 L 226.351562 319.023438" fill="#66c536"/></g><g id="change1_121"><path d="M 226.351562 311.894531 L 226.351562 319.023438 L 219.21875 319.023438 L 219.21875 311.894531 L 226.351562 311.894531" fill="#1d381e"/></g><g id="change1_122"><path d="M 226.351562 304.765625 L 226.351562 311.894531 L 219.21875 311.894531 L 219.21875 304.765625 L 226.351562 304.765625" fill="#1d381e"/></g><g id="change3_94"><path d="M 226.351562 297.636719 L 226.351562 304.765625 L 219.21875 304.765625 L 219.21875 297.636719 L 226.351562 297.636719" fill="#2b7735"/></g><g id="change2_62"><path d="M 226.351562 290.515625 L 226.351562 297.636719 L 219.21875 297.636719 L 219.21875 290.515625 L 226.351562 290.515625" fill="#66c536"/></g><g id="change1_123"><path d="M 226.351562 283.386719 L 226.351562 290.515625 L 219.21875 290.515625 L 219.21875 283.386719 L 226.351562 283.386719" fill="#1d381e"/></g><g id="change1_124"><path d="M 219.21875 340.414062 L 219.21875 347.546875 L 212.089844 347.546875 L 212.089844 340.414062 L 219.21875 340.414062" fill="#1d381e"/></g><g id="change3_95"><path d="M 219.21875 333.285156 L 219.21875 340.414062 L 212.089844 340.414062 L 212.089844 333.285156 L 219.21875 333.285156" fill="#2b7735"/></g><g id="change2_63"><path d="M 219.21875 326.15625 L 219.21875 333.285156 L 212.089844 333.285156 L 212.089844 326.15625 L 219.21875 326.15625" fill="#66c536"/></g><g id="change1_125"><path d="M 219.21875 319.023438 L 219.21875 326.15625 L 212.089844 326.15625 L 212.089844 319.023438 L 219.21875 319.023438" fill="#1d381e"/></g><g id="change1_126"><path d="M 219.21875 311.894531 L 219.21875 319.023438 L 212.089844 319.023438 L 212.089844 311.894531 L 219.21875 311.894531" fill="#1d381e"/></g><g id="change1_127"><path d="M 219.21875 304.765625 L 219.21875 311.894531 L 212.089844 311.894531 L 212.089844 304.765625 L 219.21875 304.765625" fill="#1d381e"/></g><g id="change1_128"><path d="M 219.21875 297.636719 L 219.21875 304.765625 L 212.089844 304.765625 L 212.089844 297.636719 L 219.21875 297.636719" fill="#1d381e"/></g><g id="change1_129"><path d="M 219.21875 290.515625 L 219.21875 297.636719 L 212.089844 297.636719 L 212.089844 290.515625 L 219.21875 290.515625" fill="#1d381e"/></g><g id="change1_130"><path d="M 219.21875 283.386719 L 219.21875 290.515625 L 212.089844 290.515625 L 212.089844 283.386719 L 219.21875 283.386719" fill="#1d381e"/></g><g id="change1_131"><path d="M 212.089844 340.414062 L 212.089844 347.546875 L 204.960938 347.546875 L 204.960938 340.414062 L 212.089844 340.414062" fill="#1d381e"/></g><g id="change2_64"><path d="M 212.089844 333.285156 L 212.089844 340.414062 L 204.960938 340.414062 L 204.960938 333.285156 L 212.089844 333.285156" fill="#66c536"/></g><g id="change2_65"><path d="M 212.089844 326.15625 L 212.089844 333.285156 L 204.960938 333.285156 L 204.960938 326.15625 L 212.089844 326.15625" fill="#66c536"/></g><g id="change1_132"><path d="M 212.089844 319.023438 L 212.089844 326.15625 L 204.960938 326.15625 L 204.960938 319.023438 L 212.089844 319.023438" fill="#1d381e"/></g><g id="change1_133"><path d="M 204.960938 340.414062 L 204.960938 347.546875 L 197.839844 347.546875 L 197.839844 340.414062 L 204.960938 340.414062" fill="#1d381e"/></g><g id="change2_66"><path d="M 204.960938 333.285156 L 204.960938 340.414062 L 197.839844 340.414062 L 197.839844 333.285156 L 204.960938 333.285156" fill="#66c536"/></g><g id="change1_134"><path d="M 204.960938 326.15625 L 204.960938 333.285156 L 197.839844 333.285156 L 197.839844 326.15625 L 204.960938 326.15625" fill="#1d381e"/></g><g id="change1_135"><path d="M 204.960938 319.023438 L 204.960938 326.15625 L 197.839844 326.15625 L 197.839844 319.023438 L 204.960938 319.023438" fill="#1d381e"/></g><g id="change1_136"><path d="M 197.839844 333.285156 L 197.839844 340.414062 L 190.710938 340.414062 L 190.710938 333.285156 L 197.839844 333.285156" fill="#1d381e"/></g><g id="change1_137"><path d="M 197.839844 326.15625 L 197.839844 333.285156 L 190.710938 333.285156 L 190.710938 326.15625 L 197.839844 326.15625" fill="#1d381e"/></g></g></svg>