<?xml version="1.0" encoding="UTF-8" standalone="no"?><svg xmlns="http://www.w3.org/2000/svg" xmlns:xlink="http://www.w3.org/1999/xlink" fill="#2238cf" height="690" preserveAspectRatio="xMidYMid meet" version="1" viewBox="178.1 292.8 919.4 690.0" width="919.4" zoomAndPan="magnify"><defs><clipPath id="a"><path d="M 0 0 L 1275.589844 0 L 1275.589844 1275.589844 L 0 1275.589844 Z M 0 0"/></clipPath></defs><g><g clip-path="url(#a)"/><g id="change1_1"><path d="M 525.972656 982.796875 L 550.820312 982.796875 L 550.820312 834.9375 L 575.671875 834.9375 L 575.671875 810.296875 L 1022.96875 810.296875 L 1022.96875 785.652344 L 1047.820312 785.652344 L 1047.820312 761.007812 L 1072.671875 761.007812 L 1072.671875 736.367188 L 1097.519531 736.367188 L 1097.519531 366.722656 L 1072.671875 366.722656 L 1072.671875 342.082031 L 1047.820312 342.082031 L 1047.820312 317.4375 L 1022.96875 317.4375 L 1022.96875 292.796875 C 774.472656 292.796875 525.972656 292.796875 277.472656 292.796875 L 277.472656 317.4375 L 252.621094 317.4375 L 252.621094 342.082031 L 227.769531 342.082031 L 227.769531 366.722656 L 202.921875 366.722656 L 202.921875 736.367188 L 227.769531 736.367188 L 227.769531 761.007812 L 252.621094 761.007812 L 252.621094 785.652344 L 277.472656 785.652344 L 277.472656 810.296875 C 327.171875 810.296875 376.871094 810.296875 426.570312 810.296875 L 426.570312 834.9375 L 451.421875 834.9375 L 451.421875 884.222656 L 476.269531 884.222656 L 476.269531 933.507812 L 501.121094 933.507812 L 501.121094 958.152344 L 525.972656 958.152344 L 525.972656 982.796875" fill="inherit" fill-rule="evenodd"/></g><g id="change2_1"><path d="M 501.121094 982.796875 L 525.972656 982.796875 L 525.972656 834.9375 L 550.820312 834.9375 L 550.820312 810.296875 L 998.121094 810.296875 L 998.121094 785.652344 L 1022.96875 785.652344 L 1022.96875 761.007812 L 1047.820312 761.007812 L 1047.820312 736.367188 L 1072.671875 736.367188 L 1072.671875 366.722656 L 1047.820312 366.722656 L 1047.820312 342.082031 L 1022.96875 342.082031 L 1022.96875 317.4375 L 998.121094 317.4375 L 998.121094 292.796875 C 749.621094 292.796875 501.121094 292.796875 252.621094 292.796875 L 252.621094 317.4375 L 227.769531 317.4375 L 227.769531 342.082031 L 202.921875 342.082031 L 202.921875 366.722656 L 178.070312 366.722656 L 178.070312 736.367188 L 202.921875 736.367188 L 202.921875 761.007812 L 227.769531 761.007812 L 227.769531 785.652344 L 252.621094 785.652344 L 252.621094 810.296875 C 302.320312 810.296875 352.019531 810.296875 401.722656 810.296875 L 401.722656 834.9375 L 426.570312 834.9375 L 426.570312 884.222656 L 451.421875 884.222656 L 451.421875 933.507812 L 476.269531 933.507812 L 476.269531 958.152344 L 501.121094 958.152344 L 501.121094 982.796875" fill="#020b49" fill-rule="evenodd"/></g></g></svg>