<?xml version="1.0" encoding="UTF-8"?><svg xmlns="http://www.w3.org/2000/svg" xmlns:xlink="http://www.w3.org/1999/xlink" height="500.0" preserveAspectRatio="xMidYMid meet" version="1.0" viewBox="0.0 0.0 500.0 500.0" width="500.0" zoomAndPan="magnify"><g><g id="change1_1"><path d="M281.9 500L281.9 456.6 218.1 456.6 218.1 500 21.7 500 21.7 456.6 0 456.6 0 130.1 21.7 130.1 21.7 86.7 65 86.7 65 43.4 86.7 43.4 86.7 0 196.4 0 196.4 43.4 261.5 43.4 303.6 43.4 303.6 0 413.3 0 413.3 43.4 434.9 43.4 434.9 86.7 478.3 86.7 478.3 130.1 500 130.1 500 456.6 478.3 456.6 478.3 500z" fill="#fff"/></g><g id="change2_1"><path d="M184.9 54.9L184.9 11.5 163.2 11.5 141.6 11.5 119.9 11.5 98.2 11.5 98.2 54.9 76.5 54.9 76.5 98.2 54.8 98.2 33.2 98.2 33.2 141.6 11.5 141.6 11.5 185 11.5 228.3 11.5 271.7 11.5 315 11.5 358.4 11.5 401.8 11.5 445.1 33.2 445.1 33.2 488.5 54.9 488.5 76.5 488.5 98.2 488.5 119.9 488.5 141.6 488.5 163.3 488.5 184.9 488.5 206.6 488.5 206.6 445.1 228.3 445.1 250 445.1 271.7 445.1 293.4 445.1 293.4 488.5 315 488.5 336.7 488.5 358.4 488.5 380.1 488.5 401.7 488.5 423.4 488.5 445.1 488.5 466.8 488.5 466.8 445.1 488.5 445.1 488.5 401.8 488.5 358.4 488.5 315 488.5 271.7 488.5 228.3 488.5 185 488.5 141.6 466.8 141.6 466.8 98.2 445.1 98.2 423.5 98.2 423.5 54.9 401.8 54.9 401.8 11.5 380.1 11.5 358.4 11.5 336.7 11.5 315.1 11.5 315.1 54.9z"/></g><g><g id="change3_1"><path d="M358.4,98.2l-21.7,0l0-43.4l21.7,0l21.7,0v43.4L358.4,98.2z M141.6,54.9l-21.7,0v43.4l21.7,0l21.7,0V54.9 L141.6,54.9z M423.4,141.6l-21.7,0V185l-21.7,0l-21.7,0v-43.4l-21.7,0l0-43.4l-21.7,0l-21.7,0l-21.7,0l-21.7,0l0,0.1l0-0.1 l-21.7,0l-21.7,0l-21.7,0l-21.7,0l0,43.4l-21.7,0V185l-21.7,0l-21.7,0l0-43.4l-21.7,0l-21.7,0V185v43.4l0,43.4V315l0,43.4v43.4 v43.4l21.7,0l21.7,0l21.7,0l21.7,0l21.7,0l21.7,0v-43.4l-21.7,0l-21.7,0l-21.7,0l-21.7,0v-43.4V315v-43.3v-43.4l21.7,0l21.7,0 v43.4V315l21.7,0l21.7,0l0,43.4l21.7,0l21.7,0v43.4l21.7,0l21.7,0v-43.4l21.7,0l21.7,0V315l21.7,0l21.7,0l0-43.3v-43.4l21.7,0 l21.7,0v43.4l0,43.3v43.4v43.4l-21.7,0l-21.7,0l-21.7,0l-21.7,0v43.4l21.7,0l21.7,0l21.7,0l21.7,0l21.7,0l21.7,0l0-43.4v-43.4V315 v-43.3v-43.4V185v-43.4L423.4,141.6z" fill="#fb3e01"/></g><g id="change4_1"><path d="M336.8,185l0,43.4l-21.7,0l-21.7,0l0-43.4l21.7,0L336.8,185z M184.9,185l-21.7,0l0,43.4l21.7,0l21.7,0 l0-43.4L184.9,185z" fill="#7304d7"/></g></g></g></svg>